<svg width="2149" height="1823" viewBox="0 0 2149 1823" fill="none" xmlns="http://www.w3.org/2000/svg">
<g opacity="0.3" filter="url(#filter0_f)">
<path d="M868.231 761.396C896.105 757.719 923.485 729.335 951.501 729.083C958.724 729.615 976.11 723.351 987.87 694.048C1016.59 668.83 1033.97 578.321 1068.67 561.522C1094.21 549.155 1124.89 535.985 1153.14 547.445C1174.93 556.281 1190.73 575.806 1203.16 594.965C1221.17 622.719 1234.35 654.075 1240.75 686.572C1261.63 792.512 1223.57 902.993 1175.11 995.899C1116.05 1109.1 1026.1 1200.42 921.201 1272.18C877.941 1301.78 832.533 1327.14 782.801 1344.04C737.012 1359.6 689.266 1370.42 641.351 1376.86C580.356 1385.06 517.017 1384.62 457.794 1366.42C412.751 1352.57 379.278 1321.29 354.491 1281.73C320.603 1227.66 319.331 1162.7 345.815 1104.62C362.149 1068.8 396.323 1031.82 439.429 1037.54C472.312 1041.91 499.675 1065.12 527.023 1081.83C545.3 1092.99 571.388 1108.42 591.687 1093.72C626.023 1068.86 652.276 1030.47 674.924 995.518C703.856 950.87 718.557 900.246 740.755 852.402C753.54 824.847 776.939 804.795 801.555 787.897C821.348 774.31 844.334 764.548 868.231 761.396Z" fill="#7928CA"/>
</g>
<g opacity="0.5" filter="url(#filter1_f)">
<path d="M898.978 673.55C915.69 682.635 941.967 678.008 957.393 689.023C961.133 692.189 973.137 695.684 991.236 684.336C1016.98 681.973 1062.53 639.383 1088.19 644.007C1107.09 647.41 1129.12 652.418 1140.01 669.935C1148.41 683.44 1149.28 700.41 1148.45 715.841C1147.26 738.193 1141.98 760.59 1132.55 780.916C1101.79 847.181 1036.99 892.468 973.494 923.997C896.125 962.414 810.567 976.557 724.612 974.055C689.164 973.024 654.23 968.819 620.297 958.266C589.054 948.549 558.626 935.463 529.852 919.911C493.222 900.113 458.746 874.66 433.598 841.123C414.471 815.616 408.613 785.179 410.799 753.674C413.789 710.603 438.953 674.561 476.561 653.334C499.756 640.241 533.174 633.614 554.475 653.908C570.723 669.389 576.455 692.973 584.764 713.002C590.316 726.387 598.445 745.211 615.401 745.251C644.082 745.319 673.726 734.771 700.029 724.668C733.63 711.761 761.825 689.92 793.015 672.586C810.978 662.602 831.761 660.947 851.954 661.503C868.19 661.95 884.651 665.761 898.978 673.55Z" fill="#7928CA"/>
</g>
<g opacity="0.3" filter="url(#filter2_f)">
<path d="M1598.99 614.412C1605.9 638.241 1632.75 649.713 1636.91 675.322C1637.5 682.212 1645.03 695.162 1670.42 691.845C1694.89 706.07 1770.65 678.431 1789.15 702.205C1802.77 719.707 1817.76 741.536 1812.47 773.006C1808.39 797.27 1794.81 821.188 1781.05 841.839C1761.11 871.752 1737.58 898.957 1712.16 920.496C1629.32 990.712 1534.47 1008.99 1452.39 1009.24C1352.38 1009.55 1265.74 970.927 1192.81 909.159C1162.73 883.686 1135.79 854.2 1115.08 816.666C1096.02 782.109 1080.51 743.472 1068.54 702.568C1053.29 650.497 1044.7 592.115 1051.09 528.95C1055.94 480.908 1076.55 435.095 1105.09 393.272C1144.09 336.095 1196.52 303.63 1247.29 299.971C1278.61 297.715 1313.38 311.282 1314.83 353.632C1315.93 385.939 1301.01 422.248 1291.33 455.417C1284.87 477.583 1276.06 508.976 1290.83 520.537C1315.81 540.094 1350.6 545.711 1382.1 549.672C1422.34 554.732 1465.42 543.843 1507.3 541.18C1531.42 539.646 1550.96 551.475 1568.12 565.942C1581.91 577.575 1593.06 593.983 1598.99 614.412Z" fill="#0070F3"/>
</g>
<defs>
<filter id="filter0_f" x="0.898438" y="171" width="1666.43" height="1651.81" filterUnits="userSpaceOnUse" color-interpolation-filters="sRGB">
<feFlood flood-opacity="0" result="BackgroundImageFix"/>
<feBlend mode="normal" in="SourceGraphic" in2="BackgroundImageFix" result="shape"/>
<feGaussianBlur stdDeviation="125" result="effect1_foregroundBlur"/>
</filter>
<filter id="filter1_f" x="143.898" y="306" width="1285.32" height="965.599" filterUnits="userSpaceOnUse" color-interpolation-filters="sRGB">
<feFlood flood-opacity="0" result="BackgroundImageFix"/>
<feBlend mode="normal" in="SourceGraphic" in2="BackgroundImageFix" result="shape"/>
<feGaussianBlur stdDeviation="125" result="effect1_foregroundBlur"/>
</filter>
<filter id="filter2_f" x="657.898" y="0" width="1491.1" height="1393.09" filterUnits="userSpaceOnUse" color-interpolation-filters="sRGB">
<feFlood flood-opacity="0" result="BackgroundImageFix"/>
<feBlend mode="normal" in="SourceGraphic" in2="BackgroundImageFix" result="shape"/>
<feGaussianBlur stdDeviation="125" result="effect1_foregroundBlur"/>
</filter>
</defs>
</svg>
