<svg fill="none" height="286" viewBox="0 0 422 286" width="422" xmlns="http://www.w3.org/2000/svg" xmlns:xlink="http://www.w3.org/1999/xlink" class="relative -left-[23px] w-[424px]" aria-hidden="true"><linearGradient id="a__mVcDCVMz" gradientUnits="userSpaceOnUse" x1="238.5" x2="198.5" y1="101" y2="269.5"><stop offset="0" stop-color="#47b7f8"></stop><stop offset="1" stop-opacity="0"></stop></linearGradient><linearGradient id="b__mVcDCVMz" gradientUnits="userSpaceOnUse" x1="240.25" x2="240" y1="231.5" y2="248"><stop offset="0" stop-color="#27b648"></stop><stop offset="1" stop-color="#1a1a1a" stop-opacity="0"></stop></linearGradient><linearGradient id="c__mVcDCVMz" gradientUnits="userSpaceOnUse" x1="12" x2="12" y1="90.5" y2="234.5"><stop offset="0" stop-color="#0e73cc"></stop><stop offset=".895833" stop-color="#fcfeff" stop-opacity="0"></stop></linearGradient><linearGradient id="d__mVcDCVMz" gradientUnits="userSpaceOnUse" x1="11.5" x2="11.5" y1="235.5" y2="243.5"><stop offset="0" stop-color="#27b648" stop-opacity=".5"></stop><stop offset="1" stop-color="#fff" stop-opacity="0"></stop></linearGradient><clipPath id="e__mVcDCVMz"><path d="m0 0h422v286h-422z"></path></clipPath><g clip-path="url(#e__mVcDCVMz)"><path d="m24 11c0-6.07512 4.9249-11 11-11h376c6.075 0 11 4.92487 11 11v275h-398z" fill="#fff"></path><circle cx="174" cy="26.5" fill="#47b7f8" r="4"></circle><path d="m190.107 24.5371c-.908 0-1.57.375-1.904 1.0781h-.105v-.9726h-.985v8.5019h1.014v-3.1289h.111c.276.6973.95 1.0899 1.869 1.0899 1.471 0 2.432-1.0606 2.432-2.6895v-1.1836c0-1.6347-.961-2.6953-2.432-2.6953zm-.287.9141c1.049 0 1.717.75 1.717 1.9218v.9141c0 1.1719-.668 1.9277-1.717 1.9277s-1.716-.75-1.716-1.9277v-.9141c0-1.1718.667-1.9218 1.716-1.9218zm4.418-.1934c0 1.5469 1.108 2.6836 2.619 2.6836.534 0 1.131-.2519 1.383-.5918l.088.0469c-.053.0937-.094.1699-.287.4336l-2.303 3.1699h1.184c.064-.0879 1.816-2.5488 1.892-2.6777.832-1.2071 1.172-2.1035 1.172-3.0645 0-1.6875-1.201-2.8887-2.871-2.8887s-2.877 1.2129-2.877 2.8887zm2.871-1.9687c1.067 0 1.875.832 1.875 1.916 0 1.0898-.808 1.9219-1.875 1.9219-1.06 0-1.869-.8321-1.869-1.9219 0-1.084.809-1.916 1.869-1.916zm7.366 7.8808c1.716 0 2.882-1.1601 2.882-2.8711 0-1.664-1.089-2.83-2.654-2.83-.744 0-1.348.2636-1.764.7675h-.093l.234-2.7597h3.809v-.9317h-4.623l-.428 4.7754h.978c.334-.5976.961-.9433 1.717-.9433 1.084 0 1.817.7851 1.817 1.9453 0 1.1484-.727 1.916-1.817 1.916-.99 0-1.746-.6094-1.84-1.4942h-.996c.088 1.4532 1.201 2.4258 2.778 2.4258zm7.488-.1347c.58 0 1.06-.4864 1.06-1.084 0-.5918-.48-1.0782-1.06-1.0782s-1.061.4864-1.061 1.0782c0 .5976.481 1.084 1.061 1.084zm0-4.5c.58 0 1.06-.4922 1.06-1.084s-.48-1.084-1.06-1.084-1.061.4922-1.061 1.084.481 1.084 1.061 1.084z" fill="#a1a1a1"></path><path d="m218.35 27.1387h.978c1.113 0 1.822.5859 1.822 1.5058 0 .9024-.691 1.4707-1.793 1.4707-1.013 0-1.722-.5507-1.804-1.4121h-1.143c.076 1.4942 1.26 2.4727 2.983 2.4727 1.746 0 2.982-1.0254 2.982-2.4844 0-1.1426-.674-1.9219-1.805-2.0684v-.0937c.914-.2109 1.459-.9434 1.459-1.9512 0-1.3008-1.101-2.209-2.677-2.209-1.629 0-2.69.9258-2.778 2.4258h1.137c.076-.8672.68-1.4004 1.6-1.4004.919 0 1.529.5332 1.529 1.3594 0 .832-.633 1.4121-1.547 1.4121h-.943zm5.472-1.8516c0 1.5586 1.096 2.6895 2.608 2.6895.533 0 1.101-.2286 1.371-.5684l.099.041c-.058.1055-.117.1992-.316.4746l-2.25 3.0762h1.389c.105-.1348 1.722-2.3789 1.863-2.5898.832-1.2071 1.178-2.1211 1.178-3.0938 0-1.7285-1.231-2.9473-2.971-2.9473-1.717 0-2.971 1.2364-2.971 2.918zm2.971-1.8691c1.014 0 1.781.7851 1.781 1.8164 0 1.0312-.767 1.8164-1.781 1.8164s-1.781-.7852-1.781-1.8164c0-1.0313.767-1.8164 1.781-1.8164zm7.424 7.6406c.621 0 1.125-.5215 1.125-1.1484 0-.6329-.504-1.1485-1.125-1.1485s-1.125.5156-1.125 1.1485c0 .6269.504 1.1484 1.125 1.1484zm9.14-5.0215c.018.2344.024.4805.024.7383 0 2.2031-.604 3.375-1.74 3.375-.762 0-1.284-.5215-1.547-1.5176zm-3.439 1.459c-.018-.2285-.023-.4688-.023-.7207 0-2.209.603-3.375 1.746-3.375.761 0 1.283.5215 1.541 1.5234zm1.723-5.1387c-1.893 0-2.948 1.5762-2.948 4.418 0 2.8359 1.055 4.4121 2.948 4.4121 1.892 0 2.947-1.5762 2.947-4.4121 0-2.8418-1.055-4.418-2.947-4.418zm10.535 3.8672c0-1.1308-.451-1.7344-1.313-1.7344-.633 0-1.125.3926-1.277 1.0254h-.129c-.135-.6504-.551-1.0254-1.148-1.0254-.61 0-1.061.3868-1.213 1.0489h-.129v-.9258h-1.037v6.3867h1.031v-4.3301c0-.7031.322-1.1367.838-1.1367.486 0 .75.3633.75 1.0488v4.418h1.025v-4.3301c0-.7031.317-1.1367.821-1.1367.48 0 .75.3691.75 1.0547v4.4121h1.031zm1.892.1524c0 .9316.58 1.5175 1.746 1.7812l.956.2168c.773.1758 1.06.416 1.06.8848 0 .5566-.516.914-1.318.914-.774 0-1.301-.3105-1.43-.8554h-1.184c.106 1.125 1.079 1.7988 2.584 1.7988 1.559 0 2.561-.7734 2.561-1.9863 0-.9375-.568-1.4766-1.828-1.7579l-.926-.205c-.744-.1641-1.055-.416-1.055-.8731 0-.5273.487-.8789 1.237-.8789.703 0 1.201.3223 1.306.8438h1.125c-.105-1.1075-1.019-1.7754-2.414-1.7754-1.465 0-2.42.75-2.42 1.8926z" fill="#fafafa"></path><circle cx="59" cy="26.5" fill="#40d763" r="4"></circle><path d="m75.207 23.5137c-.9258 0-1.582.3867-1.8808 1.1133h-.1114v-1.0137h-1.1777v8.5312h1.207v-3.1582h.1114c.2578.7149.9257 1.1192 1.8515 1.1192 1.4707 0 2.4082-1.0489 2.4082-2.7129v-1.166c0-1.6641-.9375-2.7129-2.4082-2.7129zm-.3925 1.0429c.9843 0 1.6113.6914 1.6113 1.7872v.955c0 1.0957-.627 1.793-1.6113 1.793-.9786 0-1.5997-.6914-1.5997-1.793v-.955c0-1.0958.6211-1.7872 1.5997-1.7872zm7.248 5.6133c1.7695 0 2.959-1.1719 2.959-2.9121 0-1.6582-1.0899-2.8125-2.6543-2.8125-.7559 0-1.3711.2695-1.7695.7793h-.0997l.2227-2.6191h3.8145v-1.0606h-4.7813l-.416 4.8047h1.1601c.3223-.5742.9024-.8965 1.6172-.8965 1.0313 0 1.7286.7442 1.7286 1.834 0 1.0899-.6915 1.8164-1.7286 1.8164-.9316 0-1.6347-.5683-1.7343-1.3945h-1.1719c.0703 1.4648 1.2246 2.4609 2.8535 2.4609zm9.2051-5.1328c.0176.2344.0234.4805.0234.7383 0 2.2031-.6035 3.375-1.7402 3.375-.7617 0-1.2832-.5215-1.5469-1.5176zm-3.4395 1.459c-.0176-.2285-.0234-.4688-.0234-.7207 0-2.209.6035-3.375 1.7461-3.375.7617 0 1.2832.5215 1.541 1.5234zm1.7227-5.1387c-1.8926 0-2.9473 1.5762-2.9473 4.418 0 2.8359 1.0547 4.4121 2.9473 4.4121s2.9472-1.5762 2.9472-4.4121c0-2.8418-1.0546-4.418-2.9472-4.418zm7.4121 8.7012c.6211 0 1.125-.5215 1.125-1.1484 0-.6329-.5039-1.1485-1.125-1.1485-.6152 0-1.125.5156-1.125 1.1485 0 .6269.5098 1.1484 1.125 1.1484zm0-4.4883c.6211 0 1.125-.5156 1.125-1.1426 0-.6328-.5039-1.1484-1.125-1.1484-.6152 0-1.125.5156-1.125 1.1484 0 .627.5098 1.1426 1.125 1.1426z" fill="#a1a1a1"></path><path d="m105.283 28.9629v-7.418h-1.195l-2.449 1.6055v1.2305l2.349-1.5293h.094v6.1113h-2.426v1.0371h5.942v-1.0371zm6.516 1.0957c.621 0 1.125-.5215 1.125-1.1484 0-.6329-.504-1.1485-1.125-1.1485s-1.125.5156-1.125 1.1485c0 .6269.504 1.1484 1.125 1.1484zm9.14-5.0215c.018.2344.024.4805.024.7383 0 2.2031-.604 3.375-1.74 3.375-.762 0-1.284-.5215-1.547-1.5176zm-3.439 1.459c-.018-.2285-.023-.4688-.023-.7207 0-2.209.603-3.375 1.746-3.375.761 0 1.283.5215 1.541 1.5234zm1.723-5.1387c-1.893 0-2.948 1.5762-2.948 4.418 0 2.8359 1.055 4.4121 2.948 4.4121 1.892 0 2.947-1.5762 2.947-4.4121 0-2.8418-1.055-4.418-2.947-4.418zm17.953 3.8672c0-1.1308-.451-1.7344-1.313-1.7344-.633 0-1.125.3926-1.277 1.0254h-.129c-.135-.6504-.551-1.0254-1.148-1.0254-.61 0-1.061.3868-1.213 1.0489h-.129v-.9258h-1.037v6.3867h1.031v-4.3301c0-.7031.322-1.1367.838-1.1367.486 0 .75.3633.75 1.0488v4.418h1.025v-4.3301c0-.7031.317-1.1367.821-1.1367.48 0 .75.3691.75 1.0547v4.4121h1.031zm1.892.1524c0 .9316.58 1.5175 1.746 1.7812l.956.2168c.773.1758 1.06.416 1.06.8848 0 .5566-.516.914-1.318.914-.774 0-1.301-.3105-1.43-.8554h-1.184c.106 1.125 1.079 1.7988 2.584 1.7988 1.559 0 2.561-.7734 2.561-1.9863 0-.9375-.568-1.4766-1.828-1.7579l-.926-.205c-.744-.1641-1.055-.416-1.055-.8731 0-.5273.487-.8789 1.237-.8789.703 0 1.201.3223 1.306.8438h1.125c-.105-1.1075-1.019-1.7754-2.414-1.7754-1.465 0-2.42.75-2.42 1.8926z" fill="#fafafa"></path><path d="m34.4205 67.0795c1.1079 0 1.9204-.8181 1.9204-1.9318 0-1.1278-.7841-1.9545-1.8523-1.9545-.392 0-.7727.1392-1.0113.3295h-.0341l.2045-1.7159h2.4318v-.625h-3.0227l-.3523 2.8637.6591.0795c.2415-.1733.6534-.2983 1.0114-.2955.7415.0057 1.2841.5682 1.2841 1.3296 0 .7471-.5227 1.2954-1.2386 1.2954-.5966 0-1.0711-.3835-1.125-.909h-.6819c.0426.8863.8069 1.534 1.8069 1.534zm4.9467 0c1.2841 0 2.0227-1.088 2.0227-2.9886 0-1.8864-.75-2.9886-2.0227-2.9886s-2.0227 1.1022-2.0227 2.9886c0 1.9006.7386 2.9886 2.0227 2.9886zm0-.625c-.8466 0-1.3409-.8494-1.3409-2.3636 0-1.5114.5-2.375 1.3409-2.375s1.3409.8636 1.3409 2.375c0 1.5142-.4943 2.3636-1.3409 2.3636zm3.3991.591c.2813 0 .5114-.2302.5114-.5114 0-.2813-.2301-.5114-.5114-.5114-.2812 0-.5113.2301-.5113.5114 0 .2812.2301.5114.5113.5114zm3.3978.034c1.2841 0 2.0227-1.088 2.0227-2.9886 0-1.8864-.75-2.9886-2.0227-2.9886-1.2728 0-2.0228 1.1022-2.0228 2.9886 0 1.9006.7387 2.9886 2.0228 2.9886zm0-.625c-.8466 0-1.3409-.8494-1.3409-2.3636 0-1.5114.5-2.375 1.3409-2.375s1.3409.8636 1.3409 2.375c0 1.5142-.4943 2.3636-1.3409 2.3636z" fill="#a1a1a1"></path><path d="m40.5 249.08c1.2841 0 2.0227-1.089 2.0227-2.989 0-1.886-.75-2.989-2.0227-2.989s-2.0227 1.103-2.0227 2.989c0 1.9.7386 2.989 2.0227 2.989zm0-.625c-.8466 0-1.3409-.85-1.3409-2.364 0-1.511.5-2.375 1.3409-2.375s1.3409.864 1.3409 2.375c0 1.514-.4943 2.364-1.3409 2.364zm3.3991.59c.2813 0 .5114-.23.5114-.511s-.2301-.511-.5114-.511c-.2812 0-.5113.23-.5113.511s.2301.511.5113.511zm3.3978.035c1.2841 0 2.0227-1.089 2.0227-2.989 0-1.886-.75-2.989-2.0227-2.989-1.2728 0-2.0228 1.103-2.0228 2.989 0 1.9.7387 2.989 2.0228 2.989zm0-.625c-.8466 0-1.3409-.85-1.3409-2.364 0-1.511.5-2.375 1.3409-2.375s1.3409.864 1.3409 2.375c0 1.514-.4943 2.364-1.3409 2.364z" fill="#a1a1a1"></path><g fill="#616161"><path d="m82.2102 266.099c1.4098 0 2.4574-.884 2.4574-2.073 0-.924-.5469-1.595-1.4631-1.748v-.056c.7351-.224 1.1932-.828 1.1932-1.648 0-1.03-.8132-1.946-2.1591-1.946-1.2571 0-2.3011.774-2.3437 1.917h.8523c.0319-.724.7208-1.15 1.4772-1.15.8026 0 1.3211.486 1.3211 1.221 0 .768-.6002 1.265-1.4631 1.265h-.5824v.781h.5824c1.1044 0 1.7187.561 1.7187 1.364 0 .77-.6711 1.292-1.6051 1.292-.8416 0-1.5092-.433-1.5625-1.136h-.8949c.0533 1.143 1.0618 1.917 2.4716 1.917zm3.9098-.099h4.5881v-.781h-3.3807v-.057l1.6335-1.747c1.25-1.339 1.6194-1.964 1.6194-2.77 0-1.122-.9091-2.017-2.1875-2.017-1.2749 0-2.2444.866-2.2444 2.145h.8381c0-.828.5362-1.378 1.3778-1.378.7884 0 1.3921.483 1.3921 1.25 0 .671-.3942 1.168-1.2358 2.088l-2.4006 2.628zm6.907-3.281c0-.952.6072-1.492 1.4346-1.492.7884 0 1.2643.497 1.2643 1.364v3.409h.838v-3.466c0-1.403-.7457-2.06-1.8608-2.06-.8593 0-1.3494.359-1.6051.924h-.071v-2.671h-.8381v7.273h.8381z"></path><path d="m138.753 266h4.588v-.781h-3.381v-.057l1.634-1.747c1.25-1.339 1.619-1.964 1.619-2.77 0-1.122-.909-2.017-2.187-2.017-1.275 0-2.245.866-2.245 2.145h.838c0-.828.537-1.378 1.378-1.378.789 0 1.392.483 1.392 1.25 0 .671-.394 1.168-1.236 2.088l-2.4 2.628zm8.469.099c1.47.018 2.429-1.09 2.429-2.443 0-1.406-1.04-2.415-2.287-2.415-.749 0-1.392.366-1.789.966h-.057c.003-1.772.692-2.798 1.818-2.798.767 0 1.229.483 1.392 1.136h.866c-.177-1.129-1.036-1.917-2.258-1.917-1.637 0-2.642 1.449-2.642 4.02 0 2.688 1.335 3.437 2.528 3.451zm0-.781c-.912 0-1.58-.778-1.576-1.648.003-.87.703-1.647 1.605-1.647.891 0 1.548.731 1.548 1.633 0 .924-.685 1.662-1.577 1.662zm4.678-2.599c0-.952.607-1.492 1.435-1.492.788 0 1.264.497 1.264 1.364v3.409h.838v-3.466c0-1.403-.746-2.06-1.861-2.06-.859 0-1.349.359-1.605.924h-.071v-2.671h-.838v7.273h.838z"></path><path d="m197.753 266h4.588v-.781h-3.381v-.057l1.634-1.747c1.25-1.339 1.619-1.964 1.619-2.77 0-1.122-.909-2.017-2.187-2.017-1.275 0-2.245.866-2.245 2.145h.838c0-.828.537-1.378 1.378-1.378.789 0 1.392.483 1.392 1.25 0 .671-.394 1.168-1.236 2.088l-2.4 2.628zm8.427.099c1.605 0 2.528-1.36 2.528-3.735 0-2.358-.937-3.736-2.528-3.736s-2.529 1.378-2.529 3.736c0 2.375.924 3.735 2.529 3.735zm0-.781c-1.059 0-1.676-1.062-1.676-2.954 0-1.89.625-2.969 1.676-2.969s1.676 1.079 1.676 2.969c0 1.892-.618 2.954-1.676 2.954zm4.73-2.599c0-.952.607-1.492 1.434-1.492.789 0 1.265.497 1.265 1.364v3.409h.838v-3.466c0-1.403-.746-2.06-1.861-2.06-.859 0-1.349.359-1.605.924h-.071v-2.671h-.838v7.273h.838z"></path><path d="m259.31 258.727h-.881l-1.818 1.208v.895l1.775-1.179h.043v6.349h.881zm1.921 5.782h3.423v1.491h.838v-1.491h.995v-.782h-.995v-5h-1.065l-3.196 5.057zm3.423-.782h-2.471v-.057l2.414-3.821h.057zm4.016-1.008c0-.952.607-1.492 1.434-1.492.789 0 1.264.497 1.264 1.364v3.409h.838v-3.466c0-1.403-.745-2.06-1.86-2.06-.86 0-1.35.359-1.605.924h-.071v-2.671h-.839v7.273h.839z"></path><path d="m316.082 266.099c1.453 0 2.465-.848 2.472-2.031-.007-.92-.621-1.701-1.406-1.846v-.043c.682-.178 1.129-.845 1.136-1.619-.007-1.108-.937-1.932-2.202-1.932-1.278 0-2.208.824-2.201 1.932-.007.774.44 1.441 1.136 1.619v.043c-.799.145-1.413.926-1.406 1.846-.007 1.183 1.005 2.031 2.471 2.031zm0-.781c-.997 0-1.612-.511-1.605-1.292-.007-.821.671-1.407 1.605-1.407.92 0 1.598.586 1.606 1.407-.008.781-.622 1.292-1.606 1.292zm0-3.452c-.795 0-1.356-.497-1.349-1.25-.007-.738.533-1.221 1.349-1.221.803 0 1.343.483 1.35 1.221-.007.753-.568 1.25-1.35 1.25zm4.685.853c0-.952.607-1.492 1.435-1.492.788 0 1.264.497 1.264 1.364v3.409h.838v-3.466c0-1.403-.746-2.06-1.861-2.06-.859 0-1.349.359-1.605.924h-.071v-2.671h-.838v7.273h.838z"></path><path d="m366.753 266h4.588v-.781h-3.381v-.057l1.634-1.747c1.25-1.339 1.619-1.964 1.619-2.77 0-1.122-.909-2.017-2.187-2.017-1.275 0-2.245.866-2.245 2.145h.838c0-.828.537-1.378 1.378-1.378.789 0 1.392.483 1.392 1.25 0 .671-.394 1.168-1.236 2.088l-2.4 2.628zm6.907-3.281c0-.952.607-1.492 1.434-1.492.789 0 1.265.497 1.265 1.364v3.409h.838v-3.466c0-1.403-.746-2.06-1.861-2.06-.859 0-1.349.359-1.605.924h-.071v-2.671h-.838v7.273h.838z"></path></g><path d="m56 64h366" stroke="#414141" stroke-dasharray="4.16 4.16"></path><rect fill="#27124a" height="17.0001" rx="8.50007" width="25.0001" x="71.4999" y="53.4999"></rect><path d="m81.7841 65h.5682l.2642-1.6136h.8608l.0909-.5682h-.858l.2387-1.4546h.8693l.0909-.5681h-.8665l.2642-1.6137h-.5682l-.2642 1.6137h-1.4772l.2642-1.6137h-.5682l-.2642 1.6137h-.8608l-.0909.5681h.8579l-.2386 1.4546h-.8693l-.0909.5682h.8664l-.2642 1.6136h.5682l.2642-1.6136h1.4773zm-1.1193-2.1818.2386-1.4546h1.4773l-.2387 1.4546zm5.8025 2.2613c1.108 0 1.9205-.8181 1.9205-1.9318 0-1.1278-.7841-1.9545-1.8523-1.9545-.392 0-.7727.1392-1.0114.3295h-.034l.2045-1.7159h2.4318v-.625h-3.0227l-.3523 2.8637.6591.0795c.2415-.1733.6534-.2983 1.0114-.2955.7415.0057 1.2841.5682 1.2841 1.3296 0 .7471-.5228 1.2954-1.2387 1.2954-.5966 0-1.071-.3835-1.125-.909h-.6818c.0426.8863.8068 1.534 1.8068 1.534z" fill="#a18bf5"></path><rect height="17.0001" rx="8.50007" stroke="#3e1f75" stroke-width=".999858" width="25.0001" x="71.4999" y="53.4999"></rect><rect fill="#27124a" height="17.0001" rx="8.50007" width="25.0001" x="144.5" y="53.4999"></rect><path d="m154.784 65h.568l.264-1.6136h.861l.091-.5682h-.858l.239-1.4546h.869l.091-.5681h-.866l.264-1.6137h-.568l-.265 1.6137h-1.477l.264-1.6137h-.568l-.264 1.6137h-.861l-.091.5681h.858l-.238 1.4546h-.87l-.091.5682h.867l-.264 1.6136h.568l.264-1.6136h1.477zm-1.119-2.1818.238-1.4546h1.478l-.239 1.4546zm4.166 2.1818h.739l2.591-5.1591v-.6591h-3.728v.625h3v.0455z" fill="#a18bf5"></path><rect height="17.0001" rx="8.50007" stroke="#3e1f75" stroke-width=".999858" width="25.0001" x="144.5" y="53.4999"></rect><rect fill="#27124a" height="17.0001" rx="8.50007" width="25.0001" x="335.5" y="53.4999"></rect><path d="m345.784 65h.568l.264-1.6136h.861l.091-.5682h-.858l.239-1.4546h.869l.091-.5681h-.866l.264-1.6137h-.568l-.265 1.6137h-1.477l.264-1.6137h-.568l-.264 1.6137h-.861l-.091.5681h.858l-.238 1.4546h-.87l-.091.5682h.867l-.264 1.6136h.568l.264-1.6136h1.477zm-1.119-2.1818.238-1.4546h1.478l-.239 1.4546zm3.848-1.8523c0 1.0796.784 1.875 1.841 1.875.147 0 .295-.0341.432-.0795l-1.535 2.2386h.773l1.307-1.9318c.636-.9432.83-1.5.841-2.0455.011-1.1136-.761-1.9204-1.83-1.9204-1.056 0-1.829.7841-1.829 1.8636zm.67 0c0-.7273.478-1.25 1.159-1.25.682 0 1.159.5227 1.159 1.2614 0 .7272-.477 1.2386-1.159 1.2386-.681 0-1.159-.5114-1.159-1.25z" fill="#a18bf5"></path><rect height="17.0001" rx="8.50007" stroke="#3e1f75" stroke-width=".999858" width="25.0001" x="335.5" y="53.4999"></rect><rect fill="#27124a" height="17.0001" rx="8.50007" width="29.0001" x="374.5" y="53.4999"></rect><path d="m384.784 65h.568l.264-1.6136h.861l.091-.5682h-.858l.239-1.4546h.869l.091-.5681h-.866l.264-1.6137h-.568l-.265 1.6137h-1.477l.264-1.6137h-.568l-.264 1.6137h-.861l-.091.5681h.858l-.238 1.4546h-.87l-.091.5682h.867l-.264 1.6136h.568l.264-1.6136h1.477zm-1.119-2.1818.238-1.4546h1.478l-.239 1.4546zm6.03-3.6364h-.705l-1.454.9659v.7159l1.42-.9431h.034v5.0795h.705zm3.571 5.8977c1.284 0 2.022-1.088 2.022-2.9886 0-1.8864-.75-2.9886-2.022-2.9886-1.273 0-2.023 1.1022-2.023 2.9886 0 1.9006.739 2.9886 2.023 2.9886zm0-.625c-.847 0-1.341-.8494-1.341-2.3636 0-1.5114.5-2.375 1.341-2.375s1.341.8636 1.341 2.375c0 1.5142-.495 2.3636-1.341 2.3636z" fill="#a18bf5"></path><rect height="17.0001" rx="8.50007" stroke="#3e1f75" stroke-width=".999858" width="29.0001" x="374.5" y="53.4999"></rect><path d="m56 150h366" stroke="#414141" stroke-dasharray="4.16 4.16"></path><rect fill="#27124a" height="17.0001" rx="8.50007" width="25.0001" x="297.5" y="53.4999"></rect><path d="m307.784 65h.568l.264-1.6136h.861l.091-.5682h-.858l.239-1.4546h.869l.091-.5681h-.866l.264-1.6137h-.568l-.265 1.6137h-1.477l.264-1.6137h-.568l-.264 1.6137h-.861l-.091.5681h.858l-.238 1.4546h-.87l-.091.5682h.867l-.264 1.6136h.568l.264-1.6136h1.477zm-1.119-2.1818.238-1.4546h1.478l-.239 1.4546zm5.848 2.2613c1.162 0 1.971-.6789 1.977-1.625-.006-.7357-.497-1.3607-1.125-1.4772v-.0341c.546-.1421.903-.6762.909-1.2955-.006-.8863-.75-1.5454-1.761-1.5454-1.023 0-1.767.6591-1.762 1.5454-.005.6193.353 1.1534.91 1.2955v.0341c-.64.1165-1.131.7415-1.125 1.4772-.006.9461.803 1.625 1.977 1.625zm0-.625c-.799 0-1.29-.409-1.284-1.034-.006-.6563.537-1.125 1.284-1.125.736 0 1.278.4687 1.284 1.125-.006.625-.497 1.034-1.284 1.034zm0-2.7613c-.637 0-1.085-.3977-1.08-1-.005-.5909.426-.9773 1.08-.9773.642 0 1.074.3864 1.079.9773-.005.6023-.454 1-1.079 1z" fill="#a18bf5"></path><rect height="17.0001" rx="8.50007" stroke="#3e1f75" stroke-width=".999858" width="25.0001" x="297.5" y="53.4999"></rect><rect fill="#27124a" height="17.0001" rx="8.50007" width="25.0001" x="108.5" y="53.4999"></rect><path d="m118.784 65h.568l.264-1.6136h.861l.091-.5682h-.858l.239-1.4546h.869l.091-.5681h-.866l.264-1.6137h-.568l-.265 1.6137h-1.477l.264-1.6137h-.568l-.264 1.6137h-.861l-.091.5681h.858l-.238 1.4546h-.87l-.091.5682h.867l-.264 1.6136h.568l.264-1.6136h1.477zm-1.119-2.1818.238-1.4546h1.478l-.239 1.4546zm3.848.3409c-.012 1.1136.761 1.9204 1.829 1.9204 1.057 0 1.83-.784 1.83-1.8636 0-1.0795-.784-1.875-1.841-1.875-.148 0-.295.0341-.432.0796l1.534-2.2387h-.772l-1.307 1.9318c-.637.9432-.83 1.5-.841 2.0455zm.67.0454c0-.7272.478-1.2386 1.159-1.2386.682 0 1.159.5114 1.159 1.25 0 .7273-.477 1.25-1.159 1.25-.681 0-1.159-.5227-1.159-1.2614z" fill="#a18bf5"></path><rect height="17.0001" rx="8.50007" stroke="#3e1f75" stroke-width=".999858" width="25.0001" x="108.5" y="53.4999"></rect><path d="m56 96h366" stroke="#414141" stroke-dasharray="4.16 4.16"></path><path d="m88 101-31.5-2.5-27 2.5-6.5-2.5v143.5h399v-30l-46-9.5-33.5 5-32.5 21-25.5 6.5h-23l-32.5-6.5-18-18-23.5 4-25.5-125.5-32 9.5z" fill="url(#a__mVcDCVMz)" opacity=".8"></path><path d="m421.5 212-45.5-9.5-33.5 5-32.5 21-25.5 6.5h-23l-32.5-6.5-18-18-23.5 4-25.5-125.5-32 9.5-42 2.5-31.5-2.5-27 2.5-29-10.5" stroke="#47b7f8" stroke-linecap="round"></path><path d="m84 74v169" stroke="#a18bf5" stroke-dasharray="4.16 4.16"></path><path d="m121 74v169" stroke="#a18bf5" stroke-dasharray="4.16 4.16"></path><path d="m157 74v169" stroke="#a18bf5" stroke-dasharray="4.16 4.16"></path><path d="m310 74v169" stroke="#a18bf5" stroke-dasharray="4.16 4.16"></path><path d="m348 74v169" stroke="#a18bf5" stroke-dasharray="4.16 4.16"></path><path d="m389 74v169" stroke="#a18bf5" stroke-dasharray="4.16 4.16"></path><path d="m56 246h366" stroke="#414141"></path><path d="m161 235.5h-138v10h399v-5h-190l-25-7.5-16 6.5-10.5-8z" fill="url(#b__mVcDCVMz)" opacity=".8"></path><path d="m.5 235c-.276142 0-.5.224-.5.5s.223858.5.5.5zm160.5.5v.5h.051l.049-.01zm19.5-4 .303-.398-.181-.137-.222.045zm10.5 8-.303.398.227.173.264-.108zm16-6.5.144-.479-.169-.051-.163.067zm25 7.5-.144.479.071.021h.073zm-231.5-4.5h160.5v-1h-160.5zm160.6-.01 19.5-4-.2-.98-19.5 4zm19.097-4.092 10.5 8 .606-.796-10.5-8zm10.991 8.065 16-6.5-.376-.926-16 6.5zm15.668-6.484 25 7.5.288-.958-25-7.5zm25.144 7.521h190v-1h-190z" fill="#27b648"></path><path d="m23.5 98.875-23.5-8.375v144h23.5z" fill="url(#c__mVcDCVMz)"></path><path d="m0 235.5h23v8h-23z" fill="url(#d__mVcDCVMz)"></path><path d="m29.5 101-29-10.5" stroke="#47b7f8" stroke-linecap="round"></path></g></svg>