<?xml version="1.0" encoding="utf-8"?>
<!-- Generator: Adobe Illustrator 26.3.1, SVG Export Plug-In . SVG Version: 6.00 Build 0)  -->
<svg version="1.1" id="Layer_1" focusable="false" xmlns="http://www.w3.org/2000/svg" xmlns:xlink="http://www.w3.org/1999/xlink"
	 x="0px" y="0px" viewBox="0 0 58 23" style="enable-background:new 0 0 58 23;" xml:space="preserve">
<style type="text/css">
	.st0{fill-rule:evenodd;clip-rule:evenodd;fill:#FFFFFF;}
</style>
<g id="Page-1">
	<g id="ibm-8-bar-logo--h15-copy">
		<path id="Combined-Shape" class="st0" d="M58,21.5V23h-7.6v-1.5H58z M39.7,21.5V23h-7.6v-1.5H39.7z M45.6,21.5L45,23l-0.6-1.5
			H45.6z M28.5,21.5c-1.1,1-2.5,1.5-4.2,1.5l0,0H12.2v-1.5H28.5z M10.7,21.5V23H0v-1.5H10.7z M39.7,18.4v1.5h-7.6v-1.5H39.7z
			 M46.8,18.4l-0.6,1.5h-2.4l-0.6-1.5H46.8z M30.1,18.4c-0.1,0.5-0.4,1.1-0.6,1.5l0,0H12.2v-1.5H30.1z M10.7,18.4v1.5H0v-1.5H10.7z
			 M58,18.4v1.5h-7.6v-1.5H58z M54.9,15.3v1.5h-4.6v-1.5H54.9z M39.7,15.3v1.5h-4.6v-1.5H39.7z M48,15.3l-0.6,1.5h-4.8L42,15.3H48z
			 M29.9,15.3c0.1,0.5,0.2,1,0.2,1.5l0,0h-5.6v-1.5H29.9z M19.8,15.3v1.5h-4.6v-1.5H19.8z M7.6,15.3v1.5H3.1v-1.5H7.6z M54.9,12.3
			v1.5h-4.6v-1.5H54.9z M39.7,12.3v1.5h-4.6v-1.5H39.7z M49.2,12.3l-0.6,1.5h-7.2l-0.6-1.5H49.2z M28,12.3c0.5,0.4,1,1,1.3,1.5l0,0
			h-14v-1.5H28z M7.6,12.3v1.5H3.1v-1.5H7.6z M44.6,9.2l0.4,1.2l0.4-1.2h9.5v1.5h-4.6V9.3l-0.5,1.4h-9.7l-0.5-1.4v1.4h-4.6V9.2H44.6
			z M7.6,9.2v1.5H3.1V9.2H7.6z M29.3,9.2c-0.3,0.6-0.8,1.1-1.3,1.5l0,0H15.3V9.2H29.3z M54.9,6.1v1.5h-9l0.5-1.5H54.9z M43.5,6.1
			l0.5,1.5h-9V6.1H43.5z M30.1,6.1c0,0.5-0.1,1-0.2,1.5l0,0h-5.4V6.1H30.1z M19.8,6.1v1.5h-4.6V6.1H19.8z M7.6,6.1v1.5H3.1V6.1H7.6z
			 M42.5,3.1L43,4.6h-11l0-1.5H42.5z M58,3.1v1.5H47l0.6-1.5H58z M29.4,3.1c0.3,0.5,0.5,1,0.6,1.5l0,0H12.2V3.1H29.4z M10.7,3.1v1.5
			H0V3.1H10.7z M41.4,0l0.5,1.5h-9.9l0-1.5H41.4z M58,0v1.5h-9.9L48.6,0H58z M24.4,0c1.6,0,3.1,0.6,4.2,1.5l0,0H12.2V0H24.4z
			 M10.7,0v1.5H0V0H10.7z"/>
	</g>
</g>
</svg>
