<?xml version="1.0" encoding="utf-8"?>
<!-- Generator: Adobe Illustrator 26.3.1, SVG Export Plug-In . SVG Version: 6.00 Build 0)  -->
<svg version="1.1" id="Layer_1" xmlns="http://www.w3.org/2000/svg" xmlns:xlink="http://www.w3.org/1999/xlink" x="0px" y="0px"
	 viewBox="0 0 289 134" style="enable-background:new 0 0 289 134;" xml:space="preserve">
<style type="text/css">
	.st0{fill:#FFFFFF;}
</style>
<g>
	<path class="st0" d="M40.1,15.2h13.2c7.4,0,11.4,4.2,11.4,10.5c0,5-2.5,8.3-6.3,9.2v0.2c4.2,0.3,7.9,4.3,7.9,10.2
		c0,6.2-4.1,10.6-11.9,10.6H40.1V15.2z M54.2,34.1c5.2,0,8.2-3.7,8.2-8.4c0-5.1-3.3-8.2-9-8.2H42.6v16.6H54.2z M54.4,53.6
		c6.1,0,9.5-3.4,9.5-8.3c0-5.1-3.9-9-9.5-9H42.6v17.2H54.4z"/>
	<path class="st0" d="M89.9,25.4h2.4v30.5h-2.4v-5h-0.2c-1.4,3.1-4.8,5.3-9.1,5.3c-6,0-10.2-4.1-10.2-10.8V25.4h2.4v20
		c0,5.1,3.4,8.5,8.3,8.5c4.8,0,8.8-3.4,8.8-8.9V25.4z"/>
	<path class="st0" d="M95.8,40.8c0-9.1,5.4-15.8,13.1-15.8c5.8,0,10.4,3.8,11.3,9.4h-2.5c-0.8-4.1-4.2-7.2-8.8-7.2
		c-6.2,0-10.7,5.6-10.7,13.5c0,7.8,4.4,13.6,10.7,13.6c4.5,0,8.1-2.9,8.9-7.3h2.5c-0.9,5.6-5.4,9.5-11.3,9.5
		C101.1,56.6,95.8,49.8,95.8,40.8z"/>
	<path class="st0" d="M126,55.9h-2.4V15.2h2.4v15h0.2c1.4-3.2,4.7-5.2,9.1-5.2c6.2,0,10.4,4.1,10.4,10.8v20.1h-2.4v-20
		c0-5.2-3.4-8.6-8.5-8.6c-5.1,0-8.9,3.6-8.9,8.9V55.9z"/>
	<path class="st0" d="M149.3,47.5c0-5.1,3.5-7.7,11.7-8.7c4.7-0.6,8.1-0.8,8.1-3.1v-1.3c0-4.4-3-7.3-7.9-7.3c-4.4,0-7.5,2.1-8.6,5.1
		l-2.3-0.9c1.7-4.4,6.2-6.5,10.9-6.5c5.4,0,10.4,3,10.4,9.7v21.3H169v-5.5h-0.2c-1.6,3.4-5,6.2-9.9,6.2
		C153.7,56.6,149.3,53.3,149.3,47.5z M169,43.6v-4.5c-1.3,1.1-4.9,1.6-7.8,1.9c-6.7,0.8-9.5,2.8-9.5,6.6c0,4.2,3.2,6.7,7.5,6.7
		C165,54.4,169,49.8,169,43.6z"/>
	<path class="st0" d="M179.1,55.9h-2.4V25.4h2.4v4.8h0.2c1.4-3.2,4.7-5.2,9.1-5.2c6.1,0,10.4,4.1,10.4,10.8v20.1h-2.4v-20
		c0-5.2-3.4-8.6-8.4-8.6c-5.1,0-8.8,3.6-8.8,8.9V55.9z"/>
	<path class="st0" d="M202.3,47.5c0-5.1,3.5-7.7,11.7-8.7c4.7-0.6,8.1-0.8,8.1-3.1v-1.3c0-4.4-3-7.3-7.9-7.3c-4.4,0-7.5,2.1-8.6,5.1
		l-2.3-0.9c1.7-4.4,6.2-6.5,10.9-6.5c5.4,0,10.4,3,10.4,9.7v21.3H222v-5.5h-0.2c-1.6,3.4-5,6.2-9.9,6.2
		C206.7,56.6,202.3,53.3,202.3,47.5z M222,43.6v-4.5c-1.3,1.1-4.9,1.6-7.8,1.9c-6.7,0.8-9.5,2.8-9.5,6.6c0,4.2,3.2,6.7,7.5,6.7
		C218,54.4,222,49.8,222,43.6z"/>
	<path class="st0" d="M232.1,55.9h-2.4V25.4h2.4v4.8h0.2c1.4-3.2,4.7-5.2,9.1-5.2c6.1,0,10.4,4.1,10.4,10.8v20.1h-2.4v-20
		c0-5.2-3.4-8.6-8.4-8.6c-5.1,0-8.8,3.6-8.8,8.9V55.9z"/>
	<path class="st0" d="M52.6,110.9V70.2h13.1c11.8,0,18.8,7.6,18.8,20.3c0,12.7-7,20.4-19.4,20.4H52.6z M64.8,106.6
		c10.1,0,15-6.1,15-16.1c0-9.9-4.9-15.9-14.4-15.9h-7.9v32H64.8z"/>
	<path class="st0" d="M88,95.9c0-9.4,5.5-15.9,13.8-15.9c6.4,0,13.1,3.9,13.1,15.3v2H92.7c0.2,6.5,4,10.1,9.5,10.1
		c3.7,0,6.4-1.6,7.6-4.8l4.5,1.3c-1.4,4.6-6,7.7-12.2,7.7C93.4,111.6,88,105.3,88,95.9z M110.1,93.2c0-5.2-3.3-9-8.4-9
		c-5.4,0-8.7,4.2-9,9H110.1z"/>
	<path class="st0" d="M131.9,110.9h-4.8l-11.3-30.5h5.1l8.4,24.3h0.3l8.4-24.3h5.1L131.9,110.9z"/>
	<path class="st0" d="M163.6,111.5c-10.4,0-18-8-18-20.9s7.6-20.9,18-20.9c10.4,0,18,8,18,20.9S174.1,111.5,163.6,111.5z
		 M163.6,74.3c-7.4,0-13.2,5.7-13.2,16.3s5.8,16.3,13.2,16.3c7.4,0,13.2-5.7,13.2-16.3S171,74.3,163.6,74.3z"/>
	<path class="st0" d="M186.5,80.4h4.5v4.9h0.6c1-1.6,2.9-5.2,8.8-5.2c7.7,0,13,6.1,13,15.7c0,9.7-5.3,15.8-13,15.8
		c-5.9,0-7.9-3.7-8.9-5.3h-0.4v16.1h-4.7V80.4z M199.8,107.4c5.9,0,8.9-5.2,8.9-11.7c0-6.4-2.9-11.5-8.9-11.5
		c-5.7,0-8.7,4.6-8.7,11.5C191.1,102.6,194.2,107.4,199.8,107.4z"/>
	<path class="st0" d="M235.2,88.4c-0.8-2.1-2.5-4.4-6.6-4.4c-3.7,0-6.5,1.9-6.5,4.5c0,2.3,1.6,3.6,5.2,4.5l4.5,1.1
		c5.4,1.3,8.1,4,8.1,8.3c0,5.3-4.8,9.1-11.9,9.1c-6.2,0-10.5-2.8-11.6-8l4.5-1.1c0.8,3.3,3.2,4.9,7.1,4.9c4.4,0,7.2-2.1,7.2-4.8
		c0-2.1-1.5-3.6-4.5-4.3l-5.1-1.2c-5.6-1.3-8.1-4.1-8.1-8.4c0-5.2,4.8-8.8,11.2-8.8c6,0,9.3,2.9,10.8,7.2L235.2,88.4z"/>
</g>
</svg>
