<svg width="309" height="35" viewBox="0 0 309 35" fill="none" xmlns="http://www.w3.org/2000/svg">
<path d="M0.477273 27V0.818181H9.31108C11.0156 0.818181 12.4347 1.11648 13.5682 1.71307C14.7102 2.30966 15.5668 3.12358 16.1378 4.15483C16.7088 5.18608 16.9943 6.35795 16.9943 7.67045C16.9943 8.76136 16.8111 9.6946 16.4446 10.4702C16.0781 11.2457 15.5795 11.8722 14.9489 12.3494C14.3182 12.8267 13.6151 13.1719 12.8395 13.3849V13.5895C13.6832 13.6491 14.5014 13.9474 15.294 14.4844C16.0866 15.0128 16.7386 15.7543 17.25 16.7088C17.7614 17.6634 18.017 18.8054 18.017 20.1349C18.017 21.456 17.723 22.6364 17.1349 23.6761C16.5469 24.7074 15.6435 25.5213 14.4247 26.1179C13.2145 26.706 11.6719 27 9.79688 27H0.477273ZM2.8679 24.8523H9.79688C11.8168 24.8523 13.3082 24.4048 14.2713 23.5099C15.2429 22.6151 15.7287 21.4901 15.7287 20.1349C15.7287 19.1378 15.4858 18.2344 15 17.4247C14.5227 16.6065 13.8452 15.9588 12.9673 15.4815C12.098 15.0043 11.0753 14.7656 9.89915 14.7656H2.8679V24.8523ZM2.8679 12.6435H9.52841C10.5597 12.6435 11.4631 12.4304 12.2386 12.0043C13.0142 11.5781 13.6193 10.9901 14.054 10.2401C14.4886 9.49006 14.706 8.63352 14.706 7.67045C14.706 6.28125 14.2543 5.15199 13.3509 4.28267C12.4474 3.40483 11.1009 2.96591 9.31108 2.96591H2.8679V12.6435ZM33.0901 19.4957V7.36364H35.3657V27H33.0901V23.7401H32.9112C32.4509 24.7457 31.7222 25.5852 30.7251 26.2585C29.7279 26.9233 28.5092 27.2557 27.0688 27.2557C25.816 27.2557 24.7038 26.983 23.7322 26.4375C22.7606 25.8835 21.9978 25.0739 21.4438 24.0085C20.8898 22.9432 20.6129 21.6349 20.6129 20.0838V7.36364H22.8884V19.9432C22.8884 21.4773 23.3401 22.7131 24.2435 23.6506C25.1469 24.5795 26.306 25.044 27.7208 25.044C28.6072 25.044 29.4594 24.831 30.2776 24.4048C31.0958 23.9787 31.7691 23.3565 32.2975 22.5384C32.8259 21.7116 33.0901 20.6974 33.0901 19.4957ZM46.3607 27.4091C44.605 27.4091 43.0751 26.9702 41.7712 26.0923C40.4757 25.2145 39.47 24.0128 38.7541 22.4872C38.0382 20.9616 37.6803 19.223 37.6803 17.2713C37.6803 15.3026 38.0425 13.5511 38.7669 12.017C39.4999 10.483 40.5141 9.28125 41.8095 8.41193C43.105 7.53409 44.6092 7.09517 46.3223 7.09517C47.6348 7.09517 48.8237 7.35085 49.8891 7.86222C50.9544 8.36506 51.8322 9.0767 52.5226 9.99716C53.2214 10.9091 53.6604 11.9744 53.8393 13.1932H51.5382C51.2996 12.0852 50.7243 11.1392 49.8124 10.3551C48.9089 9.5625 47.7584 9.16619 46.3607 9.16619C45.1078 9.16619 43.9999 9.5071 43.0368 10.1889C42.0737 10.8622 41.3195 11.804 40.774 13.0142C40.2371 14.2159 39.9686 15.6094 39.9686 17.1946C39.9686 18.7884 40.2328 20.1989 40.7612 21.4261C41.2896 22.6449 42.0311 23.5994 42.9857 24.2898C43.9487 24.9801 45.0737 25.3253 46.3607 25.3253C47.23 25.3253 48.0226 25.1634 48.7385 24.8395C49.4629 24.5071 50.068 24.0384 50.5538 23.4332C51.0482 22.8281 51.3805 22.108 51.551 21.2727H53.8521C53.6817 22.4574 53.2598 23.5142 52.5865 24.4432C51.9217 25.3636 51.0567 26.0881 49.9913 26.6165C48.9345 27.1449 47.7243 27.4091 46.3607 27.4091ZM58.3048 14.7273V27H56.0293V0.818181H58.3048V10.4446H58.5094C58.9696 9.4304 59.6813 8.62074 60.6443 8.01562C61.6159 7.41051 62.8432 7.10795 64.3261 7.10795C65.6557 7.10795 66.8233 7.38068 67.829 7.92614C68.8347 8.47159 69.6188 9.27699 70.1813 10.3423C70.7438 11.4077 71.025 12.7202 71.025 14.2798V27H68.7367V14.4205C68.7367 12.8011 68.2849 11.527 67.3815 10.598C66.4866 9.66051 65.2764 9.19176 63.7509 9.19176C62.7026 9.19176 61.7693 9.41335 60.9511 9.85653C60.133 10.2997 59.4852 10.9389 59.008 11.7741C58.5392 12.6009 58.3048 13.5852 58.3048 14.7273ZM79.8019 27.4474C78.6173 27.4474 77.5349 27.2173 76.5548 26.7571C75.5746 26.2884 74.7948 25.6151 74.2153 24.7372C73.6357 23.8509 73.3459 22.777 73.3459 21.5156C73.3459 20.544 73.5292 19.7259 73.8957 19.0611C74.2621 18.3963 74.782 17.8509 75.4553 17.4247C76.1286 16.9986 76.9255 16.6619 77.8459 16.4148C78.7664 16.1676 79.7806 15.9759 80.8886 15.8395C81.988 15.7031 82.917 15.5838 83.6755 15.4815C84.4425 15.3793 85.0263 15.2173 85.4269 14.9957C85.8275 14.7741 86.0278 14.4162 86.0278 13.9219V13.4616C86.0278 12.1236 85.6272 11.071 84.8261 10.304C84.0334 9.52841 82.8914 9.14062 81.3999 9.14062C79.9852 9.14062 78.8303 9.4517 77.9354 10.0739C77.0491 10.696 76.4269 11.429 76.069 12.2727L73.9084 11.4929C74.3516 10.419 74.9653 9.5625 75.7494 8.9233C76.5334 8.27557 77.4113 7.81108 78.3829 7.52983C79.3545 7.24006 80.3388 7.09517 81.336 7.09517C82.086 7.09517 82.8658 7.19318 83.6755 7.3892C84.4937 7.58523 85.2522 7.92614 85.9511 8.41193C86.6499 8.8892 87.2167 9.55824 87.6513 10.419C88.086 11.2713 88.3033 12.3537 88.3033 13.6662V27H86.0278V23.8935H85.8871C85.6144 24.473 85.2096 25.0355 84.6727 25.581C84.1357 26.1264 83.4624 26.5739 82.6528 26.9233C81.8431 27.2727 80.8928 27.4474 79.8019 27.4474ZM80.1087 25.3636C81.319 25.3636 82.3673 25.0952 83.2536 24.5582C84.14 24.0213 84.8218 23.3097 85.2991 22.4233C85.7849 21.5284 86.0278 20.544 86.0278 19.4702V16.6321C85.8573 16.794 85.5718 16.9389 85.1712 17.0668C84.7792 17.1946 84.3232 17.3097 83.8033 17.4119C83.292 17.5057 82.7806 17.5866 82.2692 17.6548C81.7579 17.723 81.2977 17.7827 80.8886 17.8338C79.7806 17.9702 78.8346 18.1832 78.0505 18.473C77.2664 18.7628 76.6656 19.1634 76.2479 19.6747C75.8303 20.1776 75.6215 20.8253 75.6215 21.6179C75.6215 22.8111 76.0477 23.7358 76.8999 24.392C77.7522 25.0398 78.8218 25.3636 80.1087 25.3636ZM93.9322 14.7273V27H91.6566V7.36364H93.8683V10.4446H94.0728C94.533 9.43892 95.2489 8.63352 96.2205 8.02841C97.2006 7.41477 98.4109 7.10795 99.8512 7.10795C101.172 7.10795 102.331 7.38494 103.328 7.93892C104.334 8.48437 105.114 9.28977 105.668 10.3551C106.23 11.4205 106.512 12.7287 106.512 14.2798V27H104.236V14.4205C104.236 12.8097 103.784 11.5355 102.881 10.598C101.986 9.66051 100.784 9.19176 99.2759 9.19176C98.2447 9.19176 97.3285 9.41335 96.5273 9.85653C95.7262 10.2997 95.0913 10.9389 94.6225 11.7741C94.1623 12.6009 93.9322 13.5852 93.9322 14.7273ZM115.289 27.4474C114.104 27.4474 113.022 27.2173 112.041 26.7571C111.061 26.2884 110.282 25.6151 109.702 24.7372C109.122 23.8509 108.833 22.777 108.833 21.5156C108.833 20.544 109.016 19.7259 109.382 19.0611C109.749 18.3963 110.269 17.8509 110.942 17.4247C111.615 16.9986 112.412 16.6619 113.333 16.4148C114.253 16.1676 115.267 15.9759 116.375 15.8395C117.475 15.7031 118.404 15.5838 119.162 15.4815C119.929 15.3793 120.513 15.2173 120.914 14.9957C121.314 14.7741 121.514 14.4162 121.514 13.9219V13.4616C121.514 12.1236 121.114 11.071 120.313 10.304C119.52 9.52841 118.378 9.14062 116.887 9.14062C115.472 9.14062 114.317 9.4517 113.422 10.0739C112.536 10.696 111.914 11.429 111.556 12.2727L109.395 11.4929C109.838 10.419 110.452 9.5625 111.236 8.9233C112.02 8.27557 112.898 7.81108 113.87 7.52983C114.841 7.24006 115.826 7.09517 116.823 7.09517C117.573 7.09517 118.353 7.19318 119.162 7.3892C119.98 7.58523 120.739 7.92614 121.438 8.41193C122.137 8.8892 122.703 9.55824 123.138 10.419C123.573 11.2713 123.79 12.3537 123.79 13.6662V27H121.514V23.8935H121.374C121.101 24.473 120.696 25.0355 120.159 25.581C119.622 26.1264 118.949 26.5739 118.139 26.9233C117.33 27.2727 116.38 27.4474 115.289 27.4474ZM115.595 25.3636C116.806 25.3636 117.854 25.0952 118.74 24.5582C119.627 24.0213 120.309 23.3097 120.786 22.4233C121.272 21.5284 121.514 20.544 121.514 19.4702V16.6321C121.344 16.794 121.059 16.9389 120.658 17.0668C120.266 17.1946 119.81 17.3097 119.29 17.4119C118.779 17.5057 118.267 17.5866 117.756 17.6548C117.245 17.723 116.784 17.7827 116.375 17.8338C115.267 17.9702 114.321 18.1832 113.537 18.473C112.753 18.7628 112.152 19.1634 111.735 19.6747C111.317 20.1776 111.108 20.8253 111.108 21.6179C111.108 22.8111 111.534 23.7358 112.387 24.392C113.239 25.0398 114.309 25.3636 115.595 25.3636ZM129.419 14.7273V27H127.143V7.36364H129.355V10.4446H129.56C130.02 9.43892 130.736 8.63352 131.707 8.02841C132.687 7.41477 133.898 7.10795 135.338 7.10795C136.659 7.10795 137.818 7.38494 138.815 7.93892C139.821 8.48437 140.601 9.28977 141.155 10.3551C141.717 11.4205 141.998 12.7287 141.998 14.2798V27H139.723V14.4205C139.723 12.8097 139.271 11.5355 138.368 10.598C137.473 9.66051 136.271 9.19176 134.763 9.19176C133.731 9.19176 132.815 9.41335 132.014 9.85653C131.213 10.2997 130.578 10.9389 130.109 11.7741C129.649 12.6009 129.419 13.5852 129.419 14.7273ZM177.034 9.33239H173.045C172.892 8.48011 172.606 7.73011 172.189 7.08239C171.771 6.43466 171.26 5.88494 170.655 5.43324C170.049 4.98153 169.372 4.64062 168.622 4.41051C167.88 4.1804 167.092 4.06534 166.257 4.06534C164.748 4.06534 163.398 4.4446 162.204 5.20312C161.02 5.96165 160.082 7.07386 159.392 8.53977C158.71 10.0057 158.369 11.7955 158.369 13.9091C158.369 16.0398 158.71 17.8381 159.392 19.304C160.082 20.7699 161.024 21.8778 162.217 22.6278C163.41 23.3778 164.753 23.7528 166.244 23.7528C167.071 23.7528 167.855 23.642 168.596 23.4205C169.346 23.1903 170.024 22.8537 170.629 22.4105C171.234 21.9673 171.746 21.4261 172.163 20.7869C172.589 20.1392 172.883 19.3977 173.045 18.5625L177.034 18.5753C176.821 19.8622 176.407 21.0469 175.794 22.1293C175.189 23.2031 174.409 24.1321 173.454 24.9162C172.508 25.6918 171.426 26.2926 170.207 26.7188C168.988 27.1449 167.659 27.358 166.219 27.358C163.951 27.358 161.932 26.821 160.159 25.7472C158.386 24.6648 156.988 23.1179 155.966 21.1065C154.951 19.0952 154.444 16.696 154.444 13.9091C154.444 11.1136 154.956 8.71449 155.978 6.71165C157.001 4.70028 158.399 3.15767 160.172 2.08381C161.944 1.00142 163.96 0.460226 166.219 0.460226C167.608 0.460226 168.903 0.660511 170.105 1.06108C171.315 1.45312 172.402 2.03267 173.365 2.79972C174.328 3.55824 175.125 4.48722 175.755 5.58665C176.386 6.67756 176.812 7.92614 177.034 9.33239ZM187.565 27.3963C185.724 27.3963 184.118 26.9744 182.746 26.1307C181.374 25.2869 180.308 24.1065 179.55 22.5895C178.791 21.0724 178.412 19.2997 178.412 17.2713C178.412 15.2344 178.791 13.4531 179.55 11.9276C180.308 10.402 181.374 9.21733 182.746 8.37358C184.118 7.52983 185.724 7.10795 187.565 7.10795C189.406 7.10795 191.013 7.52983 192.385 8.37358C193.757 9.21733 194.822 10.402 195.581 11.9276C196.339 13.4531 196.719 15.2344 196.719 17.2713C196.719 19.2997 196.339 21.0724 195.581 22.5895C194.822 24.1065 193.757 25.2869 192.385 26.1307C191.013 26.9744 189.406 27.3963 187.565 27.3963ZM187.578 24.1875C188.771 24.1875 189.76 23.8722 190.544 23.2415C191.328 22.6108 191.908 21.7713 192.283 20.723C192.666 19.6747 192.858 18.5199 192.858 17.2585C192.858 16.0057 192.666 14.8551 192.283 13.8068C191.908 12.75 191.328 11.902 190.544 11.2628C189.76 10.6236 188.771 10.304 187.578 10.304C186.376 10.304 185.379 10.6236 184.587 11.2628C183.803 11.902 183.219 12.75 182.835 13.8068C182.46 14.8551 182.273 16.0057 182.273 17.2585C182.273 18.5199 182.46 19.6747 182.835 20.723C183.219 21.7713 183.803 22.6108 184.587 23.2415C185.379 23.8722 186.376 24.1875 187.578 24.1875ZM198.825 27V7.36364H202.494V10.5597H202.737C203.146 9.47727 203.815 8.63352 204.744 8.02841C205.673 7.41477 206.786 7.10795 208.081 7.10795C209.394 7.10795 210.493 7.41477 211.379 8.02841C212.274 8.64204 212.935 9.48579 213.361 10.5597H213.565C214.034 9.51136 214.78 8.67614 215.803 8.05398C216.825 7.4233 218.044 7.10795 219.459 7.10795C221.24 7.10795 222.693 7.66619 223.818 8.78267C224.952 9.89915 225.519 11.5824 225.519 13.8324V27H221.696V14.1903C221.696 12.8608 221.334 11.8977 220.609 11.3011C219.885 10.7045 219.02 10.4062 218.014 10.4062C216.77 10.4062 215.803 10.7898 215.112 11.5568C214.422 12.3153 214.077 13.2912 214.077 14.4844V27H210.267V13.9474C210.267 12.8821 209.935 12.0256 209.27 11.3778C208.605 10.7301 207.74 10.4062 206.675 10.4062C205.95 10.4062 205.281 10.598 204.668 10.9815C204.063 11.3565 203.573 11.8807 203.198 12.554C202.831 13.2273 202.648 14.0071 202.648 14.8935V27H198.825ZM228.482 34.3636V7.36364H232.215V10.5469H232.534C232.756 10.1378 233.076 9.66477 233.493 9.12784C233.911 8.59091 234.49 8.12216 235.232 7.72159C235.973 7.3125 236.953 7.10795 238.172 7.10795C239.757 7.10795 241.172 7.50852 242.416 8.30966C243.661 9.1108 244.637 10.2656 245.344 11.7741C246.06 13.2827 246.418 15.098 246.418 17.2202C246.418 19.3423 246.064 21.1619 245.357 22.679C244.649 24.1875 243.678 25.3509 242.442 26.169C241.206 26.9787 239.796 27.3835 238.21 27.3835C237.017 27.3835 236.041 27.1832 235.283 26.7827C234.533 26.3821 233.945 25.9134 233.519 25.3764C233.093 24.8395 232.764 24.3622 232.534 23.9446H232.304V34.3636H228.482ZM232.228 17.1818C232.228 18.5625 232.428 19.7727 232.828 20.8125C233.229 21.8523 233.808 22.6662 234.567 23.2543C235.326 23.8338 236.255 24.1236 237.354 24.1236C238.496 24.1236 239.451 23.821 240.218 23.2159C240.985 22.6023 241.564 21.7713 241.956 20.723C242.357 19.6747 242.557 18.4943 242.557 17.1818C242.557 15.8864 242.361 14.723 241.969 13.6918C241.585 12.6605 241.006 11.8466 240.23 11.25C239.463 10.6534 238.505 10.3551 237.354 10.3551C236.246 10.3551 235.308 10.6406 234.541 11.2116C233.783 11.7827 233.208 12.5795 232.816 13.6023C232.424 14.625 232.228 15.8182 232.228 17.1818ZM260.979 18.8565V7.36364H264.815V27H261.056V23.5994H260.852C260.4 24.6477 259.675 25.5213 258.678 26.2202C257.69 26.9105 256.458 27.2557 254.984 27.2557C253.722 27.2557 252.606 26.9787 251.634 26.4247C250.671 25.8622 249.913 25.0312 249.359 23.9318C248.813 22.8324 248.541 21.473 248.541 19.8537V7.36364H252.363V19.3935C252.363 20.7315 252.734 21.7969 253.475 22.5895C254.217 23.3821 255.18 23.7784 256.364 23.7784C257.08 23.7784 257.792 23.5994 258.499 23.2415C259.215 22.8835 259.808 22.3423 260.276 21.6179C260.754 20.8935 260.988 19.973 260.979 18.8565ZM276.957 7.36364V10.4318H266.231V7.36364H276.957ZM269.107 2.65909H272.93V21.2344C272.93 21.9759 273.041 22.5341 273.262 22.9091C273.484 23.2756 273.769 23.527 274.119 23.6634C274.477 23.7912 274.865 23.8551 275.282 23.8551C275.589 23.8551 275.857 23.8338 276.088 23.7912C276.318 23.7486 276.497 23.7145 276.625 23.6889L277.315 26.8466C277.093 26.9318 276.778 27.017 276.369 27.1023C275.96 27.196 275.448 27.2472 274.835 27.2557C273.829 27.2727 272.892 27.0938 272.022 26.7188C271.153 26.3438 270.45 25.7642 269.913 24.9801C269.376 24.196 269.107 23.2116 269.107 22.027V2.65909ZM287.277 27.3963C285.343 27.3963 283.677 26.983 282.279 26.1562C280.89 25.321 279.816 24.1491 279.057 22.6406C278.307 21.1236 277.932 19.3466 277.932 17.3097C277.932 15.2983 278.307 13.5256 279.057 11.9915C279.816 10.4574 280.873 9.25994 282.228 8.39915C283.591 7.53835 285.185 7.10795 287.009 7.10795C288.117 7.10795 289.191 7.29119 290.23 7.65767C291.27 8.02415 292.203 8.59943 293.03 9.38352C293.857 10.1676 294.509 11.1861 294.986 12.4389C295.463 13.6832 295.702 15.196 295.702 16.9773V18.3324H280.093V15.4688H291.956C291.956 14.4631 291.752 13.5724 291.343 12.7969C290.934 12.0128 290.358 11.3949 289.617 10.9432C288.884 10.4915 288.023 10.2656 287.034 10.2656C285.961 10.2656 285.023 10.5298 284.222 11.0582C283.429 11.5781 282.816 12.2599 282.381 13.1037C281.955 13.9389 281.742 14.8466 281.742 15.8267V18.0639C281.742 19.3764 281.972 20.4929 282.432 21.4134C282.901 22.3338 283.553 23.0369 284.388 23.5227C285.223 24 286.199 24.2386 287.316 24.2386C288.04 24.2386 288.701 24.1364 289.297 23.9318C289.894 23.7187 290.409 23.4034 290.844 22.9858C291.279 22.5682 291.611 22.0526 291.841 21.4389L295.459 22.0909C295.169 23.1562 294.65 24.0895 293.9 24.8906C293.158 25.6832 292.225 26.3011 291.1 26.7443C289.983 27.179 288.709 27.3963 287.277 27.3963ZM297.783 27V7.36364H301.478V10.483H301.682C302.04 9.42614 302.671 8.59517 303.574 7.99006C304.486 7.37642 305.518 7.0696 306.668 7.0696C306.907 7.0696 307.188 7.07812 307.512 7.09517C307.844 7.11221 308.104 7.13352 308.292 7.15909V10.8153C308.138 10.7727 307.866 10.7259 307.474 10.6747C307.081 10.6151 306.689 10.5852 306.297 10.5852C305.394 10.5852 304.589 10.777 303.881 11.1605C303.182 11.5355 302.628 12.0597 302.219 12.733C301.81 13.3977 301.606 14.1562 301.606 15.0085V27H297.783Z" fill="black"/>
</svg>
