<svg width="250" height="75" viewBox="0 0 250 75" fill="none" xmlns="http://www.w3.org/2000/svg">
<path fill-rule="evenodd" clip-rule="evenodd" d="M31.902 11.3665C27.8094 10.4887 23.5359 11.2013 19.9506 13.3595L7.3785 21.3447C5.68645 22.4084 4.23491 23.8128 3.1165 25.4683C1.9981 27.1239 1.23739 28.9942 0.882935 30.9599C0.28949 34.276 0.815975 37.6952 2.37961 40.6797C1.31192 42.3125 0.584058 44.1433 0.239366 46.063C-0.120525 48.0716 -0.0741853 50.1319 0.375654 52.1223C0.825494 54.1127 1.66972 55.9929 2.85855 57.6521C5.24145 61.0903 8.84567 63.4926 12.9382 64.3704C17.0307 65.2482 21.3042 64.5356 24.8896 62.3774L37.4317 54.4221C39.1241 53.3572 40.5767 51.9526 41.6974 50.2975C42.8181 48.6423 43.5825 46.7727 43.9422 44.8069C44.5357 41.4908 44.0092 38.0716 42.4456 35.0871C43.5117 33.4519 44.2442 31.6225 44.6008 29.7038C44.9606 27.6904 44.9142 25.6255 44.4644 23.6303C44.0147 21.635 43.1705 19.7497 41.9816 18.0848C39.5987 14.6465 35.9945 12.2442 31.902 11.3665ZM18.7383 58.4147C16.7587 58.9263 14.6701 58.8219 12.7516 58.1156C10.7896 57.411 9.09862 56.1086 7.9173 54.3922C7.2019 53.3949 6.69418 52.2642 6.42424 51.0672C6.15429 49.8702 6.12762 48.6313 6.3458 47.4238C6.41733 47.0283 6.51737 46.6385 6.64513 46.2574L6.86963 45.5396L7.52817 46.0182C9.00166 47.1058 10.6524 47.9304 12.4073 48.4556L12.9012 48.5902V49.0687C12.8518 49.7291 13.0373 50.3858 13.4251 50.923C13.7738 51.4281 14.2696 51.8139 14.8453 52.0279C15.4209 52.2419 16.0485 52.2738 16.6429 52.1192C16.9137 52.0448 17.1712 51.9288 17.4062 51.7753L29.9334 43.7901C30.2444 43.6001 30.5109 43.3456 30.7149 43.0437C30.9189 42.7419 31.0556 42.3997 31.1157 42.0405C31.1813 41.6773 31.1727 41.3046 31.0904 40.9448C31.0081 40.5851 30.8538 40.2457 30.6368 39.947C30.2881 39.4418 29.7923 39.0561 29.2166 38.8421C28.641 38.6281 28.0134 38.5962 27.419 38.7507C27.1422 38.8214 26.8792 38.9377 26.6407 39.0946L21.8364 42.0854C21.0478 42.5782 20.1903 42.9511 19.292 43.1919C17.319 43.7022 15.2368 43.5958 13.326 42.8873C11.4153 42.1788 9.76789 40.9021 8.60577 39.2292C7.9063 38.2249 7.41376 37.0916 7.15681 35.8952C6.89986 34.6989 6.88364 33.4635 7.1091 32.2608C7.31996 31.0773 7.77646 29.9509 8.44923 28.9542C9.122 27.9576 9.99614 27.1126 11.0154 26.4738L23.5875 18.4736C24.3694 17.9783 25.2223 17.6052 26.1169 17.367C28.0899 16.8568 30.1721 16.9631 32.0828 17.6717C33.9936 18.3802 35.641 19.6569 36.8031 21.3297C37.5203 22.3263 38.0303 23.4565 38.3028 24.6534C38.5753 25.8503 38.6048 27.0896 38.3896 28.2981C38.3146 28.6928 38.2146 29.0824 38.0902 29.4645L37.8508 30.1823L37.2072 29.7038C35.7303 28.645 34.0861 27.8414 32.343 27.3261L31.8641 27.1916V26.713C31.954 26.0551 31.8053 25.3868 31.445 24.8289C31.0914 24.3346 30.5955 23.9597 30.0233 23.754C29.4512 23.5483 28.8299 23.5216 28.2421 23.6775C27.9684 23.7498 27.7064 23.8606 27.4639 24.0064L14.9217 31.9767C14.6151 32.1717 14.3518 32.4276 14.1484 32.7286C13.945 33.0296 13.8058 33.3692 13.7394 33.7263C13.6743 34.0919 13.6831 34.4668 13.7654 34.8289C13.8476 35.191 14.0016 35.533 14.2183 35.8348C14.566 36.337 15.0594 36.7209 15.632 36.9348C16.2045 37.1487 16.8289 37.1822 17.4212 37.031C17.6905 36.9527 17.9474 36.8369 18.1845 36.6871L23.0038 33.6964C23.7903 33.1962 24.6481 32.818 25.5481 32.5749C27.5234 32.0635 29.6081 32.1692 31.5214 32.8777C33.4347 33.5862 35.0848 34.8635 36.2493 36.5376C36.9481 37.5423 37.4402 38.6756 37.6971 39.8718C37.954 41.068 37.9706 42.3033 37.746 43.506C37.5327 44.6907 37.0753 45.8182 36.4029 46.8169C35.7304 47.8157 34.8576 48.664 33.8397 49.308L21.2826 57.2932C20.4979 57.7968 19.6395 58.1751 18.7383 58.4147ZM65.3953 50.8013C67.242 52.0252 69.4282 52.6372 71.9538 52.6372C74.8053 52.6372 77.1409 51.8892 78.9604 50.3933C80.78 48.8702 81.6898 46.7759 81.6898 44.1105C81.6898 43.2945 81.5811 42.533 81.3639 41.8258C81.1738 41.0914 80.9293 40.4795 80.6306 39.9899C80.359 39.4731 79.9517 38.97 79.4085 38.4804C78.8654 37.9908 78.3901 37.6101 77.9828 37.3381C77.5754 37.0389 76.9915 36.7125 76.2311 36.3589C75.4707 36.0053 74.8868 35.7606 74.4795 35.6246C74.0993 35.4614 73.5018 35.2302 72.6871 34.931C71.3564 34.4686 70.3651 34.1015 69.7133 33.8295C69.0616 33.5575 68.4369 33.1359 67.8395 32.5647C67.242 31.9936 66.9433 31.3408 66.9433 30.6065C66.9433 29.5185 67.3235 28.6754 68.0839 28.077C68.8715 27.4786 69.9442 27.1795 71.302 27.1795C72.6328 27.1795 73.7326 27.4514 74.6017 27.9954C75.4979 28.5122 76.1361 29.2057 76.5163 30.0761L80.4269 28.7706C79.9109 27.0571 78.8925 25.6835 77.3717 24.65C75.8781 23.6165 73.9635 23.0997 71.6279 23.0997C68.8307 23.0997 66.6174 23.8204 64.9879 25.262C63.3585 26.7035 62.5438 28.4714 62.5438 30.5657C62.5438 31.572 62.7203 32.4831 63.0733 33.2991C63.4264 34.1151 63.8202 34.7814 64.2547 35.2982C64.7164 35.7878 65.3817 36.2909 66.2508 36.8077C67.147 37.2973 67.8666 37.6509 68.4098 37.8684C68.9529 38.086 69.7676 38.3852 70.8539 38.766C71.723 39.0652 72.3748 39.31 72.8093 39.5003C73.271 39.6635 73.8413 39.9219 74.5202 40.2755C75.1991 40.6019 75.7015 40.9283 76.0274 41.2546C76.3533 41.581 76.6385 42.0026 76.8829 42.5194C77.1545 43.0089 77.2903 43.5529 77.2903 44.1513C77.2903 45.5656 76.815 46.6535 75.8645 47.4151C74.9411 48.1766 73.6919 48.5574 72.1168 48.5574C70.6231 48.5574 69.306 48.1766 68.1654 47.4151C67.0247 46.6263 66.1557 45.5656 65.5582 44.2329L61.5661 45.7016C62.2722 47.8503 63.5486 49.5502 65.3953 50.8013ZM88.351 23.5893L98.1276 52.1476H102.364L112.1 23.5893H107.578L101.183 43.4985C100.775 44.7496 100.477 45.8376 100.287 46.7623C100.097 45.8376 99.7978 44.7496 99.3904 43.4985L92.9134 23.5893H88.351ZM120.711 51.9254V23.3671H138.391V27.3653H124.948V35.1984H133.625V39.1966H124.948V47.9273H139.287V51.9254H120.711ZM150.16 23.5893V52.1476H168.328V48.0678H154.396V23.5893H150.16ZM184.64 27.669V52.1476H180.403V27.669H172.337V23.5893H192.705V27.669H184.64ZM201.424 23.5893V52.1476H220V48.1494H205.661V39.4187H214.338V35.4206H205.661V27.5874H219.104V23.5893H201.424Z" fill="white"/>
</svg>
