<?xml version="1.0" encoding="utf-8"?>
<!-- Generator: Adobe Illustrator 26.3.1, SVG Export Plug-In . SVG Version: 6.00 Build 0)  -->
<svg version="1.1" xmlns="http://www.w3.org/2000/svg" xmlns:xlink="http://www.w3.org/1999/xlink" x="0px" y="0px"
	 viewBox="0 0 792 792" style="enable-background:new 0 0 792 792;" xml:space="preserve">
<style type="text/css">
	.st0{fill:url(#SVGID_1_);filter:url(#Adobe_OpacityMaskFilter);}
	.st1{mask:url(#mask0_1160_6878_00000152970477099540752010000008484463514709852812_);}
	.st2{fill:#FFFFFF;}
	.st3{opacity:0.5;}
	.st4{fill:none;stroke:#000000;stroke-opacity:0.55;stroke-dasharray:3,3;}
	.st5{fill:none;stroke:#000000;stroke-opacity:0.5;stroke-dasharray:3,3;}
	.st6{fill:none;stroke:#000000;stroke-opacity:0.3;stroke-dasharray:3,3;}
	.st7{fill:none;stroke:#000000;stroke-opacity:0.25;stroke-dasharray:3,3;}
	.st8{fill-rule:evenodd;clip-rule:evenodd;}
	.st9{clip-path:url(#SVGID_00000123419442670006474490000003888386473659001766_);}
	.st10{clip-path:url(#SVGID_00000114070348622029242830000012469633606444043442_);}
	.st11{fill:#8ED6FB;}
	.st12{fill:#1C78C0;}
	.st13{fill:#FFFFFF;filter:url(#Adobe_OpacityMaskFilter_00000013909226874454590550000005555815065417150348_);}
	
		.st14{mask:url(#path-16-inside-1_1160_6878_00000070099758667780167410000015662211792037512355_);stroke:url(#SVGID_00000092425899999231804990000001503882862188762047_);stroke-width:7.6993;}
	.st15{fill-rule:evenodd;clip-rule:evenodd;fill:#FFFFFF;}
	.st16{clip-path:url(#SVGID_00000085946967077849144680000003658562907033602477_);}
	.st17{fill:url(#SVGID_00000044884520733588649950000012062771592858203327_);}
	.st18{clip-path:url(#SVGID_00000078731027215425133760000011310085996151107227_);}
	.st19{fill:#61DAFB;}
	.st20{fill:none;}
</style>
<g id="Layer_2">
	<rect x="-3" y="-7" width="813" height="803"/>
</g>
<g id="Layer_1">
	<defs>
		<filter id="Adobe_OpacityMaskFilter" filterUnits="userSpaceOnUse" x="24" y="24" width="744" height="744">
			<feColorMatrix  type="matrix" values="1 0 0 0 0  0 1 0 0 0  0 0 1 0 0  0 0 0 1 0"/>
		</filter>
	</defs>
	
		<mask maskUnits="userSpaceOnUse" x="24" y="24" width="744" height="744" id="mask0_1160_6878_00000152970477099540752010000008484463514709852812_">
		
			<radialGradient id="SVGID_1_" cx="295.2343" cy="420.3891" r="1" gradientTransform="matrix(2.966707e-14 484.5 484.5 -2.966707e-14 -203282.5 -142645)" gradientUnits="userSpaceOnUse">
			<stop  offset="0.5121" style="stop-color:#C4C4C4"/>
			<stop  offset="1" style="stop-color:#C4C4C4;stop-opacity:0"/>
		</radialGradient>
		<circle class="st0" cx="396" cy="396" r="396"/>
	</mask>
	<g class="st1">
		<g>
			<circle class="st2" cx="396" cy="396" r="76"/>
		</g>
		<g class="st3">
			<circle class="st4" cx="396" cy="396" r="143.7"/>
			<circle class="st5" cx="396" cy="396" r="207.1"/>
			<circle class="st6" cx="396" cy="396" r="286.6"/>
			<circle class="st7" cx="396" cy="396" r="371.5"/>
		</g>
	</g>
	<g>
		<circle class="st2" cx="182" cy="572" r="44"/>
		<path class="st8" d="M178,562.7h1.4l6,8.4l6.2-8.4L200,552l-13.8,19.9l7.1,9.8h-1.4l-6.5-8.9l-6.5,8.9h-1.4l7.2-9.8L178,562.7z
			 M164,562.7h12.8v1h-11.6v7.6h11v1h-11v8.4H177v1h-13V562.7z M193.8,562.7v1h6.7v18.1h1.2v-18.1h6.7v-1H193.8z"/>
		<path d="M148,562.7h1.5l20.3,30.2l-8.4-11.1l-12.1-17.6l-0.1,17.6H148V562.7z"/>
		<path class="st8" d="M214.4,580.5c-0.9,0-1.5-0.5-1.6-1.2h0.6c0.1,0.4,0.4,0.6,1,0.6c0.5,0,0.9-0.3,0.9-0.6c0-0.3-0.2-0.5-0.8-0.6
			l-0.5-0.1c-0.7-0.2-1.1-0.5-1.1-1.1c0-0.7,0.6-1.2,1.5-1.2c0.8,0,1.4,0.5,1.5,1.2h-0.6c-0.1-0.4-0.4-0.6-0.9-0.6
			c-0.5,0-0.8,0.2-0.8,0.6c0,0.3,0.2,0.5,0.8,0.6l0.5,0.1c0.8,0.2,1.2,0.5,1.2,1.2C216,580,215.4,580.5,214.4,580.5z M209.5,579.3
			c0,0.7,0.5,1.2,1.3,1.2c0.8,0,1.3-0.5,1.3-1.3v-2.9h-0.6v2.9c0,0.5-0.2,0.7-0.6,0.7c-0.4,0-0.6-0.2-0.6-0.6H209.5z M208.3,580.4
			c0.2,0,0.4-0.2,0.4-0.4c0-0.2-0.2-0.4-0.4-0.4c-0.2,0-0.4,0.2-0.4,0.4C207.9,580.2,208.1,580.4,208.3,580.4z"/>
	</g>
	<g>
		<circle class="st2" cx="249" cy="253" r="44"/>
		<g>
			<defs>
				<rect id="SVGID_00000169532601393462748320000001182947544382045858_" x="214.6" y="245" width="68" height="16.1"/>
			</defs>
			<clipPath id="SVGID_00000021830238715924101350000007186138020662364347_">
				<use xlink:href="#SVGID_00000169532601393462748320000001182947544382045858_"  style="overflow:visible;"/>
			</clipPath>
			<g style="clip-path:url(#SVGID_00000021830238715924101350000007186138020662364347_);">
				<path d="M214.7,253.6c0,4.1,3.4,7.5,7.5,7.5c4.1,0,7.5-3.4,7.5-7.5v-1.1c0-1.7,1.4-3.1,3.1-3.1c1,0,1.8,0.4,2.4,1.1h4.8
					c-0.9-3.2-3.8-5.5-7.2-5.5c-4.1,0-7.5,3.4-7.5,7.5v1.1c0,1.7-1.4,3.1-3.1,3.1c-1.7,0-3.1-1.4-3.1-3.1c0-0.2-0.1-0.5-0.3-0.6
					c-0.2-0.2-0.4-0.3-0.6-0.3h-2.6c-0.2,0-0.5,0.1-0.6,0.3C214.8,253.1,214.7,253.4,214.7,253.6z M243.3,261.1
					c-3.4,0-6.4-2.4-7.2-5.5h4.8c0.3,0.4,0.7,0.6,1.1,0.8c0.4,0.2,0.9,0.3,1.3,0.3c1.7,0,3.1-1.4,3.1-3.1v-1.1
					c0-4.1,3.4-7.5,7.5-7.5h0c4.1,0,7.4,3.3,7.5,7.3l0,1.2c0,1.7,1.4,3.1,3.1,3.1c1,0,1.8-0.4,2.4-1.1h4.8c-0.9,3.2-3.8,5.5-7.2,5.5
					c-4.1,0-7.5-3.4-7.5-7.5l0-1.1c0,0,0,0,0,0c0-1.7-1.4-3-3.1-3c-1.7,0-3.1,1.4-3.1,3.1v1.1C250.8,257.7,247.5,261.1,243.3,261.1z
					 M272.7,250.6c0.3-0.4,0.7-0.6,1.1-0.8c0.4-0.2,0.9-0.3,1.3-0.3c1.7,0,3.1,1.4,3.1,3.1c0,0.2,0.1,0.5,0.3,0.6
					c0.2,0.2,0.4,0.3,0.6,0.3h2.6c0.2,0,0.5-0.1,0.6-0.3c0.2-0.2,0.3-0.4,0.3-0.6c0-4.1-3.4-7.5-7.5-7.5c-3.5,0-6.4,2.4-7.2,5.5
					H272.7z"/>
			</g>
		</g>
	</g>
	<g>
		<circle class="st2" cx="622" cy="561" r="44"/>
		<g>
			<defs>
				<rect id="SVGID_00000138565322161631274330000017156494977971803805_" x="596.2" y="535" width="52" height="52"/>
			</defs>
			<clipPath id="SVGID_00000135649113355387309600000002719736757738473373_">
				<use xlink:href="#SVGID_00000138565322161631274330000017156494977971803805_"  style="overflow:visible;"/>
			</clipPath>
			<g style="clip-path:url(#SVGID_00000135649113355387309600000002719736757738473373_);">
				<path class="st11" d="M644.2,575.1L623.1,587v-9.3l13.1-7.2L644.2,575.1z M645.6,573.8v-24.9l-7.7,4.5v16L645.6,573.8z
					 M600.2,575.1l21.1,11.9v-9.3l-13.1-7.2L600.2,575.1z M598.8,573.8v-24.9l7.7,4.5v16L598.8,573.8z M599.7,547.2l21.6-12.2v9
					l-14,7.7L599.7,547.2z M644.7,547.2L623.1,535v9l14,7.7L644.7,547.2z"/>
				<path class="st12" d="M621.3,576l-13-7.1v-14.1l13,7.5V576z M623.1,576l13-7.1v-14.1l-13,7.5V576z M609.2,553.1l13-7.1l13,7.2
					l-13,7.5L609.2,553.1z"/>
			</g>
		</g>
	</g>
	<g>
		<circle class="st2" cx="482" cy="209" r="44"/>
		<defs>
			
				<filter id="Adobe_OpacityMaskFilter_00000029754657610845894280000002069452333867729568_" filterUnits="userSpaceOnUse" x="452" y="180.2" width="59.7" height="57.8">
				<feColorMatrix  type="matrix" values="1 0 0 0 0  0 1 0 0 0  0 0 1 0 0  0 0 0 1 0"/>
			</filter>
		</defs>
		
			<mask maskUnits="userSpaceOnUse" x="452" y="180.2" width="59.7" height="57.8" id="path-16-inside-1_1160_6878_00000070099758667780167410000015662211792037512355_">
			<path style="fill:#FFFFFF;filter:url(#Adobe_OpacityMaskFilter_00000029754657610845894280000002069452333867729568_);" d="
				M507.8,218.2c0,0.6,0,1.2,0,1.8c0,0.5,0,1,0,1.5c0,1.1-0.1,2.2-0.3,3.3c-0.2,1.1-0.5,2.2-1.1,3.2c-0.5,1-1.2,1.9-2,2.7
				c-0.8,0.8-1.7,1.5-2.7,2c-1,0.5-2.1,0.8-3.2,1c-1.1,0.2-2.3,0.3-3.4,0.3c-2.2,0-2.8,0-3.4,0h-12.8h-7.1c-2.4,0-2.9,0-3.4,0
				c-1.1,0-2.3-0.1-3.4-0.3c-1.1-0.2-2.2-0.5-3.2-1c-1-0.5-1.9-1.2-2.7-2c-0.8-0.8-1.5-1.7-2-2.7c-0.5-1-0.9-2.1-1.1-3.2
				c-0.2-1.1-0.3-2.2-0.3-3.3c0-0.5,0-1,0-1.5c0-0.6,0-1.2,0-1.8v-6v-6.2v-6c0-0.6,0-1.2,0-1.8c0-0.5,0-1,0-1.5
				c0-1.1,0.1-2.2,0.3-3.3c0.2-1.1,0.5-2.2,1.1-3.2c0.5-1,1.2-1.9,2-2.7c0.8-0.8,1.7-1.5,2.7-2c1-0.5,2.1-0.8,3.2-1
				c1.1-0.2,2.3-0.3,3.4-0.3c2.2,0,2.8,0,3.4,0h7.1h12.3l-7.5,0l8,0c2.4,0,2.9,0,3.4,0c1.1,0,2.3,0.1,3.4,0.3c1.1,0.2,2.2,0.5,3.2,1
				c1,0.5,1.9,1.2,2.7,2c0.8,0.8,1.5,1.7,2,2.7c0.5,1,0.9,2.1,1.1,3.2c0.2,1.1,0.3,2.2,0.3,3.3c0,0.5,0,1,0,1.5c0,0.6,0,1.2,0,1.8v6
				v6.2V218.2z"/>
		</mask>
		
			<linearGradient id="SVGID_00000037691828478462909870000005979169563090850727_" gradientUnits="userSpaceOnUse" x1="481.802" y1="608" x2="481.802" y2="555.071" gradientTransform="matrix(1 0 0 -1 0 792)">
			<stop  offset="0" style="stop-color:#F743B6"/>
			<stop  offset="1" style="stop-color:#FCC043"/>
		</linearGradient>
		
			<path style="mask:url(#path-16-inside-1_1160_6878_00000070099758667780167410000015662211792037512355_);stroke:url(#SVGID_00000037691828478462909870000005979169563090850727_);stroke-width:7.6993;" d="
			M507.8,218.2c0,0.6,0,1.2,0,1.8c0,0.5,0,1,0,1.5c0,1.1-0.1,2.2-0.3,3.3c-0.2,1.1-0.5,2.2-1.1,3.2c-0.5,1-1.2,1.9-2,2.7
			c-0.8,0.8-1.7,1.5-2.7,2c-1,0.5-2.1,0.8-3.2,1c-1.1,0.2-2.3,0.3-3.4,0.3c-2.2,0-2.8,0-3.4,0h-12.8h-7.1c-2.4,0-2.9,0-3.4,0
			c-1.1,0-2.3-0.1-3.4-0.3c-1.1-0.2-2.2-0.5-3.2-1c-1-0.5-1.9-1.2-2.7-2c-0.8-0.8-1.5-1.7-2-2.7c-0.5-1-0.9-2.1-1.1-3.2
			c-0.2-1.1-0.3-2.2-0.3-3.3c0-0.5,0-1,0-1.5c0-0.6,0-1.2,0-1.8v-6v-6.2v-6c0-0.6,0-1.2,0-1.8c0-0.5,0-1,0-1.5
			c0-1.1,0.1-2.2,0.3-3.3c0.2-1.1,0.5-2.2,1.1-3.2c0.5-1,1.2-1.9,2-2.7c0.8-0.8,1.7-1.5,2.7-2c1-0.5,2.1-0.8,3.2-1
			c1.1-0.2,2.3-0.3,3.4-0.3c2.2,0,2.8,0,3.4,0h7.1h12.3l-7.5,0l8,0c2.4,0,2.9,0,3.4,0c1.1,0,2.3,0.1,3.4,0.3c1.1,0.2,2.2,0.5,3.2,1
			c1,0.5,1.9,1.2,2.7,2c0.8,0.8,1.5,1.7,2,2.7c0.5,1,0.9,2.1,1.1,3.2c0.2,1.1,0.3,2.2,0.3,3.3c0,0.5,0,1,0,1.5c0,0.6,0,1.2,0,1.8v6
			v6.2V218.2z"/>
		<path class="st15" d="M476.3,205.4c0-0.1,0.1-0.2,0.2-0.2h8.1c0.1,0,0.2,0.1,0.2,0.2v1.2c0,0.1-0.1,0.2-0.2,0.2h-8.1
			c-0.1,0-0.2-0.1-0.2-0.2V205.4z"/>
		<path class="st15" d="M473.5,200.8c0.1-0.1,0.1-0.2,0-0.2l-3.2-1.7c-0.1,0-0.1-0.1-0.1-0.2l2.3-5.6c0.1-0.1-0.1-0.3-0.2-0.2
			l-6.9,6.3c-0.1,0.1-0.1,0.2,0,0.2l3.1,2.1c0.1,0,0.1,0.1,0.1,0.2l-2.1,5.3c-0.1,0.1,0.1,0.3,0.2,0.2L473.5,200.8z"/>
	</g>
	<g>
		<circle class="st2" cx="675" cy="382" r="44"/>
		<g>
			<defs>
				<rect id="SVGID_00000160170716602155198170000001772516368577075858_" x="649.4" y="373" width="52" height="18.3"/>
			</defs>
			<clipPath id="SVGID_00000157306837211292472170000010663403204704036251_">
				<use xlink:href="#SVGID_00000160170716602155198170000001772516368577075858_"  style="overflow:visible;"/>
			</clipPath>
			<g style="clip-path:url(#SVGID_00000157306837211292472170000010663403204704036251_);">
				
					<linearGradient id="SVGID_00000037690155707059664630000006224874332483383988_" gradientUnits="userSpaceOnUse" x1="649.4027" y1="409.8975" x2="701.383" y2="409.8975" gradientTransform="matrix(1 0 0 -1 0 792)">
					<stop  offset="0" style="stop-color:#FFA588"/>
					<stop  offset="0.271" style="stop-color:#FCB371"/>
					<stop  offset="0.8357" style="stop-color:#F4D837"/>
					<stop  offset="1" style="stop-color:#F1E425"/>
				</linearGradient>
				<path style="fill:url(#SVGID_00000037690155707059664630000006224874332483383988_);" d="M696.2,391.2c-1.4,0-2.7-0.5-3.7-1.5
					l-7.7-7.7c-0.8-0.8-1.3-1.7-1.5-2.8c-0.1-0.6-0.1-1.2,0-1.9h-2.3c-0.6,0-0.8,0.4-0.9,0.6c-0.1,0.2-0.2,0.6,0.2,1l3.3,3.3
					c0.8,0.8,1.3,1.7,1.5,2.8c0.2,1,0.1,2-0.3,2.9c-0.4,0.9-1,1.7-1.8,2.3c-0.9,0.6-1.9,0.9-3,0.9h-0.1c-1.4,0-2.7-0.5-3.7-1.5
					l-0.7-0.7c-0.4,0.5-0.8,1-1.3,1.3c-0.9,0.6-1.9,0.9-3,0.9c-1.4,0-2.7-0.5-3.7-1.5l-12.1-12.1c-0.2-0.2-0.4-0.3-0.7-0.3
					c-0.6,0-0.8,0.4-0.9,0.6c-0.1,0.2-0.2,0.6,0.2,1l3.3,3.3c0.8,0.8,1.3,1.7,1.5,2.8c0.2,1,0.1,2-0.3,2.9c-0.4,0.9-1,1.7-1.8,2.3
					c-0.9,0.6-1.9,0.9-3,0.9h-1.5c-1.2,0-2.1-1-2.1-2.1c0-1.2,1-2.1,2.1-2.1h1.5c0.6,0,0.8-0.4,0.9-0.6s0.2-0.6-0.2-1l-3.3-3.3
					c-0.8-0.8-1.3-1.7-1.5-2.8c-0.2-1-0.1-2,0.3-2.9c0.4-0.9,1-1.7,1.8-2.3c0.9-0.6,1.9-0.9,3-0.9c1.4,0,2.7,0.5,3.7,1.5l12.1,12.1
					c0.2,0.2,0.4,0.3,0.7,0.3c0.6,0,0.8-0.4,0.9-0.6c0.1-0.2,0.2-0.6-0.2-1l-8.6-8.6c-0.8-0.8-0.8-2.2,0-3c0.8-0.8,2.2-0.8,3,0
					l8.6,8.6c0,0,0,0,0,0l4.4,4.4c0.2,0.2,0.4,0.3,0.7,0.3h0.1c0.6,0,0.8-0.4,0.9-0.6c0.1-0.2,0.2-0.6-0.2-1l-3.3-3.3
					c-0.8-0.8-1.3-1.7-1.5-2.8c-0.2-1-0.1-2,0.3-2.9c0.4-0.9,1-1.7,1.8-2.3c0.9-0.6,1.9-0.9,3-0.9h8.7c1.2,0,2.1,1,2.1,2.1
					c0,1.2-1,2.1-2.1,2.1h-1.3c-0.6,0-0.8,0.4-0.9,0.6c-0.1,0.2-0.2,0.6,0.2,1l7.7,7.7c0.2,0.2,0.4,0.3,0.7,0.3
					c0.5,0,0.9-0.4,0.9-0.9c0-1.2,1-2.1,2.1-2.1c1.2,0,2.1,1,2.1,2.1C701.4,388.9,699.1,391.2,696.2,391.2z"/>
				<path class="st2" d="M696.2,389.3c-0.9,0-1.7-0.3-2.4-1l-7.7-7.7c-1-1-1.3-2.4-0.7-3.7c0.3-0.7,0.7-1.2,1.3-1.5h-5.6
					c-1.2,0-2.2,0.7-2.6,1.7c-0.4,1.1-0.2,2.3,0.6,3.1l3.3,3.3c1,1,1.3,2.4,0.7,3.7c-0.5,1.3-1.7,2.1-3.1,2.1h-0.1
					c-0.9,0-1.7-0.3-2.4-1l-3.1-3.1c0.1,0.6,0.1,1.3-0.2,2c-0.5,1.3-1.7,2.1-3.1,2.1c-0.9,0-1.7-0.3-2.4-1l-12.1-12.1
					c-0.5-0.5-1.2-0.8-2-0.8c-1.2,0-2.2,0.7-2.6,1.7c-0.4,1.1-0.2,2.3,0.6,3.1l3.3,3.3c1,1,1.3,2.4,0.7,3.7
					c-0.5,1.3-1.7,2.1-3.1,2.1h-1.5c-0.2,0-0.3-0.1-0.3-0.3c0-0.2,0.1-0.3,0.3-0.3h1.5c1.2,0,2.2-0.7,2.6-1.7
					c0.5-1.1,0.2-2.3-0.6-3.1l-3.3-3.3c-1-1-1.3-2.4-0.7-3.7c0.5-1.3,1.7-2.1,3.1-2.1c0.9,0,1.7,0.3,2.4,1l12.1,12.1
					c0.5,0.5,1.2,0.8,2,0.8c1.2,0,2.2-0.7,2.6-1.7c0.4-1.1,0.2-2.3-0.6-3.1l-8.6-8.6c-0.1-0.1-0.1-0.3,0-0.4s0.3-0.1,0.4,0l8.6,8.6
					l0,0l4.4,4.4c0.5,0.5,1.2,0.8,2,0.8h0.1c1.2,0,2.2-0.7,2.6-1.7c0.4-1.1,0.2-2.3-0.6-3.1l-3.3-3.3c-1-1-1.3-2.4-0.7-3.7
					c0.5-1.3,1.7-2.1,3.1-2.1h8.7c0.2,0,0.3,0.1,0.3,0.3s-0.1,0.3-0.3,0.3h-1.3c-1.2,0-2.2,0.7-2.6,1.7c-0.4,1.1-0.2,2.3,0.6,3.1
					l7.7,7.7c0.5,0.5,1.2,0.8,2,0.8c1.5,0,2.8-1.2,2.8-2.8c0-0.1,0.1-0.3,0.3-0.3c0.1,0,0.3,0.1,0.3,0.3
					C699.5,387.9,698,389.3,696.2,389.3z"/>
			</g>
		</g>
	</g>
	<g>
		<circle class="st2" cx="112" cy="368" r="44"/>
		<g>
			<defs>
				<rect id="SVGID_00000168811487870277605300000010852799850238711438_" x="86" y="338" width="52" height="59.3"/>
			</defs>
			<clipPath id="SVGID_00000085247867580047349660000008782142020250599567_">
				<use xlink:href="#SVGID_00000168811487870277605300000010852799850238711438_"  style="overflow:visible;"/>
			</clipPath>
			<g style="clip-path:url(#SVGID_00000085247867580047349660000008782142020250599567_);">
				<path class="st19" d="M138,367.6c0-3.4-4.3-6.7-10.9-8.7c1.5-6.7,0.8-12.1-2.1-13.8c-0.7-0.4-1.5-0.6-2.4-0.6v2.4
					c0.5,0,0.9,0.1,1.2,0.3c1.4,0.8,2.1,4,1.6,8c-0.1,1-0.3,2-0.5,3.1c-2.1-0.5-4.3-0.9-6.7-1.2c-1.4-2-2.9-3.7-4.4-5.3
					c3.5-3.2,6.7-5,8.9-5v-2.4c-2.9,0-6.7,2.1-10.6,5.7c-3.9-3.6-7.7-5.6-10.6-5.6v2.4c2.2,0,5.4,1.7,8.9,4.9
					c-1.5,1.6-3,3.3-4.4,5.3c-2.4,0.3-4.7,0.6-6.7,1.2c-0.2-1.1-0.4-2.1-0.6-3.1c-0.5-4,0.1-7.2,1.5-8c0.3-0.2,0.7-0.3,1.2-0.3v-2.4
					c-0.9,0-1.7,0.2-2.4,0.6c-3,1.7-3.6,7.1-2.1,13.8c-6.6,2-10.9,5.3-10.9,8.7c0,3.4,4.3,6.7,10.9,8.7c-1.5,6.7-0.8,12.1,2.1,13.8
					c0.7,0.4,1.5,0.6,2.4,0.6c2.9,0,6.7-2.1,10.6-5.7c3.9,3.6,7.7,5.6,10.6,5.6c0.9,0,1.7-0.2,2.4-0.6c3-1.7,3.6-7.1,2.1-13.8
					C133.7,374.3,138,371.1,138,367.6z M124.2,360.6c-0.4,1.4-0.9,2.8-1.4,4.2c-0.4-0.8-0.9-1.7-1.4-2.5c-0.5-0.8-1-1.7-1.5-2.5
					C121.4,359.9,122.8,360.2,124.2,360.6z M119.3,371.9c-0.8,1.4-1.7,2.8-2.6,4c-1.6,0.1-3.2,0.2-4.8,0.2c-1.6,0-3.2-0.1-4.8-0.2
					c-0.9-1.3-1.7-2.6-2.6-4c-0.8-1.4-1.5-2.8-2.2-4.2c0.7-1.4,1.4-2.8,2.2-4.2c0.8-1.4,1.7-2.8,2.6-4c1.6-0.1,3.2-0.2,4.8-0.2
					c1.6,0,3.2,0.1,4.8,0.2c0.9,1.3,1.7,2.6,2.6,4c0.8,1.4,1.5,2.8,2.2,4.2C120.9,369,120.1,370.5,119.3,371.9z M122.8,370.5
					c0.6,1.4,1.1,2.8,1.5,4.2c-1.4,0.3-2.9,0.6-4.4,0.8c0.5-0.8,1-1.7,1.5-2.5C121.9,372.2,122.3,371.3,122.8,370.5z M112,381.8
					c-1-1-2-2.2-2.9-3.4c1,0,1.9,0.1,2.9,0.1c1,0,2,0,2.9-0.1C114,379.6,113,380.8,112,381.8z M104.1,375.5c-1.5-0.2-3-0.5-4.3-0.8
					c0.4-1.4,0.9-2.8,1.4-4.2c0.4,0.8,0.9,1.7,1.4,2.5C103.1,373.9,103.6,374.7,104.1,375.5z M112,353.5c1,1,2,2.2,2.9,3.4
					c-1,0-1.9-0.1-2.9-0.1c-1,0-2,0-2.9,0.1C110,355.6,111,354.5,112,353.5z M104.1,359.7c-0.5,0.8-1,1.7-1.5,2.5
					c-0.5,0.8-0.9,1.7-1.4,2.5c-0.6-1.4-1.1-2.8-1.5-4.2C101.2,360.2,102.6,359.9,104.1,359.7z M94.5,373c-3.8-1.6-6.2-3.7-6.2-5.4
					s2.4-3.8,6.2-5.4c0.9-0.4,1.9-0.7,2.9-1.1c0.6,2.1,1.4,4.2,2.4,6.5c-1,2.2-1.8,4.4-2.4,6.4C96.5,373.7,95.5,373.4,94.5,373z
					 M100.2,388.1c-1.4-0.8-2.1-4-1.6-8c0.1-1,0.3-2,0.5-3.1c2.1,0.5,4.3,0.9,6.7,1.2c1.4,2,2.9,3.7,4.4,5.3c-3.5,3.2-6.7,5-8.9,5
					C101,388.4,100.6,388.3,100.2,388.1z M125.4,380.1c0.5,4-0.1,7.2-1.5,8c-0.3,0.2-0.7,0.3-1.2,0.3c-2.2,0-5.4-1.7-8.9-4.9
					c1.5-1.6,3-3.3,4.4-5.3c2.4-0.3,4.7-0.6,6.7-1.2C125.1,378.1,125.3,379.1,125.4,380.1z M129.5,373c-0.9,0.4-1.9,0.7-2.9,1.1
					c-0.6-2.1-1.4-4.2-2.4-6.5c1-2.2,1.8-4.4,2.4-6.4c1,0.3,2,0.7,3,1.1c3.8,1.6,6.2,3.7,6.2,5.4C135.6,369.3,133.2,371.4,129.5,373
					z"/>
				<path class="st19" d="M112,372.5c2.7,0,4.8-2.2,4.8-4.8c0-2.7-2.2-4.8-4.8-4.8c-2.7,0-4.8,2.2-4.8,4.8
					C107.2,370.3,109.3,372.5,112,372.5z"/>
			</g>
		</g>
	</g>
	<g>
		<circle class="st2" cx="423" cy="592" r="44"/>
		<rect x="403" y="568" class="st20" width="40" height="48"/>
	</g>
	
		<image style="overflow:visible;" width="664" height="607" xlink:href="../../../../Bassnectar/bassnectar-unlimited.png"  transform="matrix(0.1717 0 0 0.1717 340 342.8931)">
	</image>
	<g>
		<g>
			<path d="M412.9,561.5c1.9,2.1,2.3,5.2,1,7.6c-0.4,0.7-1,1.4-1.6,1.9c-1.5,1.2-3.2,2.2-4.8,3.3c-1.5,1-2.9,2.2-4.1,3.5
				c-2.6,2.7-4.6,5.7-5.9,9.2c-1.4,3.8-2,7.6-1.8,11.7c0.3,4.7,1.7,9,4.2,12.9c2.4,3.8,5.6,6.8,9.4,9c3.2,1.8,6.6,3,10.3,3.4
				c3.5,0.4,7,0.2,10.5-0.7c3.9-1.1,7.4-2.9,10.4-5.5c3.1-2.6,5.5-5.7,7.2-9.4c1.4-2.9,2.2-6,2.5-9.2c0.3-3.4-0.1-6.8-1-10.1
				c-1.1-3.8-3-7.2-5.6-10.2c-1.9-2.2-4.2-4-6.7-5.5c-1.7-1-3.3-2.1-4.6-3.6c-1.2-1.4-1.5-3.1-1.3-4.8c0.1-0.9,0.3-1.7,0.8-2.5
				c0.2-0.3,0.5-0.6,0.7-0.9c0.3,0,0.7,0,1,0c0.7,0.6,1.4,1.1,2.2,1.6c1.4,1,2.9,1.9,4.3,2.8c2.4,1.6,4.5,3.4,6.4,5.6
				c2.2,2.5,4,5.3,5.3,8.4c1.3,3,2.2,6.2,2.6,9.4c0.1,0.8,0.2,1.6,0.2,2.4c0,0.9,0,1.8,0,2.7c0,0.1-0.1,0.3-0.1,0.4
				c-0.1,2.9-0.7,5.7-1.6,8.4c-1.2,3.7-3.1,7-5.6,10c-3,3.6-6.5,6.4-10.8,8.4c-2.4,1.1-4.9,2-7.6,2.5c-0.8,0.1-1.5,0.3-2.3,0.4
				c-2.4,0-4.8,0-7.3,0c-0.8-0.1-1.5-0.2-2.3-0.4c-4.2-0.8-8.1-2.4-11.7-4.8c-3.1-2.1-5.7-4.6-7.9-7.6c-2.4-3.2-4.1-6.8-5.1-10.7
				c-0.4-1.6-0.6-3.2-0.9-4.8c-0.1-0.4-0.1-0.8-0.2-1.2c0-1.2,0-2.5,0-3.7c0-0.1,0.1-0.2,0.1-0.4c0.1-1.8,0.4-3.6,0.8-5.3
				c0.7-3,1.8-5.8,3.3-8.5c1.1-2,2.4-3.8,3.8-5.5c1.9-2.2,4-4,6.4-5.6c1.3-0.9,2.7-1.7,4-2.6c0.9-0.6,1.7-1.3,2.6-1.9
				C412.6,561.5,412.8,561.5,412.9,561.5z"/>
			<path d="M447.1,600.2c0,3.1-0.6,6.1-1.8,8.9c-1.7,4.1-4.4,7.6-8,10.2c-3.5,2.5-7.4,4.1-11.7,4.5c-3.5,0.4-6.9,0-10.3-1.1
				c-3.9-1.3-7.2-3.5-10-6.6c-2.4-2.6-4.1-5.6-5.2-8.9c-1.1-3.4-1.4-6.8-0.9-10.4c0.4-3,1.3-5.8,2.6-8.5c1.5-3,3.6-5.6,6.2-7.8
				c1.3-1.1,2.7-2.2,4-3.3c0.4-0.3,0.8-0.8,1.2-1.1c0.5-0.5,0.8-0.5,1.3,0c1,0.9,1.4,2.1,1.6,3.5c0.4,2.5-0.8,4.3-2.5,5.8
				c-1.1,1-2.2,1.9-3.3,2.7c-1.5,1.2-2.8,2.6-3.9,4.2c-1.5,2.3-2.6,4.8-3.1,7.5c-0.5,3-0.5,5.9,0.3,8.8c1.2,4.3,3.5,7.9,7.1,10.7
				c2.7,2.1,5.6,3.4,9,4c3.6,0.6,7,0.3,10.4-1c4.4-1.7,7.8-4.6,10.2-8.6c2.2-3.7,3.1-7.6,2.7-11.9c-0.3-3.8-1.6-7.2-3.9-10.3
				c-1.3-1.8-3-3.2-4.7-4.5c-1.2-0.9-2.3-1.9-3.3-3c-1.5-1.6-1.9-3.5-1.3-5.6c0.2-0.7,0.5-1.3,0.8-1.9c0.1-0.3,0.4-0.5,0.6-0.8
				c0.5-0.5,0.7-0.4,1.3,0c1.3,1.1,2.5,2.2,3.8,3.2c1.5,1.1,2.9,2.2,4.1,3.6c2.9,3.2,4.9,6.8,6,11
				C446.8,595.8,447.1,597.9,447.1,600.2z"/>
			<path d="M423.7,588.1c4.3,0.1,8.4,1.9,11.8,5.4c2.4,2.5,3.9,5.6,4.5,9c0.7,4.1,0.1,8.1-1.9,11.8c-1.7,3.1-4.1,5.6-7.3,7.2
				c-4.5,2.3-9.2,2.5-13.9,0.8c-3.5-1.3-6.3-3.6-8.3-6.8c-1.9-2.9-2.8-6.1-2.9-9.5c0-3.3,0.8-6.3,2.4-9.2c1.6-2.7,3.7-4.9,6.4-6.4
				C417.1,588.8,420,588,423.7,588.1z M422.9,622.9c7.6,0.1,13.9-6.2,13.9-13.9c-0.1-7.7-6.2-13.7-13.8-13.8
				c-7.7,0-14.1,6.4-13.8,14.3C409.4,616.9,415.4,622.9,422.9,622.9z"/>
			<path d="M418.9,576.7c-0.1-2.3,2.1-4.2,4.2-4.1c2.1,0.1,4,1.7,3.9,4.3c-0.1,2.1-1.9,3.9-4.2,3.9
				C420.7,580.8,418.9,578.9,418.9,576.7z"/>
			<path d="M425.8,566.8c0,1.7-1.2,2.9-2.8,2.9c-1.6,0-2.8-1.4-2.8-3.1c0-1.4,1.3-2.5,2.8-2.5C424.6,564.1,425.8,565.3,425.8,566.8z
				"/>
			<path d="M423,600.9c6,0,11,5,10.8,11.3c-0.2,5.7-5,10.5-11,10.5c-6-0.1-10.9-5.1-10.8-11C412.2,605.6,417.1,600.8,423,600.9z
				 M430.8,614.5c0.1-4.2-3.5-7.8-7.7-7.8c-4.3-0.1-7.9,3.4-8,7.7c0,4.3,3.4,7.8,7.7,7.9C427.2,622.4,430.7,618.9,430.8,614.5z"/>
		</g>
	</g>
</g>
</svg>
