<svg xmlns="http://www.w3.org/2000/svg" height="50" viewBox="0 0 56 56" width="50">
<g fill="none" fill-rule="evenodd" stroke-linecap="round" stroke-width="2" transform="translate(5 5)">
<g stroke-linejoin="round" transform="translate(5 4)">
<g transform="translate(12)">
<g stroke="#0ea5e996">
<path d="m0 5h20"/>
<path d="m0 1h10"/><path d="m0 14h20"/>
<path d="m0 10h10"/>
</g>
<path d="m0 30h10" stroke="#0ea5e996"/>
<path d="m0 34h10" stroke="#0ea5e996"/>
</g>
<g stroke="#0ea5e996">
<rect height="6" rx="3" width="6" y="29"/>
<path d="m12 20h10"/>
<path d="m12 24h17"/>
<rect height="6" rx="3" width="6" y="19"/>
</g>
</g>
<g stroke-linejoin="round">
<path d="m39.0491803 31.0125732c4.4182609 0 8 3.5817392 8 8 0 4.4182609-3.5817391 8-8 8-4.4182608 0-8-3.5817391-8-8 0-4.4182608 3.5817392-8 8-8z" stroke="#0ea5e9"/>
<path d="m38.116802 35.7611499 3.845906 2.3959271c.4687613.2920296.6120308.9087724.3200013 1.3775338-.0820762.1317473-.1936951.2425793-.3260199.3237212l-3.8459059 2.3583203c-.4708158.2887056-1.0865296.141076-1.3752352-.3297398-.0964582-.1573023-.1475125-.338226-.1475125-.5227477v-4.7542474c0-.5522847.4477152-1 1-1 .1869258 0 .3701096.0523925.5287662.1512325z" fill-rule="nonzero" stroke="#0ea5e996"/>
<path d="m0 38v-36c0-1.15997107.77207302-2 2-2h38c1.227927 0 2 .84002893 2 2v25" stroke="#0ea5e9"/>
</g>
<g stroke="#0ea5e996" stroke-linejoin="round">
<path d="m10.5599344 15-3.06918743 3.0651125-1.49074697-1.4854753"/>
<path d="m10.5599344 6-3.06918743 3.06511252-1.49074697-1.4854753"/>
</g>
</g>
</svg>