<svg xmlns="http://www.w3.org/2000/svg" width="229" height="70" viewBox="0 0 98 31" xmlns:xlink="http://www.w3.org/1999/xlink">
            <g fill="#FFF" fill-rule="evenodd">
              <path fill-rule="nonzero" d="M1.494 5.067V29.51h95.012V5.067H1.494zm72.604-1.49v1.49h7.17v-1.49H98V31H0V3.577h74.098z"></path>
              <path d="M84.596 16.119c-1.61-.386-1.896-.652-1.896-1.206 0-.523.496-.874 1.233-.874.728 0 1.451.277 2.21.846l.12.09.963-1.365-.107-.087c-.918-.74-1.953-1.1-3.162-1.1-1.787 0-3.035 1.079-3.035 2.623 0 1.658 1.073 2.243 2.93 2.694 1.538.356 1.797.648 1.797 1.169 0 .576-.518.934-1.353.934-.944 0-1.715-.32-2.577-1.07l-.112-.097-1.08 1.292.105.094a5.358 5.358 0 0 0 3.627 1.398c1.925 0 3.169-1.059 3.169-2.697 0-1.014-.343-2.036-2.832-2.644M68.721 17.72h4.244v-1.63h-4.244v-1.917h4.788v-1.63h-6.566v8.795h6.627V19.71H68.72zM54.163 14.197h2.019c.733 0 1.607.221 1.607 1.275 0 .793-.611 1.286-1.595 1.286h-2.03v-2.561zm2.14-1.653h-3.918v8.794h1.778v-2.963h1.64l2.08 2.963h2.112l-2.332-3.284c1.23-.413 1.929-1.375 1.929-2.667 0-1.754-1.26-2.843-3.29-2.843zM41.958 14.131c.794 0 1.55.345 2.075.946l.103.117 1.25-1.255-.095-.104a4.526 4.526 0 0 0-3.333-1.473c-2.494 0-4.523 2.038-4.523 4.543 0 2.505 2.029 4.543 4.523 4.543a4.526 4.526 0 0 0 3.333-1.474l.095-.103-1.25-1.256-.103.118c-.525.6-1.281.945-2.075.945a2.77 2.77 0 0 1-2.761-2.773 2.77 2.77 0 0 1 2.76-2.774M26.588 18.094l.807-1.91.81 1.91h-1.617zm-3.196 3.244h1.825l.683-1.615h2.996l.685 1.615h1.86l-4.045-8.976-4.004 8.976zM10.68 15.288h1.597v-1.14h3.409l-3.797 7.19h2l4.557-8.794H10.68z"></path>
              <path fill-rule="nonzero" d="M77.683 8.363A4.178 4.178 0 0 1 73.5 4.19 4.178 4.178 0 0 1 77.683.017a4.178 4.178 0 0 1 4.183 4.173 4.178 4.178 0 0 1-4.183 4.173zm0-1.49a2.686 2.686 0 0 0 2.689-2.682 2.686 2.686 0 0 0-2.69-2.683 2.686 2.686 0 0 0-2.688 2.683 2.686 2.686 0 0 0 2.689 2.683z"></path>
            </g>
          </svg>