<svg width="154" height="14" viewBox="0 0 154 14" fill="none" xmlns="http://www.w3.org/2000/svg">
<path d="M19.5959 1.96735L18.8216 1.96653V0.0261766C10.7944 -0.315562 6.97166 2.67876 7.15949 9.59815C11.5228 9.59815 13.6246 7.53457 15.4501 4.87295L13.9866 4.00464C13.2753 5.27466 10.5828 7.54525 9.04878 7.54525C9.6709 3.41892 12.682 1.69215 17.0419 1.96324C17.0386 3.35895 16.8414 4.96414 16.2864 6.43953C15.9065 7.4475 15.3592 8.39549 14.5926 9.17509C13.1061 10.685 10.8837 11.4514 7.98557 11.4522H5.89231V11.458C3.71915 11.458 1.96074 9.73452 1.99813 7.62412C2.03978 5.55068 3.87723 3.93071 6.01979 3.93071H7.27337V2.00021H6.04784C2.74433 2.00021 -0.0577379 4.61172 0.000904139 7.80484C0.0629457 10.8977 2.67549 13.3885 5.89231 13.3885V13.3901H19.4616C20.4032 13.3901 21.2948 13.1757 22.086 12.7946C24.0323 11.8597 25.3725 9.91689 25.3725 7.67669C25.3725 4.59858 22.7804 2.03718 19.5959 1.96735ZM20.6871 11.2617C20.3013 11.3857 19.8899 11.4522 19.4616 11.4522H14.9444C15.3379 11.1688 15.7059 10.8558 16.0459 10.51C16.7751 9.76902 17.3326 8.93192 17.7542 8.04636C18.3924 6.71473 18.6754 5.27713 18.8216 3.90113H19.4616C21.616 3.90113 23.3676 5.59504 23.3676 7.67587C23.3676 9.34513 22.2424 10.7647 20.6871 11.2617ZM113.703 2.31977H114.567V6.7558H114.03V6.76238L111.621 3.76887V6.7558H110.756V2.32634H111.457L113.703 5.07258V2.31977V2.31977ZM119.752 5.92035H117.356L116.963 6.7558H116.027L118.082 2.32634H119.025L121.081 6.7558H120.138L119.752 5.92035ZM118.554 3.25627L117.703 5.1424H119.405L118.554 3.25627ZM123.12 3.0854H121.666V2.32552C122.989 2.32552 124.108 2.32552 125.437 2.32552V3.0854H123.984V6.7558H123.12V3.0854ZM131.014 2.33291V4.87049C131.014 6.18076 130.182 6.8511 129.03 6.8511C127.931 6.8511 126.995 6.20541 126.995 4.87049V2.33291H127.853V4.87049C127.853 5.66815 128.324 6.09204 129.037 6.09204C129.751 6.09204 130.157 5.63037 130.157 4.87049V2.33291H131.014ZM137.055 6.7558H136.028L134.692 5.27466H133.861V6.7558H132.997V2.31977C133.724 2.31977 134.45 2.32634 135.177 2.32634C136.257 2.33291 136.826 3.02871 136.826 3.79434C136.826 4.40142 136.538 5.01589 135.667 5.18676L137.055 6.69912V6.7558ZM133.86 3.10429V4.52218H135.176C135.726 4.52218 135.962 4.16812 135.962 3.81323C135.962 3.45835 135.72 3.10429 135.176 3.10429H133.86V3.10429ZM142.026 5.92035H139.629L139.237 6.7558H138.3L140.356 2.32634H141.299L143.354 6.7558H142.411L142.026 5.92035ZM140.828 3.25627L139.976 5.1424H141.678L140.828 3.25627ZM145.68 2.32634V5.98443H148.036V6.75663H144.815V2.32634H145.68ZM152.574 3.39592C152.417 3.1429 151.985 2.90221 151.488 2.90221C150.846 2.90221 150.538 3.1618 150.538 3.49121C150.538 3.87731 151.009 3.98493 151.559 4.04818C152.515 4.16237 153.405 4.40224 153.405 5.4595C153.405 6.44692 152.502 6.87081 151.48 6.87081C150.544 6.87081 149.824 6.59233 149.483 5.78234L150.204 5.42171C150.407 5.90885 150.937 6.12408 151.494 6.12408C152.037 6.12408 152.548 5.94089 152.548 5.4595C152.548 5.04218 152.095 4.87049 151.487 4.80724C150.55 4.69962 149.686 4.45892 149.686 3.46575C149.686 2.55472 150.616 2.18094 151.461 2.17519C152.175 2.17519 152.914 2.37152 153.261 3.055L152.574 3.39592Z" fill="#5198B3"/>
<path d="M37.2481 11.4769C36.128 12.5448 34.6815 13.041 33.11 13.041C29.0646 13.041 27.3538 10.349 27.3385 7.61258C27.3232 4.86059 29.1742 2.06424 33.11 2.06424C34.588 2.06424 35.9878 2.6056 37.1079 3.67354L35.7387 4.95178C35.0231 4.27487 34.0585 3.95942 33.11 3.95942C30.4805 3.95942 29.3451 5.85377 29.3603 7.61341C29.3756 9.35825 30.4185 11.177 33.11 11.177C34.0585 11.177 35.1328 10.8008 35.8484 10.1091L37.2481 11.4769ZM58.9585 4.81541C58.5854 4.21408 57.5578 3.64232 56.3757 3.64232C54.851 3.64232 54.1201 4.25926 54.1201 5.04132C54.1201 5.9581 55.2402 6.21441 56.5473 6.36474C58.8191 6.63583 60.9344 7.20677 60.9344 9.71806C60.9344 12.0642 58.7876 13.0714 56.3604 13.0714C54.1362 13.0714 52.4245 12.4101 51.6154 10.4845L53.3271 9.6277C53.809 10.7852 55.0694 11.297 56.3918 11.297C57.6828 11.297 58.8964 10.8608 58.8964 9.71806C58.8964 8.7257 57.823 8.31907 56.3757 8.16873C54.1515 7.91325 52.0973 7.34149 52.0973 4.98053C52.0973 2.81508 54.307 1.92787 56.3136 1.91309C58.0091 1.91309 59.7675 2.37887 60.5919 4.00296L58.9585 4.81541ZM72.5651 11.4769C71.445 12.5448 69.9985 13.041 68.427 13.041C64.3816 13.041 62.6708 10.349 62.6555 7.61258C62.6402 4.86059 64.4912 2.06424 68.427 2.06424C69.905 2.06424 71.3047 2.6056 72.4249 3.67354L71.0557 4.95178C70.3401 4.27487 69.3755 3.95942 68.427 3.95942C65.7975 3.95942 64.662 5.85377 64.6773 7.61341C64.6926 9.35825 65.7354 11.177 68.427 11.177C69.3755 11.177 70.4498 10.8008 71.1654 10.1091L72.5651 11.4769ZM97.6716 7.44664C97.7183 10.1083 96.0381 12.8003 92.2264 12.8003C90.8887 12.8003 89.2866 12.8003 87.948 12.8003V2.27372C89.2858 2.27372 90.8887 2.27372 92.2264 2.27372C95.9608 2.27372 97.6248 4.84498 97.6716 7.44664ZM89.9861 10.8903H92.2264C94.7004 10.8903 95.6803 9.14549 95.6336 7.43186C95.5868 5.79298 94.5916 4.15329 92.2264 4.15329H89.9861V10.8903ZM108.064 12.8003H99.9119C99.9119 9.29664 99.9119 5.7782 99.9119 2.27372H108.064V4.19847H101.95V6.6194H107.846V8.46858H101.95V10.8443H108.064V12.8003V12.8003ZM43.2194 2.22854L38.3343 12.7551H40.5593L41.1959 11.3553H42.8285C44.3005 11.3553 45.7181 10.9018 46.896 10.0853L48.1046 12.7551H50.3449L45.4597 2.22854H43.2194ZM42.9347 9.42561H42.0729L44.3396 4.43917L46.0801 8.28374C45.2124 9.01405 44.0965 9.42561 42.9347 9.42561ZM85.5964 12.8151L80.7113 2.28851H78.471L73.5858 12.8151H75.8108L76.6021 11.0324C77.5106 10.0508 79.4042 9.4823 80.7648 9.4823H81.8467L83.3561 12.8151H85.5964ZM80.8719 7.55262C79.8376 7.55262 78.8296 7.77606 77.9126 8.19091L79.5911 4.49914L80.973 7.55262H80.8719Z" fill="#E9EAE8"/>
</svg>
