<svg width="154" height="14" viewBox="0 0 154 14" fill="none" xmlns="http://www.w3.org/2000/svg">
<path d="M20.1603 1.96735L19.3861 1.96653V0.0261766C11.3589 -0.315562 7.53611 2.67876 7.72394 9.59815C12.0872 9.59815 14.189 7.53457 16.0146 4.87295L14.5511 4.00464C13.8397 5.27466 11.1473 7.54525 9.61323 7.54525C10.2353 3.41892 13.2465 1.69215 17.6064 1.96324C17.603 3.35895 17.4058 4.96414 16.8509 6.43953C16.471 7.4475 15.9236 8.39549 15.157 9.17509C13.6706 10.685 11.4481 11.4514 8.55003 11.4522H6.45676V11.458C4.2836 11.458 2.52519 9.73452 2.56259 7.62412C2.60423 5.55068 4.44168 3.93071 6.58424 3.93071H7.83782V2.00021H6.61229C3.30879 2.00021 0.506715 4.61172 0.565357 7.80484C0.627399 10.8977 3.23995 13.3885 6.45676 13.3885V13.3901H20.026C20.9677 13.3901 21.8592 13.1757 22.6505 12.7946C24.5967 11.8597 25.937 9.91689 25.937 7.67669C25.937 4.59858 23.3448 2.03718 20.1603 1.96735ZM21.2516 11.2617C20.8657 11.3857 20.4544 11.4522 20.026 11.4522H15.5089C15.9024 11.1688 16.2704 10.8558 16.6103 10.51C17.3395 9.76902 17.8971 8.93192 18.3186 8.04636C18.9569 6.71473 19.2399 5.27713 19.3861 3.90113H20.026C22.1805 3.90113 23.9321 5.59504 23.9321 7.67587C23.9321 9.34513 22.8068 10.7647 21.2516 11.2617ZM114.267 2.31977H115.132V6.7558H114.594V6.76238L112.185 3.76887V6.7558H111.321V2.32634H112.021L114.267 5.07258V2.31977ZM120.317 5.92035H117.921L117.527 6.7558H116.592L118.647 2.32634H119.589L121.645 6.7558H120.703L120.317 5.92035ZM119.118 3.25627L118.268 5.1424H119.97L119.118 3.25627ZM123.684 3.0854H122.231V2.32552C123.553 2.32552 124.672 2.32552 126.002 2.32552V3.0854H124.548V6.7558H123.684V3.0854ZM131.579 2.33291V4.87049C131.579 6.18076 130.746 6.8511 129.595 6.8511C128.495 6.8511 127.559 6.20541 127.559 4.87049V2.33291H128.417V4.87049C128.417 5.66815 128.889 6.09204 129.602 6.09204C130.316 6.09204 130.721 5.63037 130.721 4.87049V2.33291H131.579ZM137.62 6.7558H136.592L135.257 5.27466H134.426V6.7558H133.561V2.31977C134.288 2.31977 135.015 2.32634 135.741 2.32634C136.821 2.33291 137.391 3.02871 137.391 3.79434C137.391 4.40142 137.103 5.01589 136.232 5.18676L137.62 6.69912V6.7558ZM134.425 3.10429V4.52218H135.74C136.29 4.52218 136.527 4.16812 136.527 3.81323C136.527 3.45835 136.284 3.10429 135.74 3.10429H134.425ZM142.59 5.92035H140.194L139.801 6.7558H138.865L140.92 2.32634H141.863L143.918 6.7558H142.975L142.59 5.92035ZM141.392 3.25627L140.541 5.1424H142.243L141.392 3.25627ZM146.244 2.32634V5.98443H148.601V6.75663H145.38V2.32634H146.244ZM153.138 3.39592C152.981 3.1429 152.549 2.90221 152.052 2.90221C151.411 2.90221 151.103 3.1618 151.103 3.49121C151.103 3.87731 151.574 3.98493 152.124 4.04818C153.08 4.16237 153.97 4.40224 153.97 5.4595C153.97 6.44692 153.066 6.87081 152.045 6.87081C151.109 6.87081 150.388 6.59233 150.047 5.78234L150.768 5.42171C150.971 5.90885 151.502 6.12408 152.058 6.12408C152.601 6.12408 153.112 5.94089 153.112 5.4595C153.112 5.04218 152.66 4.87049 152.051 4.80724C151.115 4.69962 150.251 4.45892 150.251 3.46575C150.251 2.55472 151.18 2.18094 152.025 2.17519C152.739 2.17519 153.478 2.37152 153.825 3.055L153.138 3.39592Z" fill="#E9EAE8"/>
<path d="M37.8121 11.4779C36.692 12.5458 35.2454 13.042 33.674 13.042C29.6286 13.042 27.9177 10.3499 27.9024 7.61356C27.8871 4.86157 29.7382 2.06522 33.674 2.06522C35.152 2.06522 36.5517 2.60658 37.6719 3.67452L36.3027 4.95275C35.5871 4.27585 34.6225 3.96039 33.674 3.96039C31.0445 3.96039 29.909 5.85475 29.9243 7.61438C29.9396 9.35923 30.9824 11.178 33.674 11.178C34.6225 11.178 35.6967 10.8018 36.4123 10.1101L37.8121 11.4779ZM59.5224 4.81639C59.1493 4.21506 58.1218 3.6433 56.9396 3.6433C55.4149 3.6433 54.684 4.26024 54.684 5.0423C54.684 5.95908 55.8042 6.21538 57.1113 6.36572C59.383 6.63681 61.4984 7.20775 61.4984 9.71904C61.4984 12.0652 59.3516 13.0724 56.9243 13.0724C54.7002 13.0724 52.9885 12.4111 52.1794 10.4855L53.8911 9.62868C54.373 10.7862 55.6333 11.2979 56.9558 11.2979C58.2467 11.2979 59.4604 10.8617 59.4604 9.71904C59.4604 8.72668 58.387 8.32004 56.9396 8.16971C54.7155 7.91423 52.6613 7.34247 52.6613 4.98151C52.6613 2.81606 54.871 1.92885 56.8776 1.91406C58.5731 1.91406 60.3315 2.37985 61.1559 4.00393L59.5224 4.81639ZM73.1291 11.4779C72.0089 12.5458 70.5624 13.042 68.991 13.042C64.9455 13.042 63.2347 10.3499 63.2194 7.61356C63.2041 4.86157 65.0552 2.06522 68.991 2.06522C70.4689 2.06522 71.8687 2.60658 72.9889 3.67452L71.6197 4.95275C70.9041 4.27585 69.9395 3.96039 68.991 3.96039C66.3615 3.96039 65.226 5.85475 65.2413 7.61438C65.2566 9.35923 66.2994 11.178 68.991 11.178C69.9395 11.178 71.0137 10.8018 71.7293 10.1101L73.1291 11.4779ZM98.2356 7.44762C98.2823 10.1092 96.6021 12.8013 92.7903 12.8013C91.4526 12.8013 89.8506 12.8013 88.512 12.8013V2.2747C89.8497 2.2747 91.4526 2.2747 92.7903 2.2747C96.5247 2.2747 98.1888 4.84596 98.2356 7.44762ZM90.55 10.8913H92.7903C95.2644 10.8913 96.2443 9.14646 96.1975 7.43283C96.1508 5.79396 95.1556 4.15427 92.7903 4.15427H90.55V10.8913ZM108.628 12.8013H100.476C100.476 9.29762 100.476 5.77917 100.476 2.2747H108.628V4.19945H102.514V6.62038H108.41V8.46955H102.514V10.8453H108.628V12.8013ZM43.7834 2.22951L38.8983 12.7561H41.1233L41.7598 11.3563H43.3924C44.8645 11.3563 46.2821 10.9028 47.46 10.0862L48.6685 12.7561H50.9088L46.0237 2.22951H43.7834ZM43.4987 9.42659H42.6369L44.9035 4.44014L46.6441 8.28472C45.7764 9.01502 44.6605 9.42659 43.4987 9.42659ZM86.1604 12.8161L81.2752 2.28948H79.0349L74.1498 12.8161H76.3748L77.166 11.0334C78.0746 10.0517 79.9681 9.48327 81.3288 9.48327H82.4107L83.9201 12.8161H86.1604ZM81.4359 7.55359C80.4016 7.55359 79.3936 7.77704 78.4766 8.19189L80.1551 4.50011L81.537 7.55359H81.4359Z" fill="#E9EAE8"/>
</svg>
