<svg width="186" height="13" viewBox="0 0 186 13" fill="none" xmlns="http://www.w3.org/2000/svg">
<g clip-path="url(#clip0_586_6998)">
<path d="M42.7536 9.72117C41.9837 10.4836 40.8298 10.8989 39.8074 10.8989C36.9112 10.8989 35.7907 8.89472 35.7741 6.97117C35.7574 5.03315 36.9801 2.94431 39.8074 2.94431C40.8277 2.94431 41.8647 3.29142 42.6347 4.03729L44.1078 2.6282C42.9017 1.45051 41.3973 0.855469 39.8074 0.855469C35.5737 0.855469 33.5811 3.93811 33.5978 6.97117C33.6145 9.9877 35.4548 12.9546 39.8074 12.9546C41.4975 12.9546 43.0541 12.4071 44.258 11.2315L42.7536 9.72117ZM51.6799 0.855469C47.6299 0.855469 45.656 3.92158 45.656 6.97117C45.656 10.0208 47.5631 12.9546 51.6799 12.9546C55.7967 12.9546 57.6537 9.95464 57.6892 6.95464C57.7226 3.91952 55.7153 0.855469 51.6799 0.855469ZM51.6799 2.84307C54.4404 2.84307 55.5463 5.03109 55.5129 6.98563C55.4795 8.89059 54.4425 10.9464 51.6799 10.9464C48.9173 10.9464 47.8803 8.90712 47.8302 7.00216C47.7822 5.04762 48.9194 2.84307 51.6799 2.84307ZM70.5904 12.7026H72.8V1.1034H70.2732L66.6071 6.09101L62.9431 1.1034H60.3996V12.7026H62.6093V4.26869L66.3421 9.32241H66.7782L70.5945 4.28522V12.7026H70.5904ZM81.9558 1.07034C80.1155 1.07034 78.2731 1.08687 76.4327 1.08687V12.686H78.6424V9.27282H81.9558C87.696 9.27282 87.6793 1.07034 81.9558 1.07034ZM78.6424 3.15712H81.9558C84.7685 3.15712 84.7852 7.26662 81.9558 7.26662H78.6424V3.15712ZM109.3 8.27902L103.56 1.08687H101.77V12.686H103.979V4.8658L110.139 12.7046V12.686H111.512V1.07034H109.302V8.27902H109.3ZM117.31 12.686V1.08687H115.118V12.686H117.31ZM126.364 0.855469C122.314 0.855469 120.34 3.92158 120.34 6.97117C120.34 10.0208 122.247 12.9546 126.364 12.9546C130.481 12.9546 132.338 9.95464 132.373 6.95464C132.405 3.91952 130.397 0.855469 126.364 0.855469ZM126.364 2.84307C129.125 2.84307 130.23 5.03109 130.197 6.98563C130.164 8.89059 129.127 10.9464 126.364 10.9464C123.601 10.9464 122.564 8.90712 122.514 7.00216C122.464 5.04762 123.601 2.84307 126.364 2.84307ZM143.031 8.27902L137.289 1.08687H135.499V12.686H137.709V4.8658L143.868 12.7046V12.686H145.241V1.07034H143.031V8.27902ZM94.1372 1.08687L99.3911 12.686H96.9812L95.6812 9.7439C94.4147 10.6427 92.8894 11.1427 91.3057 11.1427H89.5488L88.8644 12.686H86.4712L91.7272 1.08687H94.1372ZM94.8049 7.76043L92.9332 3.52282L90.494 9.01869H91.4226C92.6703 9.01869 93.8722 8.56415 94.8049 7.76043Z" fill="#EDEEE9"/>
<path d="M22.1184 4.28306L19.9651 6.66529L22.2415 9.17769C23.2222 10.2562 24.6161 10.874 26.0787 10.874H28.3197V7.79132H24.5075V5.66529H30.4709V13H26.1872C24.0506 13 22.0162 12.0992 20.589 10.5248L18.5316 8.25413L16.4806 10.5207C15.0492 12.0992 13.0148 13 10.8782 13H6.33363C2.8762 13 0.0656071 10.2562 -0.00116277 6.84917C-0.0637595 3.33264 2.94923 0.456612 6.50055 0.456612H8.66431V2.58264H6.47134C4.16778 2.58264 2.19181 4.36777 2.14591 6.65083C2.10417 8.97521 3.99668 10.874 6.33363 10.874H10.9929C12.4556 10.874 13.8578 10.2562 14.8343 9.17355L17.0961 6.67355L13.9266 3.17562L8.87506 8.75207H6.00395L13.9266 0L18.5296 5.08471L20.4721 2.93182C21.9035 1.35331 23.9379 0.452479 26.0787 0.452479H30.4688V2.58264H25.9598C24.4971 2.58264 23.097 3.20041 22.1184 4.28306Z" fill="#EDEEE9"/>
<path d="M152.638 5.92993H153.619L151.48 1.20472H150.499L148.356 5.92993H149.331L149.74 5.03943H152.235L152.638 5.92993ZM151.874 4.20886H150.103L150.99 2.19646L151.874 4.20886ZM158.983 1.7915C158.493 1.31216 157.852 1.06836 157.212 1.06836C155.528 1.06836 154.689 2.2977 154.689 3.62621C154.689 4.86795 155.419 6.0353 157.212 6.0353C158.05 6.0353 158.643 5.71712 159.115 5.18406V3.19233H157.07V3.98778H158.29V4.82456C157.915 5.12208 157.587 5.20266 157.214 5.20266C156.029 5.20266 155.572 4.39894 155.572 3.62208C155.572 2.651 156.191 1.88034 157.214 1.88034C157.629 1.88034 158.107 2.04976 158.428 2.35348L158.983 1.7915ZM165.291 5.87001L163.845 4.25638C164.753 4.07456 165.051 3.4196 165.051 2.77084C165.051 1.95472 164.458 1.21092 163.334 1.20472C162.576 1.20472 161.821 1.19852 161.063 1.19852V5.92993H161.963V4.34935H162.829L164.218 5.92993H165.289V5.87001H165.291ZM163.336 2.0353C163.901 2.0353 164.154 2.4134 164.154 2.7915C164.154 3.1696 163.907 3.5477 163.336 3.5477H161.965V2.0353H163.336ZM167.776 5.92993V1.20472H166.883V5.92993H167.776ZM152.39 11.3865C152.077 11.6965 151.605 11.8659 151.19 11.8659C150.011 11.8659 149.554 11.0498 149.548 10.2667C149.541 9.47745 150.038 8.62621 151.19 8.62621C151.605 8.62621 152.029 8.76877 152.342 9.07249L152.941 8.49811C152.45 8.01877 151.837 7.77704 151.188 7.77704C149.462 7.77704 148.653 9.03117 148.659 10.2667C148.665 11.496 149.416 12.7027 151.188 12.7027C151.876 12.7027 152.511 12.4795 153.001 12.0002L152.39 11.3865ZM157.76 7.87621V10.5828C157.76 11.3927 157.337 11.8865 156.594 11.8865C155.851 11.8865 155.361 11.4341 155.361 10.5828V7.87621H154.468V10.5828C154.468 12.0064 155.442 12.6965 156.588 12.6965C157.788 12.6965 158.654 11.9816 158.654 10.5828V7.87621H157.76ZM160.715 7.87001V12.5952H164.068V11.7708H161.614V7.87001H160.715ZM166.332 12.5952H167.231V8.67993H168.744V7.87001C167.361 7.87001 166.194 7.87001 164.817 7.87001V8.67993H166.33V12.5952H166.332ZM173.66 7.87621V10.5828C173.66 11.3927 173.236 11.8865 172.494 11.8865C171.751 11.8865 171.261 11.4341 171.261 10.5828V7.87621H170.367V10.5828C170.367 12.0064 171.342 12.6965 172.487 12.6965C173.687 12.6965 174.553 11.9816 174.553 10.5828V7.87621H173.66ZM180.844 12.5353L179.398 10.9217C180.306 10.7398 180.604 10.0849 180.604 9.43613C180.604 8.62001 180.012 7.87621 178.887 7.87001C178.129 7.87001 177.374 7.86381 176.617 7.86381V12.5952H177.516V11.0146H178.382L179.772 12.5952H180.842V12.5353H180.844ZM178.887 8.70059C179.452 8.70059 179.705 9.07869 179.705 9.45679C179.705 9.83489 179.459 10.213 178.887 10.213H177.516V8.70059H178.887ZM186 11.7171H183.321V10.651H185.904V9.82043H183.321V8.73365H186V7.87001H182.428C182.428 9.44233 182.428 11.0229 182.428 12.5952H186V11.7171ZM174.424 3.60762V2.7977C173.04 2.7977 171.874 2.7977 170.497 2.7977V3.60762H174.424Z" fill="#EDEEE9"/>
</g>
<defs>
<clipPath id="clip0_586_6998">
<rect width="186" height="13" fill="white"/>
</clipPath>
</defs>
</svg>
