<svg xmlns="http://www.w3.org/2000/svg" width="350.177" height="232.428" viewBox="0 0 350.177 232.428"><path fill="#9BCD65" d="M122.63 8.61C116.644 4.68 111.15-.31 110.824.016c-.326.326 4.826 5.66 8.61 11.794 3.936 6.38 9.782 23.53 16.462 30.21 6.217 6.22 18.19 13.445 24.283 7.35 6.093-6.094-1.722-17.608-7.874-23.76-6.68-6.678-23.36-12.848-29.676-17"/><path fill="#1A7E3F" d="M136.085 5.59c-8.688.173-11.778-.392-13.397-2.08-.748-.773-1.538-2.247-1.538-2.247s.176 1.427.832 2.82c.658 1.395 2.74 3.81 9.312 6.298 6.576 2.485 16.825 6.787 23.114 13.197 16.43 16.757 8.31 26.73 7.464 27.65-.923.847-10.895 8.967-27.65-7.463-6.41-6.29-10.713-16.538-13.198-23.113-2.488-6.572-4.903-8.654-6.298-9.31-1.392-.658-2.82-.833-2.82-.833s1.475.79 2.248 1.538c1.687 1.62 2.253 4.708 2.08 13.396-.146 7.423-1.065 20.974 7.17 29.208 8.706 8.707 19.33 6.936 27.952 3.642 0 0 12.667-4.91 14.698-2.88-2.03-2.03 2.88-14.7 2.88-14.7 3.294-8.62 5.065-19.243-3.642-27.95-8.233-8.234-21.785-7.316-29.207-7.17"/><path fill="#FFF" d="M148.815 38.084c1.358-1.357 3.462-1.357 4.688-.13 1.27 1.27 1.27 3.373-.087 4.73-1.357 1.358-3.55 1.445-4.82.175-1.224-1.227-1.138-3.42.22-4.776"/><path fill="#D0DD28" d="M231.022 11.903c3.934-5.986 8.922-11.48 8.596-11.806-.326-.326-5.66 4.826-11.793 8.61-6.38 3.936-23.532 9.782-30.213 16.462-6.218 6.217-13.443 18.188-7.35 24.282 6.095 6.094 17.608-1.72 23.76-7.872 6.68-6.68 12.85-23.36 17-29.677"/><path fill="#1A7E3F" d="M234.045 25.358c-.173-8.688.392-11.777 2.08-13.396.772-.75 2.246-1.54 2.246-1.54s-1.425.177-2.817.834c-1.396.657-3.81 2.738-6.3 9.312-2.483 6.575-6.785 16.824-13.195 23.113-16.757 16.43-26.73 8.31-27.65 7.465-.847-.922-8.967-10.894 7.464-27.65 6.288-6.41 16.538-10.713 23.113-13.198 6.573-2.488 8.654-4.903 9.312-6.298.656-1.393.833-2.82.833-2.82s-.79 1.474-1.54 2.248c-1.617 1.687-4.707 2.252-13.395 2.08-7.422-.147-20.973-1.066-29.206 7.168-8.71 8.708-6.938 19.332-3.644 27.953 0 0 4.91 12.666 2.88 14.697 2.03-2.03 14.7 2.882 14.7 2.882 8.62 3.29 19.243 5.062 27.95-3.645 8.233-8.233 7.314-21.784 7.17-29.207"/><path fill="#FFF" d="M201.55 38.09c1.357 1.356 1.357 3.46.132 4.687-1.27 1.27-3.375 1.27-4.733-.087-1.357-1.358-1.444-3.55-.174-4.82 1.226-1.226 3.416-1.138 4.775.22"/><path fill="#9BCD65" d="M227.813 120.04c5.986 3.934 11.48 8.92 11.807 8.597.326-.327-4.827-5.66-8.608-11.794-3.938-6.38-9.784-23.532-16.464-30.213-6.218-6.217-18.188-13.443-24.283-7.348-6.095 6.093 1.722 17.607 7.873 23.76 6.678 6.678 23.36 12.848 29.675 16.998"/><path fill="#1A7E3F" d="M214.357 123.06c8.688-.172 11.777.395 13.396 2.08.75.774 1.54 2.248 1.54 2.248s-.177-1.427-.833-2.82c-.657-1.394-2.74-3.81-9.313-6.298-6.575-2.484-16.824-6.786-23.113-13.196-16.43-16.756-8.31-26.728-7.464-27.65.923-.846 10.895-8.967 27.65 7.463 6.41 6.29 10.713 16.538 13.197 23.113 2.49 6.574 4.903 8.655 6.298 9.312 1.393.657 2.82.833 2.82.833s-1.475-.79-2.248-1.538c-1.688-1.62-2.252-4.71-2.08-13.397.146-7.42 1.064-20.973-7.17-29.206-8.706-8.708-19.33-6.937-27.952-3.642 0 0-12.667 4.91-14.697 2.88 2.03 2.03-2.882 14.7-2.882 14.7-3.292 8.618-5.063 19.243 3.645 27.95 8.235 8.233 21.786 7.316 29.207 7.17"/><path fill="#FFF" d="M201.627 90.567c-1.357 1.357-3.462 1.357-4.688.13-1.272-1.27-1.272-3.373.086-4.73 1.357-1.358 3.55-1.445 4.82-.175 1.225 1.226 1.138 3.418-.22 4.775"/><path fill="#9BCD65" d="M119.42 116.748c-3.933 5.986-8.92 11.48-8.596 11.806.326.325 5.66-4.826 11.794-8.608 6.38-3.938 23.532-9.784 30.212-16.464 6.218-6.217 13.444-18.19 7.35-24.283-6.095-6.095-17.61 1.72-23.76 7.872-6.68 6.68-12.85 23.36-17 29.676"/><path fill="#1A7E3F" d="M116.398 103.292c.173 8.688-.392 11.778-2.08 13.397-.773.747-2.247 1.537-2.247 1.537s1.428-.176 2.82-.832c1.395-.658 3.81-2.74 6.3-9.312 2.483-6.576 6.785-16.825 13.195-23.114 16.757-16.43 26.73-8.31 27.65-7.465.847.923 8.967 10.895-7.463 27.65-6.29 6.41-16.538 10.713-23.113 13.198-6.574 2.49-8.656 4.903-9.313 6.298-.657 1.394-.832 2.82-.832 2.82s.79-1.474 1.538-2.247c1.62-1.687 4.708-2.253 13.396-2.08 7.42.147 20.972 1.065 29.206-7.17 8.707-8.706 6.936-19.33 3.642-27.952 0 0-4.91-12.666-2.88-14.697-2.03 2.03-14.7-2.88-14.7-2.88-8.62-3.294-19.243-5.065-27.95 3.643-8.234 8.233-7.316 21.785-7.17 29.206"/><path fill="#FFF" d="M148.893 90.562c-1.357-1.357-1.357-3.462-.13-4.688 1.27-1.27 3.373-1.27 4.73.087 1.358 1.358 1.445 3.55.175 4.82-1.227 1.226-3.418 1.14-4.775-.218"/><path fill="#1A7E3F" d="M0 184.636c5.14 0 5.884-1.05 5.884-7.244v-20.12c0-6.195-.744-7.185-5.884-7.185v-1.302h16.78c14.428 0 20.682 8.36 20.682 18.575 0 10.218-6.254 18.576-20.68 18.576H0v-1.3zm10.837-8.172c0 6.19.68 7.182 5.757 7.182h.247c12.076 0 14.678-9.04 14.678-16.285 0-7.243-2.602-16.283-14.677-16.283h-6.003v25.387zM67.99 178.634l.362-1.446h1.444l-.577 8.75H42.173v-1.447c4.844 0 5.71-1.228 5.71-8.46v-11.57c0-7.232-.866-8.388-5.71-8.388v-1.448h25.308l.58 8.68h-1.52l-.36-1.446c-.797-3.328-1.737-4.63-8.317-4.63H53.02v10.777h.434c7.232 0 7.81-.87 7.81-5.715h1.446v14.1h-1.447c0-4.77-.577-5.71-7.81-5.71h-.433v4.194c0 7.232.867 8.39 5.713 8.39h.867c6.58-.002 7.522-1.23 8.39-4.63M102.608 178.634l.36-1.446h1.448l-.578 8.75H76.793v-1.447c4.845 0 5.712-1.228 5.712-8.46v-11.57c0-7.232-.867-8.388-5.712-8.388v-1.448H102.102l.58 8.68h-1.52l-.36-1.446c-.798-3.328-1.738-4.63-8.318-4.63H87.64v10.777h.433c7.232 0 7.81-.87 7.81-5.715h1.447v14.1h-1.448c0-4.77-.577-5.71-7.81-5.71h-.432v4.194c0 7.232.867 8.39 5.712 8.39h.867c6.58-.002 7.52-1.23 8.388-4.63M133.993 177.765c2.894 3.4 6.218 6.22 9.692 6.726v1.447h-9.256l-9.837-13.45h-2.025v3.544c0 7.233.868 8.46 5.713 8.46v1.447h-16.558v-1.446c4.844 0 5.712-1.227 5.712-8.46v-11.57c0-7.23-.868-8.39-5.712-8.39v-1.446h14.968c7.45 0 11.57 3.834 11.57 8.97 0 4.41-3.327 8.026-8.75 8.75l4.483 5.42zm-7.303-20.537h-4.122v12.584h4.122c4.048 0 5.93-2.82 5.93-6.22 0-3.47-1.882-6.364-5.93-6.364M195.865 185.256c-.308-1.486-1.298-2.972-2.104-3.528-3.155 3.28-7.18 5.263-11.514 5.263-10.464 0-19.01-8.854-19.01-19.628 0-10.774 8.546-19.627 19.01-19.627 4.333 0 8.358 1.918 11.515 5.264.808-.62 1.798-1.982 2.105-3.53h1.24v13.62h-1.24c-1.73-8.05-6.5-12.94-13.372-12.94-9.907 0-13.5 9.537-13.5 17.213 0 7.678 3.593 17.15 13.5 17.15 6.87 0 11.64-4.952 13.372-12.878h1.24v13.622h-1.24zM227.18 177.765c2.894 3.4 6.218 6.22 9.692 6.726v1.447h-9.256l-9.837-13.45h-2.024v3.544c0 7.233.867 8.46 5.712 8.46v1.447h-16.56v-1.446c4.846 0 5.713-1.227 5.713-8.46v-11.57c0-7.23-.866-8.39-5.712-8.39v-1.446h14.97c7.448 0 11.57 3.834 11.57 8.97 0 4.41-3.328 8.026-8.75 8.75l4.482 5.42zm-7.303-20.537h-4.12v12.584h4.12c4.05 0 5.93-2.82 5.93-6.22 0-3.47-1.88-6.364-5.93-6.364M267.96 178.634l.36-1.446h1.446l-.578 8.75h-27.045v-1.447c4.845 0 5.71-1.228 5.71-8.46v-11.57c0-7.232-.865-8.388-5.71-8.388v-1.448h25.308l.58 8.68h-1.52l-.36-1.446c-.797-3.328-1.736-4.63-8.316-4.63h-4.845v10.777h.433c7.232 0 7.81-.87 7.81-5.715h1.447v14.1h-1.448c0-4.77-.576-5.71-7.81-5.71h-.433v4.194c0 7.232.865 8.39 5.71 8.39h.868c6.582-.002 7.524-1.23 8.39-4.63M302.818 178.634l.363-1.446h1.445l-.578 8.75h-27.045v-1.447c4.845 0 5.71-1.228 5.71-8.46v-11.57c0-7.232-.865-8.388-5.71-8.388v-1.448h25.308l.58 8.68h-1.52l-.36-1.446c-.798-3.328-1.737-4.63-8.316-4.63h-4.846v10.777h.434c7.232 0 7.81-.87 7.81-5.715h1.447v14.1h-1.45c0-4.77-.575-5.71-7.808-5.71h-.434v4.194c0 7.232.866 8.39 5.713 8.39h.868c6.583-.002 7.523-1.23 8.39-4.63M322.698 172.342v3.688c0 7.23.867 8.46 5.712 8.46v1.447h-16.56v-1.447c4.846 0 5.713-1.23 5.713-8.46v-11.57c0-7.233-.867-8.39-5.712-8.39v-1.447h16.56v1.448c-4.845 0-5.712 1.156-5.712 8.39v4.628l8.823-7.52c5.206-4.483 4.846-5.496.868-5.496v-1.448h13.595v1.448c-3.615 0-5.786 1.23-11.788 6.363l-6.22 5.35 11.79 10.343c5.928 5.206 7.88 6.292 10.41 6.292v1.52h-16.993v-1.52c3.978.07 4.7-1.23.146-5.497l-8.75-8.17-1.88 1.59zM113.168 223.86l.363-1.446h1.445l-.577 8.75H87.354v-1.447c4.844 0 5.71-1.228 5.71-8.46v-11.57c0-7.23-.866-8.39-5.71-8.39v-1.445h25.308l.58 8.678h-1.52l-.36-1.446c-.797-3.328-1.737-4.628-8.317-4.628H98.2v10.776h.434c7.232 0 7.81-.87 7.81-5.716h1.446v14.102h-1.447c0-4.77-.577-5.712-7.81-5.712H98.2v4.195c0 7.232.867 8.39 5.713 8.39h.867c6.58 0 7.52-1.232 8.388-4.63M148.08 223.86l.36-1.446h1.45l-.58 8.75h-27.044v-1.447c4.845 0 5.712-1.228 5.712-8.46v-11.57c0-7.23-.867-8.39-5.712-8.39v-1.445H147.575l.58 8.678h-1.52l-.36-1.446c-.798-3.328-1.738-4.628-8.318-4.628h-4.844v10.776h.433c7.232 0 7.81-.87 7.81-5.716h1.447v14.102h-1.448c0-4.77-.577-5.712-7.81-5.712h-.432v4.195c0 7.232.867 8.39 5.712 8.39h.867c6.582 0 7.522-1.232 8.39-4.63M241.505 230.18c-.308-1.486-1.298-2.972-2.104-3.528-3.155 3.282-7.18 5.263-11.515 5.263-10.463 0-19.01-8.854-19.01-19.63 0-10.772 8.547-19.626 19.01-19.626 4.334 0 8.36 1.917 11.516 5.264.808-.62 1.798-1.982 2.105-3.53h1.24v13.62h-1.24c-1.73-8.048-6.5-12.94-13.373-12.94-9.906 0-13.498 9.537-13.498 17.213 0 7.68 3.592 17.152 13.498 17.152 6.872 0 11.642-4.955 13.373-12.88h1.24v13.622h-1.24zM58.404 232.428h-1.238v-13.623h1.3s.062 11.146 11.392 11.146c4.397 0 7.74-2.85 7.74-6.812 0-2.848-2.847-5.263-7.12-7.49l-5.944-3.032c-3.592-1.858-6.874-5.512-6.874-10.218 0-5.14 4.273-9.226 10.28-9.226 3.652 0 5.694 1.177 7.552 2.538.744-.62 1.488-1.548 1.798-2.848h1.238v13.622h-1.3c-.435-4.953-2.293-10.838-9.474-10.838-3.467 0-6.008 2.415-6.008 5.514 0 3.22 2.168 4.89 7.555 7.676l5.885 3.035c4.766 2.415 6.5 6.005 6.5 9.41 0 6.752-5.45 11.147-11.827 11.147-4.706 0-7.678-2.478-9.66-2.912-.74.62-1.484 1.55-1.794 2.913M157.137 229.716c4.845 0 5.713-1.227 5.713-8.46v-11.57c0-7.23-.868-8.39-5.713-8.39v-1.446h15.33c12.293 0 17.645 7.088 17.645 15.62 0 8.607-5.353 15.693-17.646 15.693h-15.33v-1.447zm15.546-27.26h-4.7v20.536c0 4.7.508 5.498 4.123 5.498h.577c9.545 0 11.426-7.233 11.426-13.02 0-5.713-1.88-13.015-11.427-13.015M265.25 231.882c-8.313 0-15.136-6.512-15.136-14.514 0-7.877 6.823-14.45 15.135-14.45 8.31 0 15.133 6.573 15.133 14.45 0 8.003-6.823 14.514-15.134 14.514m0-26.608c-7.382 0-10.048 6.76-10.048 12.095 0 5.395 2.666 12.094 10.047 12.094 7.317 0 10.048-6.698 10.048-12.095 0-5.335-2.73-12.096-10.05-12.096M288.73 231.882c-1.92 0-3.41-1.49-3.41-3.226 0-1.8 1.49-3.288 3.41-3.288s3.536 1.49 3.536 3.288c0 1.736-1.613 3.226-3.535 3.226"/></svg>