<svg width="130" height="21" viewBox="0 0 130 21" fill="none" xmlns="http://www.w3.org/2000/svg">
<g clip-path="url(#clip0_485_7760)">
<path d="M42.4151 8.0095C42.3743 5.7094 40.9148 3.43555 37.6412 3.43555H33.8086V12.7426H37.6412C40.983 12.7428 42.4561 10.3629 42.4151 8.0095ZM35.5952 5.09772H37.6412C39.7145 5.09772 40.5874 6.54695 40.6284 7.99627C40.6692 9.51194 39.8101 11.0543 37.6412 11.0543H35.5952V5.09772Z" fill="white"/>
<path d="M50.404 11.0139H45.722V8.91369H50.2127V7.27797H45.7224V5.1374H50.4043V3.43555H43.9355V12.7426H50.404V11.0139Z" fill="white"/>
<path d="M56.2676 12.7422C56.8888 12.7429 57.504 12.6234 58.0774 12.3908C58.6509 12.1581 59.1713 11.8168 59.6085 11.3867L58.4646 10.3096C57.8724 10.8573 57.0839 11.1575 56.2676 11.1459H54.3963V3.43555H52.5957V12.7426H56.2676V12.7422Z" fill="white"/>
<path d="M64.9051 12.7422C65.5263 12.7429 66.1414 12.6235 66.7149 12.3908C67.2884 12.1581 67.8087 11.8168 68.2459 11.3867L67.102 10.3096C66.5098 10.8573 65.7214 11.1574 64.9051 11.1459H62.8554V3.43555H61.0547V12.7426H64.9051V12.7422Z" fill="white"/>
<path d="M77.3198 12.7426H79.2703L74.9873 3.43555H73.0231L68.7402 12.7426H70.7044L71.2785 11.4638C71.8707 10.9179 72.658 10.6187 73.473 10.6301H76.3678L77.3198 12.7426ZM73.473 9.03264C73.0795 9.03237 72.6875 9.08013 72.3062 9.17481L74.005 5.39034L75.6472 9.03264H73.473Z" fill="white"/>
<path d="M86.7597 12.7424V5.03087H89.7878V3.43555H81.9316V5.03087H84.9597V12.7424H86.7597Z" fill="white"/>
<path d="M97.74 11.0139H93.058V8.91369H97.5486V7.27797H93.058V5.1374H97.74V3.43555H91.2715V12.7426H97.74V11.0139Z" fill="white"/>
<path d="M125.716 3.43555H123.752L119.469 12.7426H121.433L122.007 11.4638C122.599 10.9175 123.387 10.6183 124.203 10.6298H127.097L128.049 12.7423H130L125.716 3.43555ZM124.203 9.03264C123.809 9.03237 123.417 9.08013 123.036 9.17481L124.735 5.39034L126.377 9.03264H124.203Z" fill="white"/>
<path d="M115.468 9.61525C115.458 9.60407 115.451 9.59053 115.448 9.57595C115.444 9.56136 115.445 9.54622 115.45 9.532C115.454 9.51778 115.463 9.50496 115.474 9.49478C115.485 9.4846 115.499 9.4774 115.514 9.47389C117.214 9.07597 117.782 7.82182 117.782 6.58039C117.782 4.97153 116.595 3.50897 114.345 3.49575C112.861 3.49575 111.376 3.48293 109.892 3.48242C109.868 3.48242 109.846 3.49156 109.829 3.50785C109.812 3.52413 109.803 3.54622 109.803 3.56925V12.716C109.803 12.7273 109.805 12.7386 109.809 12.7492C109.814 12.7597 109.82 12.7693 109.829 12.7773C109.837 12.7854 109.847 12.7918 109.858 12.7962C109.868 12.8005 109.88 12.8028 109.892 12.8028H111.515C111.538 12.8028 111.561 12.7936 111.578 12.7774C111.594 12.7611 111.604 12.739 111.604 12.716V10.195C112.125 9.87227 112.731 9.70262 113.349 9.70633L116.092 12.7732C116.1 12.7826 116.11 12.7902 116.122 12.7955C116.134 12.8007 116.146 12.8034 116.159 12.8035H118.171C118.194 12.8035 118.217 12.7943 118.234 12.7781C118.251 12.7618 118.26 12.7397 118.26 12.7167C118.26 12.6954 118.252 12.675 118.237 12.6591L115.468 9.61525ZM113.352 8.17562C112.753 8.17423 112.159 8.28551 111.603 8.50337V5.21718C111.603 5.19418 111.612 5.17213 111.629 5.15586C111.646 5.1396 111.668 5.13045 111.692 5.13045H114.345C115.477 5.13045 115.981 5.87501 115.981 6.61956C115.981 7.4449 115.49 8.17451 114.345 8.17451L113.352 8.17562Z" fill="white"/>
<path d="M107.901 6.5257C107.901 4.91694 106.715 3.45439 104.464 3.44106C102.95 3.44106 101.436 3.42773 99.9219 3.42773V12.7481H101.722V10.1402C102.244 9.81753 102.85 9.64789 103.468 9.65154L106.237 12.7481H108.379V12.6285L105.487 9.45082C107.301 9.09177 107.901 7.80207 107.901 6.5257ZM103.472 8.12104C102.872 8.11975 102.278 8.23121 101.722 8.44929V5.07688H104.464C105.596 5.07688 106.101 5.82144 106.101 6.56599C106.101 7.39133 105.61 8.12093 104.464 8.12093L103.472 8.12104Z" fill="white"/>
<path d="M36.2338 16.3828H34.2578V20.4077H35.2251V19.2692H36.2338C37.2012 19.2692 37.8146 18.7115 37.8146 17.8261C37.8146 16.9407 37.2012 16.3828 36.2338 16.3828ZM36.1866 18.4469H35.2193V17.2166H36.1866C36.5936 17.2166 36.8532 17.458 36.8532 17.8318C36.8532 18.2056 36.5936 18.4469 36.1866 18.4469Z" fill="white"/>
<path d="M41.5826 17.941H39.8306V16.3828H38.8633V20.4077H39.8306V18.792H41.5826V20.4077H42.544V16.3828H41.5826V17.941Z" fill="white"/>
<path d="M45.3287 16.3828L43.4766 20.4077H44.5089L44.8156 19.6832H46.8506L47.1573 20.4077H48.2014L46.361 16.3828H45.3287ZM45.163 18.8725L45.8414 17.2855L46.5079 18.8725H45.163Z" fill="white"/>
<path d="M52.6306 17.7459C52.6306 16.9352 52.0467 16.3828 51.1442 16.3828H49.1328V20.4077H50.1002V19.0795H50.6606L51.7105 20.4077H52.8603L51.6928 18.9998C52.2944 18.8154 52.6306 18.3612 52.6306 17.7459ZM51.0317 18.3209H50.0943V17.1883H51.0317C51.4446 17.1883 51.6747 17.3951 51.6747 17.7574C51.6747 18.1197 51.445 18.3209 51.0317 18.3209Z" fill="white"/>
<path d="M56.1499 18.0962L54.7401 16.3828H53.873V20.4077H54.8345V17.8835L56.0615 19.3382H56.2502L57.4653 17.8893V20.4077H58.4268V16.3828H57.5597L56.1499 18.0962Z" fill="white"/>
<path d="M61.2155 16.3828L59.3633 20.4077H60.3955L60.7022 19.6832H62.7373L63.044 20.4077H64.088L62.2477 16.3828H61.2155ZM61.0503 18.8725L61.7286 17.2855L62.3953 18.8725H61.0503Z" fill="white"/>
<path d="M66.8003 19.6607C66.0511 19.6607 65.5438 19.1547 65.5438 18.3958C65.5438 17.6369 66.0513 17.1308 66.8003 17.1308C66.9757 17.1274 67.1501 17.1582 67.3132 17.2214C67.4763 17.2846 67.6247 17.3789 67.7499 17.4988L68.3457 16.918C68.1414 16.7153 67.897 16.5553 67.6272 16.4475C67.3575 16.3398 67.0681 16.2866 66.7766 16.2913C65.4849 16.2913 64.5703 17.1308 64.5703 18.3958C64.5703 19.6434 65.4433 20.5001 66.7941 20.5001C67.0918 20.5052 67.3876 20.4525 67.664 20.3448C67.9405 20.2372 68.1922 20.077 68.4045 19.8734L67.8382 19.2582C67.5596 19.5196 67.1869 19.6641 66.8003 19.6607Z" fill="white"/>
<path d="M70.3403 18.746H72.4342V17.9869H70.3403V17.1705H72.5523V16.3828H69.4023V20.4077H72.6172V19.6143H70.3403V18.746Z" fill="white"/>
<path d="M76.5557 18.6713C76.5557 19.2865 76.2139 19.6602 75.6532 19.6602C75.081 19.6602 74.7447 19.2866 74.7447 18.6713V16.3828H73.7773V18.6713C73.7773 19.8213 74.4675 20.494 75.6532 20.494C76.8388 20.494 77.523 19.8213 77.523 18.6713V16.3828H76.5557V18.6713Z" fill="white"/>
<path d="M78.4863 17.205H79.7428V20.4077H80.7102V17.205H81.9724V16.3828H78.4863V17.205Z" fill="white"/>
<path d="M83.9283 16.3828H82.9609V20.4077H83.9283V16.3828Z" fill="white"/>
<path d="M87.3276 19.6607C86.5785 19.6607 86.0712 19.1547 86.0712 18.3958C86.0712 17.6369 86.5788 17.1308 87.3276 17.1308C87.5031 17.1274 87.6775 17.1582 87.8405 17.2214C88.0036 17.2846 88.1521 17.3789 88.2773 17.4988L88.8731 16.918C88.6688 16.7153 88.4243 16.5553 88.1546 16.4475C87.8849 16.3398 87.5955 16.2866 87.304 16.2913C86.0122 16.2913 85.0977 17.1308 85.0977 18.3958C85.0977 19.6434 85.9707 20.5002 87.3214 20.5002C87.6191 20.5053 87.9148 20.4525 88.1913 20.3449C88.4679 20.2373 88.7196 20.077 88.9318 19.8734L88.3655 19.2582C88.0869 19.5196 87.7143 19.6641 87.3276 19.6607Z" fill="white"/>
<path d="M91.442 16.3828L89.5898 20.4077H90.6221L90.9288 19.6832H92.9638L93.2706 20.4077H94.3146L92.4742 16.3828H91.442ZM91.2763 18.8725L91.9547 17.2855L92.6212 18.8725H91.2763Z" fill="white"/>
<path d="M96.2136 16.3828H95.2461V20.4077H98.2899V19.5567H96.2136V16.3828Z" fill="white"/>
<path d="M101.026 17.9587C100.442 17.8897 100.218 17.7631 100.218 17.5102C100.218 17.2514 100.531 17.0846 101.008 17.0846C101.39 17.0847 101.763 17.1991 102.076 17.4124L102.53 16.7512C102.07 16.4455 101.524 16.2849 100.967 16.2912C99.9584 16.2912 99.2742 16.7914 99.2742 17.5331C99.2742 18.2632 99.7755 18.637 100.902 18.7578C101.48 18.8211 101.74 18.959 101.74 19.2177C101.74 19.4938 101.433 19.6663 100.943 19.6663C100.48 19.6727 100.028 19.5246 99.6634 19.2465L99.1621 19.9308C99.676 20.3096 100.305 20.51 100.949 20.4999C101.987 20.4999 102.689 19.9882 102.689 19.2236C102.689 18.4991 102.147 18.0851 101.026 17.9587Z" fill="white"/>
<path d="M18.6075 0.5H7.66083C5.62977 0.502271 3.68256 1.28976 2.24638 2.68971C0.810199 4.08966 0.00233029 5.98775 0 7.96757C0.00222069 9.94746 0.810045 11.8456 2.24624 13.2456C3.68243 14.6457 5.6297 15.4332 7.66083 15.4354H18.6075C20.6386 15.4332 22.5859 14.6457 24.022 13.2458C25.4582 11.8458 26.2661 9.94771 26.2684 7.96787C26.2661 5.98799 25.4583 4.08981 24.0221 2.68979C22.5859 1.28978 20.6387 0.502245 18.6075 0.5ZM12.1499 2.50497V6.99815H7.63058C7.81409 5.88534 8.34738 4.85547 9.15688 4.05066C9.96637 3.24585 11.0122 2.70578 12.1499 2.50497ZM12.1499 8.91659V13.1959C11.0496 13.0016 10.0343 12.4899 9.23561 11.727C8.43689 10.9641 7.89144 9.98503 7.66984 8.91659H12.1499ZM14.118 13.1959V8.91659H18.5981C18.3765 9.98499 17.831 10.964 17.0323 11.7269C16.2335 12.4897 15.2183 13.0014 14.118 13.1957V13.1959ZM14.118 6.99815V2.50497C15.2558 2.7058 16.3016 3.24587 17.111 4.05067C17.9205 4.85548 18.4538 5.88534 18.6374 6.99815H14.118ZM2.05251 8.91659H4.7087V6.99815H2.05696C2.2921 5.71555 2.9821 4.55426 4.00641 3.7172C5.03071 2.88013 6.32418 2.42051 7.66083 2.41865H8.05983C7.2828 3.10633 6.66198 3.94489 6.2373 4.88044C5.81262 5.81598 5.59346 6.82781 5.59392 7.85085C5.59366 8.93405 5.83942 10.0039 6.31355 10.9835C6.78768 11.9632 7.47842 12.8284 8.33619 13.517H7.66083C6.3203 13.5153 5.02327 13.0531 3.9976 12.2118C2.97194 11.3704 2.28324 10.2036 2.05251 8.91639V8.91659ZM18.6075 13.517H17.9318C18.7896 12.8284 19.4805 11.9632 19.9547 10.9835C20.4289 10.0038 20.6747 8.93392 20.6745 7.85064C20.675 6.8276 20.4558 5.81579 20.0312 4.88024C19.6065 3.9447 18.9857 3.10612 18.2086 2.41844H18.6075C19.9442 2.42028 21.2377 2.87989 22.262 3.71696C23.2863 4.55403 23.9763 5.71534 24.2114 6.99795H21.5307V8.91639H24.2157C23.985 10.2036 23.2964 11.3704 22.2707 12.2117C21.2451 13.0531 19.948 13.5153 18.6075 13.517Z" fill="white"/>
</g>
<defs>
<clipPath id="clip0_485_7760">
<rect width="130" height="20" fill="white" transform="translate(0 0.5)"/>
</clipPath>
</defs>
</svg>
