<?xml version="1.0" encoding="utf-8"?>
<!-- Generator: Adobe Illustrator 27.0.1, SVG Export Plug-In . SVG Version: 6.00 Build 0)  -->
<svg version="1.1" id="Layer_1" xmlns="http://www.w3.org/2000/svg" xmlns:xlink="http://www.w3.org/1999/xlink" x="0px" y="0px"
	 viewBox="0 0 407.95 229.47" style="enable-background:new 0 0 407.95 229.47;" xml:space="preserve">
<style type="text/css">
	.st0{fill:#ffff;}
</style>
<g>
	<g>
		<g>
			<path class="st0" d="M62.7,97.59v-8.12h8.54v8.12H62.7z M62.7,140.1v-36.83h8.54v36.83H62.7z"/>
			<path class="st0" d="M88.19,108.17c0.84-1.12,1.83-2.11,2.98-2.98c1.14-0.86,2.45-1.54,3.92-2.03s3.58-0.74,5.36-0.74
				c2.33,0,4.4,0.42,6.2,1.26c1.8,0.84,3.21,2.19,4.24,4.06c1.03,1.87,1.54,4.37,1.54,7.49v24.86h-8.61v-23.32
				c0-1.31-0.15-2.39-0.46-3.26c-0.3-0.86-0.75-1.56-1.33-2.1c-0.58-0.54-1.29-0.92-2.14-1.16c-0.84-0.23-1.77-0.35-2.8-0.35
				c-1.54,0-2.93,0.37-4.17,1.12c-1.24,0.75-2.22,1.77-2.94,3.08c-0.72,1.31-1.08,2.83-1.08,4.55v21.43h-8.54v-36.83h7.84V108.17z"
				/>
			<path class="st0" d="M122.99,140.1v-29.83h-5.32v-7h5.32v-4.69c0-1.63,0.27-3.19,0.81-4.66c0.54-1.47,1.48-2.67,2.84-3.61
				c1.35-0.93,3.24-1.4,5.67-1.4c0.7,0,1.41,0.05,2.14,0.14c0.72,0.09,1.41,0.22,2.07,0.38c0.65,0.16,1.21,0.34,1.68,0.53v5.95h-3.5
				c-1.03,0-1.81,0.27-2.35,0.81c-0.54,0.54-0.81,1.32-0.81,2.35v4.2h6.65v7h-6.65v29.83H122.99z M143.74,140.1V89.47h8.54v50.63
				H143.74z"/>
			<path class="st0" d="M176.21,140.94c-3.92,0-7.19-0.69-9.8-2.07c-2.62-1.38-4.58-3.49-5.88-6.34c-1.31-2.85-1.96-6.46-1.96-10.85
				c0-4.43,0.65-8.06,1.96-10.89c1.31-2.82,3.27-4.92,5.88-6.3c2.61-1.38,5.88-2.07,9.8-2.07c3.55,0,6.52,0.67,8.93,2
				c2.4,1.33,4.21,3.37,5.43,6.13c1.21,2.75,1.82,6.33,1.82,10.71v2.52h-25.07c0.09,2.29,0.44,4.21,1.05,5.78
				c0.61,1.56,1.55,2.73,2.84,3.5c1.28,0.77,2.98,1.16,5.08,1.16c1.07,0,2.08-0.14,3.01-0.42c0.93-0.28,1.75-0.71,2.45-1.3
				c0.7-0.58,1.25-1.32,1.65-2.21s0.6-1.91,0.6-3.08h8.4c0,2.33-0.41,4.37-1.22,6.09c-0.82,1.73-1.96,3.15-3.43,4.27
				c-1.47,1.12-3.19,1.96-5.15,2.52C180.63,140.66,178.5,140.94,176.21,140.94z M167.46,117.76h16.04c0-1.54-0.18-2.85-0.53-3.92
				c-0.35-1.07-0.84-1.96-1.47-2.66c-0.63-0.7-1.39-1.2-2.28-1.5c-0.89-0.3-1.89-0.46-3.01-0.46c-1.82,0-3.35,0.3-4.59,0.91
				c-1.24,0.61-2.18,1.54-2.84,2.8C168.14,114.19,167.69,115.8,167.46,117.76z"/>
			<path class="st0" d="M215.01,140.94c-3.83,0-7.01-0.69-9.56-2.07c-2.54-1.38-4.45-3.49-5.71-6.34
				c-1.26-2.85-1.89-6.46-1.89-10.85c0-4.43,0.64-8.06,1.93-10.89c1.28-2.82,3.2-4.92,5.74-6.3c2.54-1.38,5.71-2.07,9.49-2.07
				c2.47,0,4.67,0.3,6.58,0.91c1.91,0.61,3.56,1.53,4.94,2.77c1.38,1.24,2.42,2.77,3.12,4.59c0.7,1.82,1.05,3.95,1.05,6.37h-8.68
				c0-1.73-0.26-3.15-0.77-4.27c-0.51-1.12-1.3-1.97-2.35-2.56c-1.05-0.58-2.39-0.88-4.03-0.88c-1.92,0-3.48,0.44-4.69,1.33
				s-2.11,2.21-2.7,3.96s-0.88,3.96-0.88,6.62v0.91c0,2.61,0.29,4.81,0.88,6.58c0.58,1.77,1.51,3.09,2.77,3.96
				c1.26,0.86,2.92,1.29,4.97,1.29c1.59,0,2.91-0.29,3.96-0.88c1.05-0.58,1.86-1.46,2.42-2.63c0.56-1.17,0.84-2.57,0.84-4.2h8.26
				c0,2.29-0.35,4.34-1.05,6.16c-0.7,1.82-1.73,3.36-3.08,4.62c-1.35,1.26-3,2.22-4.94,2.87
				C219.69,140.61,217.48,140.94,215.01,140.94z"/>
			<path class="st0" d="M247.71,140.94c-2.29,0-4.08-0.46-5.39-1.37s-2.23-2.08-2.77-3.5s-0.8-2.88-0.8-4.38v-21.43h-4.41v-7h4.41
				V92.97h8.54v10.29h6.37v7h-6.37v20.59c0,0.98,0.26,1.74,0.77,2.28c0.51,0.54,1.28,0.8,2.31,0.8h3.29v7H247.71z"/>
		</g>
		<polygon class="st0" points="324.59,92.58 319.64,87.63 304,103.27 262.32,103.27 262.32,110.27 297,110.27 288.66,118.6 
			262.32,118.6 262.32,125.6 281.66,125.6 273.33,133.94 262.32,133.94 262.32,140.94 268.99,140.94 276.23,140.94 276.23,140.94 
			276.23,140.94 		"/>
		<polygon class="st0" points="296.89,140.94 334.4,103.43 329.45,98.47 286.98,140.94 		"/>
		<polygon class="st0" points="318.58,140.94 345.25,114.27 340.29,109.32 308.67,140.94 		"/>
	</g>
</g>
</svg>
