<svg width="148" height="13" viewBox="0 0 148 13" fill="none" xmlns="http://www.w3.org/2000/svg">
<g clip-path="url(#clip0_586_7028)">
<path d="M36.7716 0.978481H34.5143V7.3536C34.5143 9.03507 33.5566 10.351 31.5045 10.351C29.4694 10.351 28.4776 9.3834 28.4776 7.48048H26.254C26.254 10.6206 28.4431 12.3175 31.5045 12.3175C34.8053 12.3175 36.7722 10.224 36.7722 7.3536L36.7716 0.978481ZM45.612 0.772461C41.4734 0.772461 39.4552 3.70619 39.4552 6.62407C39.4552 9.54194 41.4047 12.3491 45.612 12.3491C49.8192 12.3491 51.7174 9.47866 51.7519 6.60828C51.786 3.70618 49.7338 0.772461 45.612 0.772461ZM45.612 2.67537C48.4338 2.67537 49.5628 4.76854 49.5284 6.63992C49.4943 8.46379 48.4339 10.4304 45.612 10.4304C42.79 10.4304 41.73 8.47958 41.6785 6.6557C41.6276 4.78476 42.79 2.67537 45.612 2.67537ZM64.7816 11.9526L61.156 8.16244C63.4307 7.73428 64.1829 6.1959 64.1829 4.67365C64.1829 2.75487 62.6952 1.01045 59.8738 0.994245C57.9755 0.994245 56.0771 0.978481 54.1785 0.978481V12.0954H56.4362V8.38406H58.6083L62.097 12.0951H64.782L64.7816 11.9526ZM59.8733 2.94502C61.2928 2.94502 61.9255 3.83308 61.9255 4.72114C61.9255 5.6092 61.3098 6.49717 59.8733 6.49717H56.4357V2.94502H59.8733ZM71.9406 0.994245H67.2374V12.0954H71.9406C76.1307 12.0954 77.9779 9.25653 77.9266 6.44968C77.875 3.7062 76.0454 0.994245 71.9406 0.994245ZM69.4781 2.97666H71.9406C74.5402 2.97666 75.6347 4.70527 75.686 6.4339C75.7375 8.24157 74.6601 10.0813 71.9406 10.0813H69.4781V2.97666ZM101.991 7.87703L96.1251 0.994245H94.2951V12.0954H96.5528V4.61002L102.846 12.1111V12.0954H104.248V0.978481H101.992L101.991 7.87703ZM86.6891 0.994245L92.059 12.0954H89.5962L88.2674 9.27949C86.9646 10.1487 85.4007 10.6171 83.7958 10.6189H82.0011L81.3013 12.0954H78.8555L84.2259 0.994245H86.6891ZM87.3714 7.38039L85.458 3.32578L82.966 8.5842H83.9138C85.185 8.58258 86.4129 8.15506 87.3711 7.38039H87.3714Z" fill="white"/>
<path d="M109.82 0.988968C109.028 0.988968 108.236 0.995739 107.444 0.995739V5.66936H108.395V4.29394H109.82C112.29 4.29394 112.283 0.988968 109.82 0.988968ZM108.395 1.8297H109.82C111.03 1.8297 111.037 3.4856 109.82 3.4856H108.395L108.395 1.8297ZM117.889 5.60869L116.362 4.01295C117.32 3.83267 117.637 3.18512 117.637 2.54417C117.637 1.73637 117.011 1.00136 115.822 0.99521C115.023 0.99521 114.224 0.98846 113.424 0.98846V5.66885H114.375V4.10654H115.29L116.758 5.66885H117.889V5.60869ZM115.822 1.81645C116.42 1.81645 116.686 2.19019 116.686 2.56419C116.686 2.93818 116.427 3.31209 115.822 3.31209H114.375V1.81696L115.822 1.81645ZM121.847 0.901702C120.104 0.901702 119.254 2.13687 119.254 3.36539C119.254 4.59391 120.075 5.77563 121.847 5.77563C123.618 5.77563 124.417 4.56722 124.431 3.35864C124.446 2.1374 123.582 0.902209 121.847 0.902209V0.901702ZM121.847 1.70299C123.035 1.70299 123.51 2.58413 123.495 3.37199C123.481 4.13992 123.035 4.96774 121.847 4.96774C120.658 4.96774 120.212 4.1465 120.19 3.37883C120.169 2.59148 120.658 1.70352 121.847 1.70352V1.70299ZM130.082 4.4737C129.74 4.77544 129.287 4.94495 128.815 4.94772C127.569 4.94772 127.087 4.13991 127.079 3.36539C127.072 2.58411 127.598 1.74294 128.815 1.74294C129.267 1.73693 129.703 1.89507 130.032 2.18359L130.665 1.61598C130.423 1.38933 130.135 1.20949 129.817 1.08688C129.499 0.964269 129.159 0.901332 128.815 0.901702C126.993 0.901702 126.136 2.14363 126.143 3.36539C126.15 4.58064 126.943 5.77563 128.815 5.77563C129.168 5.78375 129.519 5.72654 129.848 5.60732C130.177 5.48809 130.477 5.30926 130.73 5.08128L130.082 4.4737ZM136.074 4.80088H133.244V3.74598H135.973V2.92474H133.244V1.84999H136.074V0.99538H132.301V5.66902H136.074V4.80088ZM141.894 1.76288C141.513 1.04175 140.699 0.834961 139.914 0.834961C138.985 0.841548 137.963 1.23547 137.963 2.19703C137.963 3.24578 138.913 3.49896 139.943 3.6125C140.612 3.67924 141.109 3.85953 141.109 4.30018C141.109 4.80766 140.548 5.00111 139.95 5.00111C139.338 5.00111 138.755 4.77428 138.532 4.26004L137.74 4.64055C138.114 5.49515 138.906 5.78898 139.937 5.78898C141.06 5.78898 142.053 5.34174 142.053 4.30018C142.053 3.18512 141.074 2.93132 140.023 2.81119C139.418 2.74445 138.899 2.63093 138.899 2.22356C138.899 1.87643 139.238 1.6028 139.943 1.6028C140.491 1.6028 140.966 1.85641 141.139 2.12345L141.894 1.76288ZM147.841 1.76288C147.46 1.04175 146.646 0.834961 145.861 0.834961C144.932 0.841548 143.91 1.23547 143.91 2.19703C143.91 3.24578 144.86 3.49896 145.89 3.6125C146.56 3.67924 147.056 3.85953 147.056 4.30018C147.056 4.80766 146.495 5.00111 145.897 5.00111C145.286 5.00111 144.702 4.77428 144.479 4.26004L143.687 4.64055C144.062 5.49515 144.853 5.78898 145.884 5.78898C147.007 5.78898 148 5.34174 148 4.30018C148 3.18512 147.021 2.93132 145.97 2.81119C145.365 2.74445 144.847 2.63093 144.847 2.22356C144.847 1.87643 145.185 1.6028 145.891 1.6028C146.438 1.6028 146.913 1.85641 147.086 2.12345L147.841 1.76288Z" fill="white"/>
<path d="M17.8742 10.4489V12.4999C19.5861 12.4939 21.2256 11.8591 22.4337 10.7345C23.6419 9.60997 24.3202 8.0873 24.3202 6.49995C24.3202 4.9126 23.6419 3.38994 22.4337 2.26539C21.2256 1.14083 19.5861 0.506033 17.8742 0.5H8.41602V2.55104H17.8742C19.0037 2.55104 20.0868 2.96709 20.8855 3.70765C21.6841 4.44822 22.1329 5.45263 22.1329 6.49995C22.1329 7.54726 21.6841 8.5517 20.8855 9.29226C20.0868 10.0328 19.0037 10.4489 17.8742 10.4489Z" fill="white"/>
<path d="M-3.05176e-05 6.49999C-3.05176e-05 4.90869 0.681679 3.38257 1.89515 2.25735C3.10863 1.13213 4.75452 0.5 6.47063 0.5V2.55104C5.34462 2.55593 4.26647 2.97414 3.47213 3.71417C2.67778 4.45421 2.23189 5.45583 2.23189 6.49995C2.23189 7.54407 2.67778 8.54569 3.47213 9.28572C4.26647 10.0258 5.34462 10.444 6.47063 10.4489H15.9206V12.4999H6.47063C4.75453 12.4999 3.10871 11.8678 1.89524 10.7426C0.681773 9.61739 -5.72748e-06 8.09127 -3.05176e-05 6.49999Z" fill="white"/>
</g>
<defs>
<clipPath id="clip0_586_7028">
<rect width="148" height="12" fill="white" transform="translate(0 0.5)"/>
</clipPath>
</defs>
</svg>
