<svg height="41" viewBox="0 0 118 41" width="118" xmlns="http://www.w3.org/2000/svg"><g fill="#fff"><path d="m23.9475032 40.340589h-5.4391805v-13.8548015l-6.1644046 10.1078105h-.6194623l-6.16440458-10.1078105v13.8548015h-5.43918054v-23.8266325h5.45428937l6.46658135 10.5912932 6.4665813-10.5912932h5.4391805z" opacity=".75"/><path d="m28.540589 23.3129321h5.1067862v17.0276569h-5.1067862z" opacity=".75"/><path d="m55.5400768 16.5139565v23.8266325h-5.1067861v-1.6015365c-1.1180538 1.2993598-2.7951345 2.0699104-5.0765685 2.0699104-4.4571063 0-8.143662-3.9131883-8.143662-8.9897568s3.6714468-8.9897567 8.143662-8.9897567c2.281434 0 3.9434058.7856594 5.0765685 2.0850192v-8.415621h5.1067861zm-5.1067861 15.3203585c0-2.5533931-1.7072984-4.1549296-4.0491678-4.1549296s-4.0491677 1.6015365-4.0491677 4.1549296 1.7072983 4.1549296 4.0491677 4.1549296 4.0491678-1.6015365 4.0491678-4.1549296z"/><path d="m70.1805378 22.9805378v5.7866837c-2.1152369-.3475032-5.1067862.5137004-5.1067862 3.8829706v7.6903969h-5.1067862v-17.0276569h5.1067862v3.021767c.6798976-2.2663252 2.9613316-3.3541613 5.1067862-3.3541613z"/><path d="m73.2325224 23.3129321h5.1067862v17.0276569h-5.1067862z"/><path d="m109.795903 36.2612036c1.390012 0 2.58361-.5439181 3.263508-1.2993598l4.079385 2.3418694c-1.661971 2.3116517-4.185147 3.5052497-7.418437 3.5052497-5.816902 0-9.427913-3.9131883-9.427913-8.9897568s3.671446-8.9897567 9.050192-8.9897567c4.970806 0 8.642253 3.8527529 8.642253 8.9897567 0 .6798976-.060435 1.374904-.196415 2.0396927h-12.087068c.64968 1.7828426 2.220999 2.4023048 4.094495 2.4023048zm3.127528-6.1946223c-.543918-1.9792574-2.085019-2.6893726-3.611011-2.6893726-1.933931 0-3.233291.9518566-3.716773 2.6893726z"/><path d="m93.7956466 27.6189501-3.3390525 5.7715749-3.3390525-5.7715749zm4.5477593-4.1247119h-15.7736236c-.8309859 0-1.4957746.6647887-1.4957746 1.4957746 0 .2568502.0755442.5288092.1964148.7554417l7.8868118 13.6583867c.4079386.7252241 1.3295775.9669655 2.0548016.5439181.2266325-.1359795.4230473-.3172855.543918-.5439181l7.8868118-13.6583867c.4079383-.725224.1661972-1.6317541-.5439181-2.0548015-.2266325-.1359795-.4834827-.1964148-.7554417-.1964148z"/><path d="m31.0939821 5.10678617c1.8432778 0 3.3390525 1.49577465 3.3390525 3.3390525 0 1.84327783-1.4957747 3.33905253-3.3390525 3.33905253-1.8432779 0-3.3390525-1.4957747-3.3390525-3.33905253.0151088-1.84327785 1.4957746-3.3390525 3.3390525-3.3390525zm0-5.00102433c-4.6081946 0-8.324968 3.73188221-8.324968 8.34007683 0 4.60819463 3.7318822 8.32496803 8.3400768 8.32496803 4.5930858 0 8.324968-3.7318822 8.324968-8.32496803 0-4.60819462-3.7318822-8.34007683-8.3400768-8.34007683z" opacity=".75"/></g></svg>