<svg height="41" viewBox="0 0 118 41" width="118" xmlns="http://www.w3.org/2000/svg" xmlns:xlink="http://www.w3.org/1999/xlink"><linearGradient id="a"><stop offset="0" stop-color="#3393f3"/><stop offset="1" stop-color="#3393f3"/></linearGradient><linearGradient id="b" x1="-.063424%" x2="99.968288%" xlink:href="#a" y1="49.99683%" y2="49.99683%"/><linearGradient id="c" x1="0%" x2="100%" xlink:href="#a" y1="50%" y2="50%"/><linearGradient id="d" x1="-.036271%" x2="99.963729%" y1="50.000013%" y2="50.000013%"><stop offset="0" stop-color="#3393f3"/><stop offset="1" stop-color="#63c6f7"/></linearGradient><g fill="none"><path d="m23.950525 40.340589h-5.4391806v-13.8563124l-6.1613828 10.1108322h-.6134187l-6.16138285-10.1108322v13.8563124h-5.43918054v-23.8311652h5.44673496l6.46809223 10.5882715 6.4680921-10.5882715h5.4391806z" fill="url(#b)"/><path d="m28.5436108 23.3189757h5.1067861v17.0216133h-5.1067861z" fill="url(#c)"/><g fill="#000"><path d="m55.5385659 16.5094238v23.8311652h-5.1067861v-1.6000256c-1.1225865 1.2933162-2.7906018 2.0759539-5.0720359 2.0759539-4.460128 0-8.1361075-3.9146991-8.1361075-8.986735 0-5.0720358 3.6759795-8.9882458 8.1361075-8.9882458 2.2814341 0 3.9494494.7826376 5.0720359 2.0774648v-8.4095775zm-5.1067861 15.3203585c0-2.5533931-1.7027657-4.1534187-4.0506786-4.1534187-2.347913 0-4.0521895 1.6000256-4.0521895 4.1534187s1.7027656 4.1534187 4.0521895 4.1534187c2.3494238 0 4.0506786-1.6000256 4.0506786-4.1534187z"/><path d="m70.1744942 22.977516v5.7881946c-2.1152368-.3414596-5.1067861.5106786-5.1067861 3.8814597v7.6934187h-5.1067862v-17.0216133h5.1067862v3.0217669c.6798975-2.2738796 2.9613316-3.3632266 5.1067861-3.3632266z"/><path d="m73.2370551 23.3189757h5.1052752v17.0216133h-5.1052752z"/><path d="m109.795903 36.2612036c1.396056 0 2.586632-.545429 3.268041-1.2948272l4.079385 2.3494239c-1.661972 2.3146735-4.188169 3.5067605-7.42146 3.5067605-5.821434 0-9.430934-3.9146991-9.430934-8.9867349 0-5.0720359 3.67749-8.9882459 9.056235-8.9882459 4.970807 0 8.646875 3.8467094 8.646875 8.9882459.002815.6856298-.065542 1.3697052-.204058 2.0412035h-12.087068c.654213 1.764712 2.220999 2.3841742 4.092984 2.3841742zm3.132061-6.1946223c-.545429-1.9747247-2.077465-2.6893726-3.6095-2.6893726-1.939975 0-3.233291.9533675-3.71073 2.6893726z"/><path d="m93.7956466 27.6249936-3.333009 5.7655314-3.3330089-5.7715749h6.6660179zm4.5522919-4.136799h-15.7706018c-.536594 0-1.0324692.2861164-1.3008061.7507974-.268337.464681-.2683616 1.0372258-.0000645 1.5019299l7.8853009 13.6583867c.2682064.464916.7641383.7513561 1.3008706.7513561.5367324 0 1.0326643-.2864401 1.3008707-.7513561l7.8853009-13.6583867c.2682971-.4647041.2682725-1.0372489-.0000645-1.5019299-.2683369-.464681-.7642121-.7507974-1.3008062-.7507974z"/></g><path d="m31.0970038 5.1037644c1.8407701 0 3.333009 1.49223895 3.333009 3.33300897 0 1.84077003-1.4922389 3.33300893-3.333009 3.33300893-1.84077 0-3.3330089-1.4922389-3.3330089-3.33300893.001666-1.84007951 1.4929294-3.33134298 3.3330089-3.33300897zm0-4.99800475c-4.6003024.00333938-8.3271914 3.73473672-8.324968 8.33503982.0022254 4.60030313 3.7327211 8.32809453 8.3330246 8.32698323 4.6003035-.0011118 8.3289985-3.7307057 8.3289985-8.33100933 0-2.21056914-.878558-4.33051091-2.4422331-5.89305249-1.5636751-1.56254157-3.6842534-2.43956264-5.894822-2.43796123z" fill="url(#d)"/></g></svg>