<svg width="119" height="21" viewBox="0 0 119 21" fill="none" xmlns="http://www.w3.org/2000/svg">
<g clip-path="url(#clip0_586_7033)">
<path d="M34.1293 14.8584H33.0457V20.3741H34.1293V14.8584Z" fill="white"/>
<path d="M47.6161 17.3799L45.6216 14.8584H44.648V20.3742H45.7315V16.6471L47.5062 18.877H47.7261L49.5006 16.6471V20.3742H50.5842V14.8584H49.6027L47.6161 17.3799Z" fill="white"/>
<path d="M39.3901 14.7324C37.647 14.7324 36.4926 15.8829 36.4926 17.6163C36.4926 19.3497 37.647 20.5002 39.3901 20.5002C41.126 20.5002 42.2797 19.3497 42.2797 17.6163C42.2797 15.8829 41.1255 14.7324 39.3901 14.7324ZM39.3901 19.5075C38.3144 19.5075 37.592 18.7429 37.592 17.6164C37.592 16.4898 38.3144 15.7252 39.3901 15.7252C40.458 15.7252 41.1804 16.4897 41.1804 17.6164C41.1804 18.743 40.458 19.5075 39.3901 19.5075Z" fill="white"/>
<path d="M29.7721 17.5059C30.2119 17.2853 30.471 16.8672 30.471 16.3239C30.471 15.4099 29.7643 14.8584 28.6179 14.8584H25.9562V20.3745H28.6179C29.8978 20.3745 30.6437 19.8071 30.6437 18.8379C30.6461 18.5543 30.5646 18.2763 30.4094 18.0392C30.2543 17.8021 30.0325 17.6165 29.7721 17.5059ZM27.0237 15.796H28.6412C29.1202 15.796 29.4031 16.0325 29.4031 16.4422C29.4031 16.844 29.1282 17.0809 28.6412 17.0809H28.2106C27.7975 17.0796 27.3903 17.1788 27.0237 17.3699V15.796ZM28.7119 19.4207H27.0239V18.4388C27.3479 18.1422 27.7723 17.9804 28.2108 17.9862H28.7199C29.2461 17.9862 29.568 18.2463 29.568 18.6954C29.568 19.1445 29.2461 19.4207 28.7121 19.4207H28.7119Z" fill="white"/>
<path d="M55.1181 14.8584L52.6526 20.3745H53.7833L54.1138 19.6167C54.4547 19.2931 54.9079 19.1159 55.3771 19.1226H57.0433L57.5916 20.3745H58.7145L56.2488 14.8584H55.1181ZM55.3771 18.1754C55.1506 18.1753 54.9249 18.2035 54.7054 18.2596L55.6835 16.0168L56.6286 18.1754H55.3771Z" fill="white"/>
<path d="M77.5304 16.6917C77.5304 15.7396 76.8482 14.8741 75.5544 14.8662C74.684 14.8662 73.8137 14.8584 72.9434 14.8584V20.3745H73.9784V18.8319C74.2781 18.6406 74.6262 18.5398 74.9814 18.5416L76.5734 20.3741H77.8045V20.3033L76.1422 18.4228C77.1853 18.2103 77.5304 17.4471 77.5304 16.6917ZM74.9844 17.6358C74.6399 17.6351 74.2985 17.701 73.9788 17.83V15.8341H75.5548C76.2056 15.8341 76.4957 16.2747 76.4957 16.7153C76.4957 17.2037 76.2135 17.6357 75.5548 17.6357L74.9844 17.6358Z" fill="white"/>
<path d="M85.58 14.8154L83.0953 20.3739H84.2349L84.568 19.6102C84.9115 19.2841 85.3682 19.1055 85.841 19.1122H87.5202L88.0727 20.3739H89.2043L86.7194 14.8154H85.58ZM85.8411 18.1582C85.6128 18.158 85.3854 18.1865 85.1642 18.2431L86.1498 15.9828L87.1025 18.1582H85.8411Z" fill="white"/>
<path d="M81.0444 14.8584H79.9608V20.3741H81.0444V14.8584Z" fill="white"/>
<path d="M93.5077 19.5326H92.333V14.8584H91.2727V20.5003H93.5077C93.8735 20.5007 94.2357 20.4283 94.5734 20.2872C94.9111 20.1461 95.2176 19.9391 95.475 19.6783L94.8015 19.0254C94.4528 19.3575 93.9884 19.5395 93.5077 19.5326Z" fill="white"/>
<path d="M99.578 17.0884C98.7221 16.9781 98.3688 16.7653 98.3688 16.3635C98.3688 15.9617 98.8399 15.678 99.5231 15.678C100.06 15.682 100.582 15.8557 101.015 16.1743L101.549 15.4022C100.949 14.9712 100.229 14.7397 99.4916 14.7402C98.1961 14.7402 97.3008 15.41 97.3008 16.3792C97.3008 17.3642 97.9526 17.8685 99.4524 18.0497C100.316 18.1522 100.701 18.3728 100.701 18.7904C100.701 19.2316 100.238 19.5074 99.5073 19.5074C98.8657 19.5132 98.2407 19.3023 97.7329 18.9086L97.1674 19.7202C97.7877 20.2166 98.6515 20.4924 99.5074 20.4924C100.874 20.4924 101.785 19.8068 101.785 18.7746C101.785 17.8133 101.101 17.2932 99.578 17.0884Z" fill="white"/>
<path d="M59.6379 15.8355H61.3732V20.3742H62.4647V15.8355H64.2001V14.8584H59.6379V15.8355Z" fill="white"/>
<path d="M67.3888 18.0418H70.2862V17.1199H67.3888V15.804H70.4276V14.8584H66.3209V20.3742H70.4983V19.4207H67.3888V18.0418Z" fill="white"/>
<path d="M65.1222 0.53125H55.7386V2.54096H59.3079V11.8764H61.5529V2.54096H65.1222V0.53125Z" fill="white"/>
<path d="M73.1327 12.1032C76.2337 12.1032 78.1072 10.2064 78.1072 7.09514V0.53125H75.8622V7.06273C75.8622 8.9266 74.8124 10.0772 73.133 10.0772C71.4372 10.0772 70.3874 8.9266 70.3874 7.06273V0.53125H68.1585V7.09514C68.1582 10.2072 70.0317 12.1032 73.1327 12.1032Z" fill="white"/>
<path d="M104.061 9.91524H97.6651V7.07898H103.625V5.18279H97.6651V2.47612H103.915V0.53125H95.4686V11.8764H104.061V9.91524Z" fill="white"/>
<path d="M49.7626 0.53125H47.4368L42.3656 11.8763H44.6913L45.3712 10.3174C46.0723 9.65202 47.0046 9.28745 47.9696 9.3013H51.3969L52.5246 11.8765H54.8342L49.7626 0.53125ZM47.9696 7.35382C47.5036 7.35349 47.0395 7.41168 46.588 7.52704L48.5997 2.91383L50.5442 7.35382H47.9696Z" fill="white"/>
<path d="M113.928 0.53125H111.603L106.531 11.8763H108.857L109.537 10.3174C110.238 9.65202 111.17 9.28745 112.135 9.3013H115.563L116.69 11.8765H119L113.928 0.53125ZM112.135 7.35382C111.669 7.35348 111.205 7.41167 110.754 7.52704L112.766 2.91383L114.71 7.35382H112.135Z" fill="white"/>
<path d="M91.6259 4.30147C91.6259 2.34354 90.2231 0.563669 87.5625 0.547411C85.7726 0.547411 83.9827 0.53125 82.1929 0.53125V11.8742H84.3214V8.70004C84.9382 8.30718 85.6546 8.10074 86.3852 8.10537L89.6591 11.8739H92.1907V11.7288L88.7723 7.86149C90.9164 7.42437 91.6259 5.85479 91.6259 4.30147ZM86.3893 6.24286C85.6808 6.24133 84.9786 6.377 84.3212 6.64243V2.53767H87.5623C88.9007 2.53767 89.4973 3.44385 89.4973 4.34995C89.4973 5.35446 88.9169 6.24286 87.5623 6.24286H86.3893Z" fill="white"/>
<path d="M37.1244 11.9077H39.47V0.5H37.1244V9.78169C35.5591 9.7275 34.8403 8.2366 33.8557 5.80844C33.369 4.60845 32.8656 3.36684 32.1244 2.38845C31.188 1.15236 29.9894 0.531258 28.5618 0.531258H26.2786V11.8763H28.5618V2.64936C30.1734 2.64936 30.8963 4.14528 31.8953 6.60895C32.3836 7.81282 32.8886 9.05734 33.6333 10.0397C34.5544 11.2537 35.7289 11.88 37.1243 11.9056L37.1244 11.9077Z" fill="white"/>
<path d="M16.4637 12.1685C12.4012 12.1685 11.1902 9.1307 10.2172 6.68977C9.17158 4.06719 8.3995 2.45958 5.81382 2.45958C4.78973 2.45958 3.80758 2.86782 3.08343 3.59449C2.35929 4.32116 1.95247 5.30675 1.95247 6.33442C1.95247 7.36209 2.35929 8.34766 3.08343 9.07433C3.80758 9.80101 4.78973 10.2092 5.81382 10.2092H8.03892V12.1685H5.81382C4.2719 12.1685 2.79313 11.5539 1.70283 10.4598C0.612525 9.36564 0 7.88172 0 6.33442C0 4.78711 0.612525 3.30318 1.70283 2.20907C2.79313 1.11496 4.2719 0.500295 5.81382 0.500295C9.85262 0.500295 11.06 3.52874 12.0299 5.96203C13.0796 8.59535 13.8554 10.2092 16.4637 10.2092C17.4874 10.2081 18.4689 9.79945 19.1928 9.07303C19.9167 8.34662 20.3239 7.36173 20.325 6.33442C20.325 4.23442 18.6181 2.45958 16.5982 2.45958H14.3939V0.5H16.5982C17.3455 0.50245 18.0846 0.655574 18.7717 0.950273C19.4589 1.24497 20.08 1.67524 20.5981 2.21552C21.4045 3.03543 21.9515 4.07611 22.1704 5.2069C22.3894 6.3377 22.2706 7.50822 21.8289 8.57148C21.3872 9.63474 20.6423 10.5434 19.6878 11.1833C18.7333 11.8232 17.6116 12.1658 16.4637 12.1682V12.1685Z" fill="white"/>
</g>
<defs>
<clipPath id="clip0_586_7033">
<rect width="119" height="20" fill="white" transform="translate(0 0.5)"/>
</clipPath>
</defs>
</svg>
