<svg width="140" height="65" viewBox="0 0 140 65" fill="none" xmlns="http://www.w3.org/2000/svg">
<g clip-path="url(#clip0)">
<path d="M9.00295 35.1279C2.95203 35.1279 0 39.7546 0 44.3565C0 48.9584 2.85119 53.3842 9.00295 53.3842C15.1547 53.3842 17.9316 48.8575 17.9776 44.3309C18.0316 39.7546 15.03 35.1279 9.00295 35.1279ZM9.00295 50.3579C4.877 50.3579 3.32624 47.2821 3.25281 44.4061C3.17762 41.4549 4.87789 38.1252 9.00295 38.1252C13.128 38.1252 14.7796 41.4257 14.7301 44.3769C14.6797 47.2573 13.1298 50.3579 9.00295 50.3579Z" fill="#E9EAE8"/>
<path d="M45.7182 35.4795H42.4424V52.9847H45.7182V35.4795Z" fill="#E9EAE8"/>
<path d="M59.6832 42.2802C57.5822 42.0307 55.7819 41.6052 55.7819 40.0801C55.7819 38.7797 56.9576 37.7544 59.409 37.7544C61.3092 37.7544 62.9599 38.7045 63.5606 39.7006L66.1862 38.3498C64.8592 35.649 62.0346 34.874 59.309 34.874C56.0827 34.8988 52.5318 36.3779 52.5318 39.9757C52.5318 43.9017 55.8333 44.8518 59.409 45.2773C61.7347 45.5268 63.4606 46.2027 63.4606 47.8534C63.4606 49.7536 61.5144 50.479 59.4337 50.479C57.3106 50.479 55.2821 49.6288 54.5072 47.703L51.7568 49.1282C53.0573 52.3288 55.8076 53.4293 59.3842 53.4293C63.2855 53.4293 66.7364 51.7538 66.7364 47.8561C66.7355 43.6815 63.3341 42.7305 59.6832 42.2802Z" fill="#E9EAE8"/>
<path d="M71.0469 38.4802H76.598V52.9847H79.8995V38.4802H85.4506V35.4795H71.0469V38.4802Z" fill="#E9EAE8"/>
<path d="M94.353 35.4795H91.0771V52.9847H94.353V35.4795Z" fill="#E9EAE8"/>
<path d="M110.083 53.3844C112.609 53.3844 114.934 52.5591 116.735 50.7837L114.484 48.5074C113.334 49.6575 111.608 50.2829 110.083 50.2829C105.757 50.2829 104.081 47.2575 104.056 44.3559C104.031 41.4295 105.857 38.2784 110.083 38.2784C111.608 38.2784 113.159 38.8039 114.31 39.9291L116.51 37.806C114.709 36.0314 112.459 35.1309 110.083 35.1309C103.756 35.1309 100.78 39.7823 100.805 44.3586C100.83 48.9082 103.581 53.3844 110.083 53.3844Z" fill="#E9EAE8"/>
<path d="M140.001 52.9774L132.151 35.4766H128.552L120.702 52.9756H124.277L126.022 49.0027H131.33C132.781 49.0027 134.256 49.5025 135.352 50.5711L136.404 52.9756L140.001 52.9774ZM131.331 46.002H127.35L130.358 39.154L133.472 46.2691C132.771 46.0912 132.05 46.002 131.327 46.0038L131.331 46.002Z" fill="#E9EAE8"/>
<path d="M30.5513 49.9846H26.8934V35.4766H23.5928V52.9826H30.5513C32.8151 52.9826 34.9604 52.1236 36.6766 50.4322L34.5791 48.4064C33.483 49.4804 32.0048 49.9846 30.5513 49.9846Z" fill="#E9EAE8"/>
<path d="M20.5991 58.8604H19.5039V64.7113H20.5991V58.8604Z" fill="#E9EAE8"/>
<path d="M15.2409 63.6966H14.0281V58.8887H12.9355V64.6918H15.2409C15.6191 64.6929 15.9938 64.6187 16.3431 64.4737C16.6924 64.3287 17.0093 64.1156 17.2756 63.847L16.5803 63.1747C16.2193 63.5172 15.7385 63.7046 15.2409 63.6966Z" fill="#E9EAE8"/>
<path d="M23.3066 64.7112H24.4107V62.5465H27.3441V61.5265H24.4107V59.9297H27.5113V58.8682H23.3066V64.7112Z" fill="#E9EAE8"/>
<path d="M29.9277 64.7113H34.3076V63.625H31.0229V62.3042H34.1908V61.2763H31.0229V59.9299H34.3076V58.8604H29.9277V64.7113Z" fill="#E9EAE8"/>
<path d="M50.3246 63.8084C48.8782 63.8084 48.3183 62.7973 48.3094 61.8278C48.3006 60.8582 48.9119 59.7931 50.3246 59.7931C50.8506 59.7844 51.3589 59.9826 51.74 60.3452L52.4761 59.6374C52.1951 59.3536 51.8605 59.1283 51.4918 58.9746C51.1231 58.8209 50.7276 58.7419 50.3282 58.7422C48.213 58.7422 47.2186 60.2974 47.2266 61.8269C47.2346 63.3564 48.1546 64.8443 50.3282 64.8443C51.1721 64.8443 51.9488 64.5683 52.5513 63.9747L51.7984 63.2149C51.4008 63.5934 50.8736 63.8057 50.3246 63.8084Z" fill="#E9EAE8"/>
<path d="M42.5268 61.1482C41.8306 61.0651 41.2335 60.9235 41.2335 60.4175C41.2335 59.9866 41.6236 59.6469 42.4357 59.6469C43.0655 59.6469 43.6122 59.961 43.8113 60.2927L44.5349 59.5939C44.0546 58.9012 43.215 58.6934 42.4021 58.6934C41.3325 58.7022 40.156 59.1905 40.156 60.3847C40.156 61.686 41.2503 62.0019 42.4357 62.1416C43.2071 62.2248 43.7786 62.4495 43.7786 62.9962C43.7786 63.627 43.1319 63.8676 42.4436 63.8676C41.8032 63.8676 41.1901 63.6341 40.8911 63.113L40.125 63.8517C40.6107 64.5824 41.4201 64.8452 42.4251 64.8452C43.7193 64.8452 44.8631 64.2896 44.8631 62.9962C44.8649 61.6118 43.7379 61.2969 42.5268 61.1482Z" fill="#E9EAE8"/>
<path d="M55.9497 58.8604H54.8545V64.7113H55.9497V58.8604Z" fill="#E9EAE8"/>
<path d="M58.6406 64.7113H63.0205V63.625H59.7358V62.3042H62.9037V61.2763H59.7358V59.9299H63.0205V58.8604H58.6406V64.7113Z" fill="#E9EAE8"/>
<path d="M69.5662 62.4883L66.6991 58.8604H65.8047V64.7114H66.9078V60.7659L69.9837 64.7202V64.7114H70.6693V58.8516H69.5662V62.4883Z" fill="#E9EAE8"/>
<path d="M76.2875 63.8084C74.8411 63.8084 74.2812 62.7973 74.2723 61.8278C74.2635 60.8582 74.8748 59.7931 76.2875 59.7931C76.8135 59.7844 77.3218 59.9826 77.7029 60.3452L78.439 59.6374C78.158 59.3536 77.8234 59.1283 77.4547 58.9746C77.086 58.8209 76.6905 58.7419 76.2911 58.7422C74.1759 58.7422 73.1807 60.2974 73.1895 61.8269C73.1984 63.3564 74.1175 64.8443 76.2911 64.8443C77.135 64.8443 77.9126 64.5683 78.5142 63.9747L77.7613 63.2149C77.3637 63.5934 76.8365 63.8057 76.2875 63.8084Z" fill="#E9EAE8"/>
<path d="M80.7842 64.7113H85.164V63.625H81.8793V62.3042H85.0472V61.2763H81.8793V59.9299H85.164V58.8604H80.7842V64.7113Z" fill="#E9EAE8"/>
<path d="M103.63 60.7995C103.63 59.7883 102.902 58.8683 101.523 58.8604C100.595 58.8604 99.6655 58.8516 98.7393 58.8516V64.7113H99.8424V62.7554H100.904L102.61 64.7113H103.921V64.6361L102.152 62.6378C103.262 62.4131 103.63 61.6018 103.63 60.7995ZM99.8424 61.7602V59.8927H101.523C102.217 59.8927 102.525 60.3607 102.525 60.8287C102.525 61.2966 102.225 61.7646 101.523 61.7646L99.8424 61.7602Z" fill="#E9EAE8"/>
<path d="M94.743 61.1573C94.3647 61.1562 93.99 61.2305 93.6407 61.3757C93.2913 61.5209 92.9744 61.7342 92.7083 62.0031L93.4036 62.6745C93.7637 62.3328 94.2431 62.1454 94.7394 62.1525H95.2251L95.1915 63.3486C94.8246 63.6632 94.3538 63.83 93.8707 63.8166C92.4164 63.8166 91.8564 62.8213 91.8564 61.8606C91.8564 60.6566 92.6172 59.7039 93.8707 59.7039C94.4086 59.7098 94.9265 59.9085 95.3304 60.2638L96.0381 59.5809C95.4601 59.013 94.6819 58.6953 93.8716 58.6963C91.8069 58.6963 90.7754 60.2178 90.7754 61.8641C90.7754 63.4016 91.6698 64.848 93.8716 64.848C94.8996 64.848 95.6267 64.4553 96.2035 63.7953L96.238 61.1608H94.743V61.1573Z" fill="#E9EAE8"/>
<path d="M108.795 58.7422C106.773 58.7422 105.787 60.2885 105.787 61.8269C105.787 63.3653 106.74 64.8444 108.795 64.8444C110.85 64.8444 111.779 63.3317 111.796 61.819C111.812 60.2886 110.81 58.7422 108.795 58.7422ZM108.795 63.8333C107.416 63.8333 106.897 62.8053 106.873 61.8437C106.848 60.8573 107.416 59.7454 108.795 59.7454C110.174 59.7454 110.726 60.8494 110.709 61.8357C110.692 62.7965 110.174 63.8333 108.795 63.8333Z" fill="#E9EAE8"/>
<path d="M118.317 62.22C118.317 63.2232 117.798 63.8336 116.887 63.8336C115.976 63.8336 115.374 63.2736 115.374 62.22V58.8682H114.279V62.22C114.279 63.984 115.474 64.8359 116.879 64.8359C118.35 64.8359 119.411 63.9513 119.411 62.22V58.8682H118.317V62.22Z" fill="#E9EAE8"/>
<path d="M124.92 58.8516C124 58.8516 123.081 58.8604 122.162 58.8604V64.7113H123.265V62.9889H124.92C127.787 62.9889 127.779 58.8516 124.92 58.8516ZM124.92 61.9778H123.265V59.9051H124.92C126.324 59.9051 126.332 61.9778 124.92 61.9778Z" fill="#E9EAE8"/>
<path d="M78.2569 14.6423C80.4163 14.6423 82.4624 13.824 84.0999 12.2095L82.0988 10.2765C81.0532 11.3 79.6431 11.7804 78.2569 11.7804H61.4267C59.1949 11.7763 57.051 12.6501 55.458 14.2132L57.4591 16.1453C58.5047 15.1226 60.0395 14.6414 61.4267 14.6414L78.2569 14.6423ZM62.9659 8.91155H75.6941C77.8543 8.91155 79.9005 8.09326 81.538 6.4788L79.5369 4.5459C78.4913 5.56942 77.0812 6.04978 75.6941 6.04978H62.9659C60.8056 6.04978 58.7595 6.86896 57.122 8.48254L59.1231 10.4154C60.1687 9.38837 61.5788 8.91155 62.9659 8.91155ZM77.3262 17.5076H64.3486C62.1883 17.5076 60.1422 18.3259 58.5047 19.9403L60.5057 21.8733C61.5514 20.8498 62.9615 20.3694 64.3486 20.3694H77.3262C79.4856 20.3694 81.2779 19.5511 82.9145 17.9367L80.9143 16.0037C79.8678 17.0308 78.7133 17.5076 77.3262 17.5076Z" fill="#E9EAE8"/>
<path d="M70.437 23.7909C68.5634 23.7939 66.7278 23.262 65.146 22.2578L63.0645 24.2641C65.2179 25.7954 67.7947 26.6182 70.437 26.6182C73.0794 26.6182 75.6561 25.7954 77.8096 24.2641L75.7289 22.2578C74.1467 23.2619 72.3109 23.7938 70.437 23.7909Z" fill="#E9EAE8"/>
<path d="M69.6499 2.8273C71.5236 2.82386 73.3593 3.35576 74.9409 4.36038L77.0224 2.35405C74.869 0.822767 72.2922 0 69.6499 0C67.0075 0 64.4308 0.822767 62.2773 2.35405L64.358 4.36038C65.94 3.35578 67.7759 2.82389 69.6499 2.8273Z" fill="#E9EAE8"/>
</g>
<defs>
<clipPath id="clip0">
<rect width="140" height="64.8449" fill="white"/>
</clipPath>
</defs>
</svg>
