<svg id="LOGO-Railworks" xmlns="http://www.w3.org/2000/svg" viewBox="0 0 300.825 64.241">
  <defs>
    <style>
      .cls-1 {
        fill: #fff;
      }
    </style>
  </defs>
  <path id="Path_1049" data-name="Path 1049" class="cls-1" d="M108.922,61.391h4.464c1.592,0,3.765-.273,3.765-2.774,0-1.757-.97-2.773-4.23-2.773h-4ZM100.384,49.2h16.262c4.852,0,9.042,2.7,9.042,7.97,0,2.892-1.32,5.938-4.153,6.992,2.329.9,3.766,3.478,4.075,6.956.116,1.366.156,4.685.932,5.975H118a20.238,20.238,0,0,1-.7-4.3c-.232-2.655-.466-5.432-3.842-5.432h-4.541v9.731h-8.537Z" transform="translate(-27.43 -13.444)"/>
  <path id="Path_1050" data-name="Path 1050" class="cls-1" d="M153.408,67.133l-2.484-8.6h-.078l-2.677,8.6ZM146.694,49.2h8.343l10.091,27.892h-8.848l-1.163-3.982h-8.809l-1.242,3.982h-8.576Z" transform="translate(-37.296 -13.444)"/>
  <rect id="Rectangle_294" data-name="Rectangle 294" class="cls-1" width="8.539" height="27.892" transform="translate(127.988 35.758)"/>
  <path id="Path_1051" data-name="Path 1051" class="cls-1" d="M191.49,49.2h8.539V69.949h12.263V77.1h-20.8Z" transform="translate(-52.324 -13.444)"/>
  <path id="Path_1052" data-name="Path 1052" class="cls-1" d="M217.55,49.2h2.833l6.288,24.417h.078L233.5,49.2h3.3l6.792,24.417h.077L250,49.2h2.641L244.989,77.1h-2.794L235.17,52.133h-.078L228.107,77.1h-2.873Z" transform="translate(-59.445 -13.444)"/>
  <path id="Path_1053" data-name="Path 1053" class="cls-1" d="M277.682,75.2c7.3,0,10.4-6.177,10.4-12.266s-3.109-12.268-10.4-12.268c-7.337,0-10.441,6.172-10.441,12.268S270.341,75.2,277.682,75.2Zm0-26.8c8.695,0,13.042,6.917,13.042,14.535s-4.347,14.535-13.042,14.535c-8.733,0-13.082-6.915-13.082-14.535S268.946,48.394,277.682,48.394Z" transform="translate(-72.301 -13.223)"/>
  <path id="Path_1054" data-name="Path 1054" class="cls-1" d="M305.366,62.445h9.859c3.22,0,5.978-2.031,5.978-5.43s-2.019-5.547-5.978-5.547h-9.859ZM302.727,49.2H315.42c4.579,0,8.421,2.227,8.421,7.268,0,3.514-1.825,6.4-5.4,7.108v.078c3.611.469,4.658,2.97,4.852,6.291.118,1.911.118,5.741,1.281,7.146h-2.911c-.658-1.09-.658-3.163-.736-4.335-.234-3.906-.544-8.243-5.551-8.048H305.366V77.094h-2.639Z" transform="translate(-82.718 -13.444)"/>
  <path id="Path_1055" data-name="Path 1055" class="cls-1" d="M336.212,49.2h2.639v15l16.108-15h3.568l-12.38,11.525L359.111,77.1H355.7L344.169,62.564l-5.318,4.962V77.1h-2.639Z" transform="translate(-91.868 -13.444)"/>
  <path id="Path_1056" data-name="Path 1056" class="cls-1" d="M369.392,67.7c-.116,5.741,4,7.5,9.044,7.5,2.911,0,7.333-1.6,7.333-5.665,0-3.164-3.14-4.414-5.7-5.04L373.9,62.968c-3.264-.821-6.25-2.385-6.25-6.718,0-2.737,1.744-7.856,9.548-7.856,5.474,0,10.286,2.971,10.247,8.675H384.8c-.156-4.26-3.647-6.406-7.568-6.406-3.609,0-6.946,1.406-6.946,5.547,0,2.616,1.938,3.711,4.191,4.258l6.753,1.681c3.919,1.054,7.182,2.772,7.182,7.345,0,1.914-.777,7.969-10.6,7.969-6.561,0-11.372-2.969-11.063-9.766Z" transform="translate(-100.209 -13.223)"/>
  <path id="Path_1057" data-name="Path 1057" class="cls-1" d="M403.322,55.084h1.021c.863,0,1.657-.044,1.657-1.043,0-.838-.72-.969-1.381-.969h-1.3Zm-.979-2.809h2.432c1.5,0,2.2.593,2.2,1.809a1.621,1.621,0,0,1-1.653,1.725l1.8,2.8H406.07l-1.713-2.722h-1.035V58.6h-.979Zm2.1,7.792A4.624,4.624,0,1,0,400,55.416a4.457,4.457,0,0,0,4.445,4.651Zm0-10.036a5.367,5.367,0,1,1-3.837,1.56,5.417,5.417,0,0,1,3.837-1.56Z" transform="translate(-109.031 -13.67)"/>
  <path id="Path_1058" data-name="Path 1058" class="cls-1" d="M47.374,53.566C55.112,43.065,67.653,36.68,79.3,36.68V20.81c-12.355,0-23.205,3.212-31.925,9Z" transform="translate(-12.944 -5.686)"/>
  <path id="Path_1059" data-name="Path 1059" class="cls-1" d="M79.3,0H47.375V16.148A65.225,65.225,0,0,1,79.3,8.193Z" transform="translate(-12.945)"/>
  <path id="Path_1060" data-name="Path 1060" class="cls-1" d="M79.367,52.185c-13.334,0-28.16,10.6-31.74,25.692H79.372Z" transform="translate(-13.013 -14.259)"/>
  <path id="Path_1061" data-name="Path 1061" class="cls-1" d="M27.395,24.669a54.863,54.863,0,0,1,4.621-3.977V0H16.365V39.48a57.149,57.149,0,0,1,11.03-14.811Z" transform="translate(-4.472)"/>
  <rect id="Rectangle_295" data-name="Rectangle 295" class="cls-1" width="5.008" height="63.617"/>
  <path id="Path_1062" data-name="Path 1062" class="cls-1" d="M16.464,74.772H32.043V40.824C23.366,49.208,17.838,60.852,16.464,74.772Z" transform="translate(-4.499 -11.155)"/>
</svg>
