<svg width="84" height="41" fill="none" xmlns="http://www.w3.org/2000/svg">
    <path d="M6.351 23.922c3.583-.642 7.759-3.388 8.583-6.93.026-.076 0-.127-.051-.179-.052-.051-.13-.051-.18-.051-1.496.41-2.655.693-3.79.95-.592.128-1.16.282-1.804.436-.077.025-.154.102-.129.18.078 1.667-1.494 2.95-3.067 3.233-.773.128-1.469 0-1.959-.36-.773-.615-.927-1.821-.412-3.105.748-1.822 2.629-3.259 5.232-4.106a24.315 24.315 0 0 1 3.196-.77c2.346-.41 5.052-.616 8.532-.641 2.732-.026 5.567.077 8.299.154 2.655.077 5.13.18 7.475.154 2.036-.026 3.711-.103 5.103-.283.051 0 .077-.025.103-.051.928-.744 3.248-2.823 5.464-5.235.052-.052.077-.154.026-.231-.052-.077-.129-.103-.206-.077-1.237.385-2.63.693-4.227.975-4.64.821-10.052 1.103-15.8 1.386-1.418.077-2.913.154-4.356.23-2.758.155-5.876.36-8.918.899-3.376.59-6.108 1.514-8.376 2.849C2.898 14.632.372 17.12.037 19.61c-.155 1.18.18 2.232.98 3.028.901.898 2.293 1.386 3.943 1.36.412 0 .85-.051 1.288-.103l.103.026v.001z" fill="#1D8649"/>
    <path d="M23.947 13.077c-.027-.051-.106-.077-.16-.077h-.026l-4.332 1.122c-.08.026-.16.102-.16.179s.053.179.16.179c.026 0 .053.025.08.05.052.052.079.128.106.154.16.178.239.306.026.995v.05c-1.222 2.552-2.18 4.337-3.242 6.404v.025c-.665 1.276-1.489 2.832-2.472 4.796-.77 1.505-1.196 2.245-2.445 4.388l-.293.459C9.435 34.837 8.824 36.138 8 37.923c0 .026 0 .051.027.077h.026c.027 0 .027 0 .053-.026a13.85 13.85 0 0 1 8.186-3.596c.027 0 .054-.026.054-.026v-.051c-1.223-1.607-.24-4.796 1.09-7.27.318-.613.61-1.123.77-1.48L24 13.306a.49.49 0 0 0-.053-.229z" fill="#1D8649"/>
    <path d="M83.582.646C83.2.206 82.637 0 81.922 0c-.23 0-.485.026-.766.078C77.58.827 75.41 4.21 73.622 7.75h-.256c-.306 0-.613-.025-.945-.025-.97-.052-1.915-.052-2.835-.052-2.273.026-4.24.18-6.053.517-3.448.62-6.666 2.402-8.402 3.746a.17.17 0 0 0-.051.232c.05.078.127.13.23.078.46-.181.893-.284 1.353-.362.92-.155 3.116.18 3.576 1.473a.31.31 0 0 0 .127.129c.077.026.128 0 .18-.052 1.25-1.42 3.728-3.074 5.72-3.436 1.456-.258 3.09-.387 4.674-.387h1.737c-.613 1.42-1.15 2.609-1.66 3.746-.613-.982-1.558-1.499-2.733-1.499-.23 0-.46.026-.715.078-2.988.542-6.181 4.107-7.126 7.931-.078.27-.13.547-.153.827-.792 1.55-3.5 4.133-5.772 4.547-.766.129-1.43.051-1.941-.233-.383-.232-.639-.852-.767-1.37 3.372-.774 5.824-3.1 6.998-5.011.792-1.266.716-2.015.511-2.894-.255-1.188-1.124-1.808-2.452-1.808-.23 0-.485.026-.766.078-1.609.232-3.294 1.214-4.725 2.764-1.328 1.42-2.298 3.203-2.707 4.883-.255 1.11-.306 2.092-.153 2.97-1.073 1.137-2.988 2.584-4.827 2.92-.766.13-1.43.052-1.941-.233-.383-.232-.613-.568-.741-1.033 3.371-.775 5.823-3.1 6.998-5.012.766-1.24 1.098-2.48.92-3.333-.256-1.188-1.124-1.808-2.452-1.808-.23 0-.486.026-.767.077-.05 0-.102.026-.153.026-1.353.233-2.784 1.06-4.137 2.325a38.968 38.968 0 0 1-2.835 1.912c-.026-1.317-.434-1.989-.792-2.325-.383-.362-.894-.49-1.43-.387-.843.155-1.635.852-1.967 1.756-.23.62-.434 1.912.664 3.462-1.89 3.565-5.184 6.536-6.232 7.182a.468.468 0 0 1-.613-.155c-.127-.18-.127-.413-.025-.671l.383-.905c1.277-3.074 2.58-6.226 4.01-9.662a.16.16 0 0 0-.026-.18.23.23 0 0 0-.179-.078l-4.01.878c-.025 0-.025.026-.05.026v.052c.102.206.127 1.033.025 1.395-.409.981-.843 1.99-1.251 2.997a978.944 978.944 0 0 0-2.222 5.322c-1.124.775-1.584 1.085-2.835 1.808a.404.404 0 0 1-.205.078h-.05a.194.194 0 0 1-.128-.052c-.051-.078-.051-.233.076-.517l.409-.982c1.328-3.229 2.605-6.277 3.984-9.584a.16.16 0 0 0-.025-.181.23.23 0 0 0-.18-.078l-4.443.801c-.077.026-.153.104-.153.181 0 .078.05.155.127.18a.688.688 0 0 1 .434.311c.103.232.103.542-.025.878-.46 1.111-.92 2.222-1.38 3.307l-.101.284c-.69 1.628-1.38 3.307-2.07 4.987-.459 1.24-.382 2.35.154 3.048.409.517 1.073.75 1.788.62.42-.085.82-.251 1.175-.49a43.953 43.953 0 0 0 3.218-2.378c.128.44.357.801.715 1.085.51.388 1.226.543 1.967.414a3.94 3.94 0 0 0 1.021-.336c1.788-.646 6.232-4.34 9.629-9.326.102-.078.204-.155.332-.233a7.931 7.931 0 0 0-.434 1.318c-.486 2.066-.256 3.72.69 4.78.689.774 1.71 1.162 2.987 1.162.358 0 .741-.052 1.124-.104.337-.053.67-.13.996-.232 2.018-.62 4.214-2.093 5.491-3.669.051.078.128.155.18.233.842.956 2.144 1.498 3.447 1.498.255 0 .51-.026.766-.077.337-.053.67-.13.996-.233 2.222-.697 4.52-2.738 5.696-4.47.153.802.46 1.448.92 1.964.587.672 1.43 1.008 2.374 1.008.23 0 .46-.026.69-.078.996-.18 2.069-.723 3.09-1.55.358.465.894.724 1.533.698.153 0 .28-.026.434-.052.444-.084.868-.25 1.251-.49.281-.182.511-.337.715-.466.843-.542 1.15-.723 1.686-1.24.383-.207.766-.155.996.13.281.335.307.903.102 1.55-.766 2.841-3.958 3.926-9.577 4.934-.358.051-.715.129-1.047.18-3.985.647-8.199 1.06-12.26 1.473h-.025c-2.145.207-4.367.44-6.538.698-4.802.542-9.782 1.11-13.97 1.86-3.883.697-6.769 1.317-9.093 2.222-.026 0-.051.026-.051.051 0 .026.025.052.05.052 2.504.93 4.675 2.61 6.207 4.831 0 .026.026.026.051.026.026 0 .026 0 .051-.026 2.835-2.97 16.448-5.658 22.17-6.665 1.48-.259 2.962-.517 4.622-.801l.153-.026c1.38-.232 2.758-.465 4.061-.698 3.627-.645 5.925-1.11 7.739-1.575 2.273-.569 4.622-1.266 6.512-2.584.051-.026 4.368-3.203 2.733-6.562-.306-.646-1.124-.904-1.353-.982-.358-.103-.792-.103-1.252-.026-1.022.181-1.507.465-1.967.879-.178.103-.383.103-.434.052-.05-.052-.05-.233.102-.517.639-1.421 1.303-2.868 1.941-4.289l.18-.413c1.02-2.248 2.196-4.805 3.32-7.311 2.937-1.137 6.844-4.315 7.457-6.717.332-.853.205-1.602-.23-2.093zm-2.273 1.86c-.23 1.576-2.247 3.617-4.06 4.65.842-1.782 2.758-4.96 3.677-5.218h.102a.23.23 0 0 1 .18.077c.101.052.152.258.101.491zm-11.8 14.287-.05.129c-.69 1.524-1.405 3.074-2.07 4.547 0 .026-.025.051-.025.077-.74.879-1.558 1.421-2.247 1.55-.511.104-.92-.025-1.2-.361-.511-.62-.511-1.835-.052-3.255.767-2.326 2.657-4.392 4.291-4.677.102-.025.204-.025.307-.025.306 0 .536.077.715.258.332.31.433.93.331 1.757zm-17.341 4.056c.485-1.68 1.813-3.565 3.473-4.005.077-.025.18-.025.256-.025h.051c.179 0 .28.103.358.18.076.104.076.233.076.285-.587 2.04-2.963 3.28-4.214 3.565zm-10.982 3.28c.28-.878.894-2.066 1.609-3.048.894-1.24 1.813-2.015 2.58-2.222.076-.025.178-.025.255-.025h.05a.419.419 0 0 1 .307.129c.077.103.128.258.102.362-.076 1.937-3.473 4.365-4.903 4.804z" fill="#1D8649"/>
</svg>
