<?xml version="1.0" encoding="UTF-8"?>
<svg width="113px" height="40px" viewBox="0 0 113 40" version="1.1" xmlns="http://www.w3.org/2000/svg" xmlns:xlink="http://www.w3.org/1999/xlink">
    <title>Fill 1</title>
    <g id="Navigation" stroke="none" stroke-width="1" fill="none" fill-rule="evenodd">
        <g id="Desktop-/-Main-Nav-Expanded-/-Hover" transform="translate(-120.000000, -30.000000)" fill="#003349">
            <g id="Nav" transform="translate(120.000027, 30.000049)">
                <g id="Logo" transform="translate(-0.000000, -0.000000)">
                    <path d="M78.1834795,3.43703704 L78.1834795,8.81382716 L71.2698993,8.81382716 L71.2698993,3.43703704 C71.2698993,1.53876543 72.8170598,0 74.7266894,0 C76.6358252,0 78.1834795,1.53876543 78.1834795,3.43703704 L78.1834795,3.43703704 Z M37.0708869,11.9348148 C35.2738499,11.2933333 33.2945906,12.2217284 32.6491585,14.0083951 L27.8802696,27.3935802 L23.1113808,14.0083951 C22.5834795,12.5466667 21.1632326,11.6612346 19.6802696,11.7377778 C18.1968129,11.6612346 16.7765659,12.5466667 16.2486647,14.0083951 L11.4802696,27.3935802 L6.71138076,14.0083951 C6.06594866,12.2217284 4.08619557,11.2933333 2.28965236,11.9348148 C0.492615325,12.5762963 -0.440718009,14.5451852 0.204220263,16.3318519 L7.68273878,37.3224691 C8.21804742,38.8049383 9.65113384,39.5066667 11.1750845,39.5525926 C11.3780474,39.5590123 11.5815042,39.5471605 11.7839733,39.5244444 C13.2985413,39.3550617 14.741998,38.8049383 15.2773067,37.3224691 L19.6802696,24.9644444 L24.0827388,37.3224691 C24.5178005,38.5264198 25.5597758,39.1348148 26.741998,39.3990123 C27.5089116,39.5698765 28.3098993,39.5817284 29.076319,39.4079012 C30.2378005,39.1446914 31.2491585,38.5081481 31.6778005,37.3224691 L39.1558252,16.3318519 C39.8012573,14.5451852 38.867924,12.5762963 37.0708869,11.9348148 L37.0708869,11.9348148 Z M56.5410104,11.5767901 C54.2224919,11.5767901 51.3375536,12.2424691 49.7918746,14.1377778 L49.6891585,14.1377778 L49.6891585,3.43703704 C49.6891585,1.53876543 48.1415042,0 46.2318746,0 C44.3227388,0 42.7750845,1.53876543 42.7750845,3.43703704 L42.7750845,36.3145679 C42.7750845,38.2128395 44.3227388,39.7516049 46.2318746,39.7516049 C48.1415042,39.7516049 49.6891585,38.2128395 49.6891585,36.3145679 L49.6891585,22.7955556 C49.6891585,19.9269136 51.4787882,17.7239506 54.6782943,17.7239506 C57.4985413,17.7239506 59.7765659,19.3634568 59.7765659,22.7955556 L59.7765659,36.3145679 C59.7765659,38.2128395 61.3242203,39.7516049 63.2333561,39.7516049 C65.1424919,39.7516049 66.6901462,38.2128395 66.6901462,36.3145679 L66.6901462,21.5145679 C66.6901462,15.2651852 62.3627388,11.5767901 56.5410104,11.5767901 L56.5410104,11.5767901 Z M71.2698993,36.3145679 C71.2698993,38.2128395 72.8170598,39.7516049 74.7266894,39.7516049 C76.6358252,39.7516049 78.1834795,38.2128395 78.1834795,36.3145679 L78.1834795,12.1812346 L71.2698993,12.1812346 L71.2698993,36.3145679 Z M109.534591,0 C107.625455,0 106.077801,1.53876543 106.077801,3.43703704 L106.077801,36.3145679 C106.077801,38.2128395 107.625455,39.7516049 109.534591,39.7516049 C111.44422,39.7516049 112.991381,38.2128395 112.991381,36.3145679 L112.991381,3.43703704 C112.991381,1.53876543 111.44422,0 109.534591,0 L109.534591,0 Z M94.0215042,22.985679 C91.5015042,22.0350617 89.5113808,21.2844444 89.5113808,19.7733333 C89.5113808,18.3550617 90.5745906,17.4740741 92.2871832,17.4740741 C93.7202696,17.4740741 95.2417511,18.1753086 96.5839733,18.7940741 C97.5123684,19.2217284 98.3889116,19.6261728 98.9331092,19.6261728 C100.600763,19.6261728 101.721257,18.0597531 101.721257,16.5975309 C101.721257,13.2839506 96.4817511,11.5195062 92.6995289,11.5195062 C86.9326153,11.5195062 82.904961,14.9560494 82.904961,19.8760494 C82.904961,24.8804938 87.57064,26.6320988 91.3197758,28.0390123 C93.8145906,28.9748148 95.7844672,29.7145679 95.7844672,31.1975309 C95.7844672,32.8449383 94.8313808,33.5481481 92.596319,33.5481481 C90.693603,33.5481481 89.4461956,32.8469136 88.2397758,32.1688889 C87.2047141,31.5871605 86.2264425,31.037037 84.9202696,31.037037 C83.0160721,31.037037 81.9775536,33.0380247 81.9775536,34.0661728 C81.9775536,37.2192593 88.0126153,39.5017284 92.0812573,39.5017284 C98.1513808,39.5017284 102.390887,36.0449383 102.390887,31.0953086 C102.390887,26.1422222 97.7503931,24.3920988 94.0215042,22.985679 L94.0215042,22.985679 Z" id="Fill-1"></path>
                </g>
            </g>
        </g>
    </g>
</svg>