<svg width="32" height="32" fill="none" xmlns="http://www.w3.org/2000/svg"><path d="M2.75 21.75a3 3 0 0 1 3-3h6.5a3 3 0 0 1 3 3v4.5a3 3 0 0 1-3 3h-6.5a3 3 0 0 1-3-3v-4.5Z" fill="#94A3B8" fill-opacity=".2" stroke="#94A3B8" stroke-width="1.5" stroke-linejoin="round"></path><path d="M5.75 18.594V17a3.25 3.25 0 0 1 5.327-2.5l.173.156" stroke="#94A3B8" stroke-width="1.5" stroke-linecap="round" stroke-linejoin="round"></path><circle cx="9" cy="24" r="1" fill="#94A3B8"></circle><path d="M8.75 10.25v-3.5a4 4 0 0 1 4-4h12.5a4 4 0 0 1 4 4v18.5a4 4 0 0 1-4 4h-6.5" stroke="#94A3B8" stroke-width="1.5" stroke-linecap="round" stroke-linejoin="round"></path><path d="M18.75 17.75h.27c2.967 0 4.978 2.425 5.995 4.055.51.816.162 1.812-.76 2.216-1.288.563-3.234 1.229-5.234 1.229h-.271" stroke="#94A3B8" stroke-width="1.5" stroke-linecap="round" stroke-linejoin="round"></path><circle cx="19" cy="11" r="3.25" fill="#94A3B8" fill-opacity=".2" stroke="#94A3B8" stroke-width="1.5" stroke-linejoin="round"></circle></svg>