<svg xmlns="http://www.w3.org/2000/svg" width="386" height="176" viewBox="0 0 386 176" fill="none">
<circle cx="1.54346" cy="16.709" r="0.75" fill="white"/>
<circle cx="29.5298" cy="16.709" r="0.75" fill="white"/>
<circle cx="85.5022" cy="16.709" r="0.75" fill="white"/>
<circle cx="57.5159" cy="16.709" r="0.75" fill="white"/>
<circle cx="113.488" cy="16.709" r="0.75" fill="white"/>
<circle cx="141.475" cy="16.709" r="0.75" fill="white"/>
<circle cx="197.447" cy="16.709" r="0.75" fill="white"/>
<circle cx="169.461" cy="16.709" r="0.75" fill="white"/>
<circle cx="225.433" cy="16.709" r="0.75" fill="white"/>
<circle cx="253.419" cy="16.709" r="0.75" fill="white"/>
<circle cx="1.54346" cy="44.6953" r="0.75" fill="white"/>
<circle cx="1.54346" cy="100.668" r="0.75" fill="white"/>
<circle cx="1.54346" cy="72.6816" r="0.75" fill="white"/>
<circle cx="1.54346" cy="128.654" r="0.75" fill="white"/>
<circle cx="29.5298" cy="44.6953" r="0.75" fill="white"/>
<circle cx="29.5298" cy="100.668" r="0.75" fill="white"/>
<circle cx="85.5022" cy="44.6953" r="0.75" fill="white"/>
<circle cx="85.5022" cy="100.668" r="0.75" fill="white"/>
<circle cx="29.5298" cy="72.6816" r="0.75" fill="white"/>
<circle cx="29.5298" cy="128.654" r="0.75" fill="white"/>
<circle cx="85.5022" cy="72.6816" r="0.75" fill="white"/>
<circle cx="85.5022" cy="128.654" r="0.75" fill="white"/>
<circle cx="57.5159" cy="44.6953" r="0.75" fill="white"/>
<circle cx="57.5159" cy="100.668" r="0.75" fill="white"/>
<circle cx="113.488" cy="44.6953" r="0.75" fill="white"/>
<circle cx="113.488" cy="100.668" r="0.75" fill="white"/>
<circle cx="57.5159" cy="72.6816" r="0.75" fill="white"/>
<circle cx="57.5159" cy="128.654" r="0.75" fill="white"/>
<circle cx="113.488" cy="72.6816" r="0.75" fill="white"/>
<circle cx="113.488" cy="128.654" r="0.75" fill="white"/>
<circle cx="141.475" cy="44.6953" r="0.75" fill="white"/>
<circle cx="141.475" cy="100.668" r="0.75" fill="white"/>
<circle cx="197.447" cy="44.6953" r="0.75" fill="white"/>
<circle cx="197.447" cy="100.668" r="0.75" fill="white"/>
<circle cx="141.475" cy="72.6816" r="0.75" fill="white"/>
<circle cx="141.475" cy="128.654" r="0.75" fill="white"/>
<circle cx="197.447" cy="72.6816" r="0.75" fill="white"/>
<circle cx="197.447" cy="128.654" r="0.75" fill="white"/>
<circle cx="169.461" cy="44.6953" r="0.75" fill="white"/>
<circle cx="169.461" cy="100.668" r="0.75" fill="white"/>
<circle cx="225.433" cy="44.6953" r="0.75" fill="white"/>
<circle cx="225.433" cy="100.668" r="0.75" fill="white"/>
<circle cx="169.461" cy="72.6816" r="0.75" fill="white"/>
<circle cx="169.461" cy="128.654" r="0.75" fill="white"/>
<circle cx="225.433" cy="72.6816" r="0.75" fill="white"/>
<circle cx="225.433" cy="128.654" r="0.75" fill="white"/>
<circle cx="253.419" cy="44.6953" r="0.75" fill="white"/>
<circle cx="253.419" cy="100.668" r="0.75" fill="white"/>
<circle cx="253.419" cy="72.6816" r="0.75" fill="white"/>
<circle cx="253.419" cy="128.654" r="0.75" fill="white"/>
<circle cx="1.54346" cy="156.641" r="0.75" fill="white"/>
<circle cx="29.5298" cy="156.641" r="0.75" fill="white"/>
<circle cx="85.5022" cy="156.641" r="0.75" fill="white"/>
<circle cx="57.5159" cy="156.641" r="0.75" fill="white"/>
<circle cx="113.488" cy="156.641" r="0.75" fill="white"/>
<circle cx="141.475" cy="156.641" r="0.75" fill="white"/>
<circle cx="197.447" cy="156.641" r="0.75" fill="white"/>
<circle cx="169.461" cy="156.641" r="0.75" fill="white"/>
<circle cx="225.433" cy="156.641" r="0.75" fill="white"/>
<circle cx="253.419" cy="156.641" r="0.75" fill="white"/>
<circle cx="281.406" cy="16.709" r="0.75" fill="white"/>
<circle cx="309.392" cy="16.709" r="0.75" fill="white"/>
<circle cx="365.365" cy="16.709" r="0.75" fill="white"/>
<circle cx="337.378" cy="16.709" r="0.75" fill="white"/>
<circle cx="281.406" cy="44.6953" r="0.75" fill="white"/>
<circle cx="281.406" cy="100.668" r="0.75" fill="white"/>
<circle cx="281.406" cy="72.6816" r="0.75" fill="white"/>
<circle cx="281.406" cy="128.654" r="0.75" fill="white"/>
<circle cx="309.392" cy="44.6953" r="0.75" fill="white"/>
<circle cx="309.392" cy="100.668" r="0.75" fill="white"/>
<circle cx="365.365" cy="44.6953" r="0.75" fill="white"/>
<circle cx="365.365" cy="100.668" r="0.75" fill="white"/>
<circle cx="309.392" cy="72.6816" r="0.75" fill="white"/>
<circle cx="309.392" cy="128.654" r="0.75" fill="white"/>
<circle cx="365.365" cy="72.6816" r="0.75" fill="white"/>
<circle cx="365.365" cy="128.654" r="0.75" fill="white"/>
<circle cx="337.378" cy="44.6953" r="0.75" fill="white"/>
<circle cx="337.378" cy="100.668" r="0.75" fill="white"/>
<circle cx="337.378" cy="72.6816" r="0.75" fill="white"/>
<circle cx="337.378" cy="128.654" r="0.75" fill="white"/>
<circle cx="281.406" cy="156.641" r="0.75" fill="white"/>
<circle cx="309.392" cy="156.641" r="0.75" fill="white"/>
<circle cx="365.365" cy="156.641" r="0.75" fill="white"/>
<circle cx="337.378" cy="156.641" r="0.75" fill="white"/>
</svg>