<svg id="Layer_1" data-name="Layer 1" xmlns="http://www.w3.org/2000/svg" xmlns:xlink="http://www.w3.org/1999/xlink" viewBox="0 0 600 600"><defs><style>.cls-1,.cls-10,.cls-13,.cls-14{fill:none;}.cls-2{opacity:0.2;filter:url(#AI_Shadow_3);}.cls-3{fill:#ccc;}.cls-4{fill:#78a9f7;}.cls-5{fill:#fff;}.cls-6{clip-path:url(#clip-path);}.cls-7{fill:#eceff1;}.cls-8{opacity:0.5;fill:url(#linear-gradient);}.cls-9{clip-path:url(#clip-path-2);}.cls-10{stroke:#cfd8dc;stroke-miterlimit:10;stroke-width:4px;}.cls-11{fill:#2e7d32;}.cls-12{fill:#75b679;}.cls-13,.cls-14{stroke:#fff;stroke-linecap:round;stroke-linejoin:round;}.cls-13{stroke-width:2px;}.cls-14{stroke-width:3px;}</style><filter id="AI_Shadow_3" x="-15%" y="-15%" width="140%" height="130%" name="AI_Shadow_3"><feGaussianBlur result="blur" stdDeviation="10" in="SourceAlpha"/><feOffset result="offsetBlurredAlpha" dy="5" in="blur"/><feMerge><feMergeNode in="offsetBlurredAlpha"/><feMergeNode in="SourceGraphic"/></feMerge></filter><clipPath id="clip-path"><path class="cls-1" d="M300,83.23A225.66,225.66,0,1,1,211.87,101,225.08,225.08,0,0,1,300,83.23"/></clipPath><linearGradient id="linear-gradient" x1="-110.45" y1="376.44" x2="714.07" y2="376.44" gradientUnits="userSpaceOnUse"><stop offset="0" stop-color="#fff" stop-opacity="0.2"/><stop offset="0.08" stop-color="#fff" stop-opacity="0.3"/><stop offset="0.25" stop-color="#fff" stop-opacity="0.51"/><stop offset="0.42" stop-color="#fff" stop-opacity="0.69"/><stop offset="0.59" stop-color="#fff" stop-opacity="0.82"/><stop offset="0.74" stop-color="#fff" stop-opacity="0.92"/><stop offset="0.88" stop-color="#fff" stop-opacity="0.98"/><stop offset="1" stop-color="#fff"/></linearGradient><clipPath id="clip-path-2"><path class="cls-1" d="M296.34,611.76-108.74,377.9c-2.54-1.47-2.22-4,.72-5.73l405.36-234c2.94-1.7,7.39-1.88,9.93-.41L712.35,371.58c2.55,1.47,2.23,4-.71,5.73l-405.37,234C303.33,613.05,298.89,613.23,296.34,611.76Z"/></clipPath></defs><g id="svg_shadow" data-name="svg shadow" class="cls-2"><circle class="cls-3" cx="300" cy="309.65" r="241.5"/></g><circle class="cls-4" cx="299.99" cy="309.65" r="241.41"/><path class="cls-5" d="M300,83.23A225.66,225.66,0,1,1,211.87,101,225,225,0,0,1,300,83.23m0-15c-133.33,0-241.41,108.09-241.41,241.42S166.66,551.06,300,551.06,541.41,443,541.41,309.65,433.32,68.23,300,68.23Z"/><g class="cls-6"><path class="cls-7" d="M296.34,611.76-108.74,377.9c-2.54-1.47-2.22-4,.72-5.73l405.36-234c2.94-1.7,7.39-1.88,9.93-.41L712.35,371.58c2.55,1.47,2.23,4-.71,5.73l-405.37,234C303.33,613.05,298.89,613.23,296.34,611.76Z"/><path class="cls-8" d="M296.34,613.46-108.74,379.6c-2.54-1.47-2.22-4,.72-5.73l405.36-234c2.94-1.7,7.39-1.89,9.93-.41L712.35,373.27c2.55,1.47,2.23,4-.71,5.74l-405.37,234C303.33,614.75,298.89,614.93,296.34,613.46Z"/><g class="cls-9"><line class="cls-10" x1="247.58" y1="165.08" x2="680.53" y2="414.76"/></g></g><ellipse class="cls-10" cx="304.68" cy="167.92" rx="10.9" ry="6.29"/><ellipse class="cls-10" cx="330.37" cy="182.75" rx="10.9" ry="6.29"/><ellipse class="cls-10" cx="356.05" cy="197.57" rx="10.9" ry="6.29"/><path class="cls-11" d="M428.27,301.56,176.23,156c-4.46-2.57-8.51-2.68-11.59-.78v0l-4.57,3.65,0,.05c-2.82,2.49-4.55,6.95-4.55,13V346.17c0,12.8,7.78,27.67,17.39,33.22L424.71,524.74c5.51,3.19,10.42,2.59,13.6-.91l4.58-3.66h0c1.75-2.6,2.78-6.32,2.78-10.95V334.81C445.68,322,437.89,307.11,428.27,301.56Z"/><path class="cls-12" d="M424.71,524.74,172.94,379.39c-9.6-5.55-17.38-20.42-17.38-33.22V172c0-12.8,7.78-18.69,17.38-13.15L424.71,304.17c9.6,5.54,17.38,20.42,17.38,33.22V511.6C442.09,524.4,434.31,530.29,424.71,524.74Z"/><polyline class="cls-13" points="186.88 208.66 186.88 353.3 394.16 472.12"/><path class="cls-14" d="M188.84,353.3c14.41-7.86,36.71-17.11,63.16-15.12,35.23,2.66,49.46,23.12,84.06,25.85,15.56,1.24,38.68-.85,68.15-18.18"/><line class="cls-13" x1="179.45" y1="339.85" x2="186.2" y2="343.71"/><line class="cls-13" x1="179.45" y1="328.59" x2="186.2" y2="332.45"/><line class="cls-13" x1="179.45" y1="317.33" x2="186.2" y2="321.19"/><line class="cls-13" x1="179.45" y1="306.07" x2="186.2" y2="309.93"/><line class="cls-13" x1="179.45" y1="294.81" x2="186.2" y2="298.67"/><line class="cls-13" x1="179.45" y1="283.55" x2="186.2" y2="287.41"/><line class="cls-13" x1="179.45" y1="272.29" x2="186.2" y2="276.15"/><line class="cls-13" x1="179.45" y1="261.03" x2="186.2" y2="264.89"/><line class="cls-13" x1="179.45" y1="249.77" x2="186.2" y2="253.63"/><line class="cls-13" x1="179.45" y1="238.51" x2="186.2" y2="242.37"/><line class="cls-13" x1="179.45" y1="227.25" x2="186.2" y2="231.11"/><line class="cls-13" x1="179.45" y1="215.99" x2="186.2" y2="219.85"/><line class="cls-13" x1="192.65" y1="357.17" x2="192.65" y2="365.68"/><line class="cls-13" x1="204.75" y1="363.72" x2="204.75" y2="372.22"/><line class="cls-13" x1="216.84" y1="371.17" x2="216.84" y2="379.68"/><line class="cls-13" x1="228.93" y1="377.72" x2="228.93" y2="386.23"/><line class="cls-13" x1="241.03" y1="384.99" x2="241.03" y2="393.49"/><line class="cls-13" x1="253.12" y1="391.53" x2="253.12" y2="400.04"/><line class="cls-13" x1="266.95" y1="400.04" x2="266.95" y2="408.55"/><line class="cls-13" x1="279.05" y1="406.59" x2="279.05" y2="415.09"/><line class="cls-13" x1="291.14" y1="414.04" x2="291.14" y2="422.55"/><line class="cls-13" x1="303.23" y1="420.59" x2="303.23" y2="429.09"/><line class="cls-13" x1="315.33" y1="427.85" x2="315.33" y2="436.36"/><line class="cls-13" x1="327.42" y1="434.4" x2="327.42" y2="442.91"/><line class="cls-13" x1="340.36" y1="441.61" x2="340.36" y2="450.11"/><line class="cls-13" x1="352.46" y1="448.15" x2="352.46" y2="456.66"/><line class="cls-13" x1="364.55" y1="455.61" x2="364.55" y2="464.12"/><line class="cls-13" x1="376.64" y1="462.16" x2="376.64" y2="470.66"/><line class="cls-13" x1="388.74" y1="469.42" x2="388.74" y2="477.93"/><ellipse class="cls-5" cx="209.05" cy="323.01" rx="1.7" ry="1.82"/><ellipse class="cls-5" cx="228.01" cy="359.14" rx="1.7" ry="1.82"/><ellipse class="cls-5" cx="243.94" cy="312.66" rx="1.7" ry="1.82"/><ellipse class="cls-5" cx="265.25" cy="359.14" rx="1.7" ry="1.82"/><ellipse class="cls-5" cx="283.31" cy="321.19" rx="1.7" ry="1.82"/><ellipse class="cls-5" cx="300.62" cy="378.04" rx="1.7" ry="1.82"/><ellipse class="cls-5" cx="325.31" cy="339.19" rx="1.7" ry="1.82"/><ellipse class="cls-5" cx="344.69" cy="386.13" rx="1.7" ry="1.82"/><ellipse class="cls-5" cx="366.27" cy="339.19" rx="1.7" ry="1.82"/><ellipse class="cls-5" cx="388.74" cy="377.72" rx="1.7" ry="1.82"/><ellipse class="cls-5" cx="401.78" cy="321.19" rx="1.7" ry="1.82"/></svg>