<?xml version="1.0" encoding="utf-8"?>
<!-- Generator: Adobe Illustrator 26.3.1, SVG Export Plug-In . SVG Version: 6.00 Build 0)  -->
<svg version="1.1" id="Layer_1" xmlns="http://www.w3.org/2000/svg" xmlns:xlink="http://www.w3.org/1999/xlink" x="0px" y="0px"
	 viewBox="0 0 488 286" style="enable-background:new 0 0 488 286;" xml:space="preserve">
<style type="text/css">
	.st0{fill-opacity:0.8;stroke:#333333;}
	.st1{fill:#0070F3;}
	.st2{fill:#333333;}
	.st3{fill:#4C2889;}
	.st4{fill:#F81CE5;}
	.st5{fill:#999999;}
	.st6{fill:#666666;}
	.st7{fill:#111111;stroke:#333333;}
	.st8{fill:#444444;}
	.st9{fill:none;stroke:#333333;stroke-width:0.4108;}
</style>
<path class="st0" d="M12,1h464c6.4,0,11.5,4.7,11.5,10.5V275c0,5.8-5.1,10.5-11.5,10.5H12c-6.4,0-11.5-4.7-11.5-10.5V11.5
	C0.5,5.7,5.6,1,12,1z"/>
<path class="st1" d="M26,57.9c0-2.2,1.8-4,4-4h18c2.2,0,4,1.8,4,4l0,0c0,2.2-1.8,4-4,4H30C27.8,61.9,26,60.1,26,57.9L26,57.9z"/>
<path class="st2" d="M30,54.3h18v-0.8H30V54.3z M48,61.4H30v0.8h18V61.4z M30,61.4c-2,0-3.6-1.6-3.6-3.6h-0.8c0,2.4,2,4.4,4.4,4.4
	V61.4z M51.6,57.9c0,2-1.6,3.6-3.6,3.6v0.8c2.4,0,4.4-2,4.4-4.4H51.6z M48,54.3c2,0,3.6,1.6,3.6,3.6h0.8c0-2.4-2-4.4-4.4-4.4V54.3z
	 M30,53.4c-2.4,0-4.4,2-4.4,4.4h0.8c0-2,1.6-3.6,3.6-3.6V53.4z"/>
<path class="st3" d="M26,71.9c0-2.2,1.8-4,4-4h12c2.2,0,4,1.8,4,4l0,0c0,2.2-1.8,4-4,4H30C27.8,75.9,26,74.1,26,71.9L26,71.9z"/>
<path class="st2" d="M30,68.3h12v-0.8H30V68.3z M42,75.4H30v0.8h12V75.4z M30,75.4c-2,0-3.6-1.6-3.6-3.6h-0.8c0,2.4,2,4.4,4.4,4.4
	V75.4z M45.6,71.9c0,2-1.6,3.6-3.6,3.6v0.8c2.4,0,4.4-2,4.4-4.4H45.6z M42,68.3c2,0,3.6,1.6,3.6,3.6h0.8c0-2.4-2-4.4-4.4-4.4V68.3z
	 M30,67.4c-2.4,0-4.4,2-4.4,4.4h0.8c0-2,1.6-3.6,3.6-3.6V67.4z"/>
<path class="st4" d="M52,71.9c0-2.2,1.8-4,4-4h32c2.2,0,4,1.8,4,4l0,0c0,2.2-1.8,4-4,4H56C53.8,75.9,52,74.1,52,71.9L52,71.9z"/>
<path class="st2" d="M56,68.3h32v-0.8H56V68.3z M88,75.4H56v0.8h32V75.4z M56,75.4c-2,0-3.6-1.6-3.6-3.6h-0.8c0,2.4,2,4.4,4.4,4.4
	V75.4z M91.6,71.9c0,2-1.6,3.6-3.6,3.6v0.8c2.4,0,4.4-2,4.4-4.4H91.6z M88,68.3c2,0,3.6,1.6,3.6,3.6h0.8c0-2.4-2-4.4-4.4-4.4V68.3z
	 M56,67.4c-2.4,0-4.4,2-4.4,4.4h0.8c0-2,1.6-3.6,3.6-3.6V67.4z"/>
<path class="st4" d="M98,71.9c0-2.2,1.8-4,4-4h12c2.2,0,4,1.8,4,4l0,0c0,2.2-1.8,4-4,4h-12C99.8,75.9,98,74.1,98,71.9L98,71.9z"/>
<path class="st2" d="M102,68.3h12v-0.8h-12V68.3z M114,75.4h-12v0.8h12V75.4z M102,75.4c-2,0-3.6-1.6-3.6-3.6h-0.8
	c0,2.4,2,4.4,4.4,4.4V75.4z M117.6,71.9c0,2-1.6,3.6-3.6,3.6v0.8c2.4,0,4.4-2,4.4-4.4H117.6z M114,68.3c2,0,3.6,1.6,3.6,3.6h0.8
	c0-2.4-2-4.4-4.4-4.4V68.3z M102,67.4c-2.4,0-4.4,2-4.4,4.4h0.8c0-2,1.6-3.6,3.6-3.6V67.4z"/>
<path class="st2" d="M12,43.9c0-2.2,1.8-4,4-4l0,0c2.2,0,4,1.8,4,4l0,0c0,2.2-1.8,4-4,4l0,0C13.8,47.9,12,46.1,12,43.9L12,43.9z"/>
<path class="st2" d="M16,47.4c-2,0-3.6-1.6-3.6-3.6h-0.8c0,2.4,2,4.4,4.4,4.4V47.4z M19.6,43.9c0,2-1.6,3.6-3.6,3.6v0.8
	c2.4,0,4.4-2,4.4-4.4H19.6z M16,40.3c2,0,3.6,1.6,3.6,3.6h0.8c0-2.4-2-4.4-4.4-4.4V40.3z M16,39.4c-2.4,0-4.4,2-4.4,4.4h0.8
	c0-2,1.6-3.6,3.6-3.6V39.4z"/>
<path class="st1" d="M26,43.9c0-2.2,1.8-4,4-4h32c2.2,0,4,1.8,4,4l0,0c0,2.2-1.8,4-4,4H30C27.8,47.9,26,46.1,26,43.9L26,43.9z"/>
<path class="st2" d="M30,40.3h32v-0.8H30V40.3z M62,47.4H30v0.8h32V47.4z M30,47.4c-2,0-3.6-1.6-3.6-3.6h-0.8c0,2.4,2,4.4,4.4,4.4
	V47.4z M65.6,43.9c0,2-1.6,3.6-3.6,3.6v0.8c2.4,0,4.4-2,4.4-4.4H65.6z M62,40.3c2,0,3.6,1.6,3.6,3.6h0.8c0-2.4-2-4.4-4.4-4.4V40.3z
	 M30,39.4c-2.4,0-4.4,2-4.4,4.4h0.8c0-2,1.6-3.6,3.6-3.6V39.4z"/>
<path class="st4" d="M72,43.9c0-2.2,1.8-4,4-4h12c2.2,0,4,1.8,4,4l0,0c0,2.2-1.8,4-4,4H76C73.8,47.9,72,46.1,72,43.9L72,43.9z"/>
<path class="st2" d="M76,40.3h12v-0.8H76V40.3z M88,47.4H76v0.8h12V47.4z M76,47.4c-2,0-3.6-1.6-3.6-3.6h-0.8c0,2.4,2,4.4,4.4,4.4
	V47.4z M91.6,43.9c0,2-1.6,3.6-3.6,3.6v0.8c2.4,0,4.4-2,4.4-4.4H91.6z M88,40.3c2,0,3.6,1.6,3.6,3.6h0.8c0-2.4-2-4.4-4.4-4.4V40.3z
	 M76,39.4c-2.4,0-4.4,2-4.4,4.4h0.8c0-2,1.6-3.6,3.6-3.6V39.4z"/>
<path class="st2" d="M12,57.9c0-2.2,1.8-4,4-4l0,0c2.2,0,4,1.8,4,4l0,0c0,2.2-1.8,4-4,4l0,0C13.8,61.9,12,60.1,12,57.9L12,57.9z"/>
<path class="st2" d="M16,61.4c-2,0-3.6-1.6-3.6-3.6h-0.8c0,2.4,2,4.4,4.4,4.4V61.4z M19.6,57.9c0,2-1.6,3.6-3.6,3.6v0.8
	c2.4,0,4.4-2,4.4-4.4H19.6z M16,54.3c2,0,3.6,1.6,3.6,3.6h0.8c0-2.4-2-4.4-4.4-4.4V54.3z M16,53.4c-2.4,0-4.4,2-4.4,4.4h0.8
	c0-2,1.6-3.6,3.6-3.6V53.4z"/>
<path class="st2" d="M12,71.9c0-2.2,1.8-4,4-4l0,0c2.2,0,4,1.8,4,4l0,0c0,2.2-1.8,4-4,4l0,0C13.8,75.9,12,74.1,12,71.9L12,71.9z"/>
<path class="st2" d="M16,75.4c-2,0-3.6-1.6-3.6-3.6h-0.8c0,2.4,2,4.4,4.4,4.4V75.4z M19.6,71.9c0,2-1.6,3.6-3.6,3.6v0.8
	c2.4,0,4.4-2,4.4-4.4H19.6z M16,68.3c2,0,3.6,1.6,3.6,3.6h0.8c0-2.4-2-4.4-4.4-4.4V68.3z M16,67.4c-2.4,0-4.4,2-4.4,4.4h0.8
	c0-2,1.6-3.6,3.6-3.6V67.4z"/>
<path class="st2" d="M12,85.9c0-2.2,1.8-4,4-4l0,0c2.2,0,4,1.8,4,4l0,0c0,2.2-1.8,4-4,4l0,0C13.8,89.9,12,88.1,12,85.9L12,85.9z"/>
<path class="st2" d="M16,89.4c-2,0-3.6-1.6-3.6-3.6h-0.8c0,2.4,2,4.4,4.4,4.4V89.4z M19.6,85.9c0,2-1.6,3.6-3.6,3.6v0.8
	c2.4,0,4.4-2,4.4-4.4H19.6z M16,82.3c2,0,3.6,1.6,3.6,3.6h0.8c0-2.4-2-4.4-4.4-4.4V82.3z M16,81.4c-2.4,0-4.4,2-4.4,4.4h0.8
	c0-2,1.6-3.6,3.6-3.6V81.4z"/>
<path class="st5" d="M12,99.9c0-2.2,1.8-4,4-4l0,0c2.2,0,4,1.8,4,4l0,0c0,2.2-1.8,4-4,4l0,0C13.8,103.9,12,102.1,12,99.9L12,99.9z"
	/>
<path class="st2" d="M16,103.4c-2,0-3.6-1.6-3.6-3.6h-0.8c0,2.4,2,4.4,4.4,4.4V103.4z M19.6,99.9c0,2-1.6,3.6-3.6,3.6v0.8
	c2.4,0,4.4-2,4.4-4.4H19.6z M16,96.3c2,0,3.6,1.6,3.6,3.6h0.8c0-2.4-2-4.4-4.4-4.4V96.3z M16,95.4c-2.4,0-4.4,2-4.4,4.4h0.8
	c0-2,1.6-3.6,3.6-3.6V95.4z"/>
<path class="st2" d="M12,113.9c0-2.2,1.8-4,4-4l0,0c2.2,0,4,1.8,4,4l0,0c0,2.2-1.8,4-4,4l0,0C13.8,117.9,12,116.1,12,113.9L12,113.9
	z"/>
<path class="st2" d="M16,117.4c-2,0-3.6-1.6-3.6-3.6h-0.8c0,2.4,2,4.4,4.4,4.4V117.4z M19.6,113.9c0,2-1.6,3.6-3.6,3.6v0.8
	c2.4,0,4.4-2,4.4-4.4H19.6z M16,110.3c2,0,3.6,1.6,3.6,3.6h0.8c0-2.4-2-4.4-4.4-4.4V110.3z M16,109.4c-2.4,0-4.4,2-4.4,4.4h0.8
	c0-2,1.6-3.6,3.6-3.6V109.4z"/>
<path class="st2" d="M12,127.9c0-2.2,1.8-4,4-4l0,0c2.2,0,4,1.8,4,4l0,0c0,2.2-1.8,4-4,4l0,0C13.8,131.9,12,130.1,12,127.9L12,127.9
	z"/>
<path class="st2" d="M16,131.4c-2,0-3.6-1.6-3.6-3.6h-0.8c0,2.4,2,4.4,4.4,4.4V131.4z M19.6,127.9c0,2-1.6,3.6-3.6,3.6v0.8
	c2.4,0,4.4-2,4.4-4.4H19.6z M16,124.3c2,0,3.6,1.6,3.6,3.6h0.8c0-2.4-2-4.4-4.4-4.4V124.3z M16,123.4c-2.4,0-4.4,2-4.4,4.4h0.8
	c0-2,1.6-3.6,3.6-3.6V123.4z"/>
<path class="st2" d="M12,141.9c0-2.2,1.8-4,4-4l0,0c2.2,0,4,1.8,4,4l0,0c0,2.2-1.8,4-4,4l0,0C13.8,145.9,12,144.1,12,141.9L12,141.9
	z"/>
<path class="st2" d="M16,145.4c-2,0-3.6-1.6-3.6-3.6h-0.8c0,2.4,2,4.4,4.4,4.4V145.4z M19.6,141.9c0,2-1.6,3.6-3.6,3.6v0.8
	c2.4,0,4.4-2,4.4-4.4H19.6z M16,138.3c2,0,3.6,1.6,3.6,3.6h0.8c0-2.4-2-4.4-4.4-4.4V138.3z M16,137.4c-2.4,0-4.4,2-4.4,4.4h0.8
	c0-2,1.6-3.6,3.6-3.6V137.4z"/>
<path class="st1" d="M26,85.9c0-2.2,1.8-4,4-4h32c2.2,0,4,1.8,4,4l0,0c0,2.2-1.8,4-4,4H30C27.8,89.9,26,88.1,26,85.9L26,85.9z"/>
<path class="st2" d="M30,82.3h32v-0.8H30V82.3z M62,89.4H30v0.8h32V89.4z M30,89.4c-2,0-3.6-1.6-3.6-3.6h-0.8c0,2.4,2,4.4,4.4,4.4
	V89.4z M65.6,85.9c0,2-1.6,3.6-3.6,3.6v0.8c2.4,0,4.4-2,4.4-4.4H65.6z M62,82.3c2,0,3.6,1.6,3.6,3.6h0.8c0-2.4-2-4.4-4.4-4.4V82.3z
	 M30,81.4c-2.4,0-4.4,2-4.4,4.4h0.8c0-2,1.6-3.6,3.6-3.6V81.4z"/>
<path class="st1" d="M26,99.9c0-2.2,1.8-4,4-4h44c2.2,0,4,1.8,4,4l0,0c0,2.2-1.8,4-4,4H30C27.8,103.9,26,102.1,26,99.9L26,99.9z"/>
<path class="st2" d="M30,96.3h44v-0.8H30V96.3z M74,103.4H30v0.8h44V103.4z M30,103.4c-2,0-3.6-1.6-3.6-3.6h-0.8
	c0,2.4,2,4.4,4.4,4.4V103.4z M77.6,99.9c0,2-1.6,3.6-3.6,3.6v0.8c2.4,0,4.4-2,4.4-4.4H77.6z M74,96.3c2,0,3.6,1.6,3.6,3.6h0.8
	c0-2.4-2-4.4-4.4-4.4V96.3z M30,95.4c-2.4,0-4.4,2-4.4,4.4h0.8c0-2,1.6-3.6,3.6-3.6V95.4z"/>
<path class="st3" d="M26,113.9c0-2.2,1.8-4,4-4h18c2.2,0,4,1.8,4,4l0,0c0,2.2-1.8,4-4,4H30C27.8,117.9,26,116.1,26,113.9L26,113.9z"
	/>
<path class="st2" d="M30,110.3h18v-0.8H30V110.3z M48,117.4H30v0.8h18V117.4z M30,117.4c-2,0-3.6-1.6-3.6-3.6h-0.8
	c0,2.4,2,4.4,4.4,4.4V117.4z M51.6,113.9c0,2-1.6,3.6-3.6,3.6v0.8c2.4,0,4.4-2,4.4-4.4H51.6z M48,110.3c2,0,3.6,1.6,3.6,3.6h0.8
	c0-2.4-2-4.4-4.4-4.4V110.3z M30,109.4c-2.4,0-4.4,2-4.4,4.4h0.8c0-2,1.6-3.6,3.6-3.6V109.4z"/>
<path class="st1" d="M26,127.9c0-2.2,1.8-4,4-4h12c2.2,0,4,1.8,4,4l0,0c0,2.2-1.8,4-4,4H30C27.8,131.9,26,130.1,26,127.9L26,127.9z"
	/>
<path class="st2" d="M30,124.3h12v-0.8H30V124.3z M42,131.4H30v0.8h12V131.4z M30,131.4c-2,0-3.6-1.6-3.6-3.6h-0.8
	c0,2.4,2,4.4,4.4,4.4V131.4z M45.6,127.9c0,2-1.6,3.6-3.6,3.6v0.8c2.4,0,4.4-2,4.4-4.4H45.6z M42,124.3c2,0,3.6,1.6,3.6,3.6h0.8
	c0-2.4-2-4.4-4.4-4.4V124.3z M30,123.4c-2.4,0-4.4,2-4.4,4.4h0.8c0-2,1.6-3.6,3.6-3.6V123.4z"/>
<path class="st1" d="M52,127.9c0-2.2,1.8-4,4-4h32c2.2,0,4,1.8,4,4l0,0c0,2.2-1.8,4-4,4H56C53.8,131.9,52,130.1,52,127.9L52,127.9z"
	/>
<path class="st2" d="M56,124.3h32v-0.8H56V124.3z M88,131.4H56v0.8h32V131.4z M56,131.4c-2,0-3.6-1.6-3.6-3.6h-0.8
	c0,2.4,2,4.4,4.4,4.4V131.4z M91.6,127.9c0,2-1.6,3.6-3.6,3.6v0.8c2.4,0,4.4-2,4.4-4.4H91.6z M88,124.3c2,0,3.6,1.6,3.6,3.6h0.8
	c0-2.4-2-4.4-4.4-4.4V124.3z M56,123.4c-2.4,0-4.4,2-4.4,4.4h0.8c0-2,1.6-3.6,3.6-3.6V123.4z"/>
<path class="st3" d="M58,113.9c0-2.2,1.8-4,4-4h12c2.2,0,4,1.8,4,4l0,0c0,2.2-1.8,4-4,4H62C59.8,117.9,58,116.1,58,113.9L58,113.9z"
	/>
<path class="st2" d="M62,110.3h12v-0.8H62V110.3z M74,117.4H62v0.8h12V117.4z M62,117.4c-2,0-3.6-1.6-3.6-3.6h-0.8
	c0,2.4,2,4.4,4.4,4.4V117.4z M77.6,113.9c0,2-1.6,3.6-3.6,3.6v0.8c2.4,0,4.4-2,4.4-4.4H77.6z M74,110.3c2,0,3.6,1.6,3.6,3.6h0.8
	c0-2.4-2-4.4-4.4-4.4V110.3z M62,109.4c-2.4,0-4.4,2-4.4,4.4h0.8c0-2,1.6-3.6,3.6-3.6V109.4z"/>
<path class="st3" d="M26,141.9c0-2.2,1.8-4,4-4h32c2.2,0,4,1.8,4,4l0,0c0,2.2-1.8,4-4,4H30C27.8,145.9,26,144.1,26,141.9L26,141.9z"
	/>
<path class="st2" d="M30,138.3h32v-0.8H30V138.3z M62,145.4H30v0.8h32V145.4z M30,145.4c-2,0-3.6-1.6-3.6-3.6h-0.8
	c0,2.4,2,4.4,4.4,4.4V145.4z M65.6,141.9c0,2-1.6,3.6-3.6,3.6v0.8c2.4,0,4.4-2,4.4-4.4H65.6z M62,138.3c2,0,3.6,1.6,3.6,3.6h0.8
	c0-2.4-2-4.4-4.4-4.4V138.3z M30,137.4c-2.4,0-4.4,2-4.4,4.4h0.8c0-2,1.6-3.6,3.6-3.6V137.4z"/>
<path class="st1" d="M72,141.9c0-2.2,1.8-4,4-4h18c2.2,0,4,1.8,4,4l0,0c0,2.2-1.8,4-4,4H76C73.8,145.9,72,144.1,72,141.9L72,141.9z"
	/>
<path class="st2" d="M76,138.3h18v-0.8H76V138.3z M94,145.4H76v0.8h18V145.4z M76,145.4c-2,0-3.6-1.6-3.6-3.6h-0.8
	c0,2.4,2,4.4,4.4,4.4V145.4z M97.6,141.9c0,2-1.6,3.6-3.6,3.6v0.8c2.4,0,4.4-2,4.4-4.4H97.6z M94,138.3c2,0,3.6,1.6,3.6,3.6h0.8
	c0-2.4-2-4.4-4.4-4.4V138.3z M76,137.4c-2.4,0-4.4,2-4.4,4.4h0.8c0-2,1.6-3.6,3.6-3.6V137.4z"/>
<path class="st4" d="M58,57.9c0-2.2,1.8-4,4-4h44c2.2,0,4,1.8,4,4l0,0c0,2.2-1.8,4-4,4H62C59.8,61.9,58,60.1,58,57.9L58,57.9z"/>
<path class="st2" d="M62,54.3h44v-0.8H62V54.3z M106,61.4H62v0.8h44V61.4z M62,61.4c-2,0-3.6-1.6-3.6-3.6h-0.8c0,2.4,2,4.4,4.4,4.4
	V61.4z M109.6,57.9c0,2-1.6,3.6-3.6,3.6v0.8c2.4,0,4.4-2,4.4-4.4H109.6z M106,54.3c2,0,3.6,1.6,3.6,3.6h0.8c0-2.4-2-4.4-4.4-4.4
	V54.3z M62,53.4c-2.4,0-4.4,2-4.4,4.4h0.8c0-2,1.6-3.6,3.6-3.6V53.4z"/>
<path class="st1" d="M72,85.9c0-2.2,1.8-4,4-4h18c2.2,0,4,1.8,4,4l0,0c0,2.2-1.8,4-4,4H76C73.8,89.9,72,88.1,72,85.9L72,85.9z"/>
<path class="st2" d="M76,82.3h18v-0.8H76V82.3z M94,89.4H76v0.8h18V89.4z M76,89.4c-2,0-3.6-1.6-3.6-3.6h-0.8c0,2.4,2,4.4,4.4,4.4
	V89.4z M97.6,85.9c0,2-1.6,3.6-3.6,3.6v0.8c2.4,0,4.4-2,4.4-4.4H97.6z M94,82.3c2,0,3.6,1.6,3.6,3.6h0.8c0-2.4-2-4.4-4.4-4.4V82.3z
	 M76,81.4c-2.4,0-4.4,2-4.4,4.4h0.8c0-2,1.6-3.6,3.6-3.6V81.4z"/>
<path class="st6" d="M12.1,22c0-2.2,1.8-4,4-4h44c2.2,0,4,1.8,4,4l0,0c0,2.2-1.8,4-4,4h-44C13.9,26,12.1,24.2,12.1,22L12.1,22z"/>
<path class="st2" d="M16.1,18.4h44v-0.8h-44V18.4z M60.1,25.6h-44v0.8h44V25.6z M16.1,25.6c-2,0-3.6-1.6-3.6-3.6h-0.8
	c0,2.4,2,4.4,4.4,4.4V25.6z M63.7,22c0,2-1.6,3.6-3.6,3.6v0.8c2.4,0,4.4-2,4.4-4.4H63.7z M60.1,18.4c2,0,3.6,1.6,3.6,3.6h0.8
	c0-2.4-2-4.4-4.4-4.4V18.4z M16.1,17.6c-2.4,0-4.4,2-4.4,4.4h0.8c0-2,1.6-3.6,3.6-3.6V17.6z"/>
<path class="st7" d="M168.5,1.5h319V274c0,6.4-5.1,11.5-11.5,11.5H168.5V1.5z"/>
<path class="st8" d="M293,100c0-4.4,3.6-8,8-8h156c4.4,0,8,3.6,8,8v24c0,4.4-3.6,8-8,8H301c-4.4,0-8-3.6-8-8V100z"/>
<path class="st2" d="M301,93h156v-2H301V93z M464,100v24h2v-24H464z M457,131H301v2h156V131z M294,124v-24h-2v24H294z M301,131
	c-3.9,0-7-3.1-7-7h-2c0,5,4,9,9,9V131z M464,124c0,3.9-3.1,7-7,7v2c5,0,9-4,9-9H464z M457,93c3.9,0,7,3.1,7,7h2c0-5-4-9-9-9V93z
	 M301,91c-5,0-9,4-9,9h2c0-3.9,3.1-7,7-7V91z"/>
<path class="st8" d="M293,174c0-4.4,3.6-8,8-8h156c4.4,0,8,3.6,8,8v24c0,4.4-3.6,8-8,8H301c-4.4,0-8-3.6-8-8V174z"/>
<path class="st2" d="M301,167h156v-2H301V167z M464,174v24h2v-24H464z M457,205H301v2h156V205z M294,198v-24h-2v24H294z M301,205
	c-3.9,0-7-3.1-7-7h-2c0,5,4,9,9,9V205z M464,198c0,3.9-3.1,7-7,7v2c5,0,9-4,9-9H464z M457,167c3.9,0,7,3.1,7,7h2c0-5-4-9-9-9V167z
	 M301,165c-5,0-9,4-9,9h2c0-3.9,3.1-7,7-7V165z"/>
<path class="st5" d="M293,78c0-2.2,1.8-4,4-4h74c2.2,0,4,1.8,4,4l0,0c0,2.2-1.8,4-4,4h-74C294.8,82,293,80.2,293,78L293,78z"/>
<path class="st2" d="M297,74.4h74v-0.8h-74V74.4z M371,81.6h-74v0.8h74V81.6z M297,81.6c-2,0-3.6-1.6-3.6-3.6h-0.8
	c0,2.4,2,4.4,4.4,4.4V81.6z M374.6,78c0,2-1.6,3.6-3.6,3.6v0.8c2.4,0,4.4-2,4.4-4.4H374.6z M371,74.4c2,0,3.6,1.6,3.6,3.6h0.8
	c0-2.4-2-4.4-4.4-4.4V74.4z M297,73.6c-2.4,0-4.4,2-4.4,4.4h0.8c0-2,1.6-3.6,3.6-3.6V73.6z"/>
<path class="st5" d="M293,152c0-2.2,1.8-4,4-4h74c2.2,0,4,1.8,4,4l0,0c0,2.2-1.8,4-4,4h-74C294.8,156,293,154.2,293,152L293,152z"/>
<path class="st2" d="M297,148.4h74v-0.8h-74V148.4z M371,155.6h-74v0.8h74V155.6z M297,155.6c-2,0-3.6-1.6-3.6-3.6h-0.8
	c0,2.4,2,4.4,4.4,4.4V155.6z M374.6,152c0,2-1.6,3.6-3.6,3.6v0.8c2.4,0,4.4-2,4.4-4.4H374.6z M371,148.4c2,0,3.6,1.6,3.6,3.6h0.8
	c0-2.4-2-4.4-4.4-4.4V148.4z M297,147.6c-2.4,0-4.4,2-4.4,4.4h0.8c0-2,1.6-3.6,3.6-3.6V147.6z"/>
<path class="st2" d="M301,218.2h56c4.3,0,7.8,3.5,7.8,7.8v0c0,4.3-3.5,7.8-7.8,7.8h-56c-4.3,0-7.8-3.5-7.8-7.8v0
	C293.2,221.7,296.7,218.2,301,218.2z"/>
<path class="st5" d="M297,226c0-2.2,1.8-4,4-4h56c2.2,0,4,1.8,4,4l0,0c0,2.2-1.8,4-4,4h-56C298.8,230,297,228.2,297,226L297,226z"/>
<path class="st9" d="M301,218.2h56c4.3,0,7.8,3.5,7.8,7.8v0c0,4.3-3.5,7.8-7.8,7.8h-56c-4.3,0-7.8-3.5-7.8-7.8v0
	C293.2,221.7,296.7,218.2,301,218.2z"/>
<path class="st6" d="M412,37c0-2.2,1.8-4,4-4h44c2.2,0,4,1.8,4,4l0,0c0,2.2-1.8,4-4,4h-44C413.8,41,412,39.2,412,37L412,37z"/>
<path class="st2" d="M416,33.4h44v-0.8h-44V33.4z M460,40.6h-44v0.8h44V40.6z M416,40.6c-2,0-3.6-1.6-3.6-3.6h-0.8
	c0,2.4,2,4.4,4.4,4.4V40.6z M463.6,37c0,2-1.6,3.6-3.6,3.6v0.8c2.4,0,4.4-2,4.4-4.4H463.6z M460,33.4c2,0,3.6,1.6,3.6,3.6h0.8
	c0-2.4-2-4.4-4.4-4.4V33.4z M416,32.6c-2.4,0-4.4,2-4.4,4.4h0.8c0-2,1.6-3.6,3.6-3.6V32.6z"/>
<path class="st6" d="M348,37c0-2.2,1.8-4,4-4h44c2.2,0,4,1.8,4,4l0,0c0,2.2-1.8,4-4,4h-44C349.8,41,348,39.2,348,37L348,37z"/>
<path class="st2" d="M352,33.4h44v-0.8h-44V33.4z M396,40.6h-44v0.8h44V40.6z M352,40.6c-2,0-3.6-1.6-3.6-3.6h-0.8
	c0,2.4,2,4.4,4.4,4.4V40.6z M399.6,37c0,2-1.6,3.6-3.6,3.6v0.8c2.4,0,4.4-2,4.4-4.4H399.6z M396,33.4c2,0,3.6,1.6,3.6,3.6h0.8
	c0-2.4-2-4.4-4.4-4.4V33.4z M352,32.6c-2.4,0-4.4,2-4.4,4.4h0.8c0-2,1.6-3.6,3.6-3.6V32.6z"/>
<path class="st1" d="M284,37c0-2.2,1.8-4,4-4h44c2.2,0,4,1.8,4,4l0,0c0,2.2-1.8,4-4,4h-44C285.8,41,284,39.2,284,37L284,37z"/>
<path class="st2" d="M288,33.4h44v-0.8h-44V33.4z M332,40.6h-44v0.8h44V40.6z M288,40.6c-2,0-3.6-1.6-3.6-3.6h-0.8
	c0,2.4,2,4.4,4.4,4.4V40.6z M335.6,37c0,2-1.6,3.6-3.6,3.6v0.8c2.4,0,4.4-2,4.4-4.4H335.6z M332,33.4c2,0,3.6,1.6,3.6,3.6h0.8
	c0-2.4-2-4.4-4.4-4.4V33.4z M288,32.6c-2.4,0-4.4,2-4.4,4.4h0.8c0-2,1.6-3.6,3.6-3.6V32.6z"/>
<path class="st6" d="M198.8,37c0-7.2,5.8-13,13-13l0,0c7.2,0,13,5.8,13,13l0,0c0,7.2-5.8,13-13,13l0,0C204.6,50,198.8,44.2,198.8,37
	L198.8,37z"/>
<path class="st2" d="M211.8,49.6c-7,0-12.6-5.6-12.6-12.6h-0.8c0,7.4,6,13.4,13.4,13.4V49.6z M224.4,37c0,7-5.6,12.6-12.6,12.6v0.8
	c7.4,0,13.4-6,13.4-13.4H224.4z M211.8,24.4c7,0,12.6,5.6,12.6,12.6h0.8c0-7.4-6-13.4-13.4-13.4V24.4z M211.8,23.6
	c-7.4,0-13.4,6-13.4,13.4h0.8c0-7,5.6-12.6,12.6-12.6V23.6z"/>
<path class="st2" d="M199,78c0-2.2,1.8-4,4-4h32c2.2,0,4,1.8,4,4l0,0c0,2.2-1.8,4-4,4h-32C200.8,82,199,80.2,199,78L199,78z"/>
<path class="st2" d="M203,74.4h32v-0.8h-32V74.4z M235,81.6h-32v0.8h32V81.6z M203,81.6c-2,0-3.6-1.6-3.6-3.6h-0.8
	c0,2.4,2,4.4,4.4,4.4V81.6z M238.6,78c0,2-1.6,3.6-3.6,3.6v0.8c2.4,0,4.4-2,4.4-4.4H238.6z M235,74.4c2,0,3.6,1.6,3.6,3.6h0.8
	c0-2.4-2-4.4-4.4-4.4V74.4z M203,73.6c-2.4,0-4.4,2-4.4,4.4h0.8c0-2,1.6-3.6,3.6-3.6V73.6z"/>
<path class="st2" d="M199,92c0-2.2,1.8-4,4-4h18c2.2,0,4,1.8,4,4l0,0c0,2.2-1.8,4-4,4h-18C200.8,96,199,94.2,199,92L199,92z"/>
<path class="st2" d="M203,88.4h18v-0.8h-18V88.4z M221,95.6h-18v0.8h18V95.6z M203,95.6c-2,0-3.6-1.6-3.6-3.6h-0.8
	c0,2.4,2,4.4,4.4,4.4V95.6z M224.6,92c0,2-1.6,3.6-3.6,3.6v0.8c2.4,0,4.4-2,4.4-4.4H224.6z M221,88.4c2,0,3.6,1.6,3.6,3.6h0.8
	c0-2.4-2-4.4-4.4-4.4V88.4z M203,87.6c-2.4,0-4.4,2-4.4,4.4h0.8c0-2,1.6-3.6,3.6-3.6V87.6z"/>
<path class="st2" d="M199,106c0-2.2,1.8-4,4-4h12c2.2,0,4,1.8,4,4l0,0c0,2.2-1.8,4-4,4h-12C200.8,110,199,108.2,199,106L199,106z"/>
<path class="st2" d="M203,102.4h12v-0.8h-12V102.4z M215,109.6h-12v0.8h12V109.6z M203,109.6c-2,0-3.6-1.6-3.6-3.6h-0.8
	c0,2.4,2,4.4,4.4,4.4V109.6z M218.6,106c0,2-1.6,3.6-3.6,3.6v0.8c2.4,0,4.4-2,4.4-4.4H218.6z M215,102.4c2,0,3.6,1.6,3.6,3.6h0.8
	c0-2.4-2-4.4-4.4-4.4V102.4z M203,101.6c-2.4,0-4.4,2-4.4,4.4h0.8c0-2,1.6-3.6,3.6-3.6V101.6z"/>
<path class="st2" d="M225,106c0-2.2,1.8-4,4-4h32c2.2,0,4,1.8,4,4l0,0c0,2.2-1.8,4-4,4h-32C226.8,110,225,108.2,225,106L225,106z"/>
<path class="st2" d="M229,102.4h32v-0.8h-32V102.4z M261,109.6h-32v0.8h32V109.6z M229,109.6c-2,0-3.6-1.6-3.6-3.6h-0.8
	c0,2.4,2,4.4,4.4,4.4V109.6z M264.6,106c0,2-1.6,3.6-3.6,3.6v0.8c2.4,0,4.4-2,4.4-4.4H264.6z M261,102.4c2,0,3.6,1.6,3.6,3.6h0.8
	c0-2.4-2-4.4-4.4-4.4V102.4z M229,101.6c-2.4,0-4.4,2-4.4,4.4h0.8c0-2,1.6-3.6,3.6-3.6V101.6z"/>
<path class="st2" d="M231,92c0-2.2,1.8-4,4-4h12c2.2,0,4,1.8,4,4l0,0c0,2.2-1.8,4-4,4h-12C232.8,96,231,94.2,231,92L231,92z"/>
<path class="st2" d="M235,88.4h12v-0.8h-12V88.4z M247,95.6h-12v0.8h12V95.6z M235,95.6c-2,0-3.6-1.6-3.6-3.6h-0.8
	c0,2.4,2,4.4,4.4,4.4V95.6z M250.6,92c0,2-1.6,3.6-3.6,3.6v0.8c2.4,0,4.4-2,4.4-4.4H250.6z M247,88.4c2,0,3.6,1.6,3.6,3.6h0.8
	c0-2.4-2-4.4-4.4-4.4V88.4z M235,87.6c-2.4,0-4.4,2-4.4,4.4h0.8c0-2,1.6-3.6,3.6-3.6V87.6z"/>
<path class="st2" d="M199,120c0-2.2,1.8-4,4-4h32c2.2,0,4,1.8,4,4l0,0c0,2.2-1.8,4-4,4h-32C200.8,124,199,122.2,199,120L199,120z"/>
<path class="st2" d="M203,116.4h32v-0.8h-32V116.4z M235,123.6h-32v0.8h32V123.6z M203,123.6c-2,0-3.6-1.6-3.6-3.6h-0.8
	c0,2.4,2,4.4,4.4,4.4V123.6z M238.6,120c0,2-1.6,3.6-3.6,3.6v0.8c2.4,0,4.4-2,4.4-4.4H238.6z M235,116.4c2,0,3.6,1.6,3.6,3.6h0.8
	c0-2.4-2-4.4-4.4-4.4V116.4z M203,115.6c-2.4,0-4.4,2-4.4,4.4h0.8c0-2,1.6-3.6,3.6-3.6V115.6z"/>
<path class="st2" d="M199,134c0-2.2,1.8-4,4-4h44c2.2,0,4,1.8,4,4l0,0c0,2.2-1.8,4-4,4h-44C200.8,138,199,136.2,199,134L199,134z"/>
<path class="st2" d="M203,130.4h44v-0.8h-44V130.4z M247,137.6h-44v0.8h44V137.6z M203,137.6c-2,0-3.6-1.6-3.6-3.6h-0.8
	c0,2.4,2,4.4,4.4,4.4V137.6z M250.6,134c0,2-1.6,3.6-3.6,3.6v0.8c2.4,0,4.4-2,4.4-4.4H250.6z M247,130.4c2,0,3.6,1.6,3.6,3.6h0.8
	c0-2.4-2-4.4-4.4-4.4V130.4z M203,129.6c-2.4,0-4.4,2-4.4,4.4h0.8c0-2,1.6-3.6,3.6-3.6V129.6z"/>
<path class="st2" d="M245,120c0-2.2,1.8-4,4-4h18c2.2,0,4,1.8,4,4l0,0c0,2.2-1.8,4-4,4h-18C246.8,124,245,122.2,245,120L245,120z"/>
<path class="st2" d="M249,116.4h18v-0.8h-18V116.4z M267,123.6h-18v0.8h18V123.6z M249,123.6c-2,0-3.6-1.6-3.6-3.6h-0.8
	c0,2.4,2,4.4,4.4,4.4V123.6z M270.6,120c0,2-1.6,3.6-3.6,3.6v0.8c2.4,0,4.4-2,4.4-4.4H270.6z M267,116.4c2,0,3.6,1.6,3.6,3.6h0.8
	c0-2.4-2-4.4-4.4-4.4V116.4z M249,115.6c-2.4,0-4.4,2-4.4,4.4h0.8c0-2,1.6-3.6,3.6-3.6V115.6z"/>
</svg>
