<?xml version="1.0" encoding="utf-8"?>
<!-- Generator: Adobe Illustrator 26.3.1, SVG Export Plug-In . SVG Version: 6.00 Build 0)  -->
<svg version="1.1" id="Layer_1" xmlns="http://www.w3.org/2000/svg" xmlns:xlink="http://www.w3.org/1999/xlink" x="0px" y="0px"
	 viewBox="0 0 452.6 226.5" style="enable-background:new 0 0 452.6 226.5;" xml:space="preserve">
<style type="text/css">
	.st0{fill:#111111;}
	.st1{fill:#333333;}
	.st2{fill:none;}
	.st3{fill:#FFFFFF;}
	.st4{fill:#231F20;}
	.st5{fill:#C4C4C4;}
	.st6{fill:#017FF0;}
	.st7{fill:#076CC6;}
	.st8{fill:#5D3611;}
	.st9{fill:#2A6C28;}
	.st10{fill:#20591F;}
</style>
<g>
	<path class="st0" d="M30.6,72.7h139c5.5,0,10,4.5,10,10v122c0,5.5-4.5,10-10,10h-139c-5.5,0-10-4.5-10-10v-122
		C20.6,77.2,25.1,72.7,30.6,72.7z"/>
	<path class="st1" d="M202.6,76.8c0-2.8,2.2-5,5-5h113c2.8,0,5,2.2,5,5v23c0,2.8-2.2,5-5,5h-113c-2.8,0-5-2.2-5-5V76.8z"/>
	<path class="st1" d="M202.6,118.8c0-2.8,2.3-5,5.1-5h215.8c2.8,0,5.1,2.2,5.1,5v90c0,2.8-2.3,5-5.1,5H207.8c-2.8,0-5.1-2.2-5.1-5
		V118.8z"/>
	<path class="st2" d="M383.6,82c0-5.7,4.6-10.3,10.3-10.3h24.5c5.7,0,10.3,4.6,10.3,10.3v0.5c0,5.7-4.6,10.3-10.3,10.3h-24.5
		c-5.7,0-10.3-4.6-10.3-10.3V82z"/>
</g>
<g>
	<path class="st3" d="M57.7,27.2c0-10.7-8.7-19.4-19.5-19.4c-10.8,0-19.5,8.7-19.5,19.4c0,10.7,8.7,19.4,19.5,19.4
		C48.9,46.6,57.7,37.9,57.7,27.2z"/>
	<path class="st4" d="M56.7,27.2c0-10.1-8.3-18.4-18.5-18.4C28,8.8,19.7,17,19.7,27.2c0,10.1,8.3,18.4,18.5,18.4
		C48.4,45.6,56.7,37.3,56.7,27.2z M38.2,7.8c10.8,0,19.5,8.7,19.5,19.4c0,10.7-8.7,19.4-19.5,19.4c-10.8,0-19.5-8.7-19.5-19.4
		C18.6,16.5,27.4,7.8,38.2,7.8z"/>
	<path class="st1" d="M68.4,33.5c0-1.9,1.5-3.4,3.4-3.4h61.5c1.9,0,3.4,1.5,3.4,3.4c0,1.9-1.5,3.4-3.4,3.4H71.8
		C69.9,36.9,68.4,35.4,68.4,33.5z"/>
	<path class="st3" d="M68.4,19.9c0-1.9,1.5-3.4,3.4-3.4h32.2c1.9,0,3.4,1.5,3.4,3.4c0,1.9-1.5,3.4-3.4,3.4H71.8
		C69.9,23.3,68.4,21.8,68.4,19.9z"/>
	<path class="st1" d="M249.1,24.8c0-1.9,1.5-3.4,3.4-3.4h32.2c1.9,0,3.4,1.5,3.4,3.4c0,1.9-1.5,3.4-3.4,3.4h-32.2
		C250.6,28.2,249.1,26.6,249.1,24.8z"/>
	<path class="st1" d="M342.8,24.8c0-1.9,1.5-3.4,3.4-3.4h32.2c1.9,0,3.4,1.5,3.4,3.4c0,1.9-1.5,3.4-3.4,3.4h-32.2
		C344.3,28.2,342.8,26.6,342.8,24.8z"/>
	<path class="st1" d="M202.2,24.8c0-1.9,1.5-3.4,3.4-3.4h32.2c1.9,0,3.4,1.5,3.4,3.4c0,1.9-1.5,3.4-3.4,3.4h-32.2
		C203.7,28.2,202.2,26.6,202.2,24.8z"/>
	<path class="st1" d="M295.9,24.8c0-1.9,1.5-3.4,3.4-3.4h32.2c1.9,0,3.4,1.5,3.4,3.4c0,1.9-1.5,3.4-3.4,3.4h-32.2
		C297.4,28.2,295.9,26.6,295.9,24.8z"/>
	<path class="st1" d="M389.6,24.8c0-1.9,1.5-3.4,3.4-3.4h32.2c1.9,0,3.4,1.5,3.4,3.4c0,1.9-1.5,3.4-3.4,3.4H393
		C391.1,28.2,389.6,26.6,389.6,24.8z"/>
	<path class="st4" d="M34.6,33.1c0.2,0,0.3-0.1,0.3-0.3s-0.1-0.3-0.3-0.3c-0.2,0-0.3,0.1-0.3,0.3S34.5,33.1,34.6,33.1z M33,32.8
		c0-0.9,0.7-1.7,1.7-1.7c0.9,0,1.7,0.7,1.7,1.7s-0.7,1.7-1.7,1.7C33.7,34.4,33,33.7,33,32.8z"/>
	<path class="st4" d="M42,33.1c0.2,0,0.3-0.1,0.3-0.3s-0.1-0.3-0.3-0.3c-0.2,0-0.3,0.1-0.3,0.3S41.8,33.1,42,33.1z M40.3,32.8
		c0-0.9,0.7-1.7,1.7-1.7c0.9,0,1.7,0.7,1.7,1.7s-0.7,1.7-1.7,1.7C41.1,34.4,40.3,33.7,40.3,32.8z"/>
	<path class="st4" d="M28.3,19.4c0-0.6,0.4-1,1-1H32c0.5,0,0.9,0.3,1,0.8l0.5,2.5H44c0.3,0,0.6,0.1,0.8,0.4c0.2,0.2,0.3,0.5,0.2,0.8
		l-1.1,5.6c-0.1,0.5-0.4,1-0.8,1.4c-0.4,0.3-1,0.5-1.5,0.5h-6.5c-0.5,0-1.1-0.2-1.5-0.5c-0.4-0.3-0.7-0.8-0.8-1.4c0,0,0,0,0,0
		L31.7,23c0,0,0,0,0-0.1l-0.5-2.5h-1.8C28.8,20.4,28.3,20,28.3,19.4z M33.9,23.8l0.9,4.4c0,0.1,0.1,0.1,0.1,0.2
		c0.1,0,0.1,0.1,0.2,0.1l0,0h6.5l0,0c0.1,0,0.2,0,0.2-0.1c0.1,0,0.1-0.1,0.1-0.2l0.8-4.4H33.9z"/>
</g>
<g>
	<path class="st3" d="M396.8,89h0.8v-1.1c2.1-0.1,3.3-1.4,3.3-2.9c0-1.9-1.8-2.5-2.9-2.8l-0.4-0.1v-3.5c1.1,0.1,1.8,0.7,1.9,1.6h1.2
		c0-1.5-1.3-2.6-3.1-2.7v-1.1h-0.8v1.2c-1.7,0.2-3,1.3-3,2.8c0,1.4,1,2.2,2.6,2.6l0.4,0.1v3.8c-1-0.1-1.9-0.6-2-1.7h-1.3
		c0.1,1.6,1.3,2.7,3.3,2.8V89z M397.6,86.8v-3.5l0,0c1.1,0.3,2,0.7,2,1.7C399.7,86,398.8,86.7,397.6,86.8z M396.8,81.9
		c-0.8-0.2-1.8-0.6-1.8-1.6c0-0.9,0.7-1.5,1.8-1.7V81.9z"/>
	<path class="st3" d="M405.7,89h0.8v-1.1c2.1-0.1,3.3-1.4,3.3-2.9c0-1.9-1.8-2.5-2.9-2.8l-0.4-0.1v-3.5c1.1,0.1,1.8,0.7,1.9,1.6h1.2
		c0-1.5-1.3-2.6-3.1-2.7v-1.1h-0.8v1.2c-1.7,0.2-3,1.3-3,2.8c0,1.4,1,2.2,2.6,2.6l0.4,0.1v3.8c-1-0.1-1.9-0.6-2-1.7h-1.3
		c0.1,1.6,1.3,2.7,3.3,2.8V89z M406.6,86.8v-3.5l0,0c1.1,0.3,2,0.7,2,1.7C408.6,86,407.8,86.7,406.6,86.8z M405.7,81.9
		c-0.8-0.2-1.8-0.6-1.8-1.6c0-0.9,0.7-1.5,1.8-1.7V81.9z"/>
	<path class="st3" d="M414.7,89h0.8v-1.1c2.1-0.1,3.3-1.4,3.3-2.9c0-1.9-1.8-2.5-2.9-2.8l-0.4-0.1v-3.5c1.1,0.1,1.8,0.7,1.9,1.6h1.2
		c-0.1-1.5-1.3-2.6-3.1-2.7v-1.1h-0.8v1.2c-1.7,0.2-3,1.3-3,2.8c0,1.4,1,2.2,2.6,2.6l0.4,0.1v3.8c-1-0.1-1.9-0.6-2-1.7h-1.3
		c0.1,1.6,1.3,2.7,3.3,2.8V89z M415.5,86.8v-3.5l0,0c1.1,0.3,2,0.7,2,1.7C417.6,86,416.7,86.7,415.5,86.8z M414.7,81.9
		c-0.8-0.2-1.8-0.6-1.8-1.6c0-0.9,0.7-1.5,1.8-1.7V81.9z"/>
	<ellipse class="st5" cx="100.1" cy="184.3" rx="23.5" ry="4.5"/>
	<path class="st6" d="M85.6,183.8l-6-34.5h41.5l-6,34.5H85.6z"/>
	<path class="st7" d="M115.6,149.8c-12.4,2.8-13.5,23.2-12,33.5H86.1l-6-33.5H115.6z"/>
	<path class="st8" d="M98.1,137.8c0-0.7,0.2-2.5,1-4.5s2-5.5,2.5-7c0.3-0.8,0.6-2.8-1-4c0.5,0.2,1.5,0.9,1.5,2.5
		c0.3-1.2,1.1-4.4,1.5-8c0.3-3-0.2-4.4-0.7-4.8c-0.1-0.1-0.2-0.1-0.3-0.2c0.1,0,0.2,0.1,0.3,0.2c0.3,0.2,0.6,0.6,0.7,1.1
		c-0.1-1.6-0.1-4.5,1-5.2c-0.5,0.8-1.3,3.1-0.5,5.5s0.7,4.3,0.5,5c0.2-0.5,0.8-1.5,2-1.5c-0.7,0.3-2.1,1.6-2.5,4c-0.5,3-2,8-2.5,9.5
		c0.3-0.2,1.5-1,1.5-1c-0.2,0.7-0.7,2.1-1.5,2.5c-0.3,0.5-1,2.4-1,6H98.1z"/>
	<rect x="75.6" y="137.8" class="st6" width="49" height="12"/>
	<path class="st9" d="M101.1,122.3c-2.4,2.4-5.3-0.7-6.5-2.5c1.2,0.3,3.4,0.8,3,0s-0.5-4.3-0.5-6
		C99.5,115.6,103.5,119.9,101.1,122.3z"/>
	<path class="st10" d="M101.1,121.8l-6.5-2c4-0.8,5.3-0.7,5.5-0.5c0.8-1.2-1.7-4.2-3-5.5c2.5,1.5,3.2,2.3,4,3
		c0.3,0.3,1.1,1.3,1.5,2.5S101.8,121.4,101.1,121.8z"/>
	<path class="st9" d="M102.1,112.3c-2.4,2.4-5.3-0.7-6.5-2.5c1.2,0.3,3.4,0.8,3,0s-0.5-4.3-0.5-6
		C100.5,105.6,104.5,109.9,102.1,112.3z"/>
	<path class="st10" d="M102.1,111.8l-6.5-2c4-0.8,5.3-0.7,5.5-0.5c0.8-1.2-1.7-4.2-3-5.5c2.5,1.5,3.2,2.3,4,3
		c0.3,0.3,1.1,1.3,1.5,2.5S102.8,111.4,102.1,111.8z"/>
	<path class="st9" d="M103.2,131.3c2.4,2.4,5.3-0.7,6.5-2.5c-1.2,0.3-3.4,0.8-3,0s0.5-4.3,0.5-6
		C104.9,124.6,100.8,128.9,103.2,131.3z"/>
	<path class="st10" d="M103.2,130.8l6.5-2c-4-0.8-5.3-0.7-5.5-0.5c-0.8-1.2,1.7-4.2,3-5.5c-2.5,1.5-3.2,2.3-4,3
		c-0.3,0.3-1.1,1.3-1.5,2.5S102.6,130.4,103.2,130.8z"/>
	<path class="st9" d="M106.2,118.3c2.4,2.4,5.3-0.7,6.5-2.5c-1.2,0.3-3.4,0.8-3,0s0.5-4.3,0.5-6
		C107.9,111.6,103.8,115.9,106.2,118.3z"/>
	<path class="st10" d="M106.2,117.8l6.5-2c-4-0.8-5.3-0.7-5.5-0.5c-0.8-1.2,1.7-4.2,3-5.5c-2.5,1.5-3.2,2.3-4,3
		c-0.3,0.3-1.1,1.3-1.5,2.5S105.6,117.4,106.2,117.8z"/>
	<path class="st9" d="M104.2,108.3c2.4,2.4,5.3-0.7,6.5-2.5c-1.2,0.3-3.4,0.8-3,0c0.4-0.8,0.5-4.3,0.5-6
		C105.9,101.6,101.8,105.9,104.2,108.3z"/>
	<path class="st10" d="M104.2,107.8l6.5-2c-4-0.8-5.3-0.7-5.5-0.5c-0.8-1.2,1.7-4.2,3-5.5c-2.5,1.5-3.2,2.3-4,3
		c-0.3,0.3-1.1,1.3-1.5,2.5C102.3,106.5,103.6,107.4,104.2,107.8z"/>
</g>
</svg>
