<svg fill="none" viewBox="0 0 424 282"><g clip-path="url(#a)"><path d="M8-.5A8.5 8.5 0 0 0-.5 8v266a8.5 8.5 0 0 0 8.5 8.5h408a8.5 8.5 0 0 0 8.5-8.5V8A8.5 8.5 0 0 0 416-.5H8Z" fill="#E3D7FC" stroke="#EAEAEA"></path><path d="M24 28a4 4 0 0 1 4-4h368a4 4 0 0 1 4 4v254H24V28Z" fill="#fff"></path><rect fill="#000" height="8" rx="4" width="40" x="332" y="52"></rect><rect fill="#999" height="8" rx="4" width="40" x="284" y="52"></rect><circle cx="56" cy="56" fill="#000" r="8"></circle><rect fill="#EAEAEA" height="160" rx="8" width="160" x="48" y="96"></rect><path d="M90.071 202.709v-57c-.8-5.2 5.929-6.824 8.5-7.5 20.429-3.709 32.667-1.667 39.5 0 6.429 1.791 7.167 3.666 7.5 5v9c1-.5 4.7-1.4 11.5-1 6.8.4 9.167 6.5 9.5 9.5.167 7 .4 22.2 0 27-.4 4.8-5.5 8-8 9l-12.5 3.5v5.5C146 208.5 144 211.195 139 212.5c-21.071 5.5-36.827 2.049-43.929-.791-5-2-5-6-5-9Z" fill="#111"></path><path d="M90.071 145.709h.5v-.039l-.006-.037-.494.076Zm56 60 .5.012v-.012h-.5Zm0-5.5-.135-.482-.365.102v.38h.5Zm12.5-3.5.135.481.026-.007.025-.01-.186-.464Zm8-36 .5-.012v-.022l-.003-.022-.497.056Zm-9.5-9.5-.029.499.029-.499Zm-11.5 1h-.5v.809l.724-.362-.224-.447Zm0-9h.5v-.062l-.015-.06-.485.122Zm-7.5-5 .134-.482-.007-.002-.008-.002-.119.486Zm-39.5 0-.09-.492-.018.003-.019.005.127.484Zm-3.5 73.5-.185.464.185-.464ZM139 212.5l-.126-.484.126.484Zm-49.429-66.791v57h1v-57h-1Zm57 60v-5.5h-1v5.5h1Zm-.365-5.019 12.5-3.5-.27-.963-12.5 3.5.27.963Zm12.551-3.517c1.299-.52 3.254-1.601 4.943-3.174 1.686-1.571 3.155-3.678 3.37-6.249l-.997-.083c-.186 2.229-1.467 4.122-3.055 5.601-1.586 1.477-3.432 2.496-4.632 2.976l.371.929Zm8.313-9.423c.402-4.833.167-20.067.001-27.053l-1 .023c.167 7.014.399 22.181.002 26.947l.997.083Zm-.002-27.097c-.175-1.574-.877-3.939-2.424-5.972-1.558-2.049-3.977-3.762-7.543-3.972l-.059.999c3.234.19 5.398 1.727 6.806 3.578 1.42 1.867 2.068 4.052 2.226 5.478l.994-.111Zm-9.967-9.944c-3.427-.201-6.083-.076-8.017.166-1.918.24-3.16.598-3.736.886l.447.895c.424-.212 1.532-.554 3.413-.789 1.866-.233 4.461-.358 7.834-.159l.059-.999Zm-11.03 1.5v-9h-1v9h1Zm-.015-9.122c-.182-.729-.491-1.641-1.629-2.591-1.108-.925-2.979-1.865-6.222-2.769l-.268.963c3.186.888 4.899 1.781 5.85 2.574.921.769 1.148 1.462 1.299 2.066l.97-.243Zm-7.866-5.364c-6.895-1.682-19.204-3.729-39.708-.006l.179.984c20.353-3.695 32.52-1.658 39.292-.007l.237-.971Zm-39.746.002c-1.27.334-3.668.925-5.644 2.108-.992.595-1.91 1.357-2.524 2.34-.621.995-.917 2.192-.699 3.612l.988-.152c-.181-1.181.064-2.137.56-2.93.502-.804 1.278-1.466 2.189-2.012 1.831-1.097 4.083-1.656 5.385-1.999l-.255-.967Zm-3.187 73.519c-2.375-.95-3.52-2.349-4.094-3.84-.587-1.525-.592-3.182-.592-4.695h-1c0 1.486-.005 3.329.659 5.054.676 1.759 2.03 3.36 4.656 4.41l.371-.929Zm43.869 1.74c2.563-.669 4.404-1.706 5.619-2.977 1.221-1.276 1.787-2.767 1.826-4.286l-1-.025c-.032 1.272-.501 2.525-1.548 3.62-1.053 1.101-2.712 2.064-5.149 2.7l.252.968Zm-44.24-.811c7.195 2.878 23.06 6.339 44.24.811l-.252-.968c-20.963 5.472-36.609 2.031-43.617-.772l-.371.929Z" fill="#000"></path><path d="M142.571 142.709c0 .218-.096.474-.367.771-.273.3-.701.614-1.292.928-1.183.628-2.928 1.208-5.126 1.702-4.388.985-10.475 1.599-17.215 1.599s-12.826-.614-17.214-1.599c-2.198-.494-3.943-1.074-5.126-1.702-.592-.314-1.019-.628-1.292-.928-.271-.297-.368-.553-.368-.771 0-.219.097-.475.368-.772.273-.3.7-.613 1.292-.928 1.183-.627 2.928-1.208 5.126-1.702 4.388-.985 10.474-1.598 17.214-1.598 6.74 0 12.827.613 17.215 1.598 2.198.494 3.943 1.075 5.126 1.702.591.315 1.019.628 1.292.928.271.297.367.553.367.772Z" fill="#333" stroke="#444"></path><path d="M146.071 185.709v-21.5c0-1.2.667-2.167 1-2.5 2-2.5 5.5-2.5 9-2.5 2.8 0 3.5 3.333 3.5 5v17c0 3.2-.666 5.333-1 6-.666 1.166-3 3.5-7 3.5s-5.333-3.334-5.5-5Z" fill="#EAEAEA" stroke="#000"></path><path clip-rule="evenodd" d="M115.132 171.519a1 1 0 0 1 1.736 0l6.277 10.985a1 1 0 0 1-.868 1.496h-12.554a1 1 0 0 1-.868-1.496l6.277-10.985Z" fill="#fff" fill-rule="evenodd"></path><rect fill="#EAEAEA" height="30" rx="8" width="30" x="48" y="268"></rect><rect fill="#EAEAEA" height="30" rx="8" width="30" x="86" y="268"></rect><rect fill="#EAEAEA" height="30" rx="8" width="30" x="124" y="268"></rect><rect height="29" rx="7.5" stroke="#EAEAEA" width="29" x="245.5" y="190.5"></rect><rect height="29" rx="7.5" stroke="#EAEAEA" width="29" x="283.5" y="190.5"></rect><rect height="29" rx="7.5" stroke="#EAEAEA" width="29" x="321.5" y="190.5"></rect><rect fill="#999" height="8" rx="4" width="40" x="72" y="52"></rect><path d="M245 245a8 8 0 0 1 8-8h64a8 8 0 0 1 8 8v3a8 8 0 0 1-8 8h-64a8 8 0 0 1-8-8v-3Z" fill="#8A63D2"></path><rect fill="#999" height="8" rx="4" width="100" x="245" y="129"></rect><rect fill="#000" height="8" rx="4" width="100" x="245" y="99"></rect><rect fill="#999" height="8" rx="4" width="100" x="245" y="145"></rect><rect fill="#999" height="8" rx="4" width="60" x="245" y="162"></rect></g><defs><clipPath id="a"><path d="M0 0h424v282H0z" fill="#fff"></path></clipPath></defs></svg>