<?xml version="1.0" encoding="utf-8"?>
<!-- Generator: Adobe Illustrator 26.3.1, SVG Export Plug-In . SVG Version: 6.00 Build 0)  -->
<svg version="1.1" id="Layer_1" xmlns="http://www.w3.org/2000/svg" xmlns:xlink="http://www.w3.org/1999/xlink" x="0px" y="0px"
	 viewBox="0 0 352 114" style="enable-background:new 0 0 352 114;" xml:space="preserve">
<style type="text/css">
	.st0{fill:#A01D20;}
	.st1{fill:#831618;}
	.st2{fill:#B72025;}
	.st3{fill:#2B1010;}
	.st4{fill:#700F11;}
	.st5{fill:#1F0D0E;}
	.st6{fill:#AC1F23;}
	.st7{fill:#8B181B;}
	.st8{fill:#BE2026;}
	.st9{fill:#600A0D;}
	.st10{fill:#640E10;}
	.st11{fill:#7E1416;}
	.st12{fill:#E62628;}
	.st13{fill:#C82127;}
	.st14{fill:#581011;}
	.st15{fill:#741113;}
	.st16{fill:#80181B;}
	.st17{fill:#921A1D;}
	.st18{fill:#670F0F;}
	.st19{fill:#D52027;}
	.st20{fill:#D52427;}
	.st21{fill:#791214;}
	.st22{fill:#911A1D;}
	.st23{fill:#521415;}
	.st24{fill:#541618;}
	.st25{fill:#610C0E;}
	.st26{fill:#6C1B1D;}
	.st27{fill:#691315;}
	.st28{fill:#941B1E;}
	.st29{fill:#961B1E;}
	.st30{fill:#861719;}
	.st31{fill:#971B1E;}
	.st32{fill:#8E191C;}
	.st33{fill:#A71E22;}
	.st34{fill:#A61E22;}
	.st35{fill:#EE2A29;}
	.st36{fill:#E52526;}
	.st37{fill:#801517;}
	.st38{fill:#951B1E;}
	.st39{fill:#381313;}
	.st40{fill:#341212;}
	.st41{fill:#C22026;}
	.st42{fill:#7B1315;}
	.st43{fill:#751113;}
	.st44{fill:#6B0D0E;}
	.st45{fill:#2C1010;}
	.st46{fill:#331212;}
	.st47{fill:#2A0F10;}
	.st48{fill:#4C1313;}
	.st49{fill:#CC2027;}
	.st50{fill:#9A1C1F;}
	.st51{fill:#A11D21;}
	.st52{fill:#5C0C0E;}
	.st53{fill:#C12026;}
	.st54{fill:#4F1313;}
	.st55{fill:#AE1F24;}
	.st56{fill:#741112;}
	.st57{fill:#811517;}
	.st58{fill:#9E1C20;}
	.st59{fill:#B62025;}
	.st60{fill:#D62027;}
	.st61{fill:#C42126;}
	.st62{fill:#EE302E;}
	.st63{fill:#481213;}
	.st64{fill:#461313;}
	.st65{fill:#541112;}
	.st66{fill:#620C0F;}
	.st67{fill:#351212;}
	.st68{fill:#3B1313;}
	.st69{fill:#401313;}
	.st70{fill:#491212;}
	.st71{fill:#361212;}
	.st72{fill:#371312;}
	.st73{fill:#3A1313;}
	.st74{fill:#5F090C;}
	.st75{fill:#690F0F;}
	.st76{fill:#531112;}
	.st77{fill:#660F10;}
	.st78{fill:#C62127;}
	.st79{fill:#991C1F;}
	.st80{fill:#A91E22;}
	.st81{fill:#9D1C20;}
	.st82{fill:#8C181B;}
	.st83{fill:#7C1315;}
	.st84{fill:#DA1F27;}
	.st85{fill:#A01D21;}
	.st86{fill:#88171A;}
	.st87{fill:#931A1D;}
	.st88{fill:#6E0E10;}
	.st89{fill:#5D0A0D;}
	.st90{fill:#5E090C;}
	.st91{fill:#BF2026;}
	.st92{fill:#9F1D20;}
	.st93{fill:#A41E21;}
	.st94{fill:#3E1313;}
	.st95{fill:#B42025;}
	.st96{fill:#821518;}
	.st97{fill:#871719;}
	.st98{fill:#A81E22;}
	.st99{fill:#851618;}
	.st100{fill:#7A1315;}
	.st101{fill:#4A1313;}
	.st102{fill:#4E1313;}
	.st103{fill:#C32126;}
	.st104{fill:#E82527;}
	.st105{fill:#DB1F26;}
	.st106{fill:#E92627;}
	.st107{fill:#DE1F26;}
	.st108{fill:#650E10;}
	.st109{fill:#EE312F;}
	.st110{fill:#4B1313;}
	.st111{fill:#4D1313;}
	.st112{fill:#B52025;}
	.st113{fill:#3D1313;}
	.st114{fill:#580F10;}
	.st115{fill:#E32226;}
	.st116{fill:#EE332F;}
	.st117{fill:#EE302D;}
	.st118{fill:#EB2627;}
	.st119{fill:#590E0F;}
	.st120{fill:#91191C;}
	.st121{fill:#B22024;}
	.st122{fill:#E11F26;}
	.st123{fill:#A31E21;}
	.st124{fill:#BC2026;}
</style>
<path class="st0" d="M316.1,7.6c3,1,5.7,2.4,8.1,4.5c0.6,1.1,2.6,1.4,1.9,3.1c-0.7,1.5-2.3,2-3.8,1.6c-2-0.6-3.5-0.3-4.6,1.6
	c-0.3,0.6-1,1.3-1.5,1.1c-4.3-1-6.1,1.8-8.6,4.5c-1.7,1.9-3.5,0.3-4.6-1.9c-0.4,1-0.7,2.9-1.3,2.7c-3.7-0.8-4.1,3.2-6.6,4.1
	c-2.9,1.1-6,1.7-9,2.5c-1.6,0.4-2.5,1.4-3.7,2.1c-0.5,0.1-0.9,0.1-1.4,0c-2.3-4.5-4.4,0.4-6.6,0.2c-1.5,0.2-3.1,0.2-4.6-0.1
	c-0.8-0.3-1.6-0.6-2.1-1.2c-2.4-2.7-4.1-1.7-5.6,0.9c-0.4,0.3-0.8,0.5-1.2,0.6c-1.8,0.2-3.6,0.4-5.4,0.1c-0.4-0.2-0.8-0.4-1.1-0.7
	c-0.5-0.6-0.7-1.3-0.6-2.1c-0.9,0.5-0.6,1.7-1.3,2.3c-1.9,1.3-3.9,2-5.9,0.3c-1.7-2-1.7,1.1-2.8,1c-9.8,1.6-19.7-0.2-29.6,0.9
	c-1.3,0.1-2.6,0-3.8-0.8c-0.9-3.1,1.8-2.5,3.2-2.6c2.2-0.3,4-0.6,3.4-3.5c0-0.7,0-1.4,0.2-2.1c0.2-0.4,0.4-0.8,0.8-1.2
	c1.5-0.7,2.6,0.2,3.3,1.2c2,3.1,4.2,2.6,6.7,0.6c0.1-0.4,0.3-0.8,0.5-1.2c0.6-1,1.4-1.1,2.4-0.5c0.4,0.3,0.7,0.6,1,0.9
	c1.3,1.7,1.7,4,3.3,5.4c0.6,0.1,1.1,0,1.4-0.6c1.1-1.6-1-7,4.3-3.6c1.1,0.7,1.6-0.7,2-1.6c0.5-1.2,0.3-3,2-3.1c1.9-0.1,2.1,1.9,3,3
	c0.4,0.5,0.7,1.1,1,2c1-2,1.3-4.5,4.1-4.8c2.1,1.6,4.2,3.2,5.6,6c1.8-2.4,2.7-4.8,2.8-7.5c0-1.2,0.7-2.3,2-2.5
	c1.2-0.1,2,0.9,2.1,1.8c0.4,2.9,1.8,3.7,4.7,3.6c1.5-0.1,2.9,1.5,3.2,3.4c1-0.9,0.7-2,0.5-3.1c-0.2-1-1.7-2-0.1-3
	c1.1-0.6,2.4-0.1,3.3,0.6c3.4,2.9,6.2,2.7,8.7-1.3c1.2-1.8,3.3-1.9,5.4-1.3c4.4,1.1,6.7,0.1,8.5-4.2c0.9-2,1.3-3.2,4.2-2.5
	c3.7,0.9,1.1-1.6,0.9-2.8c1-1.5,2.8-2.1,4-3.4C311.4,6.7,313.6,9,316.1,7.6z"/>
<path class="st1" d="M300.1,3.5c2.1-0.2,4.1,0.3,6,1c-1,3.3-4.3,1.4-6.2,2.6c-3.9,4.7-9.7,5-14.9,6.6c-2.5,0.7-2.8-1.8-3.6-3.3
	c-1.5,4.4-2.4,4.5-8.6,0.8c-1.7,5.7-2.1,6-5.3,3.4c0.4,1.9,1.2,3.8,0.5,5.7c-1,1.8-2.1,1.5-2.9,0c-1-1.7-2.2-3.3-2.7-5.6
	c-1.6,1.5-1,3.4-1.7,4.7c-0.4,0.6-1.4,1.2-1.5,1c-1.8-3.8-5.5-2.2-8.3-2.6c-3.1-0.4-6.8-1.3-8.4,3c-0.7,1.9-1.8,1.7-3.4,0.6
	c-2-1.4-2.1,0.2-1.9,1.7c0.1,0.5,0.2,0.9,0.3,1.4c-0.3,2.1,0.9,4.7-1.7,6.1c-1.4-0.3-2-1.4-2.4-2.6c-0.8-2.3-0.2-5.2-3-6.8
	c-1.1-0.6-1-2.4-0.6-3.7c2.1-4.2,2.1-4.2,5.3-1c-1-2.6-4.1-4.8,1.4-5.5c2.7-0.3,6.4-0.7,9.4-2.7c2.1-1.5,3.6,1.6,5.5,2.5
	c2.4-2.2,4.8-4.2,7.1-6.5c0.4-0.2,0.9-0.2,1.3,0c3.4,2.6,6.9,0.9,10.4,0.5c1.8-0.2,3.5-0.7,5.4-0.5C283.6,3.4,291.9,4.2,300.1,3.5z"
	/>
<path class="st2" d="M281.1,33.3c0.3,0,0.7,0,1,0c1.9-1.8,4.4-1.5,6.6-1.2c4.8,0.6,9-1.9,12.2-4.2c5.6-3.9,11.5-5.9,17.9-6.4
	c5.4-0.5,10.8-0.1,16.2,0c6.2,6.4,10.4,13.9,12.1,22.8c0.6,1.6,0.5,2.8-1.6,1.6c-1.1-0.6-1.6-2-2.4-3c-2.1-3.3-3.7-7-6.6-9.8
	c-4.2-4.1-9.1-5.5-14.6-3.8c-4.4,1.4-8.9,2.3-13.3,3.7c-3.5-0.4-6.7,0.5-9.8,2.2c-0.5,0.2-1,0.3-1.5,0.4c-6.4,0.6-12.9-0.6-19.3,0.8
	c-13.6,0.1-27.1,0.4-40.7,0.4c-17.5,0-35,0-52.6,0c-2.1,0-4.3,0.2-6.4-0.5c-0.6-0.3-1-0.7-1.4-1.3c0.4-1.5,1.7-1.7,2.9-1.9
	c0.6-0.1,1.2-0.1,1.8-0.1c4.2-0.2,8.4,0,12.7,0c3.6,0,7.1,0,10.7,0c1.8,0,3.6,0,5,1.4c11.3-0.9,22.7,0.6,34-1c1-0.7,2-0.9,3,0
	c1.7,1.2,3.3,0,5,0c1-0.8,2-0.7,3,0c2,0.9,4,0.6,6,0c3-2.6,6-2.2,9,0c1.3-0.9,2.7-0.9,4,0C276.5,32.6,278.8,31.5,281.1,33.3z"/>
<path class="st3" d="M21.2,16.3C30,8.3,40.3,4.1,52.2,3.4c1.2,2,1,4.1,0.6,5.2c-0.1-3.3,2.2-4.4,6.4-4.3c9.1,0.1,18.2-0.1,27.2-0.1
	c1.3,0,2.3,0,2.3,1.7c-0.2,1.2-1,2-1.7,2.9c-0.7,0.9-1.7,0.2-2.5,0.6c0.6,0.7,1.6,0.2,2.3,0.7c0.4,0.3,0.8,0.9,0.4,1.2
	c-2.7,2.2,0.8,3.4,0.8,5.1c-0.6,2.9-1.5,5.1-4.3,1.5c-0.2-0.3-0.1-0.9-0.7-0.8c0.2,0.4,0.5,1,0.4,1.4c-0.6,2.1-2,2.5-3.8,1.4
	c-1.9-1.2-4.9-6.3-5.2-8.6c-0.8,2.9-0.8,6-1.2,9.1c-0.1,0.8-0.4,1.7-1.4,1.8c-1,0.1-1.3-0.9-1.6-1.6c-1.3-3.1-1.2-6.5-1.4-10
	c-1.3,1.1-0.6,2.7-1.3,3.8c-3.9,1.3-5.1,0.2-7.1-5.8c-0.2-0.6-0.7,0.3-0.2-0.1c0.1-0.1,0.2,0.1,0.3,0.4c0.4,1.6,0.8,3.2,0.8,4.9
	c0.1,1.9,0.8,4.5-1.9,4.9c-2.6,0.4-2.9-2-3.3-4.1c-0.9,1.3-1.9,2.6-3.4,3.4c-1.4,0.8-2,2.6-3.7,3c-0.5,0-0.9,0-1.4-0.2
	c-3.7-2.3-2.4-5.7-2-9.1c-1.1,0.7-2.3,3.3-3.4,1c-2.4-4.9-5.7-1.9-8.7-1.3c-1.2,0.3-2.4,1.1-3.5,1.9c-1.8,1.4-3.9,2.3-5.6,3.8
	c-0.8,0.6-1.6,1-2.6,0.9C21.4,17.5,20.8,17.2,21.2,16.3z"/>
<path class="st4" d="M259.1,4.3c-1.5,0.3,0.9,4.7-3,2.9c-0.3-0.1-2.7,2.2-2.9,4.1c-0.1,1.6-1,1.3-2,0.9c-1.4-5-4.8-5.5-9.4-4.7
	c-4.1,0.8-7.9,1.8-11.3,4c-5.3-6.2-7.4-6.3-12.4-0.6c-1.4,1.6-1.4,1.6-3.6-1.7c-1.7,3.4-2.6,7.4-7.2,7.9c-2.7,0.9-3.4-0.7-3.7-2.5
	c-0.2,1.6,1.2,3.4,0.8,5.4c-0.2,1.1-0.1,2.6-1.3,3c-1.8,0.5-1.8-1.4-2.5-2.3c-0.5-0.6-1-0.3-1.5-0.1c-1.4,0.1-2.5-0.5-3.2-1.6
	c0.8-2.2-1.6-1.2-2.1-2c-0.7-0.9-1.5-1.5-2.6-1.5c-0.3-0.3-0.5-0.7-0.7-1.1c-0.2-1-0.2-2-0.2-3c0-2.1-0.9-4.8,1.3-5.9
	c2.3-1.2,4.9-0.5,6.9,1.4c0.9,0.9,1.6,1.7,2.5,0.2c2.1-3.9,5.8-3,9.1-3.1c2.4-0.1,4.9,0.6,7.3-0.5c0.3,0,0.7,0,1,0
	c2.3,0.8,4.7,0.8,7,0c0.7,0,1.3,0,2,0c2.3,0.7,4.7,1.1,7,0c0.7,0,1.3,0,2,0c4.7,0.8,9.3,0.8,14,0c0.7,0,1.3,0,2,0
	c1.7,0.8,3.3,0.8,5,0c0.7,0,1.3,0,2,0C259.5,3.7,259.5,4,259.1,4.3z"/>
<path class="st5" d="M88.2,6.3C88.1,5.7,88,4.9,87.1,5C77,5.1,66.9,5.3,56.8,5.4c-3.4,0-2.4,2.4-2.6,4.2c-0.1,1.1,0.5,2.5-0.8,3.1
	c-0.4,0.2-1.2-0.2-1.7-0.5c-1.2-0.8-1.1-2.1-0.3-3c1.5-1.8-0.2-3.9,0.8-5.7C60,3.3,67.8,3.2,75.6,3.2c33.5,0,67.1,0.1,100.6,0.2
	c0.3,0.4,0.3,0.9,0.1,1.3c-2.5,2.2-5.8-0.3-8.1,1.2c-4.1,2.7-9.4,0-13.2,3.4c-3.6-2.5-4.9,0.9-7.1,2.5c-2,1.4-4.4,1.7-4.6-1.7
	c-0.2-2.8-1.4-3.2-3.9-2.9c-3,0.4-5.9-0.5-8.9-0.8c-3.2-0.4-6,0.4-6.6,4.3c-0.2,0.4-0.5,0.7-0.9,1c-2.9-0.5-2.2-4.1-4.3-5.2
	c-0.9-0.5-1.8-0.4-2.6,0.2c-2.1,1.4-3.5,3.3-3.7,6c-0.1,1.2-0.1,2.7-1.8,3.1c-4.2-1.9-1.8-6-3.2-8.9c-3-1.4-6,0-9,0.2
	c-0.8,0-1.5,0.8-2.4,0.4c-4-1.9-3.1,1.1-3.2,3.1c0,0.5,0,0.9-0.1,1.4c-0.6,1.7-0.3,4.1-3.2,3.9c-0.4-0.2-0.8-0.5-1-1
	c-0.9-2.3,0.2-4.9-0.7-7.3C87.7,7.1,87.8,6.7,88.2,6.3z"/>
<path class="st6" d="M335.1,21.5c-0.1,1.8-1.2,1.3-2.4,1.4c-6.4,0.1-12.7-0.4-19.1,0.6c-2.4,0.4-3.7,2.5-5.6,2.5
	c-5.3,0-7.9,4.6-12.2,6.4c-4.5,1.9-9.2,0.1-13.7,1c0.8-5.1,5.6-3.2,8.5-4.5c2.7-1.3,6.3-0.7,7-4.8c0.1-0.7,0.5-1.2,1.3-1.3
	c2.6,0,3.2-0.4,4-2.9c1,1.5,0.9,4.4,2.9,4c2.9-0.5,3.6-3.4,4-6.1c3,0.3,6.5,3.9,8-2.1c0.5-2.2,2.5-0.7,3.7-0.1
	c1.4,0.7,2.7,0.6,3.6-0.4c1-1.2-1.1-1.8-1-3C328.5,14.4,332.1,17.6,335.1,21.5z"/>
<path class="st7" d="M49.2,112c-2.3-0.4-4.8-0.3-6.9-1.6c-1.8-2.6-5.2-2-7.5-3.7c-1.9-1.3-4.2-2-6-3.4c-1.3-1.1-3.2-2.2-1.3-4.3
	c4.4,0.4,8,2.8,12,4.3c3.1,1.2,5.9,1.8,8.9,0.2c10.1,7.5,21.7,3.9,32.7,4.2c18.8,0.5,37.6,0.2,56.4,0.2c1.7,0,3.3,0,4.9,0.7
	c1.5,0.9,1,1.9,0,2.9c-0.8,0.5-1.7,0.4-2.5,0.2c-4.8-0.4-9.6-0.6-14.3,0.2c-5.2,0-10.5,0-15.7,0c-4.2-0.8-8.3-0.6-12.5-0.2
	c-0.6,0.2-1.1,0.2-1.7,0c-5.4-0.2-10.9-0.6-16.3,0.3C69.4,112,59.3,111.5,49.2,112z"/>
<path class="st8" d="M309.1,110.2c-0.5,0-1,0.1-1.5,0.1c-1.7,1.1-3.9-0.4-5.6,1.2l0.2-0.1c-10,0.8-19.9,0.2-29.9,0.3
	c-8.7,0.1-17.3,0-26,0c-8.5,0-17.1,0-25.6,0c-9.1-1-18.2-0.3-27.4-0.4c-0.5,0.1-1.1,0.2-1.6,0.3c-2-0.4-4-0.7-6,0
	c-2.2,0.1-4.4,0-6.7,0.1c-0.5,0-1-0.1-1.4-0.5c-0.4-0.7-0.3-1.5,0-2.2c1.4-1.8,3.4-1.1,5.1-1.1c2.2,0,4.4,0,6.6-0.1
	c0.6,0,1.2,0,1.8,0c35.8,0.1,71.6-0.2,107.4,0c1.8,0,3.7,0.1,5.5-0.3c1.1-0.5,2.2-1.1,3.5-0.8C309.2,107.5,310.1,108.5,309.1,110.2z
	"/>
<path class="st9" d="M176.2,4.3c0-0.3,0-0.6,0.1-1c13.6,0,27.3,0,40.9,0c-3.1,1.9-6.5,1.1-9.7,0.8c-5-0.4-4.1,4.6-7.3,5.9
	c-2.1-0.2-2.3-4.2-6-3.9c-2.3,0.2-3.3,0.3-3.1,2.8c0.2,2.1,0,4.3,0,6.4c-0.2,0.1-0.4,0.2-0.6,0.3c-0.2,0-0.5-0.1-0.7-0.1
	c-1.7-1-2.1-2.9-3.2-4.7c0.4,2.9,0.6,5.4-1.2,7.6c-0.4,0.3-0.9,0.3-1.3,0.2c-2.1-1.6-1.9-4.1-2.5-6.3c-0.1-0.4-0.2-0.8-0.3-1.2
	c-0.2-0.5,0-1.3-0.5-1.6c-0.5-0.3-0.6,0.3-0.9,0.6c-0.2,0.4-0.4,0.7-0.7,1c-1.1,1.3-0.8,3-1.4,4.4c-0.4,0.8-0.9,1.3-1.9,0.8
	C173.9,12.2,174.1,8.3,176.2,4.3z"/>
<path class="st10" d="M96.1,111.3c0.4,0,0.7,0,1.1,0c4-0.7,7.9-0.7,11.9,0c5.7,0,11.4,0,17.1,0c4.6-0.7,9.3-0.7,13.9,0
	c0.7,0,1.4,0,2.1,0c1.4-0.9,3-1.3,4.7-1.3c9.1,0,18.1-0.1,27.2,0c1.5,0,2.9,0.3,4.1,1.3l-0.1,0.1c0.5,0.3,0.5,0.6,0,0.9
	c-18.6,0.1-37.2,0.2-55.8,0.3c-21.3,0-42.5,0-63.8,0c-3.1,0-6.3-0.3-9.4-0.4c6.2-1.6,12.5-0.4,18.7-0.7c4.1-0.2,8.3-0.1,12.4-0.1
	C85.5,110.5,90.8,110.5,96.1,111.3z"/>
<path class="st11" d="M3.4,70.3c-3.1-13.3-1.9-26,4.9-37.9C8.5,32.1,8.7,32,9,32c0.3,0.1,0.4,0.1,0.4,0.2c1.2,1.7,0.1,3.6,0.5,5.4
	c0.1,1.5-0.5,2.8-1.1,4c-0.8,1.5-1.4,3.1-1.8,4.7c-1.4,7-0.5,14-0.2,21c0,1.1,0.4,2.3-0.1,3.4C5.4,72.5,4.4,71.2,3.4,70.3z"/>
<path class="st12" d="M347.8,69.3c-0.3,1.8-0.4,3.6-1.5,5.1c-2,3.2-2.5,7.1-4.7,10.2c-0.8,1.1-1.3,3.2-3.1,0.9
	c-0.3-4.4,2.7-7.9,3.6-11.9c0.7-1.6,0.7-3.4,1-5.1c0.1-0.5,0.2-1,0.4-1.5c0.4-5.2,0.1-10.4,0.2-15.7c0.3-1.5-0.2-3.9,2.1-3.7
	c1.7,0.1,1.9,2.3,2.2,4c0.7,3.9,0.3,7.9,0.8,11.8c0.1,1.1,0.1,2.2-0.7,3.1C346.8,67.2,347.9,68.3,347.8,69.3z"/>
<path class="st13" d="M309.1,110.2c-0.3-0.9-0.7-1.8-1-2.7c0.2-0.4,0.5-0.8,0.9-1c3.8-1.5,7.8-2.7,11.2-5c3-1.4,5.5-3.7,8.1-5.7
	c1.8-1.3,2.9-3.6,5.4-3.8c1,0.4,1.5,1,1.2,2.1C328.2,102.3,319.5,107.7,309.1,110.2z"/>
<path class="st14" d="M27.1,99.5c1,3.1,3.6,4.4,6.4,5.1c1.2,0.3,1.6,0.7,1.8,1.7c-1.1,0.9-2.3,0.5-3.4,0.1c-9-4.1-16.1-10.4-21.1-19
	c3.8-1,4.8,3.1,7.5,4.1c2,1.5,3.5,3.5,5.6,4.8C25.1,97.2,26.8,97.6,27.1,99.5z"/>
<path class="st15" d="M178.2,112.2c0-0.3,0-0.6,0-0.9c2.7,0,5.4-0.1,8.1-0.1c1.6-0.6,3.3-0.6,4.9,0c0.4,0,0.7,0,1.1,0
	c9.3-0.7,18.6-0.7,27.9,0c8.7,0.1,17.4,0.1,26,0.2c0.5,0.3,0.5,0.5,0,0.8C223.5,112.2,200.8,112.2,178.2,112.2z"/>
<path class="st16" d="M246.1,112.2c0-0.3,0-0.6,0-0.8c18.7,0,37.4,0,56.2,0c-1.2,1.2-2.9,0.8-4.3,0.8
	C280.7,112.3,263.4,112.2,246.1,112.2z"/>
<path class="st17" d="M3.4,70.3c0.9,0.3,1.9,0.6,2.8,1c1,0.2,1.6,1,2.1,1.8c1,2.4,1.7,5,3.2,7.2c0.6,1.3,1.2,2.7,1.2,4.2
	c0,1.8-0.8,2.8-2.8,1.9C6.6,81.5,4.4,76.2,3.4,70.3z"/>
<path class="st18" d="M259.1,4.3c0-0.3,0-0.6,0-1c13.7-0.3,27.3-0.5,41,0.1c-2.9,1.7-6.1,0.5-9.2,0.8c-4.1,0.5-8.5-1.2-12.5,1.6
	c-1.7,1.2-2.9-1.1-4.3-1.6C269.1,5,264.1,6.6,259.1,4.3L259.1,4.3z"/>
<path class="st19" d="M348.8,63.3c-1.6-4.9-0.2-10.4-3-15.2c-1.2,1-0.6,2.2-0.8,3.3c-1.3,0.3-1.6-0.7-2-1.6c-0.2-2.1-1.4-4-1.3-6.1
	c0.5-1,1.3-1.2,2.3-1.3c0.6,0.9,1.1,1.9,1.9,2.7c1.3,1.4,0.8-0.4,1.2-0.7C349.5,50.4,349.4,56.8,348.8,63.3z"/>
<path class="st20" d="M335.1,94.1c-0.3-0.6-0.7-1.2-1-1.8c-0.8-2.4,1.1-3.8,2.2-5.4c0.8-0.8,1.3-2,2.7-1.7c3.6-0.4,2.9-4,4.4-5.9
	c1.2-1.5,0.8-3.9,2.8-5C344.5,82,340.6,88.5,335.1,94.1z"/>
<path class="st21" d="M10,86.4c4.2-1.9,0.2-4,0.2-6c0.7-0.9-0.1-2.6,1.4-3.1c2.9,4.7,6.1,9.3,6.6,15.1c-3.5-0.1-4.3-4.4-7.5-4.9
	C10.5,87.1,10.2,86.7,10,86.4z"/>
<path class="st22" d="M299.1,6.3c1.9-2.2,5,0.1,7-1.8c3.5,0.4,6.8,1.5,10,3.2c-2.5,3.3-4.7,1.1-7-0.3c-0.5,0.5-1.2,0.7-1.9,0.7
	c-1.6-0.3-3.2-0.5-4.8-0.5c-1,0-1.9-0.2-2.7-0.7C299.4,6.7,299.3,6.5,299.1,6.3z"/>
<path class="st23" d="M31.8,106.4c1.1,0,2.3-0.1,3.4-0.1c2.2,1.7,6.1,0.4,7,4.2C38.6,109.6,35,108.7,31.8,106.4z"/>
<path class="st24" d="M21.2,16.3c0.3,0.4,0.7,0.7,1,1.1c0.3,0.4,0.4,0.8,0.2,1.2c-0.3,0.6-0.8,1.1-1.3,1.5c-2,1.2-3.3,3-5.2,4.3
	c-0.4,0.2-0.9,0.3-1.3,0.2c-0.4-0.3-0.5-0.7-0.4-1.2C16,20.5,18.3,18.1,21.2,16.3z"/>
<path class="st25" d="M250.1,3.4c-4.7,1.6-9.3,1.6-14,0C240.8,3.4,245.5,3.4,250.1,3.4z"/>
<path class="st26" d="M9.3,32.4c-0.3,0-0.7,0-1,0c0.7-2.4,2-4.6,3.8-6.3c0.4,0.3,0.7,0.7,0.8,1.2C12.8,29.8,12.1,31.9,9.3,32.4z"/>
<path class="st25" d="M234.1,3.4c-2.3,2.6-4.7,1.1-7,0C229.5,3.4,231.8,3.4,234.1,3.4z"/>
<path class="st9" d="M225.1,3.4c-2.3,1.5-4.7,1.5-7,0C220.5,3.4,222.8,3.4,225.1,3.4z"/>
<path class="st27" d="M12.3,27.5c-0.1-0.5-0.1-0.9-0.2-1.4c0.3-1.2,1.1-2.1,2.1-2.7c0.3,0.3,0.6,0.6,0.9,0.9
	c0.9,1.7-0.5,2.4-1.5,3.3C13.1,27.7,12.7,27.7,12.3,27.5z"/>
<path class="st28" d="M302.1,111.5c1.5-2.1,3.7-0.9,5.6-1.2C306,111.6,304.1,111.7,302.1,111.5z"/>
<path class="st19" d="M347.8,69.3c-1-1.1-0.8-2.5-0.6-3.8c0-0.1,0.6-0.2,0.6-0.1c0.2,0.3,0.2,0.6,0.3,0.9
	C348.1,67.4,348,68.3,347.8,69.3z"/>
<path class="st25" d="M257.1,3.4c-1.7,1.4-3.3,1.4-5,0C253.8,3.4,255.5,3.4,257.1,3.4z"/>
<path class="st29" d="M260.1,19.3c-1.1-2.9,0.5-5.2,1.9-7.9c2.4,2.9,1.4,7.3,5.1,8.9c1.1-1.6,4-0.8,4.4-3.5c0.1-0.9,1.5-1.2,2.6-0.7
	c5.1,2.2,9.6-0.3,14.3-1.8c2.6-0.9,4.9-2.8,8.3-1.4c1.5,0.6,4.2-2,6.4-3c0.7-0.1,1.4,0,2,0.6c1.1,0.6,2.2,1.3,4.1,2.5
	c-3.1,0.1-4.2,5.4-8.4-0.7c2,7.1-4.2,7.5-5.8,11.2c-0.1,0.2-2.6-1.6-4.3-2.1c-3.2-0.9-4.8,0-4.8,2.9c0,2.7-2.8-1.4-3.3,2
	c-0.6,4.2-2.3,0-3.4-0.6c-1.7-0.9-3.1-2.5-5.6-3c0.6,1.8,3,3,1.7,5c-0.7,1-1.4,3-2,2.9c-1.6-0.1-1.9-1.5-0.8-2.8
	c-1-0.8-1.9-1.8-3.1-2.3c-2.3-1-0.5,2.6-2.7,2.1c-2.9-1.4-0.5-5.6-3.6-7.6c-1.2,3-1,6.3-2.6,9.1c-1.1,2-3.2,1.7-3.2,1.2
	c0-3.3-4.6-3.5-4.2-6.8c0.2-0.1,0.4-0.3,0.5-0.4c2.1-0.7,4.7-3.9,5.7,1.1C259,22.3,259,20.7,260.1,19.3z"/>
<path class="st30" d="M201.1,19.3c0.5,1,0.9,2,1.5,3.3c1.3-3.2-0.5-6.3,0.7-9.8c1.3,1.6,0.4,5.3,3.8,3.6c2.8-0.3,2.1,3,3.7,3.5
	c3.8-0.1,1.4-6.7,5.6-5.5c3.3,0.9,8-1,9.8,3.8c-2.6,1.5-3.8,5.2-7.6,4.8c-0.3,0-0.3,1.1-0.4,1.8c0,0.2-0.1,0.4-0.1,0.6
	c0,0.3,0,0.7,0,1c-1.2,1.4-2.6,1.7-4.2,0.8c-1,4.9-2.5,5.1-7.3,0.9c-1.2,1.7-1.8,5.6-2.5,5.1c-2.2-1.8-5.1,1.6-6.7-1.3
	c-1.1-1.7-0.7-3.4,0.2-5C199.7,24.7,197.7,20.7,201.1,19.3z"/>
<path class="st31" d="M198.1,31.3c0.4,0.3,0.7,0.7,1.2,0.9c0.6,0.3,0.8-0.1,0.8-0.6c0.2-1.3-0.5-2.7,0.8-3.8
	c2.3,0.8,0.3,3.5,2.2,4.6c2.3-1.6,1.9-3.9,1.2-7c2.8,1.8,6,1.5,6.3,5.5c1.9-1.5,2.3-3.1,2.7-4.7c0-0.1,0.3-0.2,0.4-0.2
	c0.1,0,0.3,0.2,0.4,0.3c0.7,1.9,2.7,1.3,4,2c1.9,4.2,0.2,5.5-4,5c-1.4-0.2-2.9-0.4-4,0.9c-5.3,0-10.7,0-16,0
	c-0.1-0.2-0.3-0.3-0.4-0.5c0.1-0.4,0.3-0.8,0.7-1.1C195.6,32.2,196.2,29.9,198.1,31.3z"/>
<path class="st29" d="M253.1,23.3c-2.8,2-2.7,5.4-4.2,8.3c-0.5-3.1-2.4-5.4-4.5-8.9c0.6,4-0.4,6.6-3.5,7.3c-2.4,0.6,0-2.9-2.4-2.9
	c-1.5,1.7,0.7,4.6-1.5,6.2c-1.9-3.2,0.7-6.8-1-10l0,0c-0.3-0.5-0.1-1.2,0.3-1.2c2.6-0.3,6.2,2,6.8-2.9c0-0.3,1-0.5,1.4-0.3
	c2.4,1.8,5.1,1.8,7.9,2C253.6,21.1,254,22.3,253.1,23.3L253.1,23.3z"/>
<path class="st31" d="M229.1,27.3c-0.6,2.9-0.8,3.2-2.8,2.3c-1.9-0.9-2,5.6-3.9,0.8c-0.9-2.3-2.3-3.9-4.3-5.1c0,0,0,0,0,0
	c3.1-0.5,4.7-4,7.9-4.2C227.9,22.8,226.8,25.9,229.1,27.3z"/>
<path class="st32" d="M229.1,27.3c-4.6-0.2-2.3-3.8-3-6c0.1-0.1,0.3-0.3,0.4-0.4c1.2-1.2,0.1-4.2,3.1-4c0.2,0.1,0.4,0.3,0.5,0.4
	c0.6,1.4-1.2,4.8,2.9,3.5c0.9-0.3,1.2,1.1,0.8,1.8c-1,1.7,0.2,3.2,0.3,4.7c-1.5,1.2-2.2,0-3-1c-0.8-0.4-0.4-2.2-1.8-1.7
	c-0.5,0.2-0.7,1.1-0.2,1.7C229.1,26.6,229.1,27,229.1,27.3z"/>
<path class="st33" d="M270.1,33.3c-3-0.5-6-0.5-9,0c1.4-1.6,1.9-3.7,2.9-6.4C265.7,30.1,268.6,31,270.1,33.3z"/>
<path class="st33" d="M281.1,33.3c-2.3,0-4.7,0-7,0c0.3-2.1,4.6-0.8,3.4-4.1c0.4-0.1,1-0.5,1.2-0.4
	C280.5,29.7,281.3,31.3,281.1,33.3z"/>
<path class="st31" d="M231.1,26.3c1,0.3,2,0.7,3,1c0.3,1,0.7,2,1,3c0.9,1,0.8,2,0,3C232.7,31.6,231.9,29,231.1,26.3z"/>
<path class="st32" d="M235.1,33.3c0-1,0-2,0-3c1.9-2.1,0.6-4.7,1-7c2,3.2,0.5,6.7,1,10C236.5,33.3,235.8,33.3,235.1,33.3z"/>
<path class="st34" d="M255.1,33.3c-1,0-2,0-3,0c0.1-0.6,0.2-1.3,0.4-1.9c0.4-1-1.2-3.2,1.4-2.8c1.7,0.2,0.9,1.7,0.8,2.8
	C254.6,32,255,32.7,255.1,33.3z"/>
<path class="st31" d="M229.1,26.3c-1.9-1.6-0.4-2.8,0.2-4.3c1.8,1.2,1.8,2.8,1.8,4.3C230.5,26.2,229.8,25.2,229.1,26.3z"/>
<path class="st32" d="M218.1,28.3c-2.3,1.3-3.7,0.8-4-2c1.3,1,2.7,0,4,0C218.1,27,218.1,27.6,218.1,28.3z"/>
<path class="st8" d="M305.1,10.4c-0.7,0-1.3,0-2,0c-0.1-0.2-0.2-0.4-0.3-0.6c0.1-0.4,0.4-0.8,0.7-1c1.2-0.6,2.4-0.9,3.6-1.4
	c0.6,0,1.3,0,1.9,0.1C309,10,307.2,10.4,305.1,10.4z"/>
<path class="st34" d="M261.1,33.3c-2,1.5-4,1.5-6,0C257.1,33.4,259.1,32.5,261.1,33.3z"/>
<path class="st34" d="M247.1,33.3c-1,0-2,0-3,0c0.6-1,1.1-2.4,2.6-2.1C247,31.2,247,32.6,247.1,33.3z"/>
<path class="st32" d="M303.1,10.3c-1.9,1.5-3.9,2.8-5.7,4.4c-1.7,1.6-0.3-2.8-3.6-1.3c-5.3,2.4-11.2,6.3-17.6,4.5
	c-4.2-1.2-5.4-0.5-4.9,3.8c-1.7-0.3-2.3-3.1-4.3-1.4c0.5-3.1-2.3-6.2-0.2-9.7c2,1.2,0.7,3.8,2.8,4.8c1.8-1.7,1.6-4.2,1.9-6.5
	c7.9,4.8,7.9,4.8,9.5-0.2c2.1,0.6,1.8,4.5,2.9,3.9c2.8-1.3,5.9-0.7,8.5-2.3c2.2-1.3,4.9-2,6.6-4.1c0,0,0,0,0,0
	C300.5,7.6,301.9,8.9,303.1,10.3L303.1,10.3z"/>
<path class="st32" d="M253.1,23.3c-0.1-1.4-1.1-2.5-2.2-1.7c-2.5,1.8-3.9,1.4-5.5-1.2c-0.8-1.4-2.3-0.8-2.2,0.8
	c0.3,5.2-2.1,3.5-4.5,1.9c-0.9-0.6-1.8-0.9-2.6,0.2c-2.1-2.1-0.4-3.5,1.1-4.3c2.4-1.3,2.4,1.3,3.9,3.6c-1.5-8.2,6.2-4.1,8.2-7.7
	c0.2-0.5,1.4,1,2,1.8c0.8,1.3,1.8,1.7,2.5,0c2.5-5.3,2.9-1,3.9,0.8c0.5,1,0.3,2.9,2.4,1.8c0,2.4,0,4.7,0,7.1c-0.2,0-0.4,0.1-0.6,0.1
	c-0.6-1.4-1.1-2.9-1.7-4.4C256.1,21.9,255.2,25,253.1,23.3z"/>
<path class="st21" d="M230.1,11.3c0.5-0.1,1.4-0.2,1.4-0.3c0.4-4,3.3-4.4,6.5-4.4c3.6-0.1,7.3-0.8,10.8-0.3c3.3,0.5,0.8,4.3,2.4,6
	c-0.7-0.5-1.3-1-2-1.5c-1-0.7-1.7-2.6-3.1-2c-1.9,0.8,0.3,2.7-0.7,4.3c-2.4-2.5-4.6-6.2-7,0c-0.8,2.1-2.2-1.9-4.2-1.1
	c-0.2,2.2,2.9,3.9,0.9,7c-1-2.8-2.1-6.3-4.8-1.7l0,0c-1.2-1.4-1.4-3-0.9-4.7C229.4,12.1,229.7,11.7,230.1,11.3z"/>
<path class="st4" d="M259.1,4.3c5,0,10,0,15,0C269.1,5.1,264.1,10.1,259.1,4.3z"/>
<path class="st35" d="M344.1,42.3c-0.4,0.8-1.2,1-2,1c-0.8-0.1-1.4-0.6-1.9-1.2c-1.3-2.1-2.6-4.2-4.5-5.9c-3.7-3.3-7.6-4.6-12.3-2.2
	c-3.8,1.9-8,2.2-12,3c-1.3,0.3-2.7,0.4-3.5-1.1c0.4-2.7,2.7-2.2,4.4-2.7c-1.4-0.1-2.7,0.7-4.2,0.4c-0.3-0.4-0.3-0.8,0-1.2
	c5.5-2.1,11-4.1,16.8-4.9c7.8-1.1,12.6,3.7,16.5,9.6C342.5,38.7,343.2,40.5,344.1,42.3z"/>
<path class="st35" d="M238.1,35.3c13.3,0,26.6,0,40,0c5.2-1,10.5-0.2,15.7-0.5c1.8-0.1,3.6,0.5,5.3-0.5l0,0c2.7-0.7,5.3-1.6,8.2-1.1
	c0.5,0.8,0.4,1.6-0.1,2.4c-2.5,2-5.4,2-8.3,2c-5,0.2-9.9-0.5-14.9,0.5c-13.2,0.6-26.5,0.4-39.7,0.4c-2.1,0-4.3,0.3-6.4-0.6
	C236.2,36.9,237,36.1,238.1,35.3z"/>
<path class="st36" d="M238.1,35.3c-0.3,0.7-0.7,1.3-1,2c-1.2,1.4-2.9,1.4-4.6,1.4c-17.2,0-34.4,0.1-51.6,0c-0.8,0-1.6-0.1-2.4-0.4
	c-0.9-0.4-1.7-1-1.7-2.1c0.1-0.3,0.3-0.6,0.4-0.9C197.5,35.3,217.8,35.3,238.1,35.3z"/>
<path class="st37" d="M181.1,34.3c-0.3,0-0.6,0-1,0c-1.6-0.8-2.1-2.1-1.7-3.8c0.6-1.5,1.3-3,1.6-4.7c0.1-1,0.4-2.5,1.2-2.6
	c3.6-0.2,6.5-2.3,9.6-3.7c0.4,0.3,0.7,0.6,0.9,1.1c0.9,2.4,0.1,5.2,2.1,7.3c0.8,1.3,1.4,2.6,1.1,4.2c-0.2,0.5-0.5,0.9-0.8,1.3l0,0
	c-3-0.1-5.6-2.1-9-1.2C183.5,32.5,182.2,33,181.1,34.3z"/>
<path class="st38" d="M181.1,34.3c0-2.5,0-4.9,3.7-3.2c0.3,0.1,0.7,0.3,0.9,0.2c3.5-2,6-0.2,8.4,2.1c0,0.3,0,0.7,0,1
	C189.8,34.3,185.5,34.3,181.1,34.3z"/>
<path class="st36" d="M299.1,34.3c-4.9,2.2-10.1,0.5-15.1,1c-2,0.2-4,0-6,0C285,33.2,292.1,34.8,299.1,34.3z"/>
<path class="st36" d="M307.1,33.3c-2.5,1.5-5.3,0.9-8,1c2.5-2.7,5.5-3.6,9-2c0,0.3,0,0.7,0,1c-0.2,0.3-0.4,0.3-0.7,0.3
	C307.2,33.5,307.1,33.4,307.1,33.3z"/>
<path class="st29" d="M177.2,34.4c0,0.3,0,0.6,0,1c0,0,0,0,0,0c-5.2,2.5-8.8,2.1-11.4-1.3c3.5-2.3,7.2-1,10.8-0.3
	C176.8,33.9,177,34.1,177.2,34.4z"/>
<path class="st38" d="M179.2,30.3c-0.1,1.4,0.3,2.7,1,4c-1,0-2,0.1-3,0.1c0,0-0.1-0.1-0.1-0.1c-0.7-0.8-0.8-1.8-0.6-2.9
	C177.2,30.7,177.3,28.2,179.2,30.3z"/>
<path class="st39" d="M92.2,11.3c0-0.3,0-0.7,0-1c3.8-0.1,3.7,3.7,5.5,5.5c1.6-1.3,2-6.8,5.5-1.5c0.4,0.7,1.1-1.3,2.1-1.3
	c1.4,2.4,4.1,2.6,6.2,3.9c-0.6,2.3,0.2,4.6-0.1,6.9c-0.2,1.3,0,3-1.6,3.3c-1.8,0.3-1.8-1.5-2.2-2.7c-0.2-0.6-0.6-1.2-0.6-1
	c1.7,2.4-0.8,5.2-1.5,8.1c-0.3,1.3-1.6,0.6-2.3-0.2c-1.5-1.5-2.2-3.3-1.9-5.6c-0.6,1.8-0.2,4.5-2.7,4.3c-1.9-0.1-2.2-2.6-1.8-4.1
	c1.1-3.5-3.2-4.9-2.8-7.3c0.6,3.1,0.5,6.4-2.6,9.6c-3.6,3.8-6.9,1.6-10.5,1c-2.6-0.4-5.5-0.5-5.9-4.1c-0.2-2.6-0.1-5.2-0.9-7.7
	c0.2,1.7,0.5,3.5,0.1,5.2c-0.5,2.4-1.5,4.4-4.5,4c-1.8-0.2-2.2,1-2.6,2.3c-0.9,1.4-0.3,5.1-1.7,4.3c-2.8-1.4-6.3,2.3-8.3-1.5
	c-0.6-1.2-1.8-1.8-2.9-2.4c-1.2-2.3-1.7-5.3-4.9-5.9c-0.4-0.2-0.8-0.5-1.1-0.9c-0.5-1.1,0.1-1.7,1-2.3c1.4-0.7,0.9-3.2,3.1-3.1
	c2.6,2.6,8,2.4,8,8.2c1.2-4.7,6.2-6.6,7-11.2c-1.4-2.6-0.1-4.6,1.6-7.2c2.6,4.8,0,10.1,3.3,14.5c0-4.9,0.2-9.4,2.2-14.2
	c1.7,2.9,1.6,5.7,1.7,8.4c1.1,0.3,2.4-4.2,3.1,0.2c0.2,1.4-0.6,4.1,2.1,3.5c3.4-0.8-1.4-2.9,0.6-4.4c1.3-0.4,1.9,0.8,2.7,1.9
	c0.4,0.6-0.3,2.4,1.4,1.8c1-0.3,1.2-1.5,1.3-2.5c0.7-0.6,1.4-0.6,2.2-0.2c1.7,1.9,2,4.1,1.7,5.8C91,18.8,91,15,92.2,11.3z"/>
<path class="st40" d="M67.2,14.3c0.7,1.8,1.5,2.9-0.9,4.8c-2.8,2.2-5.2,5.4-6.8,9.2c-0.1-1.3-0.2-2.6-0.3-4
	c-0.1-1.4-1.2-3.4-1.8-3.1c-4.8,2.4-3.4-2.7-5.1-4c2.6-1.2,2.9-4.1,4-6.4c0.5,0.4,0.9,0.6,0.9,0.8c0.3,2.2-0.3,6.1,2.1,5.9
	c3.1-0.3,0.6-3.7,0.8-5.7c0.2-1.6-0.5-3.2,0.7-4.7C62.5,9.9,62,14.7,67.2,14.3z"/>
<path class="st41" d="M22.1,18.3c0-0.3,0.1-0.6,0.1-0.9c0.7-0.4,1.3-0.7,2-1.1c2.8-1.8,5.9-2.9,9.3-3.2c2.1-0.2,4.2-0.4,5.2,1.8
	c0.9,2-0.5,3.4-1.8,4.8c-0.3,0.4-0.7,0.7-1,1.1c-2.1,2-4.7,2.8-7.3,3.5c-4.6,0.3-8.6,2.3-12,5.4c-0.5,0.2-0.9,0.3-1.4,0.2
	c-0.5-0.1-0.9-0.4-1.2-0.7c1.9-5.5,6.6-7.4,11.5-8.9c2-0.6,4.3-0.1,6.1-2C28.3,16.6,25.2,20.8,22.1,18.3z"/>
<path class="st39" d="M29.2,12.4c2.7-2.7,6.5-2.9,9.9-4c3.6-1.2,2.4,3.3,4.6,4c1-0.9,0.6-2.8,2.5-3.5c2.8,3.4-2.2,8.3,2,11.4
	c-1.5,1.1-3.1,0.7-4.6,0.4c-1.2-0.7-1.4-1.8-1.5-3c-1-4.4-3.2-5.8-7.8-4.8C32.4,13.2,30.7,14.2,29.2,12.4z"/>
<path class="st18" d="M29.2,12.4c2.9,1.4,5.5-0.9,8.5-0.8c4.6,0.2,5.2,2.3,5.4,5.7c-2.4,1.9-5,3.5-8.3,2.9c0.3-0.5,0.5-1.2,1-1.6
	c1.1-0.9,2.8-1.7,1.9-3.4c-0.9-1.8-2.7-1.3-4.3-0.9c-3.1,0.7-6.2,1.3-9.4,2C25.1,14,27.9,14.1,29.2,12.4z"/>
<path class="st40" d="M89.2,16.3c-0.7,0-1.3,0-2,0c-0.6-1.4-4.2-2.1-1.2-4.5c0.2-0.2,0.5-0.7,0.4-0.8c-0.5-0.8-1.1-0.1-1.7-0.1
	c-2.1,0.2-2.8-1.1-2.3-2.7c0.6-1.7,1.5-2.4,3-0.2c0.6,1,1.5-1.6,2.7-1.7c0,0.3,0,0.7,0,1c1.4,2.2-0.4,4.8,1,7c0,0.3,0,0.7,0,1
	C89.5,15.6,89.5,16,89.2,16.3z"/>
<path class="st5" d="M78.6,11.8c-1.4-0.6-1.7-1.9-2.1-3.1c-0.3-0.9,0.3-1.8,1.3-1.6c1.5,0.3,2,1.4,1.9,3
	C79.6,10.8,79.7,11.6,78.6,11.8z"/>
<path class="st18" d="M44.2,20.3c1.3-1,2.7,0,4,0c0.3,0,0.6,0,0.9,0c-0.3,0.6-0.6,1.3-0.9,1.9c-1.5,0.8-2.8,0.2-4.1-0.7
	C43.9,21.2,43.9,20.7,44.2,20.3z"/>
<path class="st42" d="M230.1,11.3c0,0.3,0,0.7,0,1c-4.5,0.2-1.1,4.8-3.4,6.2c-0.2-0.1-0.4-0.1-0.6-0.2c-3.1-3.4-7.6-2.1-11.3-3.5
	c-0.9,2.2,2.1,2.5,1.7,4.3c-3.7,0.9-7.8,3.1-9.4-2.8c4.9-0.8,4.6-5.9,7.1-8.7c1.4,0.8,1.5,2.4,2.4,4.4c0.6-5.6,4.7-6.3,8.2-6.4
	C227.7,5.6,229.8,8.1,230.1,11.3z"/>
<path class="st43" d="M193.1,28.3c-3.4-2-1.5-5.3-2-8c-0.2-1.8-0.5-3.6,1-5c1.4-1.2,1.5,0.4,2,1c-0.1,2.7,0.4,5.3,0.7,8
	C195,25.9,194.6,27.4,193.1,28.3z"/>
<path class="st37" d="M201.1,19.3c-2.4,2.1,0.8,6.4-3,8c-0.2-0.1-0.5-0.2-0.7-0.3c-1.5-1.5-1.6-3.1-0.5-4.8c1.4-0.5,1.5,0.7,1.8,1.6
	c0.1,0.5,0.8-0.5,0.3-0.1c-0.8-1.2-1-2.3,0.1-3.5c0.1-0.9-0.3-2.1,0.8-2.4C201,17.5,201,18.6,201.1,19.3z"/>
<path class="st37" d="M194.1,24.3c-1.5-2.7-1.5-5.3,0-8c0.4,0.9,2.5,0.2,2,2c-0.7,0.7-0.1,1.7-0.4,2.5
	C195.3,22,195.3,23.4,194.1,24.3z"/>
<path class="st43" d="M195.2,20.3c0-0.8,0.2-1.6,1-2c1,0.7,2,1.3,3,2c0,1.2,0,2.5,0,3.7c-1.5,0.3-0.9-1.6-2-1.7
	C196,22.1,195.4,21.4,195.2,20.3z"/>
<path class="st44" d="M192.1,15.3c-0.2,1.7,0.7,3.6-1,5c0,0,0,0,0,0c-0.9-1.6-2.8-2.9-1-5c0.3,0,0.7,0,1,0
	C191.5,15.3,191.8,15.3,192.1,15.3z"/>
<path class="st45" d="M176.2,4.3c0.5,4-1.1,8.2,1,12c0.3,0.4,0.4,0.8,0.4,1.3c-0.2,1.1-0.5,2.3-1.2,3.2c-1.8,1.4-2.7,0.5-3.1-1.3
	c-0.3-1.4-0.1-3-1-4.7c0.9,3.4-0.5,5.6-3.1,7.1c-2.4,1.3-4.4,1.8-4.8-2.1c-0.3-3.2-3.6-3.8-5.8-5.2c-1.3-0.8-1.9,0.8-2.3,1.9
	c-0.5,1.4-1.4,3.7-2.7,3.1c-3.3-1.4-6.7-1.1-10-1.8c-2.8-0.5-5.5-1.2-7.8-3.8c-1.4-1.5-2.9,1.6-3.8,3.3c-0.9,1.8-1.4,4.8-4.3,1.7
	c-0.3-0.4-0.5-0.8-0.7-1.2c-1.6-2-0.8-5.4-3.9-6.6c-0.4-4.3,3.1-7.8,7.1-6.7c3.8,1,7.4,1.9,11.4,0.9c1.8-0.5,3.3,0.2,2.7,2.7
	c-0.3,1.1-1,2.9,0.8,3.3c1.5,0.3,2.9-0.6,3.6-2.1c0.2-0.4,0.6-0.8,0.9-1.2c2.6-3.6,2.6-3.6,5.3,0.5c0.7-3.1,2-4.7,5-2.3
	c0.6,0.5,1.9,0.9,2.2,0.6C166.3,3.4,171.4,4.6,176.2,4.3z"/>
<path class="st46" d="M123.2,11.3c1.8-0.8,3.6-1.8,3.4,1.6c-0.1,1.7,0.6,3.1,1.6,4.4c-1.9,5.7-6.9,3.7-10.9,4.6
	c-3.7,0.8-5.2-0.5-6.3-3.4c-0.2-0.5-0.1-0.9,0.2-1.2c-4.4-1-4.8-1.2-6-4c-3-0.9-1.6-3-0.9-4.6c0.7-1.6,0.6-4.6,4-3.4
	c1.7,1.6,0.8,3.6,1,5.5c0.1,1.8,0,3.6,2,4.5c2.6,0.4,3.5-0.4,3.2-3.2c-0.3-2.4,0-4.9,1.8-6.8c0.7-1,1.3-1,2,0
	c1.7,3.4-1.5,7.2,1.1,10.5C119.2,13.1,120.9,12,123.2,11.3L123.2,11.3z"/>
<path class="st47" d="M108.2,5.3c-2.5,2.1-4.3,4.5-3,8c-0.5,1.5-1.1,3-1.7,4.7c-2.3-1.1-0.2-4.3-2.9-5.1c-0.3,0.6-0.7,1.2-1.2,1.9
	c-0.6,0.9,0.6,2.9-1.8,2.8c-2.3,0-1-2-1.8-2.9c-1.3-1.5-1.7-3.6-3.7-4.5C91,5.5,91.3,6.9,96,5.9c2.7-0.5,5.7,0.7,8.2-1
	C105.5,4.1,107,3.9,108.2,5.3z"/>
<path class="st47" d="M123.2,11.3c-2.9,1.5-2.3,5.1-4,7.9c-2.9-4.9-2.5-9.4-1-13.9C122.7,4.9,120.4,10.2,123.2,11.3z"/>
<path class="st3" d="M116.2,5.3c-0.4,4-0.7,8-1.1,12.2c-2,0.4-2-2.7-3.9-2.2C111,11,111.4,7.1,116.2,5.3z"/>
<path class="st3" d="M89.2,16.3c0-0.3,0-0.7,0-1c2.8,0,1.3-3.2,3-4c-0.5,4.3,1.1,8.9-1.5,13.8C90.1,21.7,89.6,19,89.2,16.3z"/>
<path class="st3" d="M89.2,14.3c-1.9-2.1-0.6-4.7-1-7C91.2,9.3,88.3,12.1,89.2,14.3z"/>
<path class="st48" d="M143.2,109.3c-26.7,0-53.5,0-80.2-0.1c-3.4,0-6.9-0.2-10.3-0.3c-1.1,0-1.7,0-1.6-1.6c0.1-2.3-1.6-3.2-3.8-3.1
	c-0.9,0.4-1.3-0.2-1.5-0.9c0-0.5,0.2-0.9,0.5-1.3c2.8-0.7,5,0.8,7.6,1.8c1.8-1.8,1.2-4.6,2.7-6.5c0.8-0.7,2-0.8,2.4-1.9
	c0.4-0.6,1-0.9,1.6-1c0.7-0.1,1.4,0,2.1,0.2c4.5,1.3,9,0.1,13.5,0.2c6.5-0.1,13,0.1,19.4-0.3c0.5-0.1,1-0.1,1.6-0.1
	c4.9,0.9,9.8-0.7,14.7-0.1c1.3,0.1,2.4,0.5,3.4,1.5c0.2,0.4,0.3,0.9,0.1,1.4c-2.7,2-4.9,4.2-3.4,7.9c1.2,1.6,2.4,0,3.6-0.1
	c9.2-0.9,18.5,0.3,27.7-0.4c1-0.1,1.9,0.4,2.8,0.9c1.4,1,2.9,1.5,4.6,1.4c0.4,0,0.9,0,1.3,0c1.7,0.1,3.4,0,4.9-1.1
	c1.7-0.4,3.5-0.7,5.2-1.1c0.8,0.1,1.4,0.5,1.9,1c0.8,1.1,1.8,2.1,1.2,3.6c-0.4,0.4-1,0.6-1.5,0.7
	C156.9,109.9,149.9,111.4,143.2,109.3z"/>
<path class="st49" d="M46.2,103.3c0.3,0.3,0.7,0.7,1,1c-1.1,3.5-3.5,2-5.6,1.2c-4.9-1.9-9.7-4-14.6-6c-1.3-0.8-2.5-1.5-3.8-2.3
	c-1.4-2.6,0.8-2.6,2.2-2.9c2.4-0.5,4.4,0.7,6.3,1.8c2.4,1.1,4.2,3.5,7,4C41.4,101,44.3,101,46.2,103.3z"/>
<path class="st50" d="M143.2,109.3c7.3,0,14.7,0,22,0c4.3-1.6,8.7-2.5,13,0c0,0.6,0,1.3,0,1.9c-12,0-24,0-36,0
	C142.5,110.6,142.8,110,143.2,109.3z"/>
<path class="st51" d="M96.1,111.3c-5.3,0-10.6,0-15.9,0C85.5,109.7,90.8,109.7,96.1,111.3z"/>
<path class="st50" d="M140.1,111.3c-4.6,0-9.3,0-13.9,0C130.9,109.7,135.5,109.7,140.1,111.3z"/>
<path class="st51" d="M109.1,111.3c-4,0-8,0-11.9,0C101.2,109.7,105.2,109.7,109.1,111.3z"/>
<path class="st11" d="M306.1,108.3c-1.3,1.6-3.1,1-4.7,1c-37.1,0-74.2,0-111.3,0c0.4-2.6,2.5-2.1,4.2-2.3c3.3-0.2,6.6,0,9.8-0.4
	c6,0.6,11.9,0.3,17.7-1.2c0.5,0.1,0.9,0.2,1.4,0.3c3.2,1.6,6.2-1.6,9.4-0.2c0.4,0.1,0.9,0.4,1.3,0.6c2.3,1.4,4.7,1.2,7.1,0.1
	c1.5-0.7,3.1-1.2,4.8-0.7c1.1,0.4,2.2,0,3.4,0c14.8-0.6,29.6-0.6,44.4-0.7c1.3,0,2.7-0.3,4,0.1c1,0.3,1.8,0.8,1.5,2.1
	c1.2,0-2.9,0.9,0.1,0.4C301.5,107.1,303.9,106.4,306.1,108.3z"/>
<path class="st52" d="M306.1,108.3c-3.3,0-6.6,0-9.9,0c0.1-1.6,1.9-0.4,2.2-1.9c-1.8-1.2-3.7,0.1-5.5,0c-7.8-0.2-15.5-0.3-23.3,0
	c-4.9,0.2-9.8,0-14.6,0.1c-2.3,0.1-4.6,1.7-6.9-0.2c0.3-2.6,2.5-2.1,4.1-2.2c3.4-0.2,6.8-0.2,10.3,0.1c2,0.2,0.2-1,0.5-1.4
	c0.7-2.6,0.7-5.4,4.9-2.8c2.2,1.3,5.5-0.9,8.4-0.6c1.5,0.2,3,1.3,4.4,0.8c10.5-4.1,18.5,3.9,27.8,5.5c0.7,0.1,1,0.8,0.7,1.6
	c-0.3,0-0.7,0.1-1,0.2C307.3,107.3,306.6,107.5,306.1,108.3z"/>
<path class="st10" d="M205.1,107.3c-2.9,1.7-6.2,0.7-9.3,1c-1.9,0.2-4-0.7-5.7,1c-0.3,0-0.7,0-1,0c-2.3-0.8-4.7-0.8-7,0
	c-1.3,0.1-2.7-1-4,0.1c-4.3,0-8.7,0-13,0c0-0.3,0-0.7,0-1c1-1.3,2.6-1.4,4-1.6c11.1-1.7,22.2-2.3,33.4-1.9c0.8,0.2,1.6,0.5,2.3,1
	C205.3,106.2,205.4,106.7,205.1,107.3z"/>
<path class="st53" d="M220.1,111.2c-9.3,0-18.6,0-27.9,0c7.7-2,15.5-0.4,23.2-0.9C217,110.2,218.7,109.8,220.1,111.2z"/>
<path class="st11" d="M182.2,109.3c2.3-1.6,4.7-1.5,7,0C186.8,109.3,184.5,109.3,182.2,109.3z"/>
<path class="st53" d="M191.1,111.2c-1.6,0-3.3,0-4.9,0C187.8,109.9,189.5,109.8,191.1,111.2z"/>
<path class="st43" d="M177.1,17.3l0-0.5c0,0,0-0.5,0-0.5c0-0.7,0-1.4,0-2c0.8-1.2,0.6-3,2-4l0,0c2-2.7,2.2-0.1,3,1l0,0
	c0.6,0.7,0.8,1.8,0.3,2.3c-2.8,2.8-0.3,3.7,1.7,4.7c0.3,0,0.7,0,1,0c1.3-1.6,1.4-5.3,5-3c0,0,0,0,0,0c0.3,1.7,0.7,3.3,1,5
	c-0.7-0.2-2-0.8-1.9,0.4c0.4,3.2-1.9,3.3-3.6,2.9c-3.7-0.9-4.9,0.5-4.6,4c0.1,1.3-0.8,2.1-1.9,2.7c-1.4-1-1.1,1.1-2,1
	C174.3,26.7,176.5,22,177.1,17.3z"/>
<path class="st44" d="M190.1,15.3c-1.7,0.3-4.6-0.5-2.6,3c0.3,0.6,0.5,1.4-0.3,1.6c-1.2,0.3-1.6-0.7-2.1-1.6c1.6-3.4-0.4-7,0.6-11.2
	C188.5,9.7,188.4,13,190.1,15.3z"/>
<path class="st44" d="M184.2,18.3c-1.6-2.9-2.2,4.2-4,0.4c-1.1-2.4-1.7-4.6,1.8-5.6c0.2-0.1,0.1-1.2,0.2-1.8
	C183.8,13.4,183.1,16.1,184.2,18.3z"/>
<path class="st44" d="M182.1,11.3c-0.9-0.6-1.5-2.1-3-1c0-1.5,0-3.7,1.7-3.4C183.2,7.2,181.7,9.8,182.1,11.3z"/>
<path class="st44" d="M179.2,10.3c-0.2,1.6-0.7,3-2,4C177.3,12.7,176.5,10.6,179.2,10.3z"/>
<path class="st54" d="M7.3,73.3c-0.4-0.7-0.7-1.3-1.1-2C5,62.6,4,54,6.2,45.3c2.6,0.2,1.9,2,1.8,3.6c0,0.5-0.3,0.9-0.2,1.4
	c0-0.6,0.3-1.1,0.9-1.2c3-0.2,6.4-1.1,5.9,3.9c-2,2.2-0.8,5.2-1.9,7.6c-0.2,0.4-0.4,1-0.9,1.2c-2.5,0.9-2.5,0.9-2.4,4.6
	c0,1.5,0.3,2.9,0.5,4.4C9.8,72.4,10,74.4,7.3,73.3z"/>
<path class="st52" d="M9.2,49.3c-1.2,0.6-0.7,2-1.5,3.1c-1.3-2.3,0.6-5.2-1.5-7.1c0.2-1.6,0.7-3,2-4c1.4-0.6,1.8-2,2.4-3.2
	c0.8-1.2,1.7-3,3.3-1.9c2.2,1.5,0.6,3.7,0.2,5.7c-0.5,1.1-1.3,2-2.1,2.9C10.6,46,10.6,48.1,9.2,49.3z"/>
<path class="st55" d="M14.2,29.3c0.3,0,0.7,0,1,0c0.3,3.4-2.6,4.9-4.2,7.2c-0.5,0.5-1.1,0.8-1.8,0.8c-1.7-1.7,0.7-3.2,0.1-4.9
	c1.1-1.5,2.6-2.9,3-4.9c0.3-0.1,0.6-0.2,0.9-0.2C14,27.7,13.6,28.7,14.2,29.3z"/>
<path class="st54" d="M9.2,37.3c0.3-0.3,0.7-0.7,1-1c1.2,0.7,0.3,2.1,1,3c-0.9,0.8-0.4,3.7-3,2C8.5,40,8.8,38.6,9.2,37.3z"/>
<path class="st51" d="M339,85.2c-0.7,0.7-1.3,1.3-2,2c-0.6-4.1-0.4-8.3-1.3-12.4c2.4-3.3,4.9-6.5,5.7-10.6c0.2-1,0.8-2.2,2.3-2
	c1.2,2,0.9,4.1,0.2,6.2l0,0c-1.3,1.5,0.1,3.5-1,5C342.8,77.7,340,81.1,339,85.2z"/>
<path class="st55" d="M344.1,68.3c-0.4-2,0.8-4.3-1-6c-2.4-3.3-1.1-7-1.2-10.6c0.3-1.2,0.5-2.5,2.2-2.4c0.3,0.7,0.7,1.3,1,2
	C344.6,57,346.3,62.8,344.1,68.3z"/>
<path class="st55" d="M343.1,73.3c0.2-1.7-0.7-3.6,1-5C344,70,344.7,71.9,343.1,73.3z"/>
<path class="st17" d="M336.1,75.3c1.9,2.4,2.4,5.2,1.9,8.1c-0.2,1.3-0.6,2.5-0.9,3.8c-1,1.7-2,3.4-3,5.1c-1.7,1.4-3.3,2.7-5,4.1
	c-3.1-0.8-7.5,3-9.2-2.7c-0.8,0.2-0.5,1.1-0.8,1.6c-1.3,2.2-2.8,3-5.3,1.4c-4.5-2.9-9.3-4.2-14.8-2.7c-2.2,0.6-4.7,2.2-7.1,0.2
	c-0.6-0.9-0.6-1.8-0.2-2.8c1.5-2.2,4.3-1.9,6.2-3.2c1.1-4.1,4.7-7.1,4.9-11.6c0.1-1.7,1.3-3.2,3.4-2.8c1.8,0.4,1.9,2.1,2,3.6
	c0.1,2.5-1.9,5.2,0.8,7.4c4.2-3.5,4.4-3.5,6,2.4c2.1-0.8,2.2-2.7,2.6-4.4c0.3-1.3,0.3-3.1,1.7-3.3c2-0.2,1.7,1.9,2.4,3.1
	c0.1,0.4,0.3,0.8,0.4,1.1c0.1,0.3,0.4,0.7,0.6,0.6c0.4-0.3,0.4-0.9,0.5-1.3c1-2.4,2.2-3.1,3.8-0.5c0.2,0.6,0.3,1.3,0.4,1.9
	c0.2,1.1-0.1,2.6,1.3,2.8c1.6,0.3,1.7-1.3,1.9-2.4c0.5-2.8,4-4,3.5-7.3c0.1-0.5,0.2-0.9,0.4-1.4C334.8,75.5,335.2,75,336.1,75.3z"/>
<path class="st56" d="M309.1,107.3c-6.1-0.4-10.7-6.3-17.6-4.5c-2.2,0.6-1.8-2.7-3.1-3.9c-3.9,2.3-7.8,4.2-12.3,1.5
	c-1-1.1-1.1-2.4-0.6-3.8c1.3-2.5,3.9-2.3,6.1-2.9c0.7-0.2,1.5-0.2,2.2-0.1c2.2,0.6,4.7-0.5,6.8,0.9c3.5,0.8,7.2,0.3,10.7,0.9
	c1.8,0.3,4.1,0.4,4.9,2c2.6,5,7,3.6,11,3.5c1.5,0,3.4-1.4,3.8,1.4C317.5,104.8,313.5,106.6,309.1,107.3z"/>
<path class="st57" d="M321.1,102.3c-3.3-1.8-7.3,2.6-9.5-0.1c-2.3-2.9-2.8-0.2-4.2,0.4c-0.3-4.6-2.8-5.6-7.2-6
	c-3.3-0.3-6.8-0.1-10-1.2c0.3-0.6,0.8-0.8,1.4-1c0.2,0,0.4,0,0.6,0c2.9-1.6,6.9,0.1,9.2-3.1c0.2-0.2,0.7-0.5,0.8-0.5
	c3.1,3.2,8.6,0.2,11.1,3.5c3.6,4.7,4.4,1.7,5.6-1.4c0.2-0.6,0.4-1.2,1-3.1c0.9,5.1,2.9,7.3,7.3,5.4c0.4-0.2,1.4,0.7,2,1.1
	C326.8,98.8,324.2,100.9,321.1,102.3z"/>
<path class="st58" d="M32.2,97.3c-2.9-0.2-5.8-4.9-8.8-0.2c-2.3-1-3.8-2.9-5.1-4.9c-2.4-5-5.4-9.7-7-15c-0.2-0.2-0.4-0.4-0.6-0.6
	c-1.1-2.1-0.3-4.2-0.2-6.3c1.1-2.4,1.6-4.9,1.7-7.5c0.4-1.4,0.9-3,2.8-2.7c1.8,0.3,1.8,2,1.8,3.5c0,1.6-0.1,3.2-0.1,4.8
	c-1.5,7.6-0.8,14.6,5.2,20.2c1,1.2,2.7,0.9,3.8,1.9c1.3,1,2.4,2.3,4.2,2.5c1.7,0.6,3.6,0.1,5.3,0.7c0.4,0.3,0.7,0.7,0.8,1.2
	C35.8,98,34.4,98.3,32.2,97.3z"/>
<path class="st9" d="M7.3,73.3c2-0.1,1.9-1.6,1.9-3c0.2-0.1,0.4-0.2,0.7-0.3c0.2,0.1,0.4,0.2,0.6,0.3c0.1,0.2,0.1,0.5,0.2,0.7
	c0.3,2.1-0.6,4.2,0.6,6.2c0,0,0,0,0,0c-0.1,1.1,0.2,2.3-1,3C8.3,78.3,8.2,75.6,7.3,73.3z"/>
<path class="st59" d="M344.1,49.3c-0.8,0.4-1,1.2-1,2c-0.4,0.3-0.8,0.3-1.3,0c-2.1-3.5-3-7.7-7-9.9c-3.6-2-5.6-0.9-5.7,3
	c0.7,0.2,1.2,0.6,1.6,1.2c0.7,1.4,0.6,2.8,0.3,4.2c-0.5,1.6-0.1,3.3-0.8,4.8c-1,2.2-2.5,3.1-4.5,1.1c-0.6-0.6-1-0.5-1.3,0.3
	c-2.6,0.8-2.2-1.3-2.3-2.5c-0.2-3-1.5-3.6-3.7-1.8c-2.3,1.8-3.8-1.4-6-0.6c-2.7,1.1-3.6-3.6-4.5-2.8c-3.4,2.9-3.6,0-4.7-1.9
	c-1.4-5.5-3.2-6.4-7.6-3.7c-3.1,1.9-4.5,0.7-5.5-4.8c5.6-1.5,11.5-1.5,17.1-0.5c2.9,0.5,5.5,3,8.8,3.9c2.4,0.6,3.4,0.1,4.3-1.4
	c2.9-4.6,7.7-5,12.4-5.9c1.6-0.3,2.4,0.7,3.5,1.5c2.2,1.8,3.6,4.3,5.2,6.6c0.3,0.3,0.6,0.7,1,1C342.9,45.3,344.4,47,344.1,49.3z"/>
<path class="st35" d="M307.2,7.3c-0.4,2.6-2.5,1.9-4.1,2.1c-2.4-0.4-1.7-1.6-0.8-3C303.9,6.5,305.8,5.7,307.2,7.3z"/>
<path class="st29" d="M302.3,6.4c-0.2,1.1-0.3,2.2,0.8,3c0,0.3,0,0.6,0,1c-2.4-0.3-3.7-1.6-4-4C300.2,6.3,301.2,6.4,302.3,6.4z"/>
<path class="st60" d="M14.2,29.3c-0.9-0.4-0.9-1.2-1-2c0.6-1,1.3-2,1.9-3c0,0,0.2,0.1,0.2,0.1c2.1-1.5,3.9-3.5,5.9-5.2
	c0.3-0.3,0.6-0.6,1-0.8c2.4,0.2,4.5-1.2,6.7-1.6c1.7-0.4,4.3-1.2,4.6,1.2c0.2,1.6-1.6,3.1-4.2,3.2C22.9,21.1,17.8,24.1,14.2,29.3z"
	/>
<path class="st41" d="M21.1,19.1c-1.3,2.5-3,4.5-5.9,5.2C16.8,22.1,18.5,20.1,21.1,19.1z"/>
<path class="st32" d="M226.1,21.3c-1.2,0.1-2.6,0.4-2.4,1.8c1,5.1-0.6,4.6-3.6,1.8c-0.7-0.7-1.5-0.5-2.1,0.3
	c-1.1-1.3-2.1-2.8-0.8-4.3c1.6-1.9,2.7,1.1,4.5,0.7c-1.6-5,2.7-2.3,4.3-3.4C227,19.3,227,20.3,226.1,21.3L226.1,21.3z"/>
<path class="st38" d="M194.1,33.3c0-0.3,0-0.7,0-1c1.3-1.7,0.3-5.3,4-5c0,0,0,0,0,0c0,1.3-1,2.7,0,4
	C196.4,31.2,196.3,34.2,194.1,33.3z"/>
<path class="st30" d="M226.1,21.3c0-1,0-2,0-3c2.4-1.6-0.5-3.6,0.7-5.9c1.7-3.3,2.2-0.5,3.3-0.1c0,1.7,0,3.3,0,5
	c-1.7,0.1-2.1,1.2-2,2.7C228.3,21.6,227.5,21.9,226.1,21.3z"/>
<path class="st61" d="M341.2,42.3c-1.6-0.5-1.9-2.3-2.9-3.3c-2.3-2.2-3.6-4.4-8.4-2.9c-4,1.2-6.5,2.7-9.1,5.5
	c-1.3,1.4-2.9,5.8-5,0.4c-3.9,1-6.6-0.9-8.7-3.9c-2.5,4-4.5-2.3-7.6-0.3c-2.3,1.4-6.1,0.5-9.3,0.6c-3.6,2.5-7.7,0.9-11.6,1.4
	c-2.9,0.2-5.9-0.1-8.8,0c-0.6,0-1.2,0-1.8,0c-1.5,0.2-3-0.1-4.5,0.1c-8.3,0.1-16.6,0.2-24.9,0c-1.2,0.2-2.5,0.1-3.7,0
	c-4.9,0-9.9,0-14.8,0c-6.3,0-12.5,0.1-18.8-0.1c-6,0.2-12,0.1-18,0c-2.1,0-4.4,0.2-6.1-1.6c0-0.3,0-0.6,0-0.9c20,0,39.9,0,59.9,0
	c14.7-0.2,29.4,0.6,44.1-0.6c0.9-0.1,1.9,0.4,2.9,0.7c4.9-1.3,10.1,0.4,15-1c2.8,0.5,5.3-1,8-1c0.2-0.3,0.4-0.3,0.7-0.2
	c0.2,0.1,0.3,0.2,0.3,0.3c4.8,1.3,9.4-0.5,13.7-2C330.8,30,337.8,33,341.2,42.3z"/>
<path class="st62" d="M308.1,35.3c-0.3,0-0.6,0-1,0c0-0.7,0-1.3,0-2c0.3,0,0.7,0,1,0c2.4-0.8,4.6-2.5,7.7-1.5
	C314.1,35.5,310.2,33.5,308.1,35.3z"/>
<path class="st36" d="M299.2,36.3c-4.9,2.1-10,0.5-15,1C289,35.1,294.2,36.8,299.2,36.3z"/>
<path class="st6" d="M166.1,33.4c0.8,3.1,3.4,1.7,5.2,1.9c1.9,0.2,3.9,0,5.8,0c0,0.7,0.1,1.3,0.1,2c0,0-0.2,0.1-0.2,0.1
	c-2.2,2.3-5.1,2.2-8,2.3c-2.5,0-5,0-7.5-0.1c-2.1-0.4-4.3-0.1-6.3-0.8c-2.6-0.9-4.1-2.5-0.6-4.6c3.2-1.2,6.7-1.2,10.1-1.4
	C165.2,32.8,165.7,33,166.1,33.4z"/>
<path class="st30" d="M198.1,27.3c-2.3,0.9-2.1,3.8-4,5c0.2-1.5-0.3-2.8-1-4c0.3-1.3,0.7-2.7,1-4c0.1-1.4-0.5-3,1-4
	c0.9,0.4,1.6,1.1,2,2C197,24.1,197.2,25.8,198.1,27.3z"/>
<path class="st9" d="M166.1,33.4c-0.3,0-0.6,0-0.9,0c-1.9,0.9-3.9,0.4-5.8,0.3c-1.3-1.6-0.3-3.6,1-3.2c4.7,1.3,9.6-1.1,14.1,1
	c0.4,0.2,0.7,0.5,1,0.9c-0.7-1.8-0.7-3.6-0.8-5.4c-0.1-2.3,0-4.6,1.5-6.6c0.1-1.1-0.1-2.3,1-3c0,4.7,0,9.4,0.1,14.1
	c0,1-0.1,1.9-0.1,2.9C173.4,34,169.7,35.1,166.1,33.4z"/>
<path class="st63" d="M111.2,17.3c0,0.3,0,0.7,0,1c1.1,2.4,2.4,4.8,5.4,5.4c2.4,0.5,3.1,2.3,3.3,4.4c0,0.5-0.1,0.9-0.3,1.4
	c-1.4,1.5-2.4,3.7-5.1,3.3c-0.4-0.2-0.7-0.5-1-0.9c-0.3-0.6-0.2-1.6-0.6-1.8c-0.9-0.5-0.7,0.6-0.8,0.9c-0.7,1.9-2,2.8-3.9,3.4
	c-4.8,0.8-9.6-0.1-14.4,0.6c-0.5,0.1-1.1,0.1-1.6,0.1c-2.4-0.5-4.8-0.5-7.2-0.3c-2.1,0.1-3.9-0.1-4.7-2.5c-0.3-1.5-0.3-2.8,0.9-3.9
	c9.1,2.7,11,0.9,12.4-11.9c2.5,4.1,5.8,7.9,4.7,13.5c2.4-2.4,1.3-5.4,2.5-8.2c2.8,2.9-0.2,7.8,4,9.6c1.6-3.9,1-7.9,0.1-13.2
	c3.1,3,3.8,5.7,4.3,8.9C111.7,23.7,108.3,20,111.2,17.3z"/>
<path class="st32" d="M44.2,21.3c1.3,0.3,2.7,0.7,4.1,1c0.3,0,0.6,0,0.9,0.1c0.7,1.6,2.7,1.6,3.5,3c0,2.5,0.8,4.8,1.4,7.2
	c0,0.7-0.2,1.4-0.7,1.9c-3.2,0-3.1-2.8-4.1-4.8c-1.1-2.3-1.8-6.1-4.8-5.3c-2.8,0.8-3,4.3-2.3,7.2c0.3,1.1,0.2,2.3,0.2,3.4
	c0,2.2-1.2,3.9-2.6,5.6c1.1,1.4,4.6,0.4,3.4,3.6c-0.2,0.6-0.6,1.1-1,1.7c-1.3,1.5,0.2,2.6,0.4,3.9c-1.4,3.3-3.9,2.6-6.5,1.7
	c-0.3-0.5-0.3-0.9-0.1-1.4c0.4-0.9,1.2-1.9-0.2-2.5c-1.1-0.4-1.9,0.5-2.2,1.4c-0.7,1.8-0.9,4.3-3.2,4.6c-2.8,0.4-5.6-0.5-8.3-1
	c-2-0.3-1.3-2.3-1.1-3.8c0.1-0.5,0.4-0.9,0.6-1.3c2.7-3.5,5.9-6.2,10.5-6.9c3.1-0.5,4.4-2.6,3.9-5.8c-0.5-3,0-6,0.3-8.9
	C36.8,21.6,40.2,19.6,44.2,21.3z"/>
<path class="st64" d="M66.2,29.3c0-2.8-0.2-5.8,4.3-3.8c2,0.9,2.3-1.1,2.5-2.1c0.4-2.3,0.3-4.6,0.4-7.1c4,2.2,2.6,5.9,2.9,9
	c-1.1,3.1-1.3,6.9-5.8,7.4C68.7,31.9,68.9,28.8,66.2,29.3z"/>
<path class="st54" d="M66.2,29.3c2.8-1,3.8,0.5,4,3c-0.4,0.8-1.1,1.2-1.7,1.7c-0.5,0.4-1,0.8-1.7,1c-0.4,0.2-0.9,0.3-1.3,0.3
	c-1.1,0.1-2.3,0-3.4,0.2c-4.6,0.8-7.3-0.9-8.1-5.6c0.1-0.2,0.2-0.4,0.2-0.7c2.4-1.1,2.9,0.7,3.9,2.2c0.8,1.3,2.2,3.2,2.8-0.5
	c0.4-2.2,1.2-2,4.1,2C66.2,32,64.3,29.9,66.2,29.3z"/>
<path class="st65" d="M68.2,33.3c0.4-0.8,1.2-1,2-1c3.3-1.2,3.8-4.8,6-7c-0.2,4.1,3.6,1.6,5,3c0,1.3,0,2.7,0,4
	c-2.9-0.1-5.1,1.9-7.8,2.5c-0.5,0.1-0.9,0.1-1.4,0C70.6,34.6,69.2,34.5,68.2,33.3z"/>
<path class="st54" d="M52.2,25.3c-1.3-0.7-2.9-1.1-3-3c3.7,0.8,5.9,2.8,5.1,7c0,0,0,0,0,0C50.9,29.3,53.7,26.2,52.2,25.3z"/>
<path class="st64" d="M11.2,39.3c-1.2-0.7-0.9-1.9-1-3c1.7-2.3,3.3-4.7,5-7c0.3,0,0.6-0.1,0.9-0.1c1-0.4,1.8-1.3,3-1.3
	c2.4,1-0.2-1.4,0.9-1.4c2.2-1.4,4.5-2.7,7.1-0.9c0.5-0.3,1,2.5,1.5,0c0.2-1,0.5-1.9,1.7-1.8c3.3,2.2,2.2,5.1,1.2,8
	c-1.3,1.6-2.1,3.2-0.8,5.1c-4.1,1-2.4,6.7-6.4,7.9c-2.6-0.7-1.9-2.7-1.7-4.4c-1.1,2.1,0.2,4.5-0.9,6.6c-0.6,1.2-1.5,2.4-3,2.2
	c-1.5-0.2-1.1-1.7-1.3-2.8c-0.6-2.9,0.6-5.9-0.5-8.3c-0.3-1.1-1.1-0.1-0.5-0.4c0.1-0.1,0.3,0,0.3,0.4c0.8,5.2,0.2,10.5-0.1,15.7
	c-1.1,0.9-2.1,1.7-2.5-0.5c0.1-3.6-2.7-3.5-5-4c0-1.9-0.3-4,2-5c1.2-0.2,1.8-0.9,2-2c-0.1-1.8,0.1-3.5,0.9-5.3
	C11.8,36.6,11.9,38.4,11.2,39.3z"/>
<path class="st25" d="M24.2,44.3c0.3-0.2,0.6-0.3,0.8-0.5c1.9-1.6,0.8-3.9,1.2-5.9c0.5-2.4,4,2.3,4-1.6c-1.1-1.3-0.9-2.7,0-4
	c0.7-2.8,3-5.8-1-8c-0.2,0.2-0.5,0.3-0.8,0.3c-0.3,0-0.4-0.1-0.4-0.2c-0.2-0.4-0.2-0.8,0.2-1.1c2.2-1,4.5-2,6.7-3.1
	c2.8-0.8,5-3.4,8.2-2.9c0.1,1.1-0.2,2.3,1,3c0,0.3,0,0.6,0,1c-4.4-0.3-6.7,1.9-6.5,6c0.1,3.4-0.8,6.7,0.2,10.2
	c0.7,2.4-2.5,4.4-3.8,4.4c-5.4-0.2-8.2,3.7-11.9,6.4C20.9,46,22.1,44.9,24.2,44.3z"/>
<path class="st66" d="M28.2,23.3c0,0.3,0,0.7,0,1c0,0.8-0.2,1.5-1,2c-2.5-0.7-4.9-1-7,1c-0.1,0.6-0.4,0.9-1,1
	c-1,0.3-2.1,0.6-3.1,0.9C19,25,23.2,23.4,28.2,23.3z"/>
<path class="st67" d="M176.2,20.3c0,2.3,0,4.7,0,7c-1.2,1.2-0.2,4.3-2.8,3.9c-2.3-0.3-2.6-2.7-2.7-5c-5.8,6.8-8,6.4-11.6-1.8
	c-1.1,2.6-0.8,7.3-3.9,6.7c-1.9-0.4-6.4-2.4-6.2-6.5c-3.6,3.9-3.9,3.8-7.8-1.2c-2.3,0.4,1.1,7.2-4.4,3.9c-1.2-1.7-0.9-3.7-1.1-5.8
	c-2,0.9-3.1,2.2-3.4,4.3c-0.2,1.7-0.8,3.4-3.2,2.6c-1.2-1.3-1.6-2.8-1.7-4.5c1.3-1.8-2-4.2,0.8-5.7c0.8,0.1,1.5,2.5,2.4,0.1
	c0.6-1.7,1.2-3.4,2.5-4.9c1.9-2,3.8-2.2,5.1,0.4c0.7,1.4,1.4,2.6,2.9,3.2c1.1-0.8,0.2-2.7,2-3.1c1.3,1-0.2,4.6,3.1,3.8
	c2.6-0.7-0.5-2.5,0.7-3.7c0.9,0.8,1.8,1.7,2.7,2.5c2.8,2.6,5.1,4.3,5.9-1.5c0.3-2.4,1.3-4.3,4.5-1.5c1.1,1,2.4,5.2,5.6,2.5
	c0,1.9,0,3.8,0,5.7c5.1-1.1,5.1-1.1,5.9-9.8c2.6,1.6,2.6,4,2.6,6.4C174.1,19.7,173.9,21.2,176.2,20.3z"/>
<path class="st68" d="M128.2,18.3c-1.6,1.7,1.6,3.3,0,5c-0.3,0.4-0.6,1.1-0.9,1.1c-3.4-0.2-5.8,1.8-8.1,3.9c-0.7-2-1.6-3.4-3.9-4.1
	c-2.4-0.8-4.4-2.8-4.1-5.9c3.1,3.1,3.8,3.3,9,2c0.6-0.2,1.1-0.9,1.7-0.4c3,2.5,3.7,0.8,4.1-2.1c0-0.2,1.5-0.3,2.3-0.5
	C128.2,17.6,128.2,18,128.2,18.3z"/>
<path class="st58" d="M115.2,96.3c-1-0.3-2-0.7-3-1c-5-1.1-10,0.8-15,0l0,0c-1.3-0.8-3,0.4-4.1-1c-1.5-1.8-2.1-3.8-0.9-5.9
	c1-1.8,3.1-1.2,6,1.8c-1.4-3.5,2.1-3.9,3.5-5.6c4.3-1.3,8.8-0.6,13.2-0.8c10-0.5,20,0.3,30-0.6c1,0.1,1.9,0.3,2.5,1.2
	c-0.4,1.7-2.3,3-1.2,5c1.2,0.3,0.9-0.6,0.8-1.2c-0.3-1-0.7-2,0.2-3c2.2-1,4.3-0.7,6.3,0.6c1,1.1,1.8,2.3,2,3.8
	c-0.5,0.6-0.3,0.7,0.3,0.3c1.3,0.5,2.6,1.1,3.6,2.2c0.2,0.5,0.2,0.9,0,1.4c-0.4,0.7-0.9,1.1-1.5,1.4c-4.1,1.4-8.5-0.4-12.6,0.8
	c-0.6,0.3-1.2,0.6-1.9,0.8c-0.4,0.1-0.9,0.1-1.3,0.1c-2-0.5-4-0.4-5.9,0c-0.5,0.1-1,0-1.4,0c-5.3-0.6-10.5,0-15.8,0.1
	C117.6,97,116.3,97.3,115.2,96.3z"/>
<path class="st69" d="M152.2,108.3c-0.3,0-0.7,0-1,0c-1.4-1.7-3.5,0.1-5-1c-0.7-1.1-1.8-1.6-3-1.4c-9.7,1.3-19.4,0-29,0.4
	c-1,0.8-2,0.7-3,0c-2-5.4-0.8-7.9,4-9c0.2-0.3,0.5-0.4,0.8-0.4c0.3,0,0.4,0.1,0.4,0.1c1.7,0.8,2.9,0,4.1-1.2
	c5.2,1.2,10.5-0.6,15.7,0.4l0,0c1.4-0.8,2.9-0.3,4.4-0.4c1.5,0.6,1.9,2,2.8,3.6c0.9-1.6,1.7-3.4,3.6-4c4.1-0.3,8.2,0,12.3,0.1
	c1.7,0,3.3,0.4,4.4,1.7c1.2,3,0.6,5.7-1.4,8.1c-1.3,2.3-3.2,1.4-5,1C156.2,108.8,153.5,106.8,152.2,108.3z"/>
<path class="st70" d="M203.1,106.3c-8.8,0.4-17.6-0.9-26.4,1.3c-3.5,0.9-7.7,0.8-11.6,0.7c-1-0.4-1.6-1-2-2c6.2-2.5,12.7-1.8,19-1.8
	c1.7,0,3.2,0.3,4.4-1.3c-0.7,0.5-1.1,1.5-2.1,1.5c-1.6-0.1-3.8,0.2-4.7-0.9c-2.4-2.9-7.6-2.1-8.6-6.7c-0.1-0.5,0.1-0.9,0.5-1.3
	c1-0.6,2.1-0.8,3.2-0.8c9.7,0.1,19.3-0.4,29,0.3c2.9,0.9,1.1,3.3,1.3,5c1.7-0.2,3.4-1.4,4.5,0.5c0.7,1.2,0.7,2.6,0.1,3.8
	c-0.9,1.8-2.5,1.9-4.2,1.4C204.6,105.7,203.8,105.7,203.1,106.3z"/>
<path class="st71" d="M171.1,96.3c0.8,1.2,2.2,1.8,3.3,2.6c2.6,2.2,6,3.6,9.2,4.9c1.9,0.8,2.1-1.5,3.5-3.1c0.2,3.1-0.6,4.4-3.3,4.6
	c-6.9,0.3-13.7,0.7-20.6,1c-0.3-0.3-0.7-0.7-1-1c0.3-2.7,0.7-5.3,1-8C165.4,93.7,168.4,95.6,171.1,96.3z"/>
<path class="st39" d="M98.6,102.4c-1.5,5.3-5.6,3.5-8.2,3.3c-2.3-0.2-1.2-3.6-1.1-5.6c0.1-2,2.1-3.2,3.5-2.3
	c3.3,2.3,8.3,0.5,10.6,5.3c0.4-1,0.6-1.4,0.7-1.8c0.3-1.4-0.5-3.9,2.3-3.3c2.3,0.5,1.1,2.3,0.8,3.6c-0.4,1.5,1,4.4-1.8,4.2
	C103,105.8,98.9,108.5,98.6,102.4z"/>
<path class="st7" d="M101.1,85.3c-0.1,0.7,0,1.8-0.2,1.9c-3.9,1.2-2,2.7,0.1,4.7c-1.5-2.3-6,3.1-5.4-2.6c0.1-0.9-1.2-0.9-2-0.8
	c-1.1,0.1-1,0.9-1.2,1.7c-0.6,3.7,2.7,3.8,4.6,5.2c-7.3,2-14.6,0.5-22,0.9c-0.2-0.5-0.1-0.9,0.2-1.3c2.4-2.3,6.2-0.9,8.7-3.1
	c0.6-0.3,1.3-0.3,2-0.1c0.6,0.2,1.4,1.2,1.9,0.1c0.2-0.4-1.3-0.5-1.5-1.4c-0.4-1.3-0.3-2.5,0.4-3.6C91.2,82.7,96.1,83.8,101.1,85.3z
	"/>
<path class="st72" d="M65.4,103.8c1.1-1.2,0.8-2.4,0.8-3.5c-0.1-2,0.5-2.9,2.6-1.8c0.6,0.3,1.5,0.7,1.9,0.4c7-4.1,3.5,3.8,5.7,5.3
	c0.7,0.4-1.2,2.7-2.4,2.4c-4.1-1.2-8.2,0.3-12.3-0.4c-2-0.4-4-0.9-3.1-3.9c0.4-1.3,0.2-2.7,2-2.9c1.6-0.2,2.4,0.6,2.8,2.1
	C63.6,102.4,64,103.4,65.4,103.8z"/>
<path class="st10" d="M46.2,103.3c-2.6-0.7-5.3-1.4-7.9-2.1c-2.3-1.2-1.2-2.5,0.3-3.1c3.5-1.4,5.2-4.2,6.6-7.4
	c2.1-5.7,3.7-11.5,3.8-17.7c0.2-1.2,0.4-2.5,1.8-3c2.2,0.6,1.9,2.5,1.8,4c-0.2,3.2,0.9,5.8,3,8.1c0.3,0.7,0.3,1.4-0.1,2.2
	c-0.7,0.8-1.6,1.1-2.5,1.4c-4.4,2.1-3.6,6.8-5.1,10.4c-1,2-3.4,3.5-1.7,6.3C46.2,102.6,46.2,103,46.2,103.3z"/>
<path class="st73" d="M46.2,102.3c-5.9-3-0.4-4.2,1-6c1.2-3.5,2.6-1.5,4-0.2c1.2,0.5,2.2,0,3.3-0.2c1.2-0.2,2.7-0.7,2.7,1.4
	c-0.5,2.4-1,4.8-1.4,7.3c-0.3,2.4-2,0.8-2.4,0.6C51.2,103.7,48.5,103.4,46.2,102.3z"/>
<path class="st71" d="M82.9,105.8c-5.4,2.5-4.6-1.6-5.1-3.8c-0.5-2.2,0.1-3.5,3-3.8c4.6-0.6,7,0.2,6.8,5.6
	C87.4,109,83.6,104.8,82.9,105.8z"/>
<path class="st4" d="M62.2,95.3c-0.7,0-1.3,0-2,0c-0.7-1.4-2.3-1.3-3.4-2.1c-0.7-0.9-1.1-2-1.3-3.2c-0.1-1.3,0.4-2.3,1.4-3.1
	c6.1-2.6,9.1-2.4,12.1,1.2c0.3,0.9,0.2,1.9-0.1,2.8c-1,2.9-4.9,1.5-6.2,4.1C62.5,95.1,62.4,95.2,62.2,95.3z"/>
<path class="st74" d="M56.2,90.3c1.2,0.7,1,1.9,1,3c1.2,0.7,1.5,1.9,2.1,3c0.5,2.8-1.2,1-2.1,1c-0.9-1.1-2-1.3-2.8-0.2
	c-1.4,1.8-2.8,0.9-4.2,0.2c-1.1-3.5-2-6.8,3.8-6C54.8,91.4,55.4,90.6,56.2,90.3z"/>
<path class="st75" d="M136.1,96.3c-5.3,0.5-10.6,1.5-16,0.1c-1,1.5-2.4,1.9-4,1c-0.3,0-0.7,0-1,0c0-0.3,0-0.7,0-1
	C122.2,95.5,129.2,94.3,136.1,96.3z"/>
<path class="st7" d="M97.1,95.3c5-0.7,10-1.8,15,0C107.2,95.2,102.2,97.3,97.1,95.3z"/>
<path class="st4" d="M75.2,95.3c0,0.3,0,0.6,0,1c-4.3-0.7-8.9,2-13-1c0,0,0,0,0,0c0.4-0.3,0.8-0.6,1.2-0.9c3.8-1.6,7.5-0.8,11.2,0.4
	C74.8,94.9,75,95.1,75.2,95.3z"/>
<path class="st11" d="M59.3,96.3c-1.4-0.5-2.1-1.5-2.1-3c2-0.9,4.2-2,3,2C59.9,95.7,59.6,96,59.3,96.3z"/>
<path class="st70" d="M146.2,107.3c1.7-0.1,3.9-2,5,1C149.5,108.1,147.6,109,146.2,107.3z"/>
<path class="st70" d="M152.2,108.3c0.9-2.6,3.7-0.4,5-2C156.5,109.5,153.9,107.9,152.2,108.3z"/>
<path class="st70" d="M111.2,106.3c1,0,2,0,3,0C113.2,109.4,112.2,107.9,111.2,106.3z"/>
<path class="st55" d="M46.2,91.3c-1.4,3.5-2.9,6.9-7.2,7.7c-1.3,0.2-1.4,1.2-0.7,2.2c-2.8,0-4.1-2.6-6.2-3.8c2.2,0.1,3.3-0.8,3-3
	c0.4-0.3,0.8-0.3,1.1,0.1c0.2,0.1,0.4,0.3,0.7,0.4c-0.4-0.2-0.8-0.5-1-0.8c1.5-4.6,2-9.5,3.1-14.2c0.8-2.2,0.5-4.7,2.1-6.6
	c2.4,0.2,2,2.2,2.3,3.7c0,1.1-0.1,2.1-0.3,3.1c-0.6,2.1-1.2,4.2-1.5,6.4c-0.1,1.3-0.2,2.7-0.1,4c0.4,2.5,1.7,1.4,2.9,0.8
	c0.2-0.1,0.4-0.2,0.6-0.3C45.5,90.8,45.9,91,46.2,91.3z"/>
<path class="st76" d="M203.1,106.3c0.7-0.9,1.6-1,2.6-1c1.8,0,3.4-0.1,3.3-2.5c0-1-0.1-2.1-1.4-2.3c-2.1-0.2-1.1,2.3-2.3,3.2
	c-3-2.6-2.5-4.9-0.4-7.4c4-2.6,8.3-1.2,12.5-1.2c3.6,0.9,0.1,4.2,1.8,5.7c3.6-1.6,7.2-1.7,11.2-0.2c1.2-1.1,0-3.6,1.8-4.9
	c0.8-0.2,1.4-0.1,2,0.4c1.4,1.7,0.9,4.1,2,5.8c-0.8-2-0.9-4.1,0.4-6c0.9-0.7,1.8-0.7,2.8-0.4c1.4,0.8,1,2.3,1.3,3.5
	c0.4,1.3,1.3,2.9,2.5,2.6c3.1-1,6,1,9,0.4c0.8,0,1.7,0,2.5-0.1c1-0.1,1.7-0.9,2.7-1.1c0.4,0,0.8,0.1,1.2,0.3c1.3,0.7,2.8-0.9,4,0.5
	c0.1,0.2,0.2,0.4,0.3,0.6c0.3,1.8,2.4,1.2,4.1,2.5c-6.9,1.5-13.2-0.8-19.1,1.5c-0.7,0.1-1.3,1.2-2,0c-1.5-0.9-3.1-0.7-4.6,0.1
	c-2.8,1.4-5.6,1.1-8.4-0.1h0c-3.3-1.9-6.7,1.3-10,0h0c-4.7-0.8-9.1,1.8-13.8,0.9c-1.4-0.3-2.9,0.1-4.2-0.9
	C204.5,106.3,203.8,106.3,203.1,106.3z"/>
<path class="st52" d="M205.2,106.3c4.9-0.2,10,0.6,14.8-0.9c1.1-0.3,2.3-0.2,3.2,0.9c-4.7,1-9.4,2.5-14.4,2c-1.3-0.1-2.7,0.3-3.6-1
	C205.1,107,205.1,106.6,205.2,106.3z"/>
<path class="st52" d="M233.1,106.3c4.3,0.6,8.7-2,13,0c-1.8-0.1-3.4,0.6-5.1,1.2C238.5,108.4,235.2,110.1,233.1,106.3z"/>
<path class="st52" d="M223.1,106.3c3.3-0.4,6.7-2.1,10,0c-2.5-0.3-4.9,0.3-7.2,1.2C224.5,108,223.3,108.4,223.1,106.3z"/>
<path class="st77" d="M256.1,103.3c-1,0-2,0-3,0c-1.3-2.2-4.2,1-5.5-1.6c-0.9-1.9-2.2-3.7-0.6-5.8c0.8-0.6,1.8-0.8,2.8-0.9
	c0.5-0.1,1-0.1,1.4-0.1c7.1,0.1,14.3-0.3,21.3,1.5c0.8,0.2,1.8-1.3,3-0.7c0.2,0.2,0.4,0.3,0.5,0.5c0,1.3,0,2.7,0,4
	c-2.3,1.1-5.6-0.5-7.4,2.5c-0.1,0.1-1.2-0.1-1.2-0.3c-1.3-4.8-2.9-1.8-4.4-0.2c-1.2-2.9-3.6,0.8-5-1
	C256,100.5,257,102.8,256.1,103.3z"/>
<path class="st9" d="M14.2,53.3c0.7,1,1.3,1,2,0c0.9-0.9,1.2-3,3.3-1.9c0.4,4.9-2.7,7.3-6.6,9.1c-0.2-0.1-0.5-0.1-0.7-0.2
	c0-2,0-4,0-6C12.2,52.6,13.2,53,14.2,53.3z"/>
<path class="st9" d="M9.2,70.3C7,66.8,8.8,63,8.2,59.5c1.9-1.7,1.9,3.9,4,0.7c0,0,0,0,0,0c0.8,0.7,0.4,1.6,0.5,2.4
	c-0.1,0.4-0.2,0.8-0.3,1.3C12,66.4,11.1,68.6,9.2,70.3L9.2,70.3z"/>
<path class="st54" d="M13.2,42.3c0.1,1.2,2.4,1.8,1,3.2c-1.6,1.6-1.9-0.9-3-1.2C11.6,43.4,12.2,42.7,13.2,42.3z"/>
<path class="st78" d="M342.1,51.3c0.3,0,0.6,0,1,0c0,3.7,0,7.3,0,11c-1.1,5-2.3,10-7,13c-0.3,0.3-0.7,0.6-1,1
	c-2.5,1.8-4.7,1.5-6.3-1.2c-0.3-1.2,0.3-2,1.3-2.6c0.8-0.5,1.7-0.9,2.5-1.4c2.3-0.6,1.2-6.1,5.6-4c0.6,0.3,0.4-0.9,0.2-1.4
	c-0.2-1.1-0.9-2.2,0.2-3.1c1.9-1.2,2.2-3,2.3-5.1C340.8,55.3,340.3,53,342.1,51.3z"/>
<path class="st51" d="M329.1,74.3c1.3,2.7,3.8,1.9,6,2c0,0.3,0,0.7,0,1c-0.4,2.5-1.6,4.7-4.3,5c-1.6,0.2-1.5,1.1-2.1,2
	c-2.1,3-1.8-0.5-2.6-1c-0.2-0.7-0.1-1.8-1.2-1.4c-1.1,0.4-0.7,1.6-0.8,2.4c-1,1.6-2,1.6-3,0c0-0.3,0-0.7,0-1c-1.1-1.6,0.2-4-1.6-5.4
	c-0.5,0.7-0.8,1.5-0.9,2.3c-0.2,2-0.5,4.8-2.2,4.9c-2.2,0.1-2.9-2.8-4-4.6c-0.9-1.4-0.5-3.2-0.7-4.9c-0.2-1.3-0.3-1.9-2.2-1.6
	c-2.7,0.5-5.1-1.4-5.4-3.8c-0.5-4.5-2.3-9.1-0.5-13.7c1-1,4.1,1.5,3.5-2.3c-0.2-1.1,0.6-2.3,2.1-2.3c1.3,0,2.3,0.9,2.5,2
	c1.1,5.6,3.2,10.9,3.9,16.6c1.7-0.8,1.9-2.9,2.6-4.7c0.5-1.1,0.1-3,2-2.8c1.6,0.2,1.8,1.8,2.1,3c0.6,2,0.8,4.4,3.8,4.3
	C328,71.2,328.5,72.8,329.1,74.3z"/>
<path class="st79" d="M304.1,56.3c-0.8,4.3,1.5,8.4,0.7,12.8c-0.4,2.1,2,3.5,3.7,4.3c1.9,0.9,1-2.6,2.9-2.5
	c3.3,3.9-0.5,10.6,5.3,13.5c2.1-2.8,0.3-7.6,5.3-9.9c-1.7,3.3-0.8,6.1-0.9,8.9c-1.2-0.7-0.9-2-1.4-3.9c-0.4,1.7-0.7,2.5-0.9,3.4
	c-0.4,2.3,0,5.5-3.5,5.1c-2-0.2-2.2-3-2.7-4.8c-0.3,0.1-0.6,0.1-0.8,0.3c-1.1,1.1-0.1,4.5-3,3.3c-2.2-1-3.1-3.6-2.8-6
	c0.1-0.8,1.2-1.5,1.1-2.6c-0.1-1.2,0.6-3-1.2-3.4c-2-0.4-2.2,1.7-2.2,2.7c0.3,4.8-4.2,7.6-4.6,12c-2-2.4-1.5-5.1-0.5-7.5
	c2.5-6.3,3.1-12.4-0.2-18.6c-0.1-0.5,0-1,0-1.4c0.5-1.7,1.6-3.1,1.4-5c0-1.3-0.9-2.4-1-3.7c1-2.1,2.8-1.5,4.2-0.9
	C304.7,53,305,54.6,304.1,56.3z"/>
<path class="st80" d="M299.1,62.2c3.9,6.2,4,12.7,0.9,19.2c-1.2,2.5-0.7,5.2-0.8,7.9c-2.3,0.7-4.7,1.3-7,2c-1.1,0.8-1.8,0.5-2.2-0.8
	c0.2-0.4,0.5-0.8,0.9-1.1c3.5-1.1,7.1-2.1,6-7.1c0-0.9,0.1-1.8,0.3-2.8c0.4-3.3-1.4-5.2-3.9-6.9c-1.8-1.2-5.7-1.9-3.7-5.1
	c2-3.2,5-1.2,7.4,0.3c0.4,0.3,0.7,0.7,1.4,1.1c0.4-2.3-1.7-4.4-0.6-6.6c0.2-0.3,0.5-0.4,0.8-0.3C298.9,62.1,299.1,62.2,299.1,62.2z"
	/>
<path class="st79" d="M326.1,83.3c1.9,0.7,1.9,0.7,2.3-3.4c4.1,3.7,5-0.4,6.7-2.6c0.9,4.7-4.7,6.8-4.4,11.2c-1,0-2.1,0.5-2.9,0.1
	C325.7,87.4,326.2,85.2,326.1,83.3z"/>
<path class="st81" d="M290.1,90.4c0.5,0.8,1.2,0.9,2,0.9c0,1,0,2,0,3h0c-2.7-0.4-5.3-0.1-8,0c-0.7,0-1.3,0-2,0
	c-0.1-0.2-0.1-0.4-0.2-0.6c0.8-1.7,2.8-1.8,3.9-3.2c0.5-0.4,1.1-0.8,1.8-1C288.6,89.4,289.5,89.5,290.1,90.4z"/>
<path class="st79" d="M321.1,84.3c1,0.6,2,0.6,3,0c-0.2,1,0.4,2.6-1.3,2.6C321.5,86.8,321.2,85.5,321.1,84.3z"/>
<path class="st17" d="M251.1,96.3c-0.3,0-0.7,0-1,0c-4.4-0.1-8.8,0.1-13.3-0.2c-1.3-0.1-2.5-0.1-3.8-0.6c-0.3-0.7-0.1-1.2,0.4-1.7
	c1.6-1.1,3.5-1,5.3-1c12.6,0,25.2-0.2,37.8-0.1c1.9,0.3,3.9-0.1,5.5,1.5c0,0,0,0.1,0,0.1c-1.7,1.7-4.3,0.4-6,2
	C267.8,95.8,259.5,95.3,251.1,96.3z"/>
<path class="st17" d="M284.1,94.3c2.7-1,5.3-1.9,8,0c-0.4,0.8-1.2,1-2,1C288.4,93.1,285.8,96.7,284.1,94.3z"/>
<path class="st21" d="M12.2,63.3c0-1,0-2,0-3c3.2-2.3,6.2-4.8,7-9c0-2.1,0.9-2.9,3-2.1c-0.1,1.5-1.1,3.6,2,2.9
	c0.8-0.2,1.9-0.8,2.3-0.5c4.8,3.4,5.4,0.3,6-3.5c0.3-1.7,1.8-3.3,4.1-2.1c1,0.5,2.1,1,2.4,2.3c0.4,2.2-2.3,1.6-2.8,2.9
	c0.8,1.9-0.6,3.2-1.4,4.6c-1.8,1-0.6,4.5-3.7,4.3c-1.2-1.5-1.6-3.6-3.6-4.5c-2.6-1.2-4.4-1.1-5.2,2.2c-0.3,0.4,1,0.3,0.3,0.2
	c-0.2,0-0.1-0.2,0-0.5c0.9-1.8,1.7-3.7,3.7-1c1.4,1.9,4,2.3,5.4,4.3c1.7,5.9,1.4,11.4-2.8,16.3c-2.2,2.5-4.4,2.3-5.6-0.9
	c-1.3-3.5-1.4-7.2-0.8-10.8c0.7-1.7,3.1-1.5,3.9-3.3c-2-0.4-1.7,2.3-3.2,2.3c-2.4,0.3-2.8,2.5-3.9,4.1c-1,1.5-2.1,3.4-4.1,0.9
	c0.1-2.1,0.1-4.2,0.2-6.3c0.1-1,0.6-2.1-0.9-2c-1.1,0.1-1.2,1.3-1.3,2.3c-0.2,0.3-0.4,0.3-0.7,0.3C12.3,63.5,12.2,63.4,12.2,63.3z"
	/>
<path class="st82" d="M31.2,60.3c1.7-1.2,0.4-4.3,3-5c1.3,1.2,1.3,2.7,0.8,4.1c-1.5,3.8-1.2,7.7-1.5,11.6c-0.1,2,0.1,4.1-1.4,5.7
	c-2.4,2.3-4.9,4.4-4.3,8.3c0.2,1.2-1,2-2.4,1.9c-4.2-2.1-3.8-6.7-5.9-10c-0.6,2.6,0.4,4.8,2.2,6.9c1,1.1,2.1,2.2,2.2,3.8
	c-0.2,1.6-0.7,3-2.8,2.8c-5.9-5.9-8-12.9-6-21c4.1,1.5,3.7-2.6,4.4-4.2c1.1-2.8,2.1-1.9,3.6-0.8l0,0c0.3,3.7,0.7,7.5,1,11.2
	c0.1,1.2,0.5,2.4,2,2.4c1.2,0,1.3-1.2,1.9-1.9C32.4,71.3,31.1,65.7,31.2,60.3z"/>
<path class="st77" d="M34.2,94.3c-1.7,1.5-3.3,0.2-5,0c-0.9-3.4,2.5-5.2,2.9-8.2c0.2-1.5,1.4-2.9,1.4-4.6c0-0.5,0.1-0.9,0.1-1.4
	c0.4-1.6,0.4-3.2,0.8-4.8c0.1-0.5,0.3-1,0.5-1.4c1.4-2.1,2-6.2,4.7-5.5c3.4,0.9,0.6,4.5,1,6.9c0.3,1.7-1.2,3-1,4.7
	C38.3,85.1,38.3,90.5,34.2,94.3z"/>
<path class="st29" d="M25.2,86.3c1.1-0.1,2.2-0.6,1.8-1.7c-1.8-4.5,1.7-6.1,4.2-8.3c1.2,1.2,0.5,2.6-0.2,3.6
	c-1.7,2.5-0.8,4.6,0.7,6.8c-0.4,5.3-1.3,5.9-6.6,4.6c-1.1-1.2-3,0.7-4-1c1.3-0.6,2-1.6,2-3C23.9,87,24.7,86.9,25.2,86.3z"/>
<path class="st83" d="M25.2,91.3c2.9-0.6,7.1,0.4,6-5c-0.7-2.7,0.4-4.3,3-5c0.5,5.2-2.8,8.9-5,13C27.2,94.2,26.1,92.9,25.2,91.3z"/>
<path class="st83" d="M34.2,94.3c1.9-4.6,4.2-9,5-14c0.2-0.3,0.5-0.4,0.7-0.3c0.2,0.1,0.3,0.2,0.3,0.3c0,4-2.8,7.6-1.7,11.9
	c0.3,1.4-1.9,0.9-2.3,2.1l0,0c-0.3,0-0.6,0-0.9,0C34.9,94.3,34.5,94.3,34.2,94.3z"/>
<path class="st82" d="M12.2,63.3c0.3,0,0.7,0,1,0c0,2.5,0.3,5.1-2,7c-0.2,0.3-0.5,0.5-0.7,0.3c-0.2-0.1-0.3-0.2-0.3-0.4
	C10.3,67.8,11.8,65.7,12.2,63.3z"/>
<path class="st21" d="M10.2,70.3c0.3,0,0.7,0,1,0c0,2.3,0,4.7,0,7C9.3,75.2,10.6,72.6,10.2,70.3z"/>
<path class="st21" d="M12.2,63.3c0.4,2.6-0.9,4.8-2,7c-0.3,0-0.7,0-1,0C9.8,67.8,10.8,65.5,12.2,63.3z"/>
<path class="st6" d="M304.1,56.3c-0.4-3-1.5-5-5-3c-0.4,0.3-0.8,0.5-1.3,0.6c-3.7-1.1-7.7-0.7-11.4-1.8c-3.2-1-6.8,0.4-10-1.2
	c-1.5-2.5,1.2-2.1,2.1-2.9c1.2-0.7,2-1.5,1.8-3.1c-0.2-1.3,0-2.7,1.4-3.4c-3.1,0.9-1.6,4.4-3.3,6.1c-7,1.6-7.9,1.2-7.7-5.7
	c0-1.9-2.3-1.8-1.6-3.5c3,0,6,0,9,0c0.7,0.7,1.5,0.6,2.3,0.5c5.3-0.5,9.5,0.3,10.3,6.8c0.2,1.8,2,2.5,3.3,0.8
	c3.3-4.3,4.2-0.7,5.5,1.6c1.3-1.3,1.5-5.5,4.6-1.7c2.1,4.8,3,1.9,3.7-1.4c1.1,1.9,1.8,3.1,2.4,4.4c0.6,1.2,1.3,2.2,2.5,0.6
	c0.8-1,1.5-1.5,2.2-0.3c1.6,2.7,2.8,2.1,4.1-0.1c0.5-0.8,1.3-1.3,2-0.6c0.9,0.8,2.6,1,2.3,2.8c-0.2,1.6-0.8,3.3,0.7,4.6
	c1.9,4.8,2.7,9.8,2,15c-5.8,0.5-3.7-5-6-7.9c-1.2,3.6-0.8,8.2-5.7,9.1c0.1-6.3-3.1-11.8-3.5-18c-0.1-0.9-0.7-1.6-1.6-1.6
	c-1.1,0-1.1,1-1.2,1.8c-0.2,1.6,0.5,3.4-1.1,5.1C305.7,58.9,305.9,56.6,304.1,56.3z"/>
<path class="st53" d="M326.1,71.3c-1.5-4.9-2.4-9.8-2-15c0-1.8-0.1-3.6,1.3-5.1c0.3,0.2,0.5,0.4,0.6,0.6c0.6,1.5-1.1,4.3,1.9,4.1
	c2.1-0.1,1.6-2.4,1.3-4c-0.1-0.5,0.6-1.1,0.9-1.6c0.6,0.3,1.1,0.8,1.5,1.3c0.8-1.1,0.1-2.2-0.1-3.3c-0.2-2-0.1-3.7,2.1-4.4
	c2-0.7,3.6,0.4,4.6,2c2,2.8,2.8,5.9,2.6,9.3c-0.5,3-2.4,4.3-5.4,4c-0.5,0.1-0.9,0.4-1,0.9c-0.7,5.6-0.7,5.6-4.9,2.5
	c-2.3,2.3-0.6,4.6,0,6.8c0.4,1.4,2,2.3,1.5,4c-0.8,0-1.6,0.2-2,1C328.1,73.3,327.1,72.3,326.1,71.3z"/>
<path class="st84" d="M340.1,55.3c-0.5-3.2-0.8-6.6-2.9-9.3c-0.8-1.1-1.9-2-3.4-1.4c-1.6,0.7-1.5,1.9-1,3.3c0.2,0.6,0.4,1.4,0.3,1.9
	c-0.5,1.7,2.4,4.1,0,4.7c-2.1,0.6-2.5-2.4-3-4.3c0-1.7,0-3.3,0-5c-0.7-1-1.3-0.7-2,0c-0.5,0.1-0.9,0.2-1.4,0.3
	c-0.1-2.5,1.2-4.3,2.8-5.9c1.7-1.6,3.9-0.9,5.5,0.2c4,2.7,6.7,6.4,7.1,11.4c0,2.8-0.2,5.5,0,8.3c0.2,3.1-1.2,4.1-4,3.7
	c-1.1-0.4-1.6-1.2-1.7-2.3C336.7,58.5,340.7,58.4,340.1,55.3z"/>
<path class="st6" d="M304.1,46.3c-1-0.1-2.6-2-2.6,0.8c0,1.8-0.4,3.8-2.3,3.7c-2-0.1-0.7-2.5-1.4-3.7c-0.3-0.6-0.6-1.2-0.9-1.8
	c-1.7,0.3-1.4,2.2-2.3,2.8c-2.1,1.4-4.9,1.9-5.1-1.4c-0.4-6.3-3.8-7.8-9.2-7.4c-0.7,0.1-1.4-0.6-2.2-0.9c4,0,8,0,12,0
	c0.7,1.8,3.1,2.5,2.9,5.3c2.4-3.8,5.5-4.4,9-3C304.5,41.7,304.1,44.2,304.1,46.3z"/>
<path class="st53" d="M328.1,45.3c0.2-1.3,0.5-3,2.2-2.5c1.3,0.4,0,1.6-0.2,2.5C329.4,45.3,328.8,45.3,328.1,45.3z"/>
<path class="st85" d="M269.1,38.3c0.5,1.2,2.9,0.6,2.3,3c-1.3,5.6,2.5,6.1,6.7,5.9c0.9-0.2,1.2,0.1,1,1c-1,0.7-2,1.3-3,2
	c-5.5,0.8-11.1,0.2-16.7,0.8c-0.7,0.1-1.4,0.1-2-0.1c-1.9-0.5-3.7-0.8-5.6-0.2c-0.4,0.1-0.8,0.2-1.3,0.3c-1.6,0.3-3.1,0.3-4.7,0
	c-0.5-0.1-0.9-0.2-1.3-0.3c-1.5-0.5-3.3-0.3-4.7-1.4c-2.9-3.4-2.5-7.2-1.6-11.1c8.7,0,17.3,0,26,0c2,1.1,1.3,2.7,0.8,4.3
	c-0.3,1-1.4,2-0.3,3.1c0.7,0.7,1.5,0.5,2.3,0c1.2-0.8,1.7-1.9,1.7-3.3c-0.1-1.4-1.7-2.6-0.4-4.1C268.5,38.3,268.8,38.3,269.1,38.3z"
	/>
<path class="st86" d="M169.2,38.3c2.6-0.3,5.2-0.6,7.9-1c5.1,2.1,10.4,0.5,15.7,0.9c2.8,0.2,5.6,0.1,8.5,0.1c2.1,3.3,1.7,7,1.4,10.7
	c-0.3,0.5-0.7,0.9-1.3,1.1c-1.9,0.7-3.9,0.4-5.8,0.5c-2.7,0.2-5.3,1-8,0.1c-2.6-0.3-5.3-0.1-7.9-0.2c-1.1,0-2.1-0.2-3-0.8
	c-0.4-0.3-0.7-0.7-0.8-1.2c0.1-7.1,0.1-7.1-6.4-9C169.1,39.2,169,38.8,169.2,38.3z"/>
<path class="st87" d="M202.1,49.3c-1.4-3.5-0.9-7.3-1-10.9c6.3,0,12.7,0,19,0c1.3,0.6,2.9,0.9,3.1,2.6c0.4,2.8,2.3,4.9,3.4,7.3
	c0,0.5-0.2,1-0.6,1.4c-4.2,1.7-8.6,1.2-12.9,0.6c-3.1-2.3-6.3-2.5-9.7-0.7C203,49.7,202.5,49.6,202.1,49.3z"/>
<path class="st85" d="M226.1,48.3c-2-1-3.1-2.5-3.5-4.8c-0.3-1.9-0.5-4-2.5-5.1c5,0,10,0,15,0c0.3,1-0.6,1.8,0.2,3.1
	c2.7,4.8,0.6,8.1-4.9,7.7C229,49.1,227.4,49.5,226.1,48.3z"/>
<path class="st38" d="M226.1,48.3c1.6-0.1,3-1.1,4.8-0.3c1.6,0.8,3.1,0.1,4.2-1.6c1.1-1.7,0.8-3.2-0.6-4.4c-1.9-1.7-1.2-2.7,0.6-3.7
	c1,0,2,0,3,0c1.8,3.5-0.2,7.6,2,11c-4.7,2.5-9.3,1.8-14,0C226.1,49,226.1,48.6,226.1,48.3z"/>
<path class="st6" d="M268.1,38.3c2,3.1,3.3,6-0.4,8.9c-1.7,1.4-3.2,0.5-4.5-0.3c-1.7-1-1.1-2.4,0-3.7c1.2-1.4,1.9-3.1,1-4.9
	C265.5,38.3,266.8,38.3,268.1,38.3z"/>
<path class="st77" d="M176.2,48.3c0,0.3,0,0.7,0,1c-0.2,0.2-0.4,0.4-0.7,0.6c-7.3,1.5-14.6,0.7-21.8,0.5c-2.1-0.6-1.8-1.9-1.1-3.5
	c1.3-2.9,1.1-5-2.7-5.6c-1.2-0.2-2.4-1.1-2.9-2.5c0.1-0.5,0.4-0.9,0.9-1.2c4-2,7.5,2.1,11.5,1.1c0.6-0.2,1.3,0.1,1.8-0.4
	c2.7,0,5.3,0,8,0c0,0.3,0,0.6,0,1c-0.1,0.2-0.2,0.4-0.2,0.7c-3.2,1.2-6,3.3-9.4,5c0.7,2.2,3,1.8,5,2.1c3.7,0.6,7.6-1.7,11.2,0.7
	C175.9,47.9,176,48.1,176.2,48.3z"/>
<path class="st88" d="M93.2,34.3c5.2-2.1,10.7-0.5,16-1c1.9,0.8,2.7-4.1,5-1l0,0c2.1,1.4,3.5-1.1,5.4-0.9c5.7-0.7,11.4,0.6,17,0.2
	c3.1,0.7,6.1,0.7,9.2,0.2c0.5,0,0.9,0,1.4,0c1.2,0.2,2.3,0.3,3.5,0.2c2.9-0.3,5.9-0.9,8.4,1.3c2,0,4,0,6.1,0c-3.1,2-6.9,0.2-10,2
	c-8.5,0.6-17,0.3-25.5,0.4c-0.9,0-1.8,0-2.8,0c-4-0.1-8,0-12,0c-5.4-0.1-10.8,0.1-16.2,0.1C96.7,35.8,94.7,35.9,93.2,34.3z"/>
<path class="st29" d="M129.2,34.3c7.1,0,14.2,0,21.3,0c1.6,0,3.4-0.5,4.7,1c-3.7,1.5-0.6,2.5,0.4,2.5c1.9,0,3.7,0,5.6,0.5
	c-4.7,2.7-9.3-1.2-14,0c-0.1-0.2-0.2-0.4-0.2-0.6c0.2-0.6,2.1-1.8-0.5-1.2c-0.6,0.1-1.3,0.1-2,0.2c-3.7,0.1-7.5,0.1-11.2-0.1
	C131.7,36.5,129.5,36.9,129.2,34.3z"/>
<path class="st64" d="M159.1,33.3c-3-0.6-6-0.7-9,0c-0.5-1.9-2.3,0.2-3-1l0,0c-2.2-1-6.1-0.3-5.5-4.5c-1.7,0.8-0.1,5.8-4.5,4.5
	c-6,1.5-12-0.2-18,0c-0.9-1-0.8-2,0-3c0-0.3,0-0.7,0-1c1-5.2,5.4-4.4,9-5c0.3,1.7,0.7,3.3,1,5c2.4,1.6,3.1-0.5,4.1-1.9
	c2.1-3,3-1.1,3.9,0.9c3.9,0.2,1.4-2.6,1.8-4c0.2-0.8-0.6-2,0.7-2.5c1.3-0.5,1.5,0.9,2.2,1.5c0.6,0.6,1,1.4,1.7,1.8
	c0.9,0.6,0.1,2.9,1.9,2.2c1.1-0.5,3.1-1,2.3-3.2c-0.4-1.1-0.1-2.2,1.1-2.2c1.1,0,1.4,1.2,1.4,2.2c0.1,1.3-1.1,2.6,0,3.8
	c1.5,1.8,2.1-1.4,2.5-0.8c1,1.3,1.5,3.1,2.4,5c2.2-3,2.5-5.9,2.2-9.3c2.8,0.1,3.6,1.9,3.9,3.8c0.3,2.2,1.2,4.2,3.4,4.2
	c1.9,0,3.4-1.9,4.4-3.6c0.6-1-0.1-3.2,1.9-2.8c2.1,0.4,1.2,2.3,0.9,3.7c-0.2,1.4,0.6,2.5,1.6,3.6c1-1.4,1.9-2.5,2.8-3.7
	c0.2,3.5,0.7,6.2-4.9,4.6c-3.2-0.9-7.1,1.3-10.7-0.7C159.6,30.7,159.3,32.3,159.1,33.3z"/>
<path class="st81" d="M93.2,34.3c7.3,0,14.7,0,22,0c0.3,0.5,0.2,1-0.2,1.4c-2.9,1.8-6.5,0.1-9.4,1.7c-5.5,2.3-11.3,0.5-16.9,1.4
	c-0.5,0.1-1.1,0.1-1.6,0c-2.6-0.6-5.1-0.3-7.7,0.3c-2.3,0.1-4.5-0.6-6.8-0.8c-1.3-0.1-2.8-0.6-2.7-2.2c0.1-1.5,1.4-1.4,2.6-1.5
	c1.6-0.2,3.2-0.5,4.8-0.7c5,0.3,9.9-0.3,14.9,0.3C92.5,34.3,92.8,34.3,93.2,34.3z"/>
<path class="st88" d="M92.2,34.3c-4.7,0.3-9.3,1.4-14,0c-1.7,0.7-3.3,0.8-5,0c1.5-2.4,5.6-0.6,6.4-4.1c0.5,0.7,1.1,1.4,1.6,2.1
	c0.9,2.3,2.7,0.9,4.1,1C87.6,33.6,90.1,32.4,92.2,34.3z"/>
<path class="st89" d="M114.2,32.3c-2-1.2-3.1,1.9-5,1c0.9-1.1,2.2-1.9,2.1-3.7c-0.1-1.2-0.4-3.1,1.6-2.9c1.9,0.1,1.3,2,1.4,3.2
	C114.2,30.6,114.2,31.5,114.2,32.3z"/>
<path class="st89" d="M119.2,29.3c0,1,0,2,0,3c-1.7,0.7-3.3,1.9-5,0C116.7,32.7,116.9,29.3,119.2,29.3z"/>
<path class="st90" d="M52.2,25.3c1.6,0.9,0.4,3.1,2,4c1.9,6.8,7.4,4.8,12,5c0.1,2.4-2.4,1.6-3.7,2.9c5.5,0.5,10.6,0.2,15.6,1.6
	c1.4,0.4,2.6-0.5,3.8-1c1.8,0.2,3.6-0.5,5.3,0.5l0,0c0.3,0.4,0.3,0.8,0,1.3c-0.9,0.8-2.1,0.9-3.2,1.3c-2.4,4.7-1.7,5.8,3.9,6
	c4.5-1,9-2.7,13.3,0.6c0.7,0.5,1.3,1,0.8,2c-7.3,2.2-14.6,1.3-22,0.5c-1.4-2.8-4.9-3.9-5.9-7.1c-0.6-1.9-2.1-1.6-3-0.3
	c-2.4,3.7-4.2,1.5-6.1-0.4c-0.6-0.1-1.3-0.1-1.9-0.3c-2.2-1.6-5.2,0-7.4-1.8c-0.4-2.7-2-5.1-2.5-7.8C51.8,30.1,51,27.9,52.2,25.3z"
	/>
<path class="st85" d="M32.2,70.3c-0.5-5.2,1.8-9.9,2-15c0.7-1.3,1.3-2.7,2-4c2.1-0.2,4.6,0.5,6-2c-1.5-1-2-2.3-1-4
	c0.3-0.3,0.7-0.7,1-1c0.3-0.3,0.5-0.4,0.8-0.3c0.3,0.1,0.4,0.1,0.4,0.2c2,3.8,3,7.3-1.5,10.3c-2.1,1.4-1.1,3.6,0,5.3
	c0.9,1.5,3,2.3,2.5,4.6c-0.4,0.3-0.8,0.5-1.2,0.6c-2.8-0.4-4,1.4-5.1,3.6c-1.1,2.2-1.9,4.4-2.8,6.7l0,0c-0.2,0.2-0.5,0.3-0.7,0.3
	c-0.3,0-0.4-0.1-0.4-0.2C32.5,74.1,34,71.6,32.2,70.3z"/>
<path class="st91" d="M41.2,35.3c0.7-3.2-1.8-6.2,0.2-9.6c2.5-4.1,4.4-4.4,7.1-0.4c0.9,1.3,1.3,3,2,4.5c0.8,1.6,0.6,3.7,2.6,4.6
	c2.4,2.8,2.4,6.1,2.1,9.4c-0.2,2,0.1,3.6,1.1,5.2c0.1,0.5,0.1,0.9,0,1.4c-4.8,1.2-7.3-0.9-6.4-6.4c0.8-4.8-0.9-8.7-2.4-12.9
	c-0.5-1.3-0.8-3.5-2.5-3.2c-2.1,0.4-1.3,2.7-1.3,4.2c0.1,2.8,0.8,5.4,2.7,7.8c2.1,2.6,1.8,4.6-2.2,4.7
	C42.8,41.7,41.1,38.8,41.2,35.3z"/>
<path class="st54" d="M22.1,49.3c-1.4,0.1-2.4,0.7-3,2.1c-1,0.7-2,1.3-3,2c-1.6-6.1,1.6-12.1,0-18.2c2.3,4.3,2.2,9,2.7,13.9
	c4.1-3.5,1.2-8.5,3.1-12.2c4.5,1.4-0.3,5.5,2.2,7.5c-1.1,1.1-2.4,2.1-2,4C22.2,48.6,22.2,48.9,22.1,49.3z"/>
<path class="st30" d="M56.1,49.4c-1.2-0.9-3.4-1.2-2.6-3.5c1.4-3.9,0.3-7.7-0.4-11.5c0-0.7,0-1.4,0.1-2.1c1.7,2.4,4.7,4.3,3,8
	c1.9,1.8-0.4,4.1,0.8,6c0.3,0.6,0.5,1.2,0.5,1.9c-0.2,0.4-0.4,0.8-0.8,1.1C56.5,49.3,56.3,49.3,56.1,49.4z"/>
<path class="st92" d="M41.2,35.3c0.1,3.3,4.1,5.3,3,9c-0.2,0.3-0.4,0.3-0.6,0.3c-0.2-0.1-0.3-0.2-0.3-0.2c-0.3,0-0.7,0-1,0
	c-0.7-1.8-0.7-1.8-4.6-1.4C37.4,39.7,41.8,38.5,41.2,35.3z"/>
<path class="st93" d="M28.2,49.1c-1.5-1.7-1.2-3,0-4.1c0.6-0.5,1.4-0.4,1.6,0.3C30.3,47,29.4,48,28.2,49.1z"/>
<path class="st92" d="M41.2,45.3c-0.2,1.5,0.3,2.8,1,4C39.4,48.6,39.8,47.1,41.2,45.3z"/>
<path class="st30" d="M81.2,38.3c-4.2,2.7-8.5-0.8-12.9,0.3c-1.8,0.4-4.4,1.2-6.7-0.2c-0.8-0.5-2.2-0.1-1.9-1.6
	c0.1-0.8,1-1.2,1.8-1.4c1.6-0.3,3.4,0.5,4.7-1.1c0.3,0,0.7,0,1,0c1.7-0.7,3.3-0.7,5,0c0.3,0,0.7,0,1,0c1.7,0,3.3,0,5,0
	c-2.1,2.2-5.2,0-8.2,2.3c3.9,0.6,7,1.2,10.2,1.7c0.2-0.3,0.5-0.4,0.7-0.3C81.1,38.1,81.2,38.2,81.2,38.3z"/>
<path class="st88" d="M72.2,34.3c-1.7,0-3.3,0-5,0c0.3-0.3,0.7-0.7,1-1C69.6,33.4,71.1,32.8,72.2,34.3z"/>
<path class="st94" d="M27.2,26.3c0-0.8,0.2-1.6,1-2c0.3,0,0.7,0,1,0c0.9,1.5,0.1,3,0.2,4.6C27.5,28.9,27.4,27.6,27.2,26.3z"/>
<path class="st45" d="M19.2,28.3c0.3-0.3,0.7-0.7,1-1c0.8,1,2.8,2.2,0.7,3.3C19.6,31.2,19.4,29.3,19.2,28.3z"/>
<path class="st94" d="M30.2,32.3c0,1.3,0,2.7,0,4C26.9,35,28.2,33.6,30.2,32.3z"/>
<path class="st68" d="M137.2,27.3c-1.1-0.7-2.1-3.3-3.2,0.3c-0.6,1.8-2.7,4.2-4.8,0.7c1.1-0.1,2.1-0.7,1.9-1.8
	c-0.9-4.6,3.4-5.2,6.1-7.4C137.2,21.8,137.2,24.6,137.2,27.3z"/>
<path class="st95" d="M101.1,85.3c-4.6,1-9.7-1.2-14,2c-1.3,0.7-1.9-0.5-2.8-1c-4.8,1.5-9.5-1.8-14.3,0.2c-3.7-0.4-7.4-1-11.1-0.5
	c-3.1,0.5-3.7-1.2-3.1-3.8c2.8-3.6,6.8-1.8,10.3-2.3c5.3,0.8,10.4-2.4,15.7-0.4c0.5,0,0.9,0.1,1.4,0.2c2.5,0.9,4.9,0.1,7.3-0.3
	c3.1-0.9,6.1,1.9,9.2,0.2c2.2-0.8,4.7,0.9,6.9-0.7c0.4-0.2,0.9-0.3,1.3-0.4c2.1,0.2,4.1,0.6,5.5,2.5c-0.3,1.7,2.1,2.4,1.8,4.2
	C110.5,85.3,105.8,85.3,101.1,85.3z"/>
<path class="st91" d="M115.2,85.3c-0.2-1.6-6.3-0.2-2-4c2.7-2.9,6-3.6,9.7-2.3c5,0.3,9.9,1.3,14.9,1.1c1.5,0,2.8-0.3,3.8-1.5
	c7.1,0,7.6,0.2,9.2,3.5c-0.8,3.5-4,0.9-5.7,2.2c-4.3,0.8-8.8,0.1-12.9,0.6C126.5,85.5,120.8,84.1,115.2,85.3z"/>
<path class="st75" d="M171.1,96.3c-2.6,0.9-5.5-1-8,0.9c-5.6-0.9-11.3-1-17-1c-1,0.7-2,0.9-3,0c0.3-0.3,0.7-0.7,1-1
	c4.6-1.5,9.4,0.5,14-1c0.3-0.3,0.7-0.7,1-1c0.7-0.4,1.4-0.1,2.1,0.1c4.3,0.7,8.7-0.3,12.8,1.6c0.4,0.4,0.4,0.9,0.1,1.3
	C173.2,96.3,172.1,96.3,171.1,96.3z"/>
<path class="st58" d="M159.2,92.3c-1.9,0.4-2.9-0.9-4-2c-0.6-1.4-2.1-2.3-2-4c0.2-2.5,2.2-1.9,3.7-2.3c1.3,0,2.6,0.1,3.8,0.6
	C161.6,86.8,161,90,159.2,92.3z"/>
<path class="st95" d="M157.2,85.3c-1.4,0.1-2.9-0.5-4,1c-1.9-0.8-4.2,0.3-6-1l0,0c-0.4-0.8-1.2-1-2-1c1.1-2,4.8,0.3,5-3
	c0.5-0.6,1.2-0.6,1.8-0.3C153.2,83,157.1,81.9,157.2,85.3z"/>
<path class="st6" d="M159.2,92.3c2.3-2.4-1.8-2.5-1.5-4.4c1.5-0.2,4.1,0.6,3.4-2.6c0.8-0.6,1.5-0.6,2.3,0c0.9,2.2,0.5,4.4,0.5,6.6
	c0.1,2.6-1.4,3.4-3.8,2.3c-0.3-0.3-0.7-0.7-1-1C159.2,93,159.2,92.6,159.2,92.3z"/>
<path class="st7" d="M113.1,87.3c-3,3.7-5.7,1.9-8.3,1.3c-0.6-0.1-0.7-1.4-0.1-1.7C107.4,85.6,109.8,87.4,113.1,87.3z"/>
<path class="st48" d="M143.1,96.3c1,0,2,0,3,0c-0.9,2.2-1.9,4.4-3.2,7.4c-0.8-3.1-1.3-5.2-1.8-7.4c0.2-0.3,0.4-0.4,0.7-0.3
	c0.2,0.1,0.4,0.2,0.4,0.3C142.5,96.3,142.8,96.3,143.1,96.3z"/>
<path class="st58" d="M158.2,94.3c-4.5,2.1-9.3,0.5-14,1C148.7,92.7,153.5,95.1,158.2,94.3z"/>
<path class="st58" d="M147.2,85.3c0.3,1,0.7,2,1,3c-0.9,1.1-2.1,1.9-3,3C143.2,88.4,144.1,86.5,147.2,85.3
	C147.2,85.3,147.2,85.3,147.2,85.3z"/>
<path class="st96" d="M145.2,91.3c-0.2-2.2,0.8-3.2,3-3C150.1,92.2,146.9,91.1,145.2,91.3z"/>
<path class="st2" d="M126.6,93.9c1.1-1.7,2.4-2.3,4.4-2.2C130.2,94.4,128.8,94.5,126.6,93.9z"/>
<path class="st97" d="M103,91.2c2.1-1,3.4-1.4,4.9,0.3C106.3,92.5,105.1,92.6,103,91.2z"/>
<path class="st58" d="M155.2,90.2c-0.4,1.7-1,3.2-2.2,2.5c-1.2-0.7-0.1-1.6,0.7-2.1C154.1,90.4,154.7,90.4,155.2,90.2z"/>
<path class="st75" d="M142.2,96.3c-0.3,0-0.7,0-1,0.1c-1.7,0-3.3,0-5-0.1C138.2,94.7,140.2,94.8,142.2,96.3z"/>
<path class="st48" d="M116.2,97.3c1.3-0.3,2.7-0.6,4-1C119.9,101,117.7,97.9,116.2,97.3z"/>
<path class="st56" d="M174.2,96.3c0-0.3,0-0.7,0-1c0.6-0.8,1.5-1.1,2.5-1.2c0.6-0.1,1.3-0.1,1.9-0.1c16-0.1,31.9,0,47.9,0
	c2.3,0,4.7-0.4,6.7,1.3c5.7,0.7,11.5-1.1,17.1,1.1c-1,0-2,0-3,0c-0.7,0.7-1.7,1-2.5,1.5c-1.2,0.7-0.8,3.3-2.9,2.7
	c-2.3-0.6-0.3-3.1-1.5-4.2c-1,0-2,0-3,0c-1,0.8-2,0.8-3,0c-0.7,0-1.3,0-2,0c-4.3,2.9-8.7,3.8-13,0c-4.7,0-9.3,0-14,0
	C194.8,96.3,184.5,96.3,174.2,96.3z"/>
<path class="st98" d="M71.2,85.3c0.5-0.9,1-1.9,2.3-1.3c3.7,1.7,7.4,2.5,11.2,0c0.2,0.4,0.4,0.9,0.6,1.3c0.3,2.4,1.4,4.9-1,7
	c-0.1,1.2-0.5,2.8-1.8,2.4c-2.6-0.9-4.8,0.9-7.2,0.7c0,0,0,0,0,0c-2-3.7,1-3.7,3.3-4.4c-1.9,0.3-3-0.7-3.8-2
	C74,87.3,72.3,86.6,71.2,85.3z"/>
<path class="st99" d="M84.2,92.3c0.3-2.3,0.6-4.7,1-7c0.7,0.7,1.3,1.3,2,2c0,1.3,0,2.7,0,4c0.3,0.9-0.1,1.2-1,1
	C85.5,92.3,84.9,92.3,84.2,92.3z"/>
<path class="st95" d="M86.2,92.3c0.3-0.3,0.6-0.7,1-1c0.9-0.1,1.2-2.2,2.2-0.9c0.8,1.1,0.1,2.8-0.9,3.5C87,94.8,86.4,93.7,86.2,92.3
	z"/>
<path class="st100" d="M51.2,70.3c-1.2,0.7-0.9,2-1,3.1c-1,0.1-1.4-0.5-1.7-1.2c-0.3-3.2,0.5-6.1,2.2-8.8c0.6-0.5,1.2-0.7,2-0.5
	c0.7,0.6,1.3,1.2,2.1,0c2.2-0.1,3.2,1,2.5,3.1c-1.2,3.8,1,4,3.6,3.5c1.6-0.3,3.1-0.6,3,1.8c-2.8,2.7-1.3,6.4-2,9.5
	c-1.7,0.1-3.3,0-5,0.1c-2.1-1.4-0.9-4-2-5.8C53.7,73.4,53.8,70.8,51.2,70.3z"/>
<path class="st101" d="M56.2,90.3c-0.3,5.1-3.5,2.4-6,2.1c0,1.6,0,3.2,0,4.9c-1-0.2-1-3.7-3-1c0.6-4.4,0.5-9.2,5-12
	c0.7,1.7,1.9,1.8,3.4,1.3c0.8,0.3,2,0.3,1.6,1.7C56.9,88.3,56.5,89.3,56.2,90.3z"/>
<path class="st96" d="M57.2,87.3c-0.4-0.8-1.2-1-2-1c-0.6-0.6-0.6-1.3-0.1-2c0-0.7,0-1.4,0-2c-0.3-0.4-0.3-0.8,0.1-1.2
	c0.9,0,1.3,0.3,0.9,1.2c0,1.6,0.2,3,2.3,3c4.2,0,8.5,0,12.7,0c2.2-0.1,3.8,0.4,4,3c0.6,1.3,0.9,2.6-0.5,3.4
	c-1.1,0.6-2.2,0.2-3.3-0.3c-1.4-0.7-2.1-2-3.2-3.1c-2.5-3.7-5.8-1.3-8.8-1.1C58.7,87.3,58,87.6,57.2,87.3z"/>
<path class="st102" d="M55.2,81.3c0,0.3,0,0.6-0.1,1c-4.1-0.9-3.5-4.4-4-7.3c-0.3-1.6,1-3.1,0-4.7c0.2-0.8,0.8-2.1,1.3-1.4
	c2.4,3.4,5.5,6.6,3.7,11.4C56,80.7,55.7,81.1,55.2,81.3z"/>
<path class="st95" d="M49.2,72.3c0.3,0.4,0.6,0.7,1,1.1c0.1,6.3-1.7,12.2-3.9,17.9c-0.3,0-0.7,0-1,0c-1.3-5.3,0.7-10.4,1.2-15.5
	C44,75,44,77.9,42.2,77.3c-0.2-1.4,0.4-2.9-1-4c-0.4-0.9,0.2-1.4,0.9-1.8C44.6,71.3,47.1,69.6,49.2,72.3z"/>
<path class="st102" d="M55.1,84.3c0,0.7,0.1,1.3,0.1,2c-3.1,2.5-3.2,0.5-3-2C53.2,84.3,54.1,84.3,55.1,84.3z"/>
<path class="st17" d="M68.2,88.3c1.6-0.1,2.5,1.2,3.6,2.1c2.6,1.9,3.3,0.4,3.4-2.1c1.1,0.8,1.7,2.5,3.6,1.2c0.7-0.5,2.2-1.7,2.7,0.3
	c0.3,1.2-1.1,2-2.2,2.3c-1.9,0.5-4.6-0.1-4.2,3.3c-4,0.2-8-1.4-12,0c-1-1.8,0-2.4,1.6-2.5c1.4,0,2.7-0.1,3.4-1.5
	C68.2,90.3,68.2,89.3,68.2,88.3z"/>
<path class="st96" d="M68.2,91.3c-0.1,1.8-1.3,2-2.7,2c-1.3,0-2.2,0.6-2.2,2c-0.3,0-0.7,0-1,0C61.5,89.9,66.6,93.3,68.2,91.3z"/>
<path class="st84" d="M42.2,77.3c0.3-0.7,0.9-1.4,1-2.2c0.3-1.8,1.5-2,2.9-1.7c1.5,0.4,2.5,1.8,1.9,3c-2.5,4.7-1,10-2.9,14.8
	c0,0,0,0,0,0c-1.7,1.1-3.3,2.7-5,0c0-1.6,0-3.3,0-4.9c1.8-1.6,1.1-4.1,2-6C42.2,79.3,42.2,78.3,42.2,77.3z"/>
<path class="st56" d="M42.2,72.3c-0.3,0.3-0.6,0.7-0.9,1c-0.4,2.3-0.7,4.7-1.1,7c-0.3,0-0.7,0-1,0c0.5-3.7,1.6-7.3,0.7-11.5
	c-2.7,1.7-2.5,4.9-4.7,6.5c-0.1-3.8,2.2-6.8,3.1-10.3c0.9-3.5,3.2-0.3,4.8-0.7C46.5,68.1,46.2,69.8,42.2,72.3z"/>
<path class="st103" d="M36.2,94.3c1.7,0.2,3.7-0.5,4.6,1.7c0.1,0.3-0.3,1-0.6,1.1C37.9,97.4,37.1,95.7,36.2,94.3
	C36.1,94.3,36.2,94.3,36.2,94.3z"/>
<path class="st95" d="M40.2,91.3c1.6,1.5,3.3,0.2,5,0C43.5,93.9,41.9,95.6,40.2,91.3z"/>
<path class="st95" d="M42.2,80.3c-0.2,2.2,0.7,4.7-2,6C40.9,84.3,40.7,82.1,42.2,80.3z"/>
<path class="st52" d="M219.1,96.3c1.8,0.9,5.1-2.1,5.8,2.1c0.1,0.6,0.9,0.3,1.1-0.2c1.2-3.4,4.1-1.5,6.2-2c0.4,0.9,0.6,1.8,0.2,2.9
	c-0.6,1.6,0.5,4.2-1.9,4.6c-2.2,0.3-0.5-3.1-2.7-3.7c-1.5,6.3-3.2,1.4-5.2-0.8c0,3.5-2,4.6-4,3.4C215.3,100.6,218,98.4,219.1,96.3z"
	/>
<path class="st52" d="M240.1,96.3c1.5,0.7,0.5,2.8,2.5,4c-0.3-3.8,1.6-4.6,4.5-4c0.7,4.2,0.7,4.1,4.4,4.4c1.3,0.1,1.6,1.4,1.7,2.6
	c-3.1,1-6.2-1.4-9.5,0.5C241.9,104.8,239.4,99.7,240.1,96.3z"/>
<path class="st52" d="M234.1,96.3c1,0,2,0,3,0c-0.4,2.1,0.9,4.5-1.3,6.4C234.4,100.7,234,98.6,234.1,96.3z"/>
<path class="st52" d="M258.1,101.3c1.6,0.5,4.1-3,5,1C261.8,100.4,258.9,106,258.1,101.3z"/>
<path class="st52" d="M256.1,103.3c0.2-1.2-0.6-2.7,0.8-3.4c1-0.5,1,0.7,1.2,1.4C257.5,102,256.8,102.6,256.1,103.3z"/>
<path class="st56" d="M251.1,96.3c8.3-1.6,16.7-1.6,25,0c-2.5,1.7-6.2-0.5-8.3,2.4C262.9,93.7,256.6,97.4,251.1,96.3z"/>
<path class="st2" d="M337.1,61.3c0.3,0.7,0.7,1.3,1,2c0.8,1.1,2.4,1.8,1.9,3.7c-0.3,1.2-0.9,2.3-2,2.5c-1.6,0.3-0.2-2.1-1.6-2.3
	c-1.7,1.3-0.9,4.3-3.3,5.1c-0.7-2.1-1.9-4-2.8-6.1c-0.7-1.6-1.7-3.2-0.2-4.9c2.7-1,1,2.6,2.9,2.6c1.3-1.5,0.2-3.1-0.1-4.7
	c-0.5-3.5,1.4-0.6,2.1-0.9C336.4,58.9,336.2,60.5,337.1,61.3z"/>
<path class="st6" d="M330.1,61.3c-0.1,4,4,6.8,3,11c-0.7,0.3-1.3,0.7-2,1c-2.6-2.3-3.8-5.2-4-8.6C327,62.5,327.6,61.1,330.1,61.3z"
	/>
<path class="st104" d="M301.1,56.3c0.1,1.9,0.3,4-2,4.9c-2,1.4-4.3,1.4-6.7,1.4c-8.8,0-17.5,0-26.3,0c-27.2,0-54.4,0-81.6,0
	c-2.7,0-5.8,0.5-7.8-2.2c-0.3-0.6-0.5-1.2-0.6-1.9c0-1,0.3-1.9,1.2-2.6c4.8-0.9,9.6-0.3,14.4-0.3c32.9,0,65.8,0,98.8,0
	c2.5,0,5-0.1,7.4-0.6C299.4,54.6,300.4,55.1,301.1,56.3z"/>
<path class="st105" d="M266.1,61.3c11,0,22,0,32.9,0c0,0.3,0,0.6,0,1c-0.3,0-0.6,0.1-0.9,0.1c-2.8,2.2-6,1.5-9.1,1.5
	c-3.5-0.1-7,0-10.5-0.1c-4-0.3-8,0.7-11.9-0.8C266,62.5,265.8,62,266.1,61.3z"/>
<path class="st6" d="M301.1,56.3c-0.6-0.4-1.3-0.7-1.9-1.1c-0.9-0.3-1.6-0.8-1-1.9c0.3,0,0.7,0,1,0
	C300.4,53.9,301.1,54.9,301.1,56.3z"/>
<path class="st106" d="M290.1,90.4c-1,0-2,0-3-0.1c-0.2,0.3-0.5,0.4-0.8,0.3c-0.3-0.1-0.4-0.2-0.4-0.3c0.2-2.8,2.8-2.6,4.4-3.7
	c0.2-0.3,1.2-0.6,0.3-0.9c-1.4-0.5-2.8-0.1-4.3,0.1c-0.2,0-0.5,0-0.7,0c-0.5-0.1-0.9-0.3-1.2-0.6c-2.1-2.3-4.8-4.2-5.3-7.6
	c-0.2-1.5-1.5-1.6-2.7-1.7c-3-0.4-5.9-0.6-8.9,0c-0.5,0-1,0-1.6-0.1c-7.8-0.5-15.6-0.1-23.4-0.2c-14.5-0.2-29-1.4-43.5-1.5
	c-2.7,0-5.1-1.1-5.3-4.1c-0.2-2.9,1.9-4,4.5-4.2c9.8,1.4,19.7,0.8,29.6,1c12.9,0.3,25.8,0.1,38.8,0.1c6.6,0,13.1-0.2,19.4,2.4
	c4,1.7,6.9,4.9,10.8,6.8c1,0.5,1,2,1.1,3.2c0,1,0,2,0,2.9c0.4,5.1-3.1,6.7-7,8C290.8,90.3,290.4,90.3,290.1,90.4z"/>
<path class="st91" d="M298.1,79.3c-6.1-5.8-12.9-10.3-21.5-11c-3.1-0.2-6.3,0-9.5,0c-0.2-0.5-0.1-0.9,0.2-1.3
	c6.2-3.5,12.5,0.4,19.5-0.1c-2.1-2.6-4.5-2.1-6.6-2.5c-0.7-0.1-1.4-0.3-2.1-0.8c-0.4-0.4-0.4-0.9-0.1-1.3c6.7,0,13.3,0,20,0
	c0.3,3.1,2.7,5.8,1.7,9.4c-2.4-1.1-3.6-3.4-5.9-4.3c-1.8-0.7-3.2-0.4-3.9,0.8c-1.1,1.9,1.1,2,2.1,2.6
	C295.6,72.6,299.3,74.2,298.1,79.3z"/>
<path class="st91" d="M291.1,90.3c3.2-1.9,6.3-3.9,7-8C299.4,88.1,296,89.8,291.1,90.3z"/>
<path class="st36" d="M286.1,90.3c0.3,0,0.7,0,1,0c-0.3,0.3-0.7,0.7-1,1c-2.9,1.4-5.9,2.3-9,3c-14.6,0-29.2,0-43.9,0.1
	c-5.8,1-11.6,0.3-17.3,0.4c-12.6,0.1-25.2,0.1-37.8,0c-1.3-0.1-1.5-0.9-1.4-2c0.2-0.6,0.6-1,1.2-1.3c2.6-0.9,5.2-0.4,7.8-0.6
	c0.6,0,1.1,0,1.7,0c5.6-0.1,11.3,0.3,16.9-0.3c0.9-0.3,1.8-0.7,2.8-0.4c1.4,0.9,2.9,0.4,4.3,0c1.7-0.5,3.4-0.1,5.1,0.2
	c8.1-0.9,16.3-0.3,24.4-0.5c7.9-0.2,15.9-0.8,23.7-1.9c3.7-1,7.5-0.6,11.3-0.6c1.6-0.2,3.1-1,4.7,0c0.3,0.3,0.5,0.6,0.7,1
	C282.6,90.2,285,88.5,286.1,90.3z"/>
<path class="st103" d="M277.1,94.3c3-1.1,5.6-3.3,9-3c-0.6,2-3,1.5-4,2.9C280.5,94.3,278.8,94.3,277.1,94.3z"/>
<path class="st107" d="M177.3,94.3c18.7,0,37.3,0,56,0.1c-0.1,0.3-0.1,0.6-0.2,0.9c-18.6,0-37.2,0-55.8,0
	C176.9,94.9,176.9,94.6,177.3,94.3z"/>
<path class="st108" d="M30.8,60.5c-2.1-1.5-5.9-0.1-5.8-4.4c-2.2,1.3-1.5,3.6-2.2,5.8c-2.4-2.3-2.1-4.9-1-6.8
	c0.8-1.3,3.3-1.9,4.9-1.2C29.4,55,32.9,56,30.8,60.5z"/>
<path class="st82" d="M23.2,64.3c0.2-0.4,0.6-0.9,0.6-1.3c0.2-2.1,1.6-2,3.1-2c1.1,0,1.6,0.6,1.6,1.4c-0.1,1.6-1.9,0.8-2.6,1.8
	C25.1,65.2,24.1,64.7,23.2,64.3C23.2,64.3,23.2,64.3,23.2,64.3z"/>
<path class="st33" d="M32.2,70.3c4.1,0.3,1,3.5,2,5c0.7,1.7,0.7,3.3,0,5c0,0.3,0,0.7,0,1c-1,1.7-2,3.3-3,5c-2.8-1.1-3.8-2.9-1.9-5.6
	c0.9-1.3,1.8-2.7,1.9-4.4C33,74.6,31.9,72.3,32.2,70.3z"/>
<path class="st92" d="M25.2,86.3c0,1.8-0.9,1.5-2,1c-2.4-3.2-6.3-5.7-5-10.7c0.3-1.3,0.4-2.6,2.3-3C21,78.3,22.9,82.4,25.2,86.3z"/>
<path class="st83" d="M34.2,80.3c0-1.7,0-3.3,0-5c0.3,0,0.7,0,1,0C35,77,35.8,78.9,34.2,80.3z"/>
<path class="st109" d="M298.2,53.3c0.3,0.6,0.7,1.3,1,1.9c-0.3,2.4-2.2,2.1-3.8,2.1c-36.7-0.1-73.3-0.2-110-0.3
	c-2.8,0-5.6,1.1-8.2-0.7c-1.2-4.2-0.5-5.5,3.4-6c1.3-0.1,2.6,0,3.9-0.2c1.2-0.5,2.7,0,3.9-0.7c2.2,2.1,4.4-0.3,6.6,0
	c0.4,0.2,0.7,0.4,1.1,0.7c1.5,0.4,3,0.3,4.5,0.1c0.4-0.1,0.8-0.2,1.3-0.3c2,0.4,3.9,0,5.6-0.9c1.4,0.3,2.9,0,4.2,0.7
	c10,1,20.1,0.7,30.1,0.3c1.1,0,2.3-0.4,3.3,0.5l0,0c2,0.8,4,0.8,6.1,0l0,0c2-0.4,4-0.9,6,0c0.7,0,1.3,0,2,0
	c7.8-0.5,15.5,0.4,23.2,0.5c1.6,0,3.3-0.5,4.8,0.5C290.8,52.1,294.8,50.7,298.2,53.3z"/>
<path class="st6" d="M287.1,51.3c-8.1,0.3-16.1-1-24.2-0.2c-1.2,0.1-2.5-0.5-3.8-0.8c5.7-1.2,11.3-1.6,17-0.1
	C279.8,50.9,283.6,49.1,287.1,51.3z"/>
<path class="st6" d="M279.1,48.3c-0.3-0.3-0.7-0.7-1-1c0.4-7.1,0.4-7.1,5.2-6.6c-1.3,1.6-3.1,2.9-1.5,5.5
	C282.6,47.4,282.2,47.6,279.1,48.3z"/>
<path class="st78" d="M337.1,61.3c-1.3-0.6-2-1.6-2-3c2-0.5,4.2-0.6,5-3C341.5,58.5,337.4,59,337.1,61.3z"/>
<path class="st6" d="M245.1,50.4c-11.3,0.9-22.7,0.9-34-0.1c-0.2-0.9,0.1-1.3,1-1c4.7,0,9.3,0,14,0c4.7,0,9.3,0,14,0
	C241.8,49.6,243.8,48.6,245.1,50.4z"/>
<path class="st6" d="M257.1,50.3c-2,0.1-4,0.7-6,0C253.1,48.8,255.1,48.8,257.1,50.3z"/>
<path class="st6" d="M251.2,50.3c-2,1.4-4,1.4-6.1,0C247.1,50.3,249.1,50.3,251.2,50.3z"/>
<path class="st6" d="M176.2,49.3c1,0,2,0,2.9,0c0.4,0.6,0.3,1-0.3,1.4c-1.4,0.5-2.4,1.7-4,1.8c-20.9,0.2-41.8,0.3-62.7,0
	c-0.6-0.1-1.1-0.3-1.6-0.6c-0.5-0.4-0.7-0.9-0.6-1.4c1.7-2.1,4.5-0.8,6.4-2.2c1.1-0.6,2.3-1,3.6-0.6c0.5,0.2,0.9,0.4,1.3,0.7
	c3.7,1.3,7.5,0.6,11.3,0.4c0.5-0.1,1-0.1,1.5-0.1c4.1,0.3,8.3,1,12.4-0.4c0.7-0.4,1.5-0.6,2.3-0.5c0.6,0.1,1.1,0.3,1.5,0.6
	c0.8,0.6,1.5,1.4,2.5,1.4C160.5,49.6,168.4,50.4,176.2,49.3L176.2,49.3z"/>
<path class="st77" d="M169.2,39.3c0.5,0,1,0,1.5,0c7-0.1,8.1,1.7,5.5,9c0,0,0,0,0,0C175.6,43.9,172.1,41.8,169.2,39.3L169.2,39.3z"
	/>
<path class="st6" d="M207.3,49.4c-1.5,3.7-4,0.8-6.1,0.9c-0.4-0.3-0.4-0.7,0-1c0.3,0,0.6,0,1,0c0.3,0,0.7,0,1,0
	C204.5,48.9,205.9,48,207.3,49.4z"/>
<path class="st87" d="M179.2,50.3c0-0.3,0-0.6,0-1c3.1,0,6.2,0,9.2,0.1c-0.8,1.2-2.1,0.8-3.2,1.1C183.1,50.9,181.1,51.1,179.2,50.3z
	"/>
<path class="st87" d="M201.2,49.3c0,0.3,0,0.7,0,1c0,0,0,0,0,0c-2,0.7-4,0.8-6-0.1c-0.1-0.3-0.2-0.6-0.3-0.9
	C197,49.4,199.1,49.4,201.2,49.3z"/>
<path class="st86" d="M207.3,49.4c-1.4-0.3-2.8,0.9-4.1-0.1c2.5-2.8,6.9-2.8,9,0c-0.3,0.3-0.7,0.7-1,1
	C209.7,50.5,208.4,50.2,207.3,49.4z"/>
<path class="st110" d="M169.1,39.3c0.2,0.2,0.5,0.6,0.7,0.6c6.7-0.6,6.8,3.6,6.2,8.3c-3.9-1.2-7.8,0.3-11.7,0.1
	c-6.4-0.3-6.9-0.7-5.8-7.4c2.3-0.5,0.8,2.7,3,2.7C161.3,37.6,167,41.6,169.1,39.3z"/>
<path class="st111" d="M149.1,48.4c-0.3-0.1-0.7-0.1-1-0.2c-5.1,1.3-5.1,1.3-5.6-4.1c-0.1-1.1-0.4-2.3-0.2-3.4
	c0.2-1,0.8-1.7,1.8-1.9c1.1-0.2,2.1,0.4,3.1,0.6c2.4-0.2,4.7,0.9,6.7,1.6c2.3,0.8,0.3,4.3-0.2,6.5c-0.1,0.7-1,1.2-1.6,1.8
	C150.7,50.4,150,49.3,149.1,48.4z"/>
<path class="st87" d="M149.1,48.4c1,0.3,2,0.6,3,0.9c8,0,16,0,24,0.1c-7.1,2.2-14.4,0.5-21.6,0.9C152.7,50.3,150,51.6,149.1,48.4z"
	/>
<path class="st29" d="M147.2,39.3c-0.7,1-1.4,1-2.1,0c-0.5-0.8-1.9-0.2-2.2-1.3c0.4-1.5,1.6-1.6,2.8-1.3c0.7,0.3,1.1,0.9,1.4,1.6
	c0,0,0.1,0.1,0.1,0.1C147.2,38.7,147.2,39,147.2,39.3z"/>
<path class="st55" d="M146.2,37.3c-1.1,0-2.3-0.2-3,1c-0.6,0.6-1.3,0.8-2.1,0.7c-5.7-0.8-11.3-0.7-17,0.2c-1.3-0.2-2.7-0.6-4-0.2
	c-3.3-0.2-6.5-0.5-9.8,0c-0.7,0.1-1.4,0.1-2-0.1c-1.3-0.5-2.6-1.1-3-2.6c3.2-2,6.7-0.5,10-1c3.9-1.3,8.1,0.4,12-0.9c0.7,0,1.3,0,2,0
	c5.6,2.2,11.4,0.4,17,1C146.7,36,146.8,36.7,146.2,37.3z"/>
<path class="st76" d="M137.2,32.3c3.1-0.4,1.8-4.1,4.4-5.3c-0.3,4,4.4,2.6,5.6,5.3C143.8,33.6,140.5,34.1,137.2,32.3z"/>
<path class="st29" d="M127.2,34.3c-3.9,2-8,0.5-12,0.9c0-0.3,0-0.7,0-1C119.2,34.3,123.2,34.3,127.2,34.3z"/>
<path class="st76" d="M147.2,32.3c0.9,0.8,3.3-3.4,3,1C149.1,33.3,147.9,33.5,147.2,32.3z"/>
<path class="st112" d="M146.2,37.3c0-0.7,0-1.3,0-2c1.7,0,3.4,0,5.3,0c-0.6,2.9-3.5,1.2-4.3,2.9C146.8,38,146.5,37.6,146.2,37.3z"/>
<path class="st29" d="M105.2,36.3c1,0.7,2,1.3,3,2c-4.1,2.8-8.9,0.5-13.2,1.8c-2.6,0.2-5.3,0.6-7.8-0.8c0-0.3,0-0.6-0.1-1
	c3.1-1.8,6.5-0.8,9.8-1C99.7,37.1,102.6,37.9,105.2,36.3z"/>
<path class="st29" d="M81.2,38.3c-0.3,0-0.7,0-1,0c2.3-1.6,4.7-1.6,7,0C85.2,38.3,83.2,38.3,81.2,38.3z"/>
<path class="st70" d="M87.2,39.3c2.3-1.2,4.6-0.1,6.9,0c3.7-0.9,7.4-0.2,11.1-0.2c2.8,0,3.8,2.9,3.9,5.6c0.1,2.9-1.7,3.7-4.2,3.5
	c-0.7,0-1.3,0.1-2,0.2c-0.2,0-0.5,0-0.7,0c-1.6-0.1-3.3,0.3-4.5-1.2c-0.3-0.4-0.6-0.7-1-1.1c-2,3.8-6.2-0.4-8.5,2.3
	c-0.3-3.8-2.6-6.4-5-9C84.5,39.3,85.9,39.3,87.2,39.3z"/>
<path class="st111" d="M65.2,41.3c4.4-3.3,1.3,2.6,3.2,2.5c1.3-0.5,1.4-2.1,2.2-3.1c1.8-2.3,4.3-1,5,0.3c0.8,1.5-1.2,4.7,3.1,3.2
	c0.7-0.2,0.3,3.2,0.6,5c-3.9,3.1-8,0.4-12,0.3C62.4,47.2,62,45.8,65.2,41.3z"/>
<path class="st87" d="M67.2,48.3c4,0.2,7.9,1.5,11.9,0.9c6.1,0,12.2,0.1,18.3,0.1c1.6,0,3.4,0.6,4.7-0.9c0,0,0,0,0,0
	c4.2-0.8,8.4-0.4,12.6-0.7c1.1-0.1,1.9,0.5,2.3,1.5c-2.1,2.1-4.7,0.6-7,1.1c-4.6,2.7-9.8,1.4-14.6,1.5c-11.1,0.2-22.2,0-33.3-0.1
	c-2.1,0-4.4,0.4-6.1-1.4c0-0.3,0-0.6-0.1-0.9c0,0,0.1-0.2,0.1-0.2C59.8,47.1,63.5,47.9,67.2,48.3z"/>
<path class="st113" d="M83.2,39.3c4.8,1.3,6.7,4.1,5,9c-2.3-0.3-5.2,1.2-6.4-2C80.9,43.8,80.2,41.1,83.2,39.3z"/>
<path class="st114" d="M67.2,48.3c-3.6,0.6-7.3,1.1-11,0.9c0.3-0.3,0.6-0.6,0.9-0.9c3.6-0.8,2.8-5.1,5.4-6.7
	c0.2-0.1,0.4-0.2,0.6-0.3c0.7,0,1.3,0,2,0C65,43.9,62.1,47.3,67.2,48.3z"/>
<path class="st114" d="M56.2,47.3c-2.5-2.3,0.6-4.7,0-7c2.4-0.2,4.9-1.4,7,1c0,0,0,0,0,0C60.1,42.4,57.7,44.4,56.2,47.3z"/>
<path class="st60" d="M56.2,50.3c18,0,36,0,53.9,0c0,0.3,0,0.6,0,1c-0.8,2-2.5,1.9-4.2,2c-13.3,0.7-26.6,0.7-39.8-0.4
	c-5.3-0.4-10.6,0.3-15.9-0.8c-2.1-0.4-5.7,3.4-5.4,5.5c0.3,2.5,2,2.7,4,2.1c9.7-1.7,19.5-0.8,29.3-1.3c13.6-0.6,27.1,0.6,40.7,0.2
	c18.4-0.5,36.7-0.2,55.1-0.3c1.2,0,2.3,0.1,3.2,1c1.4,2.8,4,2,6.2,2c27.6,0,55.2,0,82.8,0c0,0.3,0,0.7,0,1c-1.9,1.9-4.3,1.4-6.6,1.4
	c-14.4,0.1-28.8-0.1-43.2,0.1c-12.6,0-25.3,0.1-37.9-0.1c-2.9-0.5-5.7-1.5-8.7-0.7c-1.9,0.1-3.7-0.1-5.6,0c-2.4-0.8-4.6,0.5-7,0.3
	c-0.5,0-1-0.1-1.5-0.2c-6,0.2-12,0.2-18,0.2c-0.5-0.1-1-0.2-1.6-0.3c-4-1.1-7.9,0.5-11.9,0.7c-6.3,0.2-12.6-0.2-18.9-0.3
	c-1.5-0.2-3-0.4-4.5-0.4c-9.9-0.7-19.8,0.9-29.8,0.3c-0.5,0.1-1,0.1-1.5,0.2c-5,0.2-10.1,0.2-15-0.8c-1.4-0.3-2.9-0.8-4,0.8
	c-1,1.3-0.3,4-2.7,4.1c-2,0.1-3-1.7-3.8-3.4c-1-1-2.3-1.9-3.1-3.2c-1.7-2.8-3.8-5.7,0.7-8.3c1.9-1.1,4.2-2.6,1.3-5.3
	c-1.1-1,0.2-2.2,0.1-3.3c0.3,0,0.6,0,0.9,0c2-0.4,4.2-1.4,1.8-3.3c-4.6-3.6-3-8.6-3.6-13c-0.2-1.4,1.2-1.9,2.3-2.2
	c1.4-0.4,2.5,0.6,2.8,1.6c1.2,5.3,5.7,9.7,3.6,16C49.5,47.6,51.7,49.9,56.2,50.3z"/>
<path class="st85" d="M44.3,64.3c2.2,1.3,4.8,4.5,5.9-1c0.2-0.3,0.4-0.4,0.7-0.3c0.2,0.1,0.3,0.2,0.3,0.3c-0.7,3-1.3,6-2,9
	c-2.3-1-4.7,0.5-7,0c2.9-2.3,2.4-5.1,1-8C43.5,64.3,43.9,64.3,44.3,64.3z"/>
<path class="st63" d="M56.2,47.3c-0.1-4.8,2.3-6.8,7-6c-1.7,2.6-0.4,7.8-6.1,7C56.8,48,56.5,47.6,56.2,47.3z"/>
<path class="st51" d="M122.2,80.3c-3.2-1.5-6,0.3-9,1c-2-0.7-4-1.3-6-2c-0.7-0.6-1.1-1.5-1.8-2.1c0.4,0.9,1.1,1.5,1.8,2.1
	c-1.8,3.9-4.7,0.4-7,1c-0.1-0.2-0.2-0.4-0.3-0.6c0.2-1.5,0.5-2.9,0.7-4.4c0.2-0.4,0.4-0.8,0.6-1.2c2.4-5.3,6.9-2.7,10.2-2
	c3.7,0.8,7.1-0.4,10.7-0.2c2.5,0.2,1.5-3.1,3.8-3.8c2.2,1.8,2.6,4.5,2.9,7.3C128.3,79.4,125,79.6,122.2,80.3z"/>
<path class="st51" d="M90.2,80.3c-2.3,0-4.7,3.3-7,0c2.4-3.6,0.1-4.4-3.2-5.3c0.2,2.8,4.2,2.5,3.2,5.3c-5.3,0.3-10.7,0.6-16,1
	c0.1-2.8,2.7-1.7,4.1-2.6c1-0.7,2-1.4,1.8-2.7c-0.2-1.7-1.7-0.3-2.3-0.7c-1.9-1.3-4.8-1.2-5.8-3.9c3-2.8,5.9-3.6,9.6-0.9
	c3.2,2.5,6.7,0.8,9.7-0.7c1.6-0.8,2.9-1.3,4.5-0.4c1.7,1.3,1-2.4,2.7-1.3c2.8,1.8,5.3,4.2,8.8,4.7c1.2,0.2,2,1.2,0.9,2.5l0,0
	c-2.4,2.5-5.2,0.5-7.8,0.6c-3.1-0.5-5.4-0.3-3.4,3.8C90.1,79.9,90.1,80.1,90.2,80.3z"/>
<path class="st1" d="M65.2,71.3c2.5,0.4,4.2,4,7.5,1.7c0.8-0.5,2.3,1.1,2.1,2.2c-0.3,2-0.3,4.4-3,5c-1.5,0.3-3.3-0.5-4.6,1.1
	c-3.6,0.4-7.5-0.9-11,1c-0.3-0.3-0.6-0.7-1-1c0.3-0.3,0.6-0.7,0.9-1c2,0,4,0,6,0c0.9-1.8,2.3-3.1,4.6-3.6c-1.6-1.6-4.5-2.3-2.8-5.3
	C64.4,71.1,64.8,71,65.2,71.3z"/>
<path class="st51" d="M100.2,80.3c-3.3,3.1-6.7-1-10,0c0,0,0,0,0,0c-0.7-2.5,4.4-0.9,2.8-4C96.2,76.2,97.6,79.2,100.2,80.3
	L100.2,80.3z"/>
<path class="st93" d="M122.2,80.3c1.9-1.7,5.2-1.9,6-5c0.5-2.9,1.8-4,5.1-3.3c5.5,1.2,11.1,0.5,16.7,0.5c1,0,2.5,0.5,2.7-1.3
	c0.9-2,2.2-2.1,3.7-0.8c0.5,1.3,0.8,2.9,2.4,3.4c2.1,4.2-2.6,4.6-3.9,7c-0.9,0.5-1.8,0.6-2.8,0.5c-0.7,0-1.3,0-2,0
	c-2.7-0.7-5.3-1.3-8-2c-0.7,1.9-2.8,1.1-4,2C132.8,81,127.5,80.6,122.2,80.3z"/>
<path class="st95" d="M138.2,81.3c1.3-0.7,2.7-1.3,4-2C141.8,82,139.7,81.1,138.2,81.3z"/>
<path class="st81" d="M176.2,95.3c-0.7,0-1.3,0-2,0c-4.7,0-9.4,0.1-14-1c1.9,0,3.6-0.3,2.5-2.8c-1.1-2.3,0.2-4.2,0.5-6.2
	c0.3-0.3,0.7-0.6,1.2-0.7c2.5,1.5,5.3,1.9,8,2.5c1.8,0.4,4.1,0.6,2.6,3.8C174.3,92.2,178,93.1,176.2,95.3z"/>
<path class="st91" d="M164.1,85.3c-0.3,0-0.7,0-1,0c-0.7,0-1.3,0-2,0c-1.3,0-2.7,0-4,0c-1.1-1.3-2.5-1.9-4.2-2
	c-1.7-0.1-1.1-1.1-0.8-2c0.4-0.8,1.2-1,2-1c3.5-2,6.4-3.9,11.1-1.3c2.5,1.4,6.9-0.1,10.5,0.5c1.5,0.2,2.9,0.3,3.8,1.8
	c0.3,0.7,0.3,1.4,0,2.1c-3.4,4.5-8,2.5-12.3,2.2C166.3,85.4,165.3,84.3,164.1,85.3z"/>
<path class="st33" d="M164.1,85.3c2.2-2.1,4.6-0.4,6.9-0.5c2.8-0.1,5.6,0.1,8.1-1.5c1.2-0.9,2.2-1,3.1,0.4c-1.5,2-4.2,3.3-3.8,6.4
	c-1.2,0.3-1.6,1-1.3,2.2c0,0.7,0.1,1.3,0.1,2c0,0.3,0,0.6,0,0.9c-0.4,0-0.7,0.1-1.1,0.1c-0.1-0.7,0.1-2.2-0.5-2
	c-1.5,0.5-2.7,0.4-3.2-1c-0.8-2,2.1-1.7,2.4-3.1C171.4,87.3,166.7,89.1,164.1,85.3z"/>
<path class="st95" d="M65.2,71.3c-0.3,0-0.7,0-1,0c-0.2,0.2-0.4,0.3-0.6,0.2c-0.2-0.1-0.3-0.2-0.3-0.3c-0.7-2.8-1.9-0.4-2.8-0.1
	c-2.3,0.8-3.8-0.7-5.3-1.9C53.5,67.8,55.3,67,56,66c1.6-2.4-0.3-2.4-1.8-2.6c-0.2,0.3-0.5,0.4-0.7,0.3c-0.2-0.1-0.3-0.2-0.3-0.3
	c-0.7,0-1.3,0-2,0c-0.3,0-0.7,0-1,0c2.3-4.2,5.9-0.8,8.8-1.1c3.5-0.4,7.4-0.1,11.2,0.2c-0.2,3.1-2.8,1.2-3.8,2.2
	c1.3,0.2,3,0.8,4.6,1.3c1.3-1.2-0.7-2.5,0.2-3.6c10,0.3,20-2,30,0c-3.8,4.4-9,1-13.4,2.1c-0.7,0.2-1.6-0.4-2.3,0.3
	c0.6,2.2,5.9,1.5,3.6,5.6c-3.6-0.8-6.2,2.2-9.6,2.4c-1.6,0.1-3.4,1.1-4.6-0.3C72,68.7,68.6,70.2,65.2,71.3z"/>
<path class="st75" d="M63.2,71.2c0.3,0,0.6,0,0.9,0.1c0.1,1.8-0.2,3.8,2.8,3.3c1.1-0.2,1.9,0.6,1.6,1.8c-0.3,0.9-0.6,2.8-1.1,2.3
	c-2.7-2.1-3.3,1.9-5.2,1.5C58.6,76.8,59.5,73.9,63.2,71.2z"/>
<path class="st4" d="M53.2,63.3c0.3,0,0.7,0,1,0c0.6,1.1,0.7,2.1-0.5,2.9c-0.3,0.2-1.1,0.3-1.2,0.2C51.8,65.2,52.9,64.3,53.2,63.3z"
	/>
<path class="st84" d="M44.1,88.8c-0.4,0.5-0.8,1.1-0.9,1c-0.5-0.2-1.2-0.5-1.4-1c-0.3-0.6-0.1-1.4,0.8-1.2
	C43,87.8,43.5,88.4,44.1,88.8z"/>
<path class="st115" d="M49.2,60.3c-1,3.7-3.2,1.5-4.5,0.6c-1.6-1.1-3.4-2.9-1.5-4.9c2.6-2.8,4-5.6,9.9-5.2c16.9,1.3,33.9,2.7,50.9,1
	c2.1-0.2,4.3,1.3,6.2-0.5c0,0,0,0,0,0c0.9,0.7,1.9,0.5,2.9,0.5c20.1,0,40.2,0,60.2,0c1,0,2,0.2,2.9-0.5c1-0.3,2-0.7,3-1
	c2,0.1,4,0.1,6,0.2c-0.9,1-2.1,0.9-3.2,0.8c-3.8-0.4-5.1,1.5-4.7,5c0,0.7,0,1.3,0,2c-17.8,0.2-35.5,0.1-53.3,0.1
	c-8.6,0-17.2,0.7-25.7,0.2C88,58,77.9,59.1,67.7,58.8C61.5,58.6,55.3,59,49.2,60.3z"/>
<path class="st105" d="M49.2,60.3c1-2.6,3-1,4.6-1.2c12.5-1.8,25.2-1.6,37.7-1.5c8.9,0,17.8,0.5,26.6,0.3
	c10.7-0.3,21.5-0.2,32.3-0.3c8.9-0.1,17.9-0.7,26.8,0.7c0,0.3,0,0.7,0,1c-11.6,0-23.3-0.4-34.9,0.1c-10.5,0.5-21.1-0.2-31.6,0.3
	c-6.5,0.3-13.3-0.1-19.9-0.2C76.9,59.2,63,60,49.2,60.3z"/>
<path class="st34" d="M216.1,62.3c16.7,0,33.3,0,50,0c4,0,8,0,12,0c0,0.3,0,0.7,0,1c-1.7,1.8-4,0.6-6.6,1.3c3.3-0.8,6.2,1.1,8.6-1.3
	c3,0,7.2-0.4,7.8,2.5c1,4.6-3.1,2.4-5.4,2.4c-0.8,0-1.6-0.5-2.4-0.7c-4.4-0.9-8.7-0.7-13.1-0.2c-0.3,0-0.5,0-0.8,0
	c-2.7-0.3-5.6,0.7-8.2-0.8c0.1-3.2,2.9-1.7,4.5-2.7c-6.9,1.8-14-0.7-20.5,2c-0.8,0.1-1.6,0-2.3-0.3c-5.9-2-12-0.4-18-1
	C219.7,64.4,217,65.6,216.1,62.3z"/>
<path class="st13" d="M277.1,88.3c-3.5,1.9-7.5-1.3-11,1c-0.2-0.4-0.3-0.9-0.3-1.4c1.5-5.5,6.2-0.8,9.7-3.5
	c-13.1,0.3-25.2-1.4-37.3-0.8c-0.7-0.4-1.6-1.6-1.1-1.8c3.3-1.7-2.7-5.8,1.9-7c9.4,0.3,18.7-0.6,28.1,0.5c0.3,0,0.7,0,1,0
	c3.7-1.3,6.6-0.5,8.9,2.9c1.5,2.3,4.6,3.2,5.7,6c0,0.5-0.1,0.9-0.3,1.4C281.2,87.5,278.5,86.6,277.1,88.3z"/>
<path class="st62" d="M236.6,69.3c4.2,0,8.3,0,12.5,0c8.3,0.1,16.5,0.8,24.8,0.2c4.1-0.3,7.8,1.8,11.3,4.6c-16.2-1-32.5-2-48.7-3
	C236.6,70.5,236.6,69.9,236.6,69.3z"/>
<path class="st84" d="M267.1,75.3c-10,0-20,0-30,0c-6.6,2.9-13.4,1.2-20.1,1c-3.3-0.1-6.6-1-9.9-0.2c-4,0.9-7.9-0.3-11.9,0
	c-1,0-1.9-0.2-2.5-1.2c-0.5-2.9-2.8-5.5-1.8-8.8c2.2-1.9,4.4-2.2,6.8-0.3c0.1,0.2,0.3,0.4,0.4,0.6c-1.2,1.3-4.3,1.3-3.3,4.1
	c1,2.6,3.1,2.8,5.7,2.4c7.3-1,14.6,0.5,21.9,0.7c13.2,0.4,26.3,0.7,39.5,0.7C263.7,74.3,265.7,73.7,267.1,75.3z"/>
<path class="st84" d="M267.1,67.3c0,0.3,0,0.7,0,1c-16.6,0-33.1,0.1-49.7-0.1c-5.5,0-11-0.6-16.5-0.1c-1.5,0.1-1.8-1.3-2.8-1.8
	c0,0-0.1-0.1-0.1-0.1c0.5-2.6,2.6-1.9,4.2-2c6.4-0.1,12.8-0.2,19.1,0.9c6.6-0.3,13.1,1.5,19.8,0.6c0.6,0,1.1,0,1.7,0
	C251,65.4,259.1,66.5,267.1,67.3L267.1,67.3z"/>
<path class="st116" d="M295.1,82.3c-2.2-0.1-4.4,0.5-6.7,0.2c-3.2-0.4-4.1-2.4-3.9-4.6c0.2-2.7,2.8-1.5,4.4-1.6
	c1.1-0.1,2.2,0.6,3.3,0.9C293.4,78.8,295.4,79.9,295.1,82.3z"/>
<path class="st84" d="M282.1,85.3c-4.5-3.5-6.3-10.9-14-10c3.6-2,7.3-0.6,10.9-0.1c0.5,0.1,1.3,0.5,1.2,0.6
	c-1.1,4.6,4.2,5.9,4.9,9.5C284.1,86.2,283.1,86.2,282.1,85.3z"/>
<path class="st117" d="M218.7,69.3c4.6,0,9.1,0,13.7,0c0.9,0,2.3-0.1,2.2,1.2c-0.1,1.4-1.3,1.7-2.6,1.5c-4.4-0.5-8.8-1-13.2-1.4
	C218.7,70.2,218.7,69.8,218.7,69.3z"/>
<path class="st117" d="M286.1,90.3c-1.6,0-3.3,0.2-4.9,0c-2.7-0.4,0-1.3-0.1-2c1.3-1.5,3.5-1.6,5-3l0,0c1.9,0,4.9-2.5,5,2
	C289.8,88.9,287.3,88.4,286.1,90.3z"/>
<path class="st118" d="M295.1,82.3c-1-1.7-2-3.3-3-5c1.9,1.3,5.2,1.5,3.8,5.2c0,0.1-0.3,0.1-0.5,0.1
	C295.4,82.6,295.2,82.4,295.1,82.3z"/>
<path class="st118" d="M286.1,85.3c-0.8,2.5-2.5,3.4-5,3c0,0,0,0,0,0c-0.5-1.3,0.5-2,1-3c0,0,0,0,0,0c1,0,2,0,3,0
	C285.5,85.3,285.8,85.3,286.1,85.3z"/>
<path class="st118" d="M291.1,87.3c-0.7-3.2-3.2-1.6-5-2c1.7-1.7,3.6-1.1,5.5-0.6c0.6,0.1,1.9,0.3,1.5,1.4
	C292.9,86.6,291.8,86.9,291.1,87.3z"/>
<path class="st51" d="M280.1,63.3c-0.4,2.3-1.9,2.9-4,2.5c-1.1-0.2-2.3-0.3-3.4-0.5c-1.4-0.2-3.8,2.2-4.1-0.3
	c-0.4-2.8,2.6-1.6,4.1-1.7c1.8-0.2,3.6-0.1,5.4-0.1C278.8,63.3,279.5,63.3,280.1,63.3z"/>
<path class="st95" d="M238.1,83.3c5.2-2.8,10.6-0.4,16-0.7c6.3-0.3,12.6,1.3,18.9,0.4c1.6-0.2,4.3-0.3,4.3,2c0,2.3-2.6,1.6-4.3,2.1
	c-2.3,0.6-5.4-2.9-6.9,1.3c-0.2,0-0.5,0-0.7,0c-8.7,1.2-17.5,0.4-26.1,1.7c-8,0.6-16.1,0.1-24.2,1.4c-1.3-1-2.7-0.1-4,0
	c-1.3-1-2.7,1.5-4,0c-0.3-0.7-0.7-0.7-1,0c-4.5,1.2-9.1,0.2-13.7,0.5c-1.8,0.1-3.6-0.5-5.3,0.5c-0.3,0-0.6,0-0.9,0
	c-2.7-0.8-5.4-0.8-8.1,0c-0.3,0-0.6,0-1,0c-0.5-1.1-0.8-2.1,1-2c0.9-1,2.2-1.2,3.5-1.3c3-0.6,6.2,0.6,9.2-0.4
	c1.6-0.4,2.8-1.5,4.4-1.9c7.3,2.8,14.5,0.4,21.7-0.5c1.5-0.2,1.6-2,2.8-2.7C225.8,81.6,232,80.9,238.1,83.3z"/>
<path class="st107" d="M215.1,91.3c7.8-2.7,15.9-2,24-2c6.3-1.1,12.6-0.6,18.9-0.5c2.7,0,5.3-2.3,8-0.5c0,0,0,0,0,0c0,0.3,0,0.7,0,1
	c-14.1,2.1-28.3,2.3-42.5,1.9C220.8,91.1,218,93.3,215.1,91.3z"/>
<path class="st107" d="M187.1,92.3c6.2-2.1,12.7-0.4,19-1C199.9,93.5,193.4,91.7,187.1,92.3z"/>
<path class="st84" d="M282.1,85.3c-0.3,1-0.7,2-1,3c-1.3-1-2.7,0-4,0C278,86,280.5,86.4,282.1,85.3z"/>
<path class="st107" d="M178.1,92.3c2.7-1.4,5.4-1.5,8.1,0C183.5,92.3,180.8,92.3,178.1,92.3z"/>
<path class="st107" d="M207.2,91.2c1.3,0.4,2.7-1.7,4,0C209.8,91.8,208.5,93.2,207.2,91.2z"/>
<path class="st6" d="M195.2,50.3c2,0,4,0,6,0.1C199.2,51.7,197.2,51.8,195.2,50.3z"/>
<path class="st119" d="M117.1,49.2c-4.9-0.8-10,0.6-14.9-0.9c0.5-1.1,1.3-2.1,2.6-1.6c1.8,0.6,3.4,0.9,3.3-1.7c0-2.6-1-5.2-3.9-5
	c-3.4,0.2-6.7-0.2-10.1-0.6c4.6-2.1,9.4-0.4,14-1c0.7,0,1.3,0,2,0c3.1-0.2,6.1,0.1,9.2,0.5c0.6,0.1,1,0.3,1.4,0.7
	c1.9,2.7,2.2,5.6,0.8,8.6c-0.4,0.5-0.9,0.5-1.4,0.2C119.1,48.3,117.9,48.1,117.1,49.2z"/>
<path class="st60" d="M176.2,51.3c-1.1,1.4-2.7,1-4.2,1c-19.2,0-38.4,0-57.7,0c-1.4,0-3,0.4-4.2-1C132.2,51.3,154.2,51.3,176.2,51.3
	z"/>
<path class="st9" d="M120.1,48.3c0.3,0,0.7,0,1,0c1.9-3.2,2.1-6.3-1-9l-0.1-0.1c-0.5-0.3-0.5-0.6-0.1-1c1.1-1.2,2.1-1.3,3.2,0
	c1.1,1.2,2.8-0.1,3.9,1c0.6,0.8,0.8,1.8,0.8,2.8c-0.1,3.5,1.8,5.3,5,6c0.3,0.4,0.4,0.8,0.2,1.3l0,0c-4.3,0.8-8.6,0.8-13-0.1
	C120.2,48.9,120.2,48.6,120.1,48.3z"/>
<path class="st9" d="M143.2,40.3c0.2,1.1,0.8,2.3,0.5,3.3c-0.9,4,1.2,4.8,4.4,4.6c-0.3,0.3-0.7,0.7-1,1c-3.8,1.2-7.6,0.4-11.4,0.5
	c-0.4-0.3-0.7-1.1-0.4-1.2c4.6-1,5.1-4.8,6-8.4C141.9,39.8,142.6,39.7,143.2,40.3z"/>
<path class="st87" d="M135.1,48.3c3.9,2,8,0.6,12,0.9c-4.6,1.9-9.3,1.4-14,0.1c0-0.3,0-0.7,0-1c0.1-0.1,0.3-0.3,0.4-0.4
	c0.4-0.1,0.8-0.1,1.1,0C134.9,48.1,135,48.2,135.1,48.3z"/>
<path class="st87" d="M120.2,49.2c4.3,0,8.6,0,13,0.1C128.8,50.9,124.5,51,120.2,49.2z"/>
<path class="st77" d="M143.2,40.3c-0.7,0-1.3,0-2,0c-0.3,0-0.5,0.1-0.8,0.1c-2.5-0.2-5.5,1.3-7.3-1.8c2.7-1.6,5.4-0.9,8.1-0.3
	c0.7,0,1.3,0,2,0c0.8,0.1,1.6,0.2,2,1C144.3,39.3,143.6,39.5,143.2,40.3z"/>
<path class="st29" d="M141.2,38.3c-2.7,0.4-5.5-1-8,1c-0.3,0.3-0.7,0.4-1.1,0.4c-1.4-0.3-2.8-0.3-4.2-0.3c-0.2,0-0.4-0.1-0.6-0.1
	c-1.4-0.2-2.9,0.5-3.9-1C129.2,37.1,135.2,36.2,141.2,38.3z"/>
<path class="st29" d="M120,38.2c0,0.3,0.1,0.7,0.1,1c-3.4,0.1-6.7,0.2-10-0.9C113.5,36.9,116.7,37.4,120,38.2z"/>
<path class="st95" d="M153.2,72.3c-3.6,3.3-8,0.9-12,1.5c-3.1,0.4-6.6,0.1-9.6-0.9c-3-1-1.1,3.5-3.5,2.4c-0.8-2-1.5-4-2.3-5.9
	c0.9,7.8-5.4,3.7-7.8,4.1c-4,0.6-8.4,1.1-12.5-1.6c-1.5-0.9-2.3,2.9-4.3,3.4c-1.8-2.4-5.1-1.8-7.3-3.8c-1.1-1-2-1.9-2.7-3.2
	c-1.2-3.1-0.7-4,2.7-3.2c4,0.9,7.8,1.2,11.5-0.7c0.6,0.6,0.7-0.8,0.4-0.2c-0.1,0.1-0.2,0.1-0.5-0.1c-0.8-0.4-1.4-0.8-1.1-1.8
	c9.3-0.7,18.6,1,27.9-0.9c1.6-0.3,3.7-0.7,5.1,0.9c-0.8,1.1-1.5,2.8-2.9,2.4c-4.4-1.5-8.8,1-13.1-0.6c6.3,2.8,12.7,1.5,18.9,0.5
	c0.3,0.2-2.9-2.3-2.9-2.3c5.4-1.4,11,1.1,16.4-0.9c0.9-0.3,2,0,2.6,0.9c-1.9,2.1-4.5,1.8-6.9,2.2c-1.6,0.2-4-0.5-3.9,2.7
	c1.8-1.8,3.4-3.7,6-1.5C150,68.4,151.3,70.4,153.2,72.3z"/>
<path class="st51" d="M220.1,66.3c-7.3-0.8-14.7-1.5-22-0.1c-2.3-0.8-4.6-0.9-7,0c-3.6,0.9-7.3-0.3-10.9,0.1c-1,0.1-2,0-3-0.6
	c-0.6-0.6-0.9-1.3-0.8-2.1c0.1-0.5,0.3-1,0.7-1.3c13,0,26,0,39,0c6.9,2.2,14,0.3,21,1c1.1,0.1,3.9-1.6,3,1.9
	c-3.8,1.9-7.8,0.9-11.7,0.7C225.7,65.9,222.9,65.4,220.1,66.3z"/>
<path class="st98" d="M177.1,63.3c0,0.7,0,1.3,0,2c-0.6,3.3-3.6,1.1-5.1,2.2c-3,2.1-5.7,1.9-8.9-0.2c-2.4-1.6-5.4-1.2-7.7,1.1
	c-2.2,0.9-4.1,1.1-4.3-2.1c-3-1-5.2-0.7-4.6,3.4c-2-0.7-1.6-2.3-2.2-3.3c-1.5-2.4-0.4-3.4,2.1-3.1c3.4,0.3,6.6-0.6,9.8-1
	c0.3,0,0.6,0,1,0c2.3,2.2,4.7-1.8,7,0c1.7-0.5,3.3-0.4,5,0C171.8,62.6,174.6,61.7,177.1,63.3z"/>
<path class="st34" d="M104.2,62.3c0.9,1.8,4.4,0.2,4.2,3.3c-5.4,0.6-10.8,2.9-16.5,0.2c-1.2-0.6-1.2,1.5-0.7,2.6
	c-1.3,0.1-0.2,2.5-2,2c-0.5-3.8-5.2-3-6.7-6.3c6.1-2.8,12.8,1,18.7-1.8C102.2,62,103.2,60.7,104.2,62.3z"/>
<path class="st51" d="M71.2,62.3c0,1.6,3.6,1.6,1.5,4.3c-1.7,2.2-2.6,0.2-3.6-0.3c-2.1-1.2-6.3,0.7-6.2-1.8c0.2-2.6,4.3-0.2,6.5-1.5
	c0.3-0.2,0.5-0.4,0.7-0.6C70.5,62.3,70.8,62.3,71.2,62.3z"/>
<path class="st95" d="M177.1,63.3c-2.7-0.4-5.6,1.4-8-1c2.7-1.8,5.3-1.2,8,0C177.2,62.6,177.1,63,177.1,63.3z"/>
<path class="st95" d="M164.2,62.3c-2.3-0.5-4.7,3.7-7,0C159.5,62.9,161.8,59.8,164.2,62.3z"/>
<path class="st17" d="M100.2,80.3c-3.7,1.2-4.7-2.5-7-4c-0.2-0.3-0.2-0.7,0-1c2.7,0,5.3,0,8,0C101.9,77.2,101.5,78.8,100.2,80.3z"/>
<path class="st82" d="M107.2,79.3c-0.7-0.1-1.4,0.1-1.9-0.2c-1.2-0.7-2-1.8-1.6-3.2c0.1-0.5,1-1.1,1.4-1c1.4,0.1,1.6,1.5,1.9,2.6
	C107.2,77.9,107.1,78.6,107.2,79.3C107.2,79.3,107.2,79.3,107.2,79.3z"/>
<path class="st120" d="M83.2,80.3c-0.7-1.7-2.3-2.3-3.8-2.8c-2.1-0.6-1.6-1.6-0.6-2.8c1.2-1.3,2.7-0.9,4.1-0.4
	c1.7,0.5,3,1.5,3.2,3.3C86.2,79.5,84.8,80.2,83.2,80.3L83.2,80.3z"/>
<path class="st120" d="M93.2,75.3c0,0.3,0,0.7,0,1c1.6,3.3-2.1,2.6-3,4c-2.9-0.2-3.4-2.1-2-4C89.2,74.8,91,72.6,93.2,75.3z"/>
<path class="st80" d="M179.1,81.3c-3.5-0.4-7-0.8-10.6-1c-2.3-0.2-5.3,2.9-6.5-1.6c-1.7,1.7-4.4-0.3-6,1.7c-0.7,0.8-1.3,0.9-2,0
	c0.8-2.4,4.6-2.7,4-6c-0.3-0.8,0.1-1.2,0.8-1.5c1.1-0.3,2.2,0.1,3.2-0.3c5.9,0.2,11.9-1,17.5,1.8c2.5,1.2,3.4,3.2,3.1,5.6
	C182.5,82,181,82.6,179.1,81.3z"/>
<path class="st8" d="M162.2,74.3c-1-0.3-2-0.7-3-1c-1.1-0.5-2.6-0.5-3-2c-1.7-1.6-2.6-1.1-3,1c-4.9-2.4-5.3-3.6-2-6c1,1.6,2.1,3,4,1
	C162.4,67.8,163.5,68.9,162.2,74.3z"/>
<path class="st95" d="M156.2,71.3c1,0.7,2,1.3,3,2c-0.3,0.3-0.7,0.7-1,1C155.7,74.5,154.8,73.7,156.2,71.3z"/>
<path class="st95" d="M162.2,74.3c1.4-6-4.7-4.6-7-7c3.6-3.9,7.4-2.2,10.8,0c1.4,0.9,1.9,2,3.3,0.1c2-2.9,5.6-0.1,8-2.1c1,0,2,0,3,0
	c-2.3,6.8-0.5,8.6,7.9,7.9c1.8-0.2,3.9-1.6,5.1,1.1c0.5,0.8,1.2,0.9,2,0.9c0.7,1.9,0.3,4.2,2.5,5.5c1.2,0.8,0.6,2-0.1,3
	c-1,1.1-2.2,1.8-3.6,2.2c-2.6,0.4-5.1-0.5-7.6-0.8c-1.1-0.8-2.5-0.1-3.7-0.5c-0.2-0.1-0.3-0.3-0.5-0.4c-0.7-1.2-1.9-1-3-1
	c0-0.7,0-1.3,0-2c2.4,0.1,3.5-0.7,2.4-3.3c-0.8-1.9-9.1-5.8-10.9-5c-2.6,1.2-3.6,1.3-5.8,0C163.1,72,163.2,74.2,162.2,74.3z"/>
<path class="st29" d="M182.1,90.3c-1.3,0-2.7,0-4,0c-1.9-4.1-0.5-6.1,4-6h0C185,86.3,184.8,88.3,182.1,90.3z"/>
<path class="st51" d="M242.1,65.3c0.5-0.9,1.1-1.8,2.2-1.8c7-0.1,14,0,21.8,0c-2.8,2.6-6,0.9-8,2.9c-5.3-0.1-10.7,0.7-16,0h0
	C241.7,66,241.7,65.6,242.1,65.3z"/>
<path class="st91" d="M242.1,65.3c0,0.3,0,0.7,0,1c-7.3,2.6-14.7-0.4-22,0c4.7-2.1,9.7-0.5,14.5-1c1.8-0.2,3.6,0,5.4-0.1
	C240.8,65.3,241.5,65.3,242.1,65.3z"/>
<path class="st91" d="M242.1,66.3c5.3,0,10.7-1.8,16,0c3,0.5,6.2-1,9,1c-6.9,0-13.9,0-20.8,0C244.9,67.3,243.3,67.7,242.1,66.3z"/>
<path class="st8" d="M238.1,83.3c-6.3,0.2-12.7-0.5-19,1c-0.3,0.3-0.8,0.5-1.2,0.5c-1.7-0.4-3.7,0-4.9-1.8c0.3-0.8,0.3-1.4-0.6-1.8
	c-0.6-3.6-3.5-4.7-6.3-5.9c2-1.9,4.6-1.2,6.7-0.9c8.1,1.4,16.2,0.7,24.3,0.9c0.1,1.1,3.6,0.7,1.3,2.9c-0.2,0.2-0.1,0.6-0.1,0.9
	c0.8-0.1,2-0.6,2.5-0.3c1.7,1.2,0.4,1.8-0.7,2.3c-0.8,0.3-2.2-0.5-2.2,1.2C237.8,82.7,238,83,238.1,83.3z"/>
<path class="st121" d="M206.1,75.3c5.1-1.2,6.7,1.7,7,6c-0.3,0.5-0.9,0.4-1.3,0.6c0.4,0.2,0.9,0.1,1.3,0.3c1.2,1.9,3.8,0.1,5,2
	c-7.1,1.2-14.2,3.6-21-1c0.1-0.7,0.9-1.6-0.3-2c-3.8-1.2-2.8-3.6-1.7-6.1C198.8,73.6,202.5,75.9,206.1,75.3z"/>
<path class="st122" d="M193.1,74.3c-3.9-0.7-8,0.8-12-0.6c-1.2-0.4-3.1,0.9-3.7-1.2c-0.5-2.1-0.9-4.3,1.2-5.9c0.5-0.4,1-0.8,1.5-1.3
	c3.8-0.8,7.4-0.2,11,0.9C191.5,69,194.2,71.2,193.1,74.3z"/>
<path class="st93" d="M197.1,83.3c6.9,2.4,14,0.2,21,1c0.3,0,0.7,0,1,0c0.1,2.4,0.2,3.3-3.4,3.4c-5,0-10.2,0.7-15.2,1.4
	c-2.9,0.4-3.3-2.6-5.4-1.8c-0.6-0.5-1.1-1.1-1-2C195.1,84.6,196.1,84,197.1,83.3z"/>
<path class="st50" d="M194.2,85.3c0.8,0.4,1,1.2,1,2c-1.1,1.1-2.1,2.4-4,2c-2,0.8-4,0.2-5.6-0.7c-1.7-1-2.4-2.7-0.4-4.4
	C188.2,83.8,191.1,85.1,194.2,85.3z"/>
<path class="st13" d="M266.1,88.3c-9,1.5-18,1.1-27,1c0.8-0.5,1.8-1.7,2.4-1.5c5.8,1.5,11.5-0.8,17.3,0.1
	C261.2,88.3,263.8,85.4,266.1,88.3z"/>
<path class="st33" d="M185.1,84.3c-1.4,5.7,3.9,3.4,6,5c-2.8,2.4-6.1-0.3-9,1c1.3-2,1.3-4,0-6C183.2,84.6,184.1,83.1,185.1,84.3z"/>
<path class="st63" d="M120.2,39.3c2.3,0.4,4.4,1.4,3.3,4.2c-0.7,1.6,2.5,5.2-2.3,4.8C121.3,45.3,121.2,42.3,120.2,39.3z"/>
<path class="st48" d="M133.2,48.3c-6.3-0.1-7.4-1.7-6-9c0,0,0,0,0,0c1.3-0.8,2.7-0.5,4.1-0.2C134.1,41.7,134.6,44.8,133.2,48.3
	L133.2,48.3z"/>
<path class="st102" d="M141.2,40.3c0,0.3,0.1,0.6,0.1,1c0.7,7,0.7,7-6.1,7c0,0,0,0,0,0c-2.5-2-2.2-4.9-1-7
	C135.7,38.6,138.7,39.8,141.2,40.3L141.2,40.3z"/>
<path class="st9" d="M141.2,40.3c-7.1,0-8,1.1-6,8c-0.7,0-1.3,0-2,0c-0.7-3-1.3-6-2-9c0.2-0.3,0.5-0.4,0.7-0.3
	c0.2,0.1,0.4,0.2,0.4,0.3c0.3,0,0.6,0,1,0C135.8,39.8,138.7,38.3,141.2,40.3z"/>
<path class="st77" d="M132.2,39.3c-0.3,0-0.7,0-1,0c-1.3,0-2.7,0-4,0C128.8,37.8,130.5,37.8,132.2,39.3z"/>
<path class="st33" d="M137.2,62.3c0.5,0.7,1.3,1,2.1,1c1.4,0,3,0.2,2.7,2c-0.5,2.9-1.6-0.6-2.8,0.1c-4.5,2.5-9.5,1-14.2,1.4
	c-3.4,0.3-3.6-2.8-5.9-3.3c5,1.3,10-2.4,15,0.2C134.8,64,136.2,62.8,137.2,62.3C137.2,62.3,137.2,62.3,137.2,62.3z"/>
<path class="st123" d="M185.1,81c0.9-1.8-2.1-3.4-0.1-5.2c0.1-0.1,0.8-0.1,0.9,0.1C187.2,77.7,186.1,79.3,185.1,81z"/>
<path class="st124" d="M218.4,77.1c1.1,1.1,1.7,2.2,1.1,3.6c-0.1,0.1-0.7,0.2-0.9,0C216.8,79.8,218.2,78.5,218.4,77.1z"/>
<path class="st124" d="M213.1,82.3c-1.2,0.7-2.4,0.6-3.7,0.1c0.8-1.9,2.5-0.8,3.7-1.1C213.7,81.6,213.7,82,213.1,82.3z"/>
</svg>
