<?xml version="1.0" encoding="utf-8"?>
<!-- Generator: Adobe Illustrator 26.3.1, SVG Export Plug-In . SVG Version: 6.00 Build 0)  -->
<svg version="1.1" id="Layer_1" xmlns="http://www.w3.org/2000/svg" xmlns:xlink="http://www.w3.org/1999/xlink" x="0px" y="0px"
	 viewBox="0 0 113 351" style="enable-background:new 0 0 113 351;" xml:space="preserve">
<style type="text/css">
	.st0{fill:#A01D20;}
	.st1{fill:#831618;}
	.st2{fill:#B72025;}
	.st3{fill:#2B1010;}
	.st4{fill:#700F11;}
	.st5{fill:#1F0D0E;}
	.st6{fill:#AC1F23;}
	.st7{fill:#8B181B;}
	.st8{fill:#BE2026;}
	.st9{fill:#600A0D;}
	.st10{fill:#640E10;}
	.st11{fill:#7E1416;}
	.st12{fill:#E62628;}
	.st13{fill:#C82127;}
	.st14{fill:#581011;}
	.st15{fill:#741113;}
	.st16{fill:#80181B;}
	.st17{fill:#921A1D;}
	.st18{fill:#670F0F;}
	.st19{fill:#D52027;}
	.st20{fill:#D52427;}
	.st21{fill:#791214;}
	.st22{fill:#911A1D;}
	.st23{fill:#521415;}
	.st24{fill:#541618;}
	.st25{fill:#610C0E;}
	.st26{fill:#6C1B1D;}
	.st27{fill:#691315;}
	.st28{fill:#941B1E;}
	.st29{fill:#961B1E;}
	.st30{fill:#861719;}
	.st31{fill:#971B1E;}
	.st32{fill:#8E191C;}
	.st33{fill:#A71E22;}
	.st34{fill:#A61E22;}
	.st35{fill:#EE2A29;}
	.st36{fill:#E52526;}
	.st37{fill:#801517;}
	.st38{fill:#951B1E;}
	.st39{fill:#381313;}
	.st40{fill:#341212;}
	.st41{fill:#C22026;}
	.st42{fill:#7B1315;}
	.st43{fill:#751113;}
	.st44{fill:#6B0D0E;}
	.st45{fill:#2C1010;}
	.st46{fill:#331212;}
	.st47{fill:#2A0F10;}
	.st48{fill:#4C1313;}
	.st49{fill:#CC2027;}
	.st50{fill:#9A1C1F;}
	.st51{fill:#A11D21;}
	.st52{fill:#5C0C0E;}
	.st53{fill:#C12026;}
	.st54{fill:#4F1313;}
	.st55{fill:#AE1F24;}
	.st56{fill:#741112;}
	.st57{fill:#811517;}
	.st58{fill:#9E1C20;}
	.st59{fill:#B62025;}
	.st60{fill:#D62027;}
	.st61{fill:#C42126;}
	.st62{fill:#EE302E;}
	.st63{fill:#481213;}
	.st64{fill:#461313;}
	.st65{fill:#541112;}
	.st66{fill:#620C0F;}
	.st67{fill:#351212;}
	.st68{fill:#3B1313;}
	.st69{fill:#401313;}
	.st70{fill:#491212;}
	.st71{fill:#361212;}
	.st72{fill:#371312;}
	.st73{fill:#3A1313;}
	.st74{fill:#5F090C;}
	.st75{fill:#690F0F;}
	.st76{fill:#531112;}
	.st77{fill:#660F10;}
	.st78{fill:#C62127;}
	.st79{fill:#991C1F;}
	.st80{fill:#A91E22;}
	.st81{fill:#9D1C20;}
	.st82{fill:#8C181B;}
	.st83{fill:#7C1315;}
	.st84{fill:#DA1F27;}
	.st85{fill:#A01D21;}
	.st86{fill:#88171A;}
	.st87{fill:#931A1D;}
	.st88{fill:#6E0E10;}
	.st89{fill:#5D0A0D;}
	.st90{fill:#5E090C;}
	.st91{fill:#BF2026;}
	.st92{fill:#9F1D20;}
	.st93{fill:#A41E21;}
	.st94{fill:#3E1313;}
	.st95{fill:#B42025;}
	.st96{fill:#821518;}
	.st97{fill:#871719;}
	.st98{fill:#A81E22;}
	.st99{fill:#851618;}
	.st100{fill:#7A1315;}
	.st101{fill:#4A1313;}
	.st102{fill:#4E1313;}
	.st103{fill:#C32126;}
	.st104{fill:#E82527;}
	.st105{fill:#DB1F26;}
	.st106{fill:#E92627;}
	.st107{fill:#DE1F26;}
	.st108{fill:#650E10;}
	.st109{fill:#EE312F;}
	.st110{fill:#4B1313;}
	.st111{fill:#4D1313;}
	.st112{fill:#B52025;}
	.st113{fill:#3D1313;}
	.st114{fill:#580F10;}
	.st115{fill:#E32226;}
	.st116{fill:#EE332F;}
	.st117{fill:#EE302D;}
	.st118{fill:#EB2627;}
	.st119{fill:#590E0F;}
	.st120{fill:#91191C;}
	.st121{fill:#B22024;}
	.st122{fill:#E11F26;}
	.st123{fill:#A31E21;}
	.st124{fill:#BC2026;}
</style>
<path class="st0" d="M6.3,35.2c1-3,2.4-5.7,4.5-8.1c1.1-0.6,1.4-2.6,3.1-1.9c1.5,0.7,2,2.3,1.6,3.8c-0.6,2-0.3,3.5,1.6,4.6
	c0.6,0.3,1.3,1,1.1,1.5c-1,4.3,1.8,6.1,4.5,8.6c1.9,1.7,0.3,3.5-1.9,4.6c1,0.4,2.9,0.7,2.7,1.3c-0.8,3.7,3.2,4.1,4.1,6.6
	c1.1,2.9,1.7,6,2.5,9c0.4,1.6,1.4,2.5,2.1,3.7c0.1,0.5,0.1,0.9,0,1.4c-4.5,2.3,0.4,4.4,0.2,6.6c0.2,1.5,0.2,3.1-0.1,4.6
	c-0.3,0.8-0.6,1.6-1.2,2.1c-2.7,2.4-1.7,4.1,0.9,5.6c0.3,0.4,0.5,0.8,0.6,1.2c0.2,1.8,0.4,3.6,0.1,5.4c-0.2,0.4-0.4,0.8-0.7,1.1
	c-0.6,0.5-1.3,0.7-2.1,0.6c0.5,0.9,1.7,0.6,2.3,1.3c1.3,1.9,2,3.9,0.3,5.9c-2,1.7,1.1,1.7,1,2.8c1.6,9.8-0.2,19.7,0.9,29.6
	c0.1,1.3,0,2.6-0.8,3.8c-3.1,0.9-2.5-1.8-2.6-3.2c-0.3-2.2-0.6-4-3.5-3.4c-0.7,0-1.4,0-2.1-0.2c-0.4-0.2-0.8-0.4-1.2-0.8
	c-0.7-1.5,0.2-2.6,1.2-3.3c3.1-2,2.6-4.2,0.6-6.7c-0.4-0.1-0.8-0.3-1.2-0.5c-1-0.6-1.1-1.4-0.5-2.4c0.3-0.4,0.6-0.7,0.9-1
	c1.7-1.3,4-1.7,5.4-3.3c0.1-0.6,0-1.1-0.6-1.4c-1.6-1.1-7,1-3.6-4.3c0.7-1.1-0.7-1.6-1.6-2c-1.2-0.5-3-0.3-3.1-2
	c-0.1-1.9,1.9-2.1,3-3c0.5-0.4,1.1-0.7,2-1c-2-1-4.5-1.3-4.8-4.1c1.6-2.1,3.2-4.2,6-5.6c-2.4-1.8-4.8-2.7-7.5-2.8
	c-1.2,0-2.3-0.7-2.5-2c-0.1-1.2,0.9-2,1.8-2.1c2.9-0.4,3.7-1.8,3.6-4.7c-0.1-1.5,1.5-2.9,3.4-3.2c-0.9-1-2-0.7-3.1-0.5
	c-1,0.2-2,1.7-3,0.1c-0.6-1.1-0.1-2.4,0.6-3.3c2.9-3.4,2.7-6.2-1.3-8.7c-1.8-1.2-1.9-3.3-1.3-5.4c1.1-4.4,0.1-6.7-4.2-8.5
	c-2-0.9-3.2-1.3-2.5-4.2c0.9-3.7-1.6-1.1-2.8-0.9c-1.5-1-2.1-2.8-3.4-4C5.4,39.9,7.7,37.7,6.3,35.2z"/>
<path class="st1" d="M2.2,51.1c-0.2-2.1,0.3-4.1,1-6c3.3,1,1.4,4.3,2.6,6.2c4.7,3.9,5,9.7,6.6,14.9c0.7,2.5-1.8,2.8-3.3,3.6
	c4.4,1.5,4.5,2.4,0.8,8.6c5.7,1.7,6,2.1,3.4,5.3c1.9-0.4,3.8-1.2,5.7-0.5c1.8,1,1.5,2.1,0,2.9c-1.7,1-3.3,2.2-5.6,2.7
	c1.5,1.6,3.4,1,4.7,1.7c0.6,0.4,1.2,1.4,1,1.5c-3.8,1.8-2.2,5.5-2.6,8.3c-0.4,3.1-1.3,6.8,3,8.4c1.9,0.7,1.7,1.8,0.6,3.4
	c-1.4,2,0.2,2.1,1.7,1.9c0.5-0.1,0.9-0.2,1.4-0.3c2.1,0.3,4.7-0.9,6.1,1.7c-0.3,1.4-1.4,2-2.6,2.4c-2.3,0.8-5.2,0.2-6.8,3
	c-0.6,1.1-2.4,1-3.7,0.6c-4.2-2.1-4.2-2.1-1-5.3c-2.6,1-4.8,4.1-5.5-1.4c-0.3-2.7-0.7-6.4-2.7-9.4c-1.5-2.1,1.6-3.6,2.5-5.5
	c-2.2-2.4-4.2-4.8-6.5-7.1c-0.2-0.4-0.2-0.9,0-1.3c2.6-3.4,0.9-6.9,0.5-10.4c-0.2-1.8-0.7-3.5-0.5-5.4C2.1,67.7,2.9,59.4,2.2,51.1z"
	/>
<path class="st2" d="M32,70.1c0-0.3,0-0.7,0-1c-1.8-1.9-1.5-4.4-1.2-6.6c0.6-4.8-1.9-9-4.2-12.2c-3.9-5.6-5.9-11.5-6.4-17.9
	c-0.5-5.4-0.1-10.8,0-16.2C26.6,10,34.1,5.8,42.9,4.1c1.6-0.6,2.8-0.5,1.6,1.6c-0.6,1.1-2,1.6-3,2.4c-3.3,2.1-7,3.7-9.8,6.6
	c-4.1,4.2-5.5,9.1-3.8,14.6c1.4,4.4,2.3,8.9,3.7,13.3c-0.4,3.5,0.5,6.7,2.2,9.8c0.2,0.5,0.3,1,0.4,1.5c0.6,6.4-0.6,12.9,0.8,19.3
	c0.1,13.6,0.4,27.1,0.4,40.7c0,17.5,0,35,0,52.6c0,2.1,0.2,4.3-0.5,6.4c-0.3,0.6-0.7,1-1.3,1.4c-1.5-0.4-1.7-1.7-1.9-2.9
	c-0.1-0.6-0.1-1.2-0.1-1.8c-0.2-4.2,0-8.4,0-12.7c0-3.6,0-7.1,0-10.7c0-1.8,0-3.6,1.4-5c-0.9-11.3,0.6-22.7-1-34c-0.7-1-0.9-2,0-3
	c1.2-1.7,0-3.3,0-5c-0.8-1-0.7-2,0-3c0.9-2,0.6-4,0-6c-2.6-3-2.2-6,0-9c-0.9-1.3-0.9-2.7,0-4C31.3,74.8,30.2,72.5,32,70.1z"/>
<path class="st3" d="M15,330.1c-7.9-8.8-12.1-19.2-12.8-31c2-1.2,4.1-1,5.2-0.6C4,298.6,3,296.3,3,292.1c0.1-9.1-0.1-18.2-0.1-27.2
	c0-1.3,0-2.3,1.7-2.3c1.2,0.2,2,1,2.9,1.7c0.9,0.7,0.2,1.7,0.6,2.5c0.7-0.6,0.2-1.6,0.7-2.3c0.3-0.4,0.9-0.8,1.2-0.4
	c2.2,2.7,3.4-0.8,5.1-0.8c2.9,0.6,5.1,1.5,1.5,4.3c-0.3,0.2-0.9,0.1-0.8,0.7c0.4-0.2,1-0.5,1.4-0.4c2.1,0.6,2.5,2,1.4,3.8
	c-1.2,1.9-6.3,4.9-8.6,5.2c2.9,0.8,6,0.8,9.1,1.2c0.8,0.1,1.7,0.4,1.8,1.4c0.1,1-0.9,1.3-1.6,1.6c-3.1,1.3-6.5,1.2-10,1.4
	c1.1,1.3,2.7,0.6,3.8,1.3c1.3,3.9,0.2,5.1-5.8,7.1c-0.6,0.2,0.3,0.7-0.1,0.2c-0.1-0.1,0.1-0.2,0.4-0.3c1.6-0.4,3.2-0.8,4.9-0.8
	c1.9-0.1,4.5-0.8,4.9,1.9c0.4,2.6-2,2.9-4.1,3.3c1.3,0.9,2.6,1.9,3.4,3.4c0.8,1.4,2.6,2,3,3.7c0,0.5,0,0.9-0.2,1.4
	c-2.3,3.7-5.7,2.4-9.1,2c0.7,1.1,3.3,2.3,1,3.4c-4.9,2.4-1.9,5.7-1.3,8.7c0.3,1.2,1.1,2.4,1.9,3.5c1.4,1.8,2.3,3.9,3.8,5.6
	c0.6,0.8,1,1.6,0.9,2.6C16.2,329.9,15.9,330.5,15,330.1z"/>
<path class="st4" d="M3,92.1c0.3,1.5,4.7-0.9,2.9,3c-0.1,0.3,2.2,2.7,4.1,2.9c1.6,0.1,1.3,1,0.9,2c-5,1.4-5.5,4.8-4.7,9.4
	c0.8,4.1,1.8,7.9,4,11.3c-6.2,5.3-6.3,7.4-0.6,12.4c1.6,1.4,1.6,1.4-1.7,3.6c3.4,1.7,7.4,2.6,7.9,7.2c0.9,2.7-0.7,3.4-2.5,3.7
	c1.6,0.2,3.4-1.2,5.4-0.8c1.1,0.2,2.6,0.1,3,1.3c0.5,1.8-1.4,1.8-2.3,2.5c-0.6,0.5-0.3,1-0.1,1.5c0.1,1.4-0.5,2.5-1.6,3.2
	c-2.2-0.8-1.2,1.6-2,2.1c-0.9,0.7-1.5,1.5-1.5,2.6c-0.3,0.3-0.7,0.5-1.1,0.7c-1,0.2-2,0.2-3,0.2c-2.1,0-4.8,0.9-5.9-1.3
	c-1.2-2.3-0.5-4.9,1.4-6.9c0.9-0.9,1.7-1.6,0.2-2.5c-3.9-2.1-3-5.8-3.1-9.1c-0.1-2.4,0.6-4.9-0.5-7.3c0-0.3,0-0.7,0-1
	c0.8-2.3,0.8-4.7,0-7c0-0.7,0-1.3,0-2c0.7-2.3,1.1-4.7,0-7c0-0.7,0-1.3,0-2c0.8-4.7,0.8-9.3,0-14c0-0.7,0-1.3,0-2
	c0.8-1.7,0.8-3.3,0-5c0-0.7,0-1.3,0-2C2.4,91.8,2.7,91.8,3,92.1z"/>
<path class="st5" d="M5,263.1c-0.7,0.1-1.4,0.2-1.4,1.1c0.1,10.1,0.4,20.2,0.4,30.3c0,3.4,2.4,2.4,4.2,2.6c1.1,0.1,2.5-0.5,3.1,0.8
	c0.2,0.4-0.2,1.2-0.5,1.7c-0.8,1.2-2.1,1.1-3,0.3c-1.8-1.5-3.9,0.2-5.7-0.8c-0.1-7.8-0.3-15.6-0.3-23.4c0-33.5,0.1-67.1,0.2-100.6
	c0.4-0.3,0.9-0.3,1.3-0.1c2.2,2.5-0.3,5.8,1.2,8.1c2.7,4.1,0,9.4,3.4,13.2c-2.5,3.6,0.9,4.9,2.5,7.1c1.4,2,1.7,4.4-1.7,4.6
	c-2.8,0.2-3.2,1.4-2.9,3.9c0.4,3-0.5,5.9-0.8,8.9c-0.4,3.2,0.4,6,4.3,6.6c0.4,0.2,0.7,0.5,1,0.9c-0.5,2.9-4.1,2.2-5.2,4.3
	c-0.5,0.9-0.4,1.8,0.2,2.6c1.4,2.1,3.3,3.5,6,3.7c1.2,0.1,2.7,0.1,3.1,1.8c-1.9,4.2-6,1.8-8.9,3.2c-1.4,3,0,6,0.2,9
	c0,0.8,0.8,1.5,0.4,2.4c-1.9,4,1.1,3.1,3.1,3.2c0.5,0,0.9,0,1.4,0.1c1.7,0.6,4.1,0.3,3.9,3.2c-0.2,0.4-0.5,0.8-1,1
	c-2.3,0.9-4.9-0.2-7.3,0.7C5.8,263.6,5.4,263.4,5,263.1z"/>
<path class="st6" d="M20.2,16.2c1.8,0.1,1.3,1.2,1.4,2.4c0.1,6.4-0.4,12.7,0.6,19.1c0.4,2.4,2.5,3.7,2.5,5.6c0,5.3,4.6,7.9,6.4,12.2
	c1.9,4.5,0.1,9.2,1,13.7c-5.1-0.8-3.2-5.6-4.5-8.5c-1.3-2.7-0.7-6.3-4.8-7c-0.7-0.1-1.2-0.5-1.3-1.3c0-2.6-0.4-3.2-2.9-4
	c1.5-1,4.4-0.9,4-2.9c-0.5-2.9-3.4-3.6-6.1-4c0.3-3,3.9-6.5-2.1-8c-2.2-0.5-0.7-2.5-0.1-3.7c0.7-1.4,0.6-2.7-0.4-3.6
	c-1.2-1-1.8,1.1-3,1C13.1,22.7,16.3,19.2,20.2,16.2z"/>
<path class="st7" d="M110.7,302.1c-0.4,2.3-0.3,4.8-1.6,6.9c-2.6,1.8-2,5.2-3.7,7.5c-1.3,1.9-2,4.2-3.4,6c-1.1,1.3-2.2,3.2-4.3,1.3
	c0.4-4.4,2.8-8,4.3-12c1.2-3.1,1.8-5.9,0.2-8.9c7.5-10.1,3.9-21.7,4.2-32.7c0.5-18.8,0.2-37.6,0.2-56.4c0-1.7,0-3.3,0.7-4.9
	c0.9-1.5,1.9-1,2.9,0c0.5,0.8,0.4,1.7,0.2,2.5c-0.4,4.8-0.6,9.6,0.2,14.3c0,5.2,0,10.5,0,15.7c-0.8,4.2-0.6,8.3-0.2,12.5
	c0.2,0.6,0.2,1.1,0,1.7c-0.2,5.4-0.6,10.9,0.3,16.3C110.7,281.9,110.2,292,110.7,302.1z"/>
<path class="st8" d="M108.9,42.1c0,0.5,0.1,1,0.1,1.5c1.1,1.7-0.4,3.9,1.2,5.6l-0.1-0.2c0.8,10,0.2,19.9,0.3,29.9
	c0.1,8.7,0,17.3,0,26c0,8.5,0,17.1,0,25.6c-1,9.1-0.3,18.2-0.4,27.4c0.1,0.5,0.2,1.1,0.3,1.6c-0.4,2-0.7,4,0,6
	c0.1,2.2,0,4.4,0.1,6.7c0,0.5-0.1,1-0.5,1.4c-0.7,0.4-1.5,0.3-2.2,0c-1.8-1.4-1.1-3.4-1.1-5.1c0-2.2,0-4.4-0.1-6.6
	c0-0.6,0-1.2,0-1.8c0.1-35.8-0.2-71.6,0-107.4c0-1.8,0.1-3.7-0.3-5.5c-0.5-1.1-1.1-2.2-0.8-3.5C106.2,42,107.2,41.1,108.9,42.1z"/>
<path class="st9" d="M3,175.1c-0.3,0-0.6,0-1-0.1c0-13.6,0-27.3,0-40.9c1.9,3.1,1.1,6.5,0.8,9.7c-0.4,5,4.6,4.1,5.9,7.3
	c-0.2,2.1-4.2,2.3-3.9,6c0.2,2.3,0.3,3.3,2.8,3.1c2.1-0.2,4.3,0,6.4,0c0.1,0.2,0.2,0.4,0.3,0.6c0,0.2-0.1,0.5-0.1,0.7
	c-1,1.7-2.9,2.1-4.7,3.2c2.9-0.4,5.4-0.6,7.6,1.2c0.3,0.4,0.3,0.9,0.2,1.3c-1.6,2.1-4.1,1.9-6.3,2.5c-0.4,0.1-0.8,0.2-1.2,0.3
	c-0.5,0.2-1.3,0-1.6,0.5c-0.3,0.5,0.3,0.6,0.6,0.9c0.4,0.2,0.7,0.4,1,0.7c1.3,1.1,3,0.8,4.4,1.4c0.8,0.4,1.3,0.9,0.8,1.9
	C10.9,177.3,7,177.1,3,175.1z"/>
<path class="st10" d="M110,255.1c0-0.4,0-0.7,0-1.1c-0.7-4-0.7-7.9,0-11.9c0-5.7,0-11.4,0-17.1c-0.7-4.6-0.7-9.3,0-13.9
	c0-0.7,0-1.4,0-2.1c-0.9-1.4-1.3-3-1.3-4.7c0-9.1-0.1-18.1,0-27.2c0-1.5,0.3-2.9,1.3-4.1l0.1,0.1c0.3-0.5,0.6-0.5,0.9,0
	c0.1,18.6,0.2,37.2,0.3,55.8c0,21.3,0,42.5,0,63.8c0,3.1-0.3,6.3-0.4,9.4c-1.6-6.2-0.4-12.5-0.7-18.7c-0.2-4.1-0.1-8.3-0.1-12.4
	C109.2,265.7,109.2,260.4,110,255.1z"/>
<path class="st11" d="M69,347.9c-13.3,3.1-26,1.9-37.9-4.9c-0.3-0.2-0.4-0.5-0.4-0.7c0.1-0.3,0.1-0.4,0.2-0.4
	c1.7-1.2,3.6-0.1,5.4-0.5c1.5-0.1,2.8,0.5,4,1.1c1.5,0.8,3.1,1.4,4.7,1.8c7,1.4,14,0.5,21,0.2c1.1,0,2.3-0.4,3.4,0.1
	C71.2,345.9,69.9,346.8,69,347.9z"/>
<path class="st12" d="M68,3.4c1.8,0.3,3.6,0.4,5.1,1.5c3.2,2,7.1,2.5,10.2,4.7c1.1,0.8,3.2,1.3,0.9,3.1c-4.4,0.3-7.9-2.7-11.9-3.6
	c-1.6-0.7-3.4-0.7-5.1-1c-0.5-0.1-1-0.2-1.5-0.4C60.4,7.3,55.2,7.6,50,7.5c-1.5-0.3-3.9,0.2-3.7-2.1c0.1-1.7,2.3-1.9,4-2.2
	c3.9-0.7,7.9-0.3,11.8-0.8c1.1-0.1,2.2-0.1,3.1,0.7C65.9,4.5,67,3.4,68,3.4z"/>
<path class="st13" d="M108.9,42.1c-0.9,0.3-1.8,0.7-2.7,1c-0.4-0.2-0.8-0.5-1-0.9c-1.5-3.8-2.7-7.8-5-11.2c-1.4-3-3.7-5.5-5.7-8.1
	c-1.3-1.8-3.6-2.9-3.8-5.4c0.4-1,1-1.5,2.1-1.2C101,23.1,106.4,31.7,108.9,42.1z"/>
<path class="st14" d="M98.2,324.2c3.1-1,4.4-3.6,5.1-6.4c0.3-1.2,0.7-1.6,1.7-1.8c0.9,1.1,0.5,2.3,0.1,3.4c-4.1,9-10.4,16.1-19,21.1
	c-1-3.8,3.1-4.8,4.1-7.5c1.5-2,3.5-3.5,4.8-5.6C95.9,326.2,96.3,324.4,98.2,324.2z"/>
<path class="st15" d="M110.9,173.1c-0.3,0-0.6,0-0.9,0c0-2.7-0.1-5.4-0.1-8.1c-0.6-1.6-0.6-3.3,0-4.9c0-0.4,0-0.7,0-1.1
	c-0.7-9.3-0.7-18.6,0-27.9c0.1-8.7,0.1-17.4,0.2-26c0.3-0.5,0.5-0.5,0.8,0C110.9,127.8,110.9,150.4,110.9,173.1z"/>
<path class="st16" d="M110.9,105.1c-0.3,0-0.6,0-0.8,0c0-18.7,0-37.4,0-56.2c1.2,1.2,0.8,2.9,0.8,4.3
	C111,70.5,110.9,87.8,110.9,105.1z"/>
<path class="st17" d="M69,347.9c0.3-0.9,0.6-1.9,1-2.8c0.2-1,1-1.6,1.8-2.1c2.4-1,5-1.7,7.2-3.2c1.3-0.6,2.7-1.2,4.2-1.2
	c1.8,0,2.8,0.8,1.9,2.8C80.2,344.6,74.9,346.8,69,347.9z"/>
<path class="st18" d="M3,92.1c-0.3,0-0.6,0-1,0c-0.3-13.7-0.5-27.3,0.1-41c1.7,2.9,0.5,6.1,0.8,9.2c0.5,4.1-1.2,8.5,1.6,12.5
	c1.2,1.7-1.1,2.9-1.6,4.3C3.7,82.1,5.3,87.1,3,92.1L3,92.1z"/>
<path class="st19" d="M62,2.4c-4.9,1.6-10.4,0.2-15.2,3c1,1.2,2.2,0.6,3.3,0.8c0.3,1.3-0.7,1.6-1.6,2c-2.1,0.2-4,1.4-6.1,1.3
	C41.3,9,41,8.1,41,7.1c0.9-0.6,1.9-1.1,2.7-1.9c1.4-1.3-0.4-0.8-0.7-1.2C49.1,1.8,55.5,1.8,62,2.4z"/>
<path class="st20" d="M92.8,16.2c-0.6,0.3-1.2,0.7-1.8,1c-2.4,0.8-3.8-1.1-5.4-2.2c-0.8-0.8-2-1.3-1.7-2.7c-0.4-3.6-4-2.9-5.9-4.4
	c-1.5-1.2-3.9-0.8-5-2.8C80.7,6.8,87.2,10.6,92.8,16.2z"/>
<path class="st21" d="M85.1,341.3c-1.9-4.2-4-0.2-6-0.2c-0.9-0.7-2.6,0.1-3.1-1.4c4.7-2.9,9.3-6.1,15.1-6.6
	c-0.1,3.5-4.4,4.3-4.9,7.5C85.8,340.8,85.4,341,85.1,341.3z"/>
<path class="st22" d="M5,52.1c-2.2-1.9,0.1-5-1.8-7c0.4-3.5,1.5-6.8,3.2-10c3.3,2.5,1.1,4.7-0.3,7c0.5,0.5,0.7,1.2,0.7,1.9
	c-0.3,1.6-0.5,3.2-0.5,4.8c0,1-0.2,1.9-0.7,2.7C5.4,51.8,5.2,52,5,52.1z"/>
<path class="st23" d="M105.1,319.4c0-1.1-0.1-2.3-0.1-3.4c1.7-2.2,0.4-6.1,4.2-7C108.3,312.7,107.4,316.3,105.1,319.4z"/>
<path class="st24" d="M15,330.1c0.4-0.3,0.7-0.7,1.1-1c0.4-0.3,0.8-0.4,1.2-0.2c0.6,0.3,1.1,0.8,1.5,1.3c1.2,2,3,3.3,4.3,5.2
	c0.2,0.4,0.3,0.9,0.2,1.3c-0.3,0.4-0.7,0.5-1.2,0.4C19.2,335.3,16.8,332.9,15,330.1z"/>
<path class="st25" d="M2.1,101.1c1.6,4.7,1.6,9.3,0,14C2.1,110.5,2.1,105.8,2.1,101.1z"/>
<path class="st26" d="M31.1,342c0,0.3,0,0.7,0,1c-2.4-0.7-4.6-2-6.3-3.8c0.3-0.4,0.7-0.7,1.2-0.8C28.5,338.4,30.6,339.1,31.1,342z"
	/>
<path class="st25" d="M2.1,117.1c2.6,2.3,1.1,4.7,0,7C2.1,121.8,2.1,119.4,2.1,117.1z"/>
<path class="st9" d="M2.1,126.1c1.5,2.3,1.5,4.7,0,7C2.1,130.8,2.1,128.4,2.1,126.1z"/>
<path class="st27" d="M26.2,339c-0.5,0.1-0.9,0.1-1.4,0.2c-1.2-0.3-2.1-1.1-2.7-2.1c0.3-0.3,0.6-0.6,0.9-0.9
	c1.7-0.9,2.4,0.5,3.3,1.5C26.4,338.1,26.4,338.6,26.2,339z"/>
<path class="st28" d="M110.2,49.1c-2.1-1.5-0.9-3.7-1.2-5.6C110.3,45.2,110.4,47.2,110.2,49.1z"/>
<path class="st19" d="M68,3.4c-1.1,1-2.5,0.8-3.8,0.6c-0.1,0-0.2-0.6-0.1-0.6c0.3-0.2,0.6-0.2,0.9-0.3C66.1,3.2,67,3.3,68,3.4z"/>
<path class="st25" d="M2.1,94.1c1.4,1.7,1.4,3.3,0,5C2.1,97.5,2.1,95.8,2.1,94.1z"/>
<path class="st29" d="M18,91.1c-2.9,1.1-5.2-0.5-7.9-1.9c2.9-2.4,7.3-1.4,8.9-5.1c-1.6-1.1-0.8-4-3.5-4.4c-0.9-0.1-1.2-1.5-0.7-2.6
	c2.2-5.1-0.3-9.6-1.8-14.3c-0.9-2.6-2.8-4.9-1.4-8.3c0.6-1.5-2-4.2-3-6.4c-0.1-0.7,0-1.4,0.6-2c0.6-1.1,1.3-2.2,2.5-4.1
	c0.1,3.1,5.4,4.2-0.7,8.4c7.1-2,7.5,4.2,11.2,5.8c0.2,0.1-1.6,2.6-2.1,4.3c-0.9,3.2,0,4.8,2.9,4.8c2.7,0-1.4,2.8,2,3.3
	c4.2,0.6,0,2.3-0.6,3.4c-0.9,1.7-2.5,3.1-3,5.6c1.8-0.6,3-3,5-1.7c1,0.7,3,1.4,2.9,2c-0.1,1.6-1.5,1.9-2.8,0.8
	c-0.8,1-1.8,1.9-2.3,3.1c-1,2.3,2.6,0.5,2.1,2.7c-1.4,2.9-5.6,0.5-7.6,3.6c3,1.2,6.3,1,9.1,2.6c2,1.1,1.7,3.2,1.2,3.2
	c-3.3,0-3.5,4.6-6.8,4.2c-0.1-0.2-0.3-0.4-0.4-0.5c-0.7-2.1-3.9-4.7,1.1-5.7C21,92.2,19.4,92.2,18,91.1z"/>
<path class="st30" d="M18,150.1c1-0.5,2-0.9,3.3-1.5c-3.2-1.3-6.3,0.5-9.8-0.7c1.6-1.3,5.3-0.4,3.6-3.8c-0.3-2.8,3-2.1,3.5-3.7
	c-0.1-3.8-6.7-1.4-5.5-5.6c0.9-3.3-1-8,3.8-9.8c1.5,2.6,5.2,3.8,4.8,7.6c0,0.3,1.1,0.3,1.8,0.4c0.2,0,0.4,0.1,0.6,0.1
	c0.3,0,0.7,0,1,0c1.4,1.2,1.7,2.6,0.8,4.2c4.9,1,5.1,2.5,0.9,7.3c1.7,1.2,5.6,1.8,5.1,2.5c-1.8,2.2,1.6,5.1-1.3,6.7
	c-1.7,1.1-3.4,0.7-5-0.2C23.4,151.5,19.4,153.5,18,150.1z"/>
<path class="st31" d="M30,153.1c0.3-0.4,0.7-0.7,0.9-1.2c0.3-0.6-0.1-0.8-0.6-0.8c-1.3-0.2-2.7,0.5-3.8-0.8c0.8-2.3,3.5-0.3,4.6-2.2
	c-1.6-2.3-3.9-1.9-7-1.2c1.8-2.8,1.5-6,5.5-6.3c-1.5-1.9-3.1-2.3-4.7-2.7c-0.1,0-0.2-0.3-0.2-0.4c0-0.1,0.2-0.3,0.3-0.4
	c1.9-0.7,1.3-2.7,2-4c4.2-1.9,5.5-0.2,5,4c-0.2,1.4-0.4,2.9,0.9,4c0,5.3,0,10.7,0,16c-0.2,0.1-0.3,0.3-0.5,0.4
	c-0.4-0.1-0.8-0.3-1.1-0.7C30.9,155.6,28.6,155,30,153.1z"/>
<path class="st29" d="M22,98.1c2,2.8,5.4,2.7,8.3,4.2c-3.1,0.5-5.4,2.4-8.9,4.5c4-0.6,6.6,0.4,7.3,3.5c0.6,2.4-2.9,0-2.9,2.4
	c1.7,1.5,4.6-0.7,6.2,1.5c-3.2,1.9-6.8-0.7-10,1l0,0c-0.5,0.3-1.2,0.1-1.2-0.3c-0.3-2.6,2-6.2-2.9-6.8c-0.3,0-0.5-1-0.3-1.4
	c1.8-2.4,1.8-5.1,2-7.9C19.8,97.7,21,97.3,22,98.1L22,98.1z"/>
<path class="st31" d="M26,122.1c2.9,0.6,3.2,0.8,2.3,2.8c-0.9,1.9,5.6,2,0.8,3.9c-2.3,0.9-3.9,2.3-5.1,4.3c0,0,0,0,0,0
	c-0.5-3.1-4-4.7-4.2-7.9C21.5,123.3,24.6,124.5,26,122.1z"/>
<path class="st32" d="M26,122.1c-0.2,4.6-3.8,2.3-6,3c-0.1-0.1-0.3-0.3-0.4-0.4c-1.2-1.2-4.2-0.1-4-3.1c0.1-0.2,0.3-0.4,0.4-0.5
	c1.4-0.6,4.8,1.2,3.5-2.9c-0.3-0.9,1.1-1.2,1.8-0.8c1.7,1,3.2-0.2,4.7-0.3c1.2,1.5,0,2.2-1,3c-0.4,0.8-2.2,0.4-1.7,1.8
	c0.2,0.5,1.1,0.7,1.7,0.2C25.3,122.1,25.7,122.1,26,122.1z"/>
<path class="st33" d="M32,81.1c-0.5,3-0.5,6,0,9c-1.6-1.4-3.7-1.9-6.4-2.9C28.8,85.6,29.7,82.7,32,81.1z"/>
<path class="st33" d="M32,70.1c0,2.3,0,4.7,0,7c-2.1-0.3-0.8-4.6-4.1-3.4c-0.1-0.4-0.5-1-0.4-1.2C28.4,70.7,30,69.9,32,70.1z"/>
<path class="st31" d="M25,120.1c0.3-1,0.7-2,1-3c1-0.3,2-0.7,3-1c1-0.9,2-0.8,3,0C30.3,118.6,27.7,119.3,25,120.1z"/>
<path class="st32" d="M32,116.1c-1,0-2,0-3,0c-2.1-1.9-4.7-0.6-7-1c3.2-2,6.7-0.5,10-1C32,114.8,32,115.4,32,116.1z"/>
<path class="st34" d="M32,96.1c0,1,0,2,0,3c-0.6-0.1-1.3-0.2-1.9-0.4c-1-0.4-3.2,1.2-2.8-1.4c0.2-1.7,1.7-0.9,2.8-0.8
	C30.7,96.6,31.4,96.3,32,96.1z"/>
<path class="st31" d="M25,122.1c-1.6,1.9-2.8,0.4-4.3-0.2c1.2-1.8,2.8-1.8,4.3-1.8C24.9,120.8,23.9,121.5,25,122.1z"/>
<path class="st32" d="M27,133.1c1.3,2.3,0.8,3.7-2,4c1-1.3,0-2.7,0-4C25.7,133.1,26.3,133.1,27,133.1z"/>
<path class="st8" d="M9.1,46.1c0,0.7,0,1.3,0,2c-0.2,0.1-0.4,0.2-0.6,0.3c-0.4-0.1-0.8-0.4-1-0.7c-0.6-1.2-0.9-2.4-1.4-3.6
	c0-0.6,0-1.3,0.1-1.9C8.7,42.2,9.1,44,9.1,46.1z"/>
<path class="st34" d="M32,90.1c1.5,2,1.5,4,0,6C32.1,94.1,31.2,92.1,32,90.1z"/>
<path class="st34" d="M32,104.1c0,1,0,2,0,3c-1-0.6-2.4-1.1-2.1-2.6C29.9,104.3,31.3,104.3,32,104.1z"/>
<path class="st32" d="M9,48.1c1.5,1.9,2.8,3.9,4.4,5.7c1.6,1.7-2.8,0.3-1.3,3.6c2.4,5.3,6.3,11.2,4.5,17.6c-1.2,4.2-0.5,5.4,3.8,4.9
	c-0.3,1.7-3.1,2.3-1.4,4.3c-3.1-0.5-6.2,2.3-9.7,0.2c1.2-2,3.8-0.7,4.8-2.8c-1.7-1.8-4.2-1.6-6.5-1.9c4.8-7.9,4.8-7.9-0.2-9.5
	c0.6-2.1,4.5-1.8,3.9-2.9c-1.3-2.8-0.7-5.9-2.3-8.5c-1.3-2.2-2-4.9-4.1-6.6c0,0,0,0,0,0C6.3,50.7,7.6,49.4,9,48.1L9,48.1z"/>
<path class="st32" d="M22,98.1c-1.4,0.1-2.5,1.1-1.7,2.2c1.8,2.5,1.4,3.9-1.2,5.5c-1.4,0.8-0.8,2.3,0.8,2.2c5.2-0.3,3.5,2.1,1.9,4.5
	c-0.6,0.9-0.9,1.8,0.2,2.6c-2.1,2.1-3.5,0.4-4.3-1.1c-1.3-2.4,1.3-2.4,3.6-3.9c-8.2,1.5-4.1-6.2-7.7-8.2c-0.5-0.2,1-1.4,1.8-2
	c1.3-0.8,1.7-1.8,0-2.5c-5.3-2.5-1-2.9,0.8-3.9c1-0.5,2.9-0.3,1.8-2.4c2.4,0,4.7,0,7.1,0c0,0.2,0.1,0.4,0.1,0.6
	c-1.4,0.6-2.9,1.1-4.4,1.7C20.6,95.2,23.7,96.1,22,98.1z"/>
<path class="st21" d="M10,121.1c-0.1-0.5-0.2-1.4-0.3-1.4c-4-0.4-4.4-3.3-4.4-6.5c-0.1-3.6-0.8-7.3-0.3-10.8c0.5-3.3,4.3-0.8,6-2.4
	c-0.5,0.7-1,1.3-1.5,2c-0.7,1-2.6,1.7-2,3.1c0.8,1.9,2.7-0.3,4.3,0.7c-2.5,2.4-6.2,4.6,0,7c2.1,0.8-1.9,2.2-1.1,4.2
	c2.2,0.2,3.9-2.9,7-0.9c-2.8,1-6.3,2.1-1.7,4.8l0,0c-1.4,1.2-3,1.4-4.7,0.9C10.8,121.9,10.4,121.6,10,121.1z"/>
<path class="st4" d="M3,92.1c0-5,0-10,0-15C3.8,82.1,8.8,87.1,3,92.1z"/>
<path class="st35" d="M41,7.1c0.8,0.4,1,1.2,1,2c-0.1,0.8-0.6,1.4-1.2,1.9c-2.1,1.3-4.2,2.6-5.9,4.5c-3.3,3.7-4.6,7.6-2.2,12.3
	c1.9,3.8,2.2,8,3,12c0.3,1.3,0.4,2.7-1.1,3.5c-2.7-0.4-2.2-2.7-2.7-4.4c-0.1,1.4,0.7,2.7,0.4,4.2c-0.4,0.3-0.8,0.3-1.2,0
	c-2.1-5.5-4.1-11-4.9-16.8c-1.1-7.8,3.7-12.6,9.6-16.5C37.4,8.8,39.2,8,41,7.1z"/>
<path class="st35" d="M34,113.1c0-13.3,0-26.6,0-40c-1-5.2-0.2-10.5-0.5-15.7c-0.1-1.8,0.5-3.6-0.5-5.3l0,0
	c-0.7-2.7-1.6-5.3-1.1-8.2c0.8-0.5,1.6-0.4,2.4,0.1c2,2.5,2,5.4,2,8.3c0.2,5-0.5,9.9,0.5,14.9c0.6,13.2,0.4,26.5,0.4,39.7
	c0,2.1,0.3,4.3-0.6,6.4C35.7,115,34.8,114.2,34,113.1z"/>
<path class="st36" d="M34,113.1c0.7,0.3,1.3,0.7,2,1c1.4,1.2,1.4,2.9,1.4,4.6c0,17.2,0.1,34.4,0,51.6c0,0.8-0.1,1.6-0.4,2.4
	c-0.4,0.9-1,1.7-2.1,1.7c-0.3-0.1-0.6-0.3-0.9-0.4C34,153.8,34,133.4,34,113.1z"/>
<path class="st37" d="M33,170.1c0,0.3,0,0.6,0,1c-0.8,1.6-2.1,2.1-3.8,1.7c-1.5-0.6-3-1.3-4.7-1.6c-1-0.1-2.5-0.4-2.6-1.2
	c-0.2-3.6-2.3-6.5-3.7-9.6c0.3-0.4,0.6-0.7,1.1-0.9c2.4-0.9,5.2-0.1,7.3-2.1c1.3-0.8,2.6-1.4,4.2-1.1c0.5,0.2,0.9,0.5,1.3,0.8l0,0
	c-0.1,3-2.1,5.6-1.2,9C31.2,167.8,31.7,169,33,170.1z"/>
<path class="st38" d="M33,170.1c-2.5,0-4.9,0-3.2-3.7c0.1-0.3,0.3-0.7,0.2-0.9c-2-3.5-0.2-6,2.1-8.4c0.3,0,0.7,0,1,0
	C33,161.4,33,165.8,33,170.1z"/>
<path class="st36" d="M33,52.1c2.2,4.9,0.5,10.1,1,15.1c0.2,2,0,4,0,6C31.9,66.2,33.5,59.1,33,52.1z"/>
<path class="st36" d="M32,44.1c1.5,2.5,0.9,5.3,1,8c-2.7-2.5-3.6-5.5-2-9c0.3,0,0.7,0,1,0c0.3,0.2,0.3,0.4,0.3,0.7
	C32.2,44,32.1,44.1,32,44.1z"/>
<path class="st29" d="M33.1,174.1c0.3,0,0.6,0,1,0c0,0,0,0,0,0c2.5,5.2,2.1,8.8-1.3,11.4c-2.3-3.5-1-7.2-0.3-10.8
	C32.6,174.5,32.8,174.3,33.1,174.1z"/>
<path class="st38" d="M29,172.1c1.4,0.1,2.7-0.3,4-1c0,1,0.1,2,0.1,3c0,0-0.1,0.1-0.1,0.1c-0.8,0.7-1.8,0.8-2.9,0.6
	C29.4,174,26.9,174,29,172.1z"/>
<path class="st39" d="M10,259.1c-0.3,0-0.7,0-1,0c-0.1-3.8,3.7-3.7,5.5-5.5c-1.3-1.6-6.8-2-1.5-5.5c0.7-0.4-1.3-1.1-1.3-2.1
	c2.4-1.4,2.6-4.1,3.9-6.2c2.3,0.6,4.6-0.2,6.9,0.1c1.3,0.2,3,0,3.3,1.6c0.3,1.8-1.5,1.8-2.7,2.2c-0.6,0.2-1.2,0.6-1,0.6
	c2.4-1.7,5.2,0.8,8.1,1.5c1.3,0.3,0.6,1.6-0.2,2.3c-1.5,1.5-3.3,2.2-5.6,1.9c1.8,0.6,4.5,0.2,4.3,2.7c-0.1,1.9-2.6,2.2-4.1,1.8
	c-3.5-1.1-4.9,3.2-7.3,2.8c3.1-0.6,6.4-0.5,9.6,2.6c3.8,3.6,1.6,6.9,1,10.5c-0.4,2.6-0.5,5.5-4.1,5.9c-2.6,0.2-5.2,0.1-7.7,0.9
	c1.7-0.2,3.5-0.5,5.2-0.1c2.4,0.5,4.4,1.5,4,4.5c-0.2,1.8,1,2.2,2.3,2.6c1.4,0.9,5.1,0.3,4.3,1.7c-1.4,2.8,2.3,6.3-1.5,8.3
	c-1.2,0.6-1.8,1.8-2.4,2.9c-2.3,1.2-5.3,1.7-5.9,4.9c-0.2,0.4-0.5,0.8-0.9,1.1c-1.1,0.5-1.7-0.1-2.3-1c-0.7-1.4-3.2-0.9-3.1-3.1
	c2.6-2.6,2.4-8,8.2-8c-4.7-1.2-6.6-6.2-11.2-7c-2.6,1.4-4.6,0.1-7.2-1.6c4.8-2.6,10.1,0,14.5-3.3c-4.9,0-9.4-0.2-14.2-2.2
	c2.9-1.7,5.7-1.6,8.4-1.7c0.3-1.1-4.2-2.4,0.2-3.1c1.4-0.2,4.1,0.6,3.5-2.1c-0.8-3.4-2.9,1.4-4.4-0.6c-0.4-1.3,0.8-1.9,1.9-2.7
	c0.6-0.4,2.4,0.3,1.8-1.4c-0.3-1-1.5-1.2-2.5-1.3c-0.6-0.7-0.6-1.4-0.2-2.2c1.9-1.7,4.1-2,5.8-1.7C17.5,260.2,13.7,260.2,10,259.1z"
	/>
<path class="st40" d="M13,284.1c1.8-0.7,2.9-1.5,4.8,0.9c2.2,2.8,5.4,5.2,9.2,6.8c-1.3,0.1-2.6,0.2-4,0.3c-1.4,0.1-3.4,1.2-3.1,1.8
	c2.4,4.8-2.7,3.4-4,5.1c-1.2-2.6-4.1-2.9-6.4-4c0.4-0.5,0.6-0.9,0.8-0.9c2.2-0.3,6.1,0.3,5.9-2.1c-0.3-3.1-3.7-0.6-5.7-0.8
	c-1.6-0.2-3.2,0.5-4.7-0.7C8.6,288.7,13.4,289.2,13,284.1z"/>
<path class="st41" d="M17,329.2c-0.3,0-0.6-0.1-0.9-0.1c-0.4-0.7-0.7-1.3-1.1-2c-1.8-2.8-2.9-5.9-3.2-9.3c-0.2-2.1-0.4-4.2,1.8-5.2
	c2-0.9,3.4,0.5,4.8,1.8c0.4,0.3,0.7,0.7,1.1,1c2,2.1,2.8,4.7,3.5,7.3c0.3,4.6,2.3,8.6,5.4,12c0.2,0.5,0.3,0.9,0.2,1.4
	c-0.1,0.5-0.4,0.9-0.7,1.2c-5.5-1.9-7.4-6.6-8.9-11.5c-0.6-2-0.1-4.3-2-6.1C15.3,323,19.5,326.1,17,329.2z"/>
<path class="st39" d="M11.1,322c-2.7-2.7-2.9-6.5-4-9.9c-1.2-3.6,3.3-2.4,4-4.6c-0.9-1-2.8-0.6-3.5-2.5c3.4-2.8,8.3,2.2,11.4-2
	c1.1,1.5,0.7,3.1,0.4,4.6c-0.7,1.2-1.8,1.4-3,1.5c-4.4,1-5.8,3.2-4.8,7.8C11.9,318.8,12.9,320.5,11.1,322z"/>
<path class="st18" d="M11.1,322c1.4-2.9-0.9-5.5-0.8-8.5c0.2-4.6,2.3-5.2,5.7-5.4c1.9,2.4,3.5,5,2.9,8.3c-0.5-0.3-1.2-0.5-1.6-1
	c-0.9-1.1-1.7-2.8-3.4-1.9c-1.8,0.9-1.3,2.7-0.9,4.3c0.7,3.1,1.3,6.2,2,9.4C12.7,326.1,12.8,323.4,11.1,322z"/>
<path class="st40" d="M15,262.1c0,0.7,0,1.3,0,2c-1.4,0.6-2.1,4.2-4.5,1.2c-0.2-0.2-0.7-0.5-0.8-0.4c-0.8,0.5-0.1,1.1-0.1,1.7
	c0.2,2.1-1.1,2.8-2.7,2.3c-1.7-0.6-2.4-1.5-0.2-3c1-0.6-1.6-1.5-1.7-2.7c0.3,0,0.7,0,1,0c2.2-1.4,4.8,0.4,7-1c0.3,0,0.7,0,1,0
	C14.3,261.7,14.7,261.7,15,262.1z"/>
<path class="st5" d="M10.5,272.7c-0.6,1.4-1.9,1.7-3.1,2.1c-0.9,0.3-1.8-0.3-1.6-1.3c0.3-1.5,1.4-2,3-1.9
	C9.5,271.7,10.3,271.5,10.5,272.7z"/>
<path class="st18" d="M19,307.1c-1-1.3,0-2.7,0-4c0-0.3,0-0.6,0-0.9c0.6,0.3,1.3,0.6,1.9,0.9c0.8,1.5,0.2,2.8-0.7,4.1
	C19.9,307.4,19.4,307.4,19,307.1z"/>
<path class="st42" d="M10,121.1c0.3,0,0.7,0,1,0c0.2,4.5,4.8,1.1,6.2,3.4c-0.1,0.2-0.1,0.4-0.2,0.6c-3.4,3.1-2.1,7.6-3.5,11.3
	c2.2,0.9,2.5-2.1,4.3-1.7c0.9,3.7,3.1,7.8-2.8,9.4c-0.8-4.9-5.9-4.6-8.7-7.1c0.8-1.4,2.4-1.5,4.4-2.4c-5.6-0.6-6.3-4.7-6.4-8.2
	C4.3,123.6,6.8,121.5,10,121.1z"/>
<path class="st43" d="M27,158.1c-2,3.4-5.3,1.5-8,2c-1.8,0.2-3.6,0.5-5-1c-1.2-1.4,0.4-1.5,1-2c2.7,0.1,5.3-0.4,8-0.7
	C24.6,156.3,26.1,156.6,27,158.1z"/>
<path class="st37" d="M18,150.1c2.1,2.4,6.4-0.8,8,3c-0.1,0.2-0.2,0.5-0.3,0.7c-1.5,1.5-3.1,1.6-4.8,0.5c-0.5-1.4,0.7-1.5,1.6-1.8
	c0.5-0.1-0.5-0.8-0.1-0.3c-1.2,0.8-2.3,1-3.5-0.1c-0.9-0.1-2.1,0.3-2.4-0.8C16.2,150.2,17.3,150.3,18,150.1z"/>
<path class="st37" d="M23,157.1c-2.7,1.5-5.3,1.5-8,0c0.9-0.4,0.2-2.5,2-2c0.7,0.7,1.7,0.1,2.5,0.4C20.7,155.9,22.1,156,23,157.1z"
	/>
<path class="st43" d="M19,156.1c-0.8,0-1.6-0.2-2-1c0.7-1,1.3-2,2-3c1.2,0,2.5,0,3.7,0c0.3,1.5-1.6,0.9-1.7,2
	C20.8,155.2,20.1,155.9,19,156.1z"/>
<path class="st44" d="M14,159.1c1.7,0.2,3.6-0.7,5,1c0,0,0,0,0,0c-1.6,0.9-2.9,2.8-5,1c0-0.3,0-0.7,0-1C14,159.8,14,159.4,14,159.1z
	"/>
<path class="st45" d="M3,175.1c4-0.5,8.2,1.1,12-1c0.4-0.3,0.8-0.4,1.3-0.4c1.1,0.2,2.3,0.5,3.2,1.2c1.4,1.8,0.5,2.7-1.3,3.1
	c-1.4,0.3-3,0.1-4.7,1c3.4-0.9,5.6,0.5,7.1,3.1c1.3,2.4,1.8,4.4-2.1,4.8c-3.2,0.3-3.8,3.6-5.2,5.8c-0.8,1.3,0.8,1.9,1.9,2.3
	c1.4,0.5,3.7,1.4,3.1,2.7c-1.4,3.3-1.1,6.7-1.8,10c-0.5,2.8-1.2,5.5-3.8,7.8c-1.5,1.4,1.6,2.9,3.3,3.8c1.8,0.9,4.8,1.4,1.7,4.3
	c-0.4,0.3-0.8,0.5-1.2,0.7c-2,1.6-5.4,0.8-6.6,3.9c-4.3,0.4-7.8-3.1-6.7-7.1c1-3.8,1.9-7.4,0.9-11.4c-0.5-1.8,0.2-3.3,2.7-2.7
	c1.1,0.3,2.9,1,3.3-0.8c0.3-1.5-0.6-2.9-2.1-3.6c-0.4-0.2-0.8-0.6-1.2-0.9c-3.6-2.6-3.6-2.6,0.5-5.3c-3.1-0.7-4.7-2-2.3-5
	c0.5-0.6,0.9-1.9,0.6-2.2C2.1,185,3.3,179.9,3,175.1z"/>
<path class="st46" d="M10,228.1c-0.8-1.8-1.8-3.6,1.6-3.4c1.7,0.1,3.1-0.6,4.4-1.6c5.7,1.9,3.7,6.9,4.6,10.9
	c0.8,3.7-0.5,5.2-3.4,6.3c-0.5,0.2-0.9,0.1-1.2-0.2c-1,4.4-1.2,4.8-4,6c-0.9,3-3,1.6-4.6,0.9c-1.6-0.7-4.6-0.6-3.4-4
	c1.6-1.7,3.6-0.8,5.5-1c1.8-0.1,3.6,0,4.5-2c0.4-2.6-0.4-3.5-3.2-3.2c-2.4,0.3-4.9,0-6.8-1.8c-1-0.7-1-1.3,0-2
	c3.4-1.7,7.2,1.5,10.5-1.1C11.8,232.1,10.7,230.4,10,228.1L10,228.1z"/>
<path class="st47" d="M4,243.1c2.1,2.5,4.5,4.3,8,3c1.5,0.5,3,1.1,4.7,1.7c-1.1,2.3-4.3,0.2-5.1,2.9c0.6,0.3,1.2,0.7,1.9,1.2
	c0.9,0.6,2.9-0.6,2.8,1.8c0,2.3-2,1-2.9,1.8c-1.5,1.3-3.6,1.7-4.5,3.7c-4.8,1.2-3.4,0.9-4.4-3.8c-0.5-2.7,0.7-5.7-1-8.2
	C2.8,245.7,2.6,244.3,4,243.1z"/>
<path class="st47" d="M10,228.1c1.5,2.9,5.1,2.3,7.9,4c-4.9,2.9-9.4,2.5-13.9,1C3.6,228.5,8.9,230.8,10,228.1z"/>
<path class="st3" d="M4,235.1c4,0.4,8,0.7,12.2,1.1c0.4,2-2.7,2-2.2,3.9C9.7,240.3,5.8,239.8,4,235.1z"/>
<path class="st3" d="M15,262.1c-0.3,0-0.7,0-1,0c0-2.8-3.2-1.3-4-3c4.3,0.5,8.9-1.1,13.8,1.5C20.4,261.2,17.7,261.6,15,262.1z"/>
<path class="st3" d="M13,262.1c-2.1,1.9-4.7,0.6-7,1C8,260.1,10.8,263,13,262.1z"/>
<path class="st48" d="M108,208.1c0,26.7,0,53.5-0.1,80.2c0,3.4-0.2,6.9-0.3,10.3c0,1.1,0,1.7-1.6,1.6c-2.3-0.1-3.2,1.6-3.1,3.8
	c0.4,0.9-0.2,1.3-0.9,1.5c-0.5,0-0.9-0.2-1.3-0.5c-0.7-2.8,0.8-5,1.8-7.6c-1.8-1.8-4.6-1.2-6.5-2.7c-0.7-0.8-0.8-2-1.9-2.4
	c-0.6-0.4-0.9-1-1-1.6c-0.1-0.7,0-1.4,0.2-2.1c1.3-4.5,0.1-9,0.2-13.5c-0.1-6.5,0.1-13-0.3-19.4c-0.1-0.5-0.1-1-0.1-1.6
	c0.9-4.9-0.7-9.8-0.1-14.7c0.1-1.3,0.5-2.4,1.5-3.4c0.4-0.2,0.9-0.3,1.4-0.1c2,2.7,4.2,4.9,7.9,3.4c1.6-1.2,0-2.4-0.1-3.6
	c-0.9-9.2,0.3-18.5-0.4-27.7c-0.1-1,0.4-1.9,0.9-2.8c1-1.4,1.5-2.9,1.4-4.6c0-0.4,0-0.9,0-1.3c0.1-1.7,0-3.4-1.1-4.9
	c-0.4-1.7-0.7-3.5-1.1-5.2c0.1-0.8,0.5-1.4,1-1.9c1.1-0.8,2.1-1.8,3.6-1.2c0.4,0.4,0.6,1,0.7,1.5C108.6,194.4,110.1,201.3,108,208.1
	z"/>
<path class="st49" d="M102,305.1c0.3-0.3,0.7-0.7,1-1c3.5,1.1,2,3.5,1.2,5.6c-1.9,4.9-4,9.7-6,14.6c-0.8,1.3-1.5,2.5-2.3,3.8
	c-2.6,1.4-2.6-0.8-2.9-2.2c-0.5-2.4,0.7-4.4,1.8-6.3c1.1-2.4,3.5-4.2,4-7C99.7,309.9,99.7,307,102,305.1z"/>
<path class="st50" d="M108,208.1c0-7.3,0-14.7,0-22c-1.6-4.3-2.5-8.7,0-13c0.6,0,1.3,0,1.9,0c0,12,0,24,0,36
	C109.3,208.7,108.7,208.4,108,208.1z"/>
<path class="st51" d="M110,255.1c0,5.3,0,10.6,0,15.9C108.4,265.7,108.4,260.4,110,255.1z"/>
<path class="st50" d="M110,211.1c0,4.6,0,9.3,0,13.9C108.4,220.4,108.4,215.8,110,211.1z"/>
<path class="st51" d="M110,242.1c0,4,0,8,0,11.9C108.4,250.1,108.4,246.1,110,242.1z"/>
<path class="st11" d="M107,45.2c1.6,1.3,1,3.1,1,4.7c0,37.1,0,74.2,0,111.3c-2.6-0.4-2.1-2.5-2.3-4.2c-0.2-3.3,0-6.6-0.4-9.8
	c0.6-6,0.3-11.9-1.2-17.7c0.1-0.5,0.2-0.9,0.3-1.4c1.6-3.2-1.6-6.2-0.2-9.4c0.1-0.4,0.4-0.9,0.6-1.3c1.4-2.3,1.2-4.7,0.1-7.1
	c-0.7-1.5-1.2-3.1-0.7-4.8c0.4-1.1,0-2.2,0-3.4c-0.6-14.8-0.6-29.6-0.7-44.4c0-1.3-0.3-2.7,0.1-4c0.3-1,0.8-1.8,2.1-1.5
	c0-1.2,0.9,2.9,0.4-0.1C105.8,49.7,105.1,47.4,107,45.2z"/>
<path class="st52" d="M107,45.2c0,3.3,0,6.6,0,9.9c-1.6-0.1-0.4-1.9-1.9-2.2c-1.2,1.8,0.1,3.7,0,5.5c-0.2,7.8-0.3,15.5,0,23.3
	c0.2,4.9,0,9.8,0.1,14.6c0.1,2.3,1.7,4.6-0.2,6.9c-2.6-0.3-2.1-2.5-2.2-4.1c-0.2-3.4-0.2-6.8,0.1-10.3c0.2-2-1-0.2-1.4-0.5
	c-2.6-0.7-5.4-0.7-2.8-4.9c1.3-2.2-0.9-5.5-0.6-8.4c0.2-1.5,1.3-3,0.8-4.4c-4.1-10.5,3.9-18.5,5.5-27.8c0.1-0.7,0.8-1,1.6-0.7
	c0,0.3,0.1,0.7,0.2,1C106,44,106.2,44.7,107,45.2z"/>
<path class="st10" d="M106,146.1c1.7,2.9,0.7,6.2,1,9.3c0.2,1.9-0.7,4,1,5.7c0,0.3,0,0.7,0,1c-0.8,2.3-0.8,4.7,0,7
	c0.1,1.3-1,2.7,0.1,4c0,4.3,0,8.7,0,13c-0.3,0-0.7,0-1,0c-1.3-1-1.4-2.6-1.6-4c-1.7-11.1-2.3-22.2-1.9-33.4c0.2-0.8,0.5-1.6,1-2.3
	C104.9,145.9,105.4,145.8,106,146.1z"/>
<path class="st53" d="M109.9,131.2c0,9.3,0,18.6,0,27.9c-2-7.7-0.4-15.5-0.9-23.2C108.9,134.3,108.5,132.5,109.9,131.2z"/>
<path class="st11" d="M108,169.1c-1.6-2.3-1.5-4.7,0-7C108,164.4,108,166.8,108,169.1z"/>
<path class="st53" d="M109.9,160.2c0,1.6,0,3.3,0,4.9C108.6,163.4,108.6,161.8,109.9,160.2z"/>
<path class="st43" d="M16,174.1l-0.5,0c0,0-0.5,0-0.5,0c-0.7,0-1.4,0-2,0c-1.2-0.8-3-0.6-4-2l0,0c-2.7-2-0.1-2.2,1-3l0,0
	c0.7-0.6,1.8-0.8,2.3-0.3c2.8,2.8,3.7,0.3,4.7-1.7c0-0.3,0-0.7,0-1c-1.6-1.3-5.3-1.4-3-5c0,0,0,0,0,0c1.7-0.3,3.3-0.7,5-1
	c-0.2,0.7-0.8,2,0.4,1.9c3.2-0.4,3.3,1.9,2.9,3.6c-0.9,3.7,0.5,4.9,4,4.6c1.3-0.1,2.1,0.8,2.7,1.9c-1,1.4,1.1,1.1,1,2
	C25.4,177,20.7,174.7,16,174.1z"/>
<path class="st44" d="M14,161.1c0.3,1.7-0.5,4.6,3,2.6c0.6-0.3,1.4-0.5,1.6,0.3c0.3,1.2-0.7,1.6-1.6,2.1c-3.4-1.6-7,0.4-11.2-0.6
	C8.4,162.7,11.7,162.8,14,161.1z"/>
<path class="st44" d="M17,167.1c-2.9,1.6,4.2,2.2,0.4,4c-2.4,1.1-4.6,1.7-5.6-1.8c-0.1-0.2-1.2-0.1-1.8-0.2
	C12.1,167.5,14.8,168.2,17,167.1z"/>
<path class="st44" d="M10,169.1c-0.6,0.9-2.1,1.5-1,3c-1.5,0-3.7,0-3.4-1.7C5.9,168,8.5,169.5,10,169.1z"/>
<path class="st44" d="M9,172.1c1.6,0.2,3,0.7,4,2C11.4,173.9,9.4,174.8,9,172.1z"/>
<path class="st54" d="M72,344c-0.7,0.4-1.3,0.7-2,1.1c-8.7,1.2-17.3,2.2-26,0c0.2-2.6,2-1.9,3.6-1.8c0.5,0,0.9,0.3,1.4,0.2
	c-0.6,0-1.1-0.3-1.2-0.9c-0.2-3-1.1-6.4,3.9-5.9c2.2,2,5.2,0.8,7.6,1.9c0.4,0.2,1,0.4,1.2,0.9c0.9,2.5,0.9,2.5,4.6,2.4
	c1.5,0,2.9-0.3,4.4-0.5C71.1,341.4,73.1,341.3,72,344z"/>
<path class="st52" d="M48,342.1c0.6,1.2,2,0.7,3.1,1.5c-2.3,1.3-5.2-0.6-7.1,1.5c-1.6-0.2-3-0.7-4-2c-0.6-1.4-2-1.8-3.2-2.4
	c-1.2-0.8-3-1.7-1.9-3.3c1.5-2.2,3.7-0.6,5.7-0.2c1.1,0.5,2,1.3,2.9,2.1C44.7,340.7,46.8,340.7,48,342.1z"/>
<path class="st55" d="M28,337.1c0-0.3,0-0.7,0-1c3.4-0.3,4.9,2.6,7.2,4.2c0.5,0.5,0.8,1.1,0.8,1.8c-1.7,1.7-3.2-0.7-4.9-0.1
	c-1.5-1.1-2.9-2.6-4.9-3c-0.1-0.3-0.2-0.6-0.2-0.9C26.4,337.3,27.4,337.6,28,337.1z"/>
<path class="st54" d="M36,342.1c-0.3-0.3-0.7-0.7-1-1c0.7-1.2,2.1-0.3,3-1c0.8,0.9,3.7,0.4,2,3C38.7,342.7,37.3,342.4,36,342.1z"/>
<path class="st51" d="M83.9,12.2c0.7,0.7,1.3,1.3,2,2c-4.1,0.6-8.3,0.4-12.4,1.3c-3.3-2.4-6.5-4.9-10.6-5.7c-1-0.2-2.2-0.8-2-2.3
	c2-1.2,4.1-0.9,6.2-0.2l0,0c1.5,1.3,3.5-0.1,5,1C76.4,8.4,79.8,11.2,83.9,12.2z"/>
<path class="st55" d="M67,7.1c-2,0.4-4.3-0.8-6,1c-3.3,2.4-7,1.1-10.6,1.2C49.3,9,47.9,8.9,48,7.2c0.7-0.3,1.3-0.7,2-1
	C55.7,6.6,61.5,5,67,7.1z"/>
<path class="st55" d="M72.1,8.1c-1.7-0.2-3.6,0.7-5-1C68.7,7.3,70.6,6.6,72.1,8.1z"/>
<path class="st17" d="M74,15.2c2.4-1.9,5.2-2.4,8.1-1.9c1.3,0.2,2.5,0.6,3.8,0.9c1.7,1,3.4,2,5.1,3c1.4,1.7,2.7,3.3,4.1,5
	c-0.8,3.1,3,7.5-2.7,9.2c0.2,0.8,1.1,0.5,1.6,0.8c2.2,1.3,3,2.8,1.4,5.3c-2.9,4.5-4.2,9.3-2.7,14.8c0.6,2.2,2.2,4.7,0.2,7.1
	C92,60,91,60,90.1,59.6c-2.2-1.5-1.9-4.3-3.2-6.2c-4.1-1.1-7.1-4.7-11.6-4.9c-1.7-0.1-3.2-1.3-2.8-3.4c0.4-1.8,2.1-1.9,3.6-2
	c2.5-0.1,5.2,1.9,7.4-0.8c-3.5-4.2-3.5-4.4,2.4-6c-0.8-2.1-2.7-2.2-4.4-2.6c-1.3-0.3-3.1-0.3-3.3-1.7c-0.2-2,1.9-1.7,3.1-2.4
	c0.4-0.1,0.8-0.3,1.1-0.4c0.3-0.1,0.7-0.4,0.6-0.6c-0.3-0.4-0.9-0.4-1.3-0.5c-2.4-1-3.1-2.2-0.5-3.8c0.6-0.2,1.3-0.3,1.9-0.4
	c1.1-0.2,2.6,0.1,2.8-1.3c0.3-1.6-1.3-1.7-2.4-1.9c-2.8-0.5-4-4-7.3-3.5c-0.5-0.1-0.9-0.2-1.4-0.4C74.2,16.5,73.7,16,74,15.2z"/>
<path class="st56" d="M106,42.1c-0.4,6.1-6.3,10.7-4.5,17.6c0.6,2.2-2.7,1.8-3.9,3.1c2.3,3.9,4.2,7.8,1.5,12.3
	c-1.1,1-2.4,1.1-3.8,0.6c-2.5-1.3-2.3-3.9-2.9-6.1c-0.2-0.7-0.2-1.5-0.1-2.2c0.6-2.2-0.5-4.7,0.9-6.8c0.8-3.5,0.3-7.2,0.9-10.7
	c0.3-1.8,0.4-4.1,2-4.9c5-2.6,3.6-7,3.5-11c0-1.5-1.4-3.4,1.4-3.8C103.5,33.8,105.3,37.7,106,42.1z"/>
<path class="st57" d="M101,30.2c-1.8,3.3,2.6,7.3-0.1,9.5c-2.9,2.3-0.2,2.8,0.4,4.2c-4.6,0.3-5.6,2.8-6,7.2c-0.3,3.3-0.1,6.8-1.2,10
	c-0.6-0.3-0.8-0.8-1-1.4c0-0.2,0-0.4,0-0.6c-1.6-2.9,0.1-6.9-3.1-9.2c-0.2-0.2-0.5-0.7-0.5-0.8C92.7,46,89.6,40.6,93,38
	c4.7-3.6,1.7-4.4-1.4-5.6c-0.6-0.2-1.2-0.4-3.1-1c5.1-0.9,7.3-2.9,5.4-7.3c-0.2-0.4,0.7-1.4,1.1-2C97.5,24.5,99.6,27,101,30.2z"/>
<path class="st58" d="M96,319.1c-0.2,2.9-4.9,5.8-0.2,8.8c-1,2.3-2.9,3.8-4.9,5.1c-5,2.4-9.7,5.4-15,7c-0.2,0.2-0.4,0.4-0.6,0.6
	c-2.1,1.1-4.2,0.3-6.3,0.2c-2.4-1.1-4.9-1.6-7.5-1.7c-1.4-0.4-3-0.9-2.7-2.8c0.3-1.8,2-1.8,3.5-1.8c1.6,0,3.2,0.1,4.8,0.1
	c7.6,1.5,14.6,0.8,20.2-5.2c1.2-1,0.9-2.7,1.9-3.8c1-1.3,2.3-2.4,2.5-4.2c0.6-1.7,0.1-3.6,0.7-5.3c0.3-0.4,0.7-0.7,1.2-0.8
	C96.7,315.4,97,316.9,96,319.1z"/>
<path class="st9" d="M72,344c-0.1-2-1.6-1.9-3-1.9c-0.1-0.2-0.2-0.4-0.3-0.7c0.1-0.2,0.2-0.4,0.3-0.6c0.2-0.1,0.5-0.1,0.7-0.2
	c2.1-0.3,4.2,0.6,6.2-0.6c0,0,0,0,0,0c1.1,0.1,2.3-0.2,3,1C77,342.9,74.3,343,72,344z"/>
<path class="st59" d="M48,7.2c0.4,0.8,1.2,1,2,1c0.3,0.4,0.3,0.8,0,1.3c-3.5,2.1-7.7,3-9.9,7c-2,3.6-0.9,5.6,3,5.7
	c0.2-0.7,0.6-1.2,1.2-1.6c1.4-0.7,2.8-0.6,4.2-0.3c1.6,0.5,3.3,0.1,4.8,0.8c2.2,1,3.1,2.5,1.1,4.5c-0.6,0.6-0.5,1,0.3,1.3
	c0.8,2.6-1.3,2.2-2.5,2.3c-3,0.2-3.6,1.5-1.8,3.7c1.8,2.3-1.4,3.8-0.6,6c1.1,2.7-3.6,3.6-2.8,4.5c2.9,3.4,0,3.6-1.9,4.7
	c-5.5,1.4-6.4,3.2-3.7,7.6c1.9,3.1,0.7,4.5-4.8,5.5c-1.5-5.6-1.5-11.5-0.5-17.1c0.5-2.9,3-5.5,3.9-8.8c0.6-2.4,0.1-3.4-1.4-4.3
	c-4.6-2.9-5-7.7-5.9-12.4c-0.3-1.6,0.7-2.4,1.5-3.5c1.8-2.2,4.3-3.6,6.6-5.2c0.3-0.3,0.7-0.6,1-1C44,8.3,45.7,6.9,48,7.2z"/>
<path class="st35" d="M6,44.1c2.6,0.4,1.9,2.5,2.1,4.1c-0.4,2.4-1.6,1.7-3,0.8C5.3,47.3,4.4,45.5,6,44.1z"/>
<path class="st29" d="M5.1,49c1.1,0.2,2.2,0.3,3-0.8c0.3,0,0.6,0,1,0c-0.3,2.4-1.6,3.7-4,4C5,51.1,5.1,50,5.1,49z"/>
<path class="st60" d="M28,337.1c-0.4,0.9-1.2,0.9-2,1c-1-0.6-2-1.3-3-1.9c0,0,0.1-0.2,0.1-0.2c-1.5-2.1-3.5-3.9-5.2-5.9
	c-0.3-0.3-0.6-0.6-0.8-1c0.2-2.4-1.2-4.5-1.6-6.7c-0.4-1.7-1.2-4.3,1.2-4.6c1.6-0.2,3.1,1.6,3.2,4.2C19.8,328.4,22.8,333.4,28,337.1
	z"/>
<path class="st41" d="M17.8,330.1c2.5,1.3,4.5,3,5.2,5.9C20.8,334.5,18.8,332.7,17.8,330.1z"/>
<path class="st32" d="M20,125.1c0.1,1.2,0.4,2.6,1.8,2.4c5.1-1,4.6,0.6,1.8,3.6c-0.7,0.7-0.5,1.5,0.3,2.1c-1.3,1.1-2.8,2.1-4.3,0.8
	c-1.9-1.6,1.1-2.7,0.7-4.5c-5,1.6-2.3-2.7-3.4-4.3C18,124.3,19,124.3,20,125.1L20,125.1z"/>
<path class="st38" d="M32,157.1c-0.3,0-0.7,0-1,0c-1.7-1.3-5.3-0.3-5-4c0,0,0,0,0,0c1.3,0,2.7,1,4,0C29.9,154.8,32.9,155,32,157.1z"
	/>
<path class="st30" d="M20,125.1c-1,0-2,0-3,0c-1.6-2.4-3.6,0.5-5.9-0.7c-3.3-1.7-0.5-2.2-0.1-3.3c1.7,0,3.3,0,5,0
	c0.1,1.7,1.2,2.1,2.7,2C20.3,123,20.6,123.7,20,125.1z"/>
<path class="st61" d="M41,10.1c-0.5,1.6-2.3,1.9-3.3,2.9c-2.2,2.3-4.4,3.6-2.9,8.4c1.2,4,2.7,6.5,5.5,9.1c1.4,1.3,5.8,2.9,0.4,5
	c1,3.9-0.9,6.6-3.9,8.7c4,2.5-2.3,4.5-0.3,7.6c1.4,2.3,0.5,6.1,0.6,9.3c2.5,3.6,0.9,7.7,1.4,11.6c0.2,2.9-0.1,5.9,0,8.8
	c0,0.6,0,1.2,0,1.8c0.2,1.5-0.1,3,0.1,4.5c0.1,8.3,0.2,16.6,0,24.9c0.2,1.2,0.1,2.5,0,3.7c0,4.9,0,9.9,0,14.8
	c0,6.3,0.1,12.5-0.1,18.8c0.2,6,0.1,12,0,18c0,2.1,0.2,4.4-1.6,6.1c-0.3,0-0.6,0-0.9,0c0-20,0-39.9,0-59.9
	c-0.2-14.7,0.6-29.4-0.6-44.1c-0.1-0.9,0.4-1.9,0.7-2.9c-1.3-4.9,0.4-10.1-1-15c0.5-2.8-1-5.3-1-8c-0.3-0.2-0.3-0.4-0.2-0.7
	c0.1-0.2,0.2-0.3,0.3-0.3c1.3-4.8-0.5-9.4-2-13.7C28.7,20.5,31.7,13.4,41,10.1z"/>
<path class="st62" d="M34,43.2c0,0.3,0,0.6,0,1c-0.7,0-1.3,0-2,0c0-0.3,0-0.7,0-1c-0.8-2.4-2.5-4.6-1.5-7.7
	C34.2,37.1,32.2,41,34,43.2z"/>
<path class="st36" d="M35,52.1c2.1,4.9,0.5,10,1,15C33.8,62.2,35.5,57.1,35,52.1z"/>
<path class="st6" d="M32.1,185.1c3.1-0.8,1.7-3.4,1.9-5.2c0.2-1.9,0-3.9,0-5.8c0.7,0,1.3-0.1,2-0.1c0,0,0.1,0.2,0.1,0.2
	c2.3,2.2,2.2,5.1,2.3,8c0,2.5,0,5-0.1,7.5c-0.4,2.1-0.1,4.3-0.8,6.3c-0.9,2.6-2.5,4.1-4.6,0.6c-1.2-3.2-1.2-6.7-1.4-10.1
	C31.5,186,31.7,185.5,32.1,185.1z"/>
<path class="st30" d="M26,153.1c0.9,2.3,3.8,2.1,5,4c-1.5-0.2-2.8,0.3-4,1c-1.3-0.3-2.7-0.7-4-1c-1.4-0.1-3,0.5-4-1
	c0.4-0.9,1.1-1.6,2-2C22.8,154.2,24.5,154.1,26,153.1z"/>
<path class="st9" d="M32.1,185.1c0,0.3,0,0.6,0,0.9c0.9,1.9,0.4,3.9,0.3,5.8c-1.6,1.3-3.6,0.3-3.2-1c1.3-4.7-1.1-9.6,1-14.1
	c0.2-0.4,0.5-0.7,0.9-1c-1.8,0.7-3.6,0.7-5.4,0.8c-2.3,0.1-4.6,0-6.6-1.5c-1.1-0.1-2.3,0.1-3-1c4.7,0,9.4,0,14.1-0.1
	c1,0,1.9,0.1,2.9,0.1C32.7,177.8,33.8,181.6,32.1,185.1z"/>
<path class="st63" d="M16,240.1c0.3,0,0.7,0,1,0c2.4-1.1,4.8-2.4,5.4-5.4c0.5-2.4,2.3-3.1,4.4-3.3c0.5,0,0.9,0.1,1.4,0.3
	c1.5,1.4,3.7,2.4,3.3,5.1c-0.2,0.4-0.5,0.7-0.9,1c-0.6,0.3-1.6,0.2-1.8,0.6c-0.5,0.9,0.6,0.7,0.9,0.8c1.9,0.7,2.8,2,3.4,3.9
	c0.8,4.8-0.1,9.6,0.6,14.4c0.1,0.5,0.1,1.1,0.1,1.6c-0.5,2.4-0.5,4.8-0.3,7.2c0.1,2.1-0.1,3.9-2.5,4.7c-1.5,0.3-2.8,0.3-3.9-0.9
	c2.7-9.1,0.9-11-11.9-12.4c4.1-2.5,7.9-5.8,13.5-4.7c-2.4-2.4-5.4-1.3-8.2-2.5c2.9-2.8,7.8,0.2,9.6-4c-3.9-1.6-7.9-1-13.2-0.1
	c3-3.1,5.7-3.8,8.9-4.3C22.5,239.5,18.7,242.9,16,240.1z"/>
<path class="st32" d="M20,307.1c0.3-1.3,0.7-2.7,1-4.1c0-0.3,0-0.6,0.1-0.9c1.6-0.7,1.6-2.7,3-3.5c2.5,0,4.8-0.8,7.2-1.4
	c0.7,0,1.4,0.2,1.9,0.7c0,3.2-2.8,3.1-4.8,4.1c-2.3,1.1-6.1,1.8-5.3,4.8c0.8,2.8,4.3,3,7.2,2.3c1.1-0.3,2.3-0.2,3.4-0.2
	c2.2,0,3.9,1.2,5.6,2.6c1.4-1.1,0.4-4.6,3.6-3.4c0.6,0.2,1.1,0.6,1.7,1c1.5,1.3,2.6-0.2,3.9-0.4c3.3,1.4,2.6,3.9,1.7,6.5
	c-0.5,0.3-0.9,0.3-1.4,0.1c-0.9-0.4-1.9-1.2-2.5,0.2c-0.4,1.1,0.5,1.9,1.4,2.2c1.8,0.7,4.3,0.9,4.6,3.2c0.4,2.8-0.5,5.6-1,8.3
	c-0.3,2-2.3,1.3-3.8,1.1c-0.5-0.1-0.9-0.4-1.3-0.6c-3.5-2.7-6.2-5.9-6.9-10.5c-0.5-3.1-2.6-4.4-5.8-3.9c-3,0.5-6,0-8.9-0.3
	C20.3,314.4,18.3,311.1,20,307.1z"/>
<path class="st64" d="M28,285.1c-2.8,0-5.8,0.2-3.8-4.3c0.9-2-1.1-2.3-2.1-2.5c-2.3-0.4-4.6-0.3-7.1-0.4c2.2-4,5.9-2.6,9-2.9
	c3.1,1.1,6.9,1.3,7.4,5.8C30.6,282.6,27.5,282.3,28,285.1z"/>
<path class="st54" d="M28,285.1c-1-2.8,0.5-3.8,3-4c0.8,0.4,1.2,1.1,1.7,1.7c0.4,0.5,0.8,1,1,1.7c0.2,0.4,0.3,0.9,0.3,1.3
	c0.1,1.1,0,2.3,0.2,3.4c0.8,4.6-0.9,7.3-5.6,8.1c-0.2-0.1-0.4-0.2-0.7-0.2c-1.1-2.4,0.7-2.9,2.2-3.9c1.3-0.8,3.2-2.2-0.5-2.8
	c-2.2-0.4-2-1.2,2-4.1C30.7,285.1,28.6,286.9,28,285.1z"/>
<path class="st65" d="M32,283.1c-0.8-0.4-1-1.2-1-2c-1.2-3.3-4.8-3.8-7-6c4.1,0.2,1.6-3.6,3-5c1.3,0,2.7,0,4,0
	c-0.1,2.9,1.9,5.1,2.5,7.8c0.1,0.5,0.1,0.9,0,1.4C33.3,280.6,33.2,282.1,32,283.1z"/>
<path class="st54" d="M24,299.1c-0.7,1.3-1.1,2.9-3,3c0.8-3.7,2.8-5.9,7-5.1c0,0,0,0,0,0C28,300.4,24.9,297.6,24,299.1z"/>
<path class="st64" d="M38,340.1c-0.7,1.2-1.9,0.9-3,1c-2.3-1.7-4.7-3.3-7-5c0-0.3-0.1-0.6-0.1-0.9c-0.4-1-1.3-1.8-1.3-3
	c1-2.4-1.4,0.2-1.4-0.9c-1.4-2.2-2.7-4.5-0.9-7.1c-0.3-0.5,2.5-1,0-1.5c-1-0.2-1.9-0.5-1.8-1.7c2.2-3.3,5.1-2.2,8-1.2
	c1.6,1.3,3.2,2.1,5.1,0.8c1,4.1,6.7,2.4,7.9,6.4c-0.7,2.6-2.7,1.9-4.4,1.7c2.1,1.1,4.5-0.2,6.6,0.9c1.2,0.6,2.4,1.5,2.2,3
	c-0.2,1.5-1.7,1.1-2.8,1.3c-2.9,0.6-5.9-0.6-8.3,0.5c-1.1,0.3-0.1,1.1-0.4,0.5c-0.1-0.1,0-0.3,0.4-0.3c5.2-0.8,10.5-0.2,15.7,0.1
	c0.9,1.1,1.7,2.1-0.5,2.5c-3.6-0.1-3.5,2.7-4,5c-1.9,0-4,0.3-5-2c-0.2-1.2-0.9-1.8-2-2c-1.8,0.1-3.5-0.1-5.3-0.9
	C35.3,339.5,37.2,339.3,38,340.1z"/>
<path class="st25" d="M43,327.1c-0.2-0.3-0.3-0.6-0.5-0.8c-1.6-1.9-3.9-0.8-5.9-1.2c-2.4-0.5,2.3-4-1.6-4c-1.3,1.1-2.7,0.9-4,0
	c-2.8-0.7-5.8-3-8,1c0.2,0.2,0.3,0.5,0.3,0.8c0,0.3-0.1,0.4-0.2,0.4c-0.4,0.2-0.8,0.2-1.1-0.2c-1-2.2-2-4.5-3.1-6.7
	c-0.8-2.8-3.4-5-2.9-8.2c1.1-0.1,2.3,0.2,3-1c0.3,0,0.6,0,1,0c-0.3,4.4,1.9,6.7,6,6.5c3.4-0.1,6.7,0.8,10.2-0.2
	c2.4-0.7,4.4,2.5,4.4,3.8c-0.2,5.4,3.7,8.2,6.4,11.9C44.7,330.4,43.6,329.2,43,327.1z"/>
<path class="st66" d="M22,323.1c0.3,0,0.7,0,1,0c0.8,0,1.5,0.2,2,1c-0.7,2.5-1,4.9,1,7c0.6,0.1,0.9,0.4,1,1c0.3,1,0.6,2.1,0.9,3.1
	C23.7,332.3,22.1,328,22,323.1z"/>
<path class="st67" d="M19,175.1c2.3,0,4.7,0,7,0c1.2,1.2,4.3,0.2,3.9,2.8c-0.3,2.3-2.7,2.6-5,2.7c6.8,5.8,6.4,8-1.8,11.6
	c2.6,1.1,7.3,0.8,6.7,3.9c-0.4,1.9-2.4,6.4-6.5,6.2c3.9,3.6,3.8,3.9-1.2,7.8c0.4,2.3,7.2-1.1,3.9,4.4c-1.7,1.2-3.7,0.9-5.8,1.1
	c0.9,2,2.2,3.1,4.3,3.4c1.7,0.2,3.4,0.8,2.6,3.2c-1.3,1.2-2.8,1.6-4.5,1.7c-1.8-1.3-4.2,2-5.7-0.8c0.1-0.8,2.5-1.5,0.1-2.4
	c-1.7-0.6-3.4-1.2-4.9-2.5c-2-1.9-2.2-3.8,0.4-5.1c1.4-0.7,2.6-1.4,3.2-2.9c-0.8-1.1-2.7-0.2-3.1-2c1-1.3,4.6,0.2,3.8-3.1
	c-0.7-2.6-2.5,0.5-3.7-0.7c0.8-0.9,1.7-1.8,2.5-2.7c2.6-2.8,4.3-5.1-1.5-5.9c-2.4-0.3-4.3-1.3-1.5-4.5c1-1.1,5.2-2.4,2.5-5.6
	c1.9,0,3.8,0,5.7,0c-1.1-5.1-1.1-5.1-9.8-5.9c1.6-2.6,4-2.6,6.4-2.6C18.4,177.1,20,177.3,19,175.1z"/>
<path class="st68" d="M17,223.1c1.7,1.6,3.3-1.6,5,0c0.4,0.3,1.1,0.6,1.1,0.9c-0.2,3.4,1.8,5.8,3.9,8.1c-2,0.7-3.4,1.6-4.1,3.9
	c-0.8,2.4-2.8,4.4-5.9,4.1c3.1-3.1,3.3-3.8,2-9c-0.2-0.6-0.9-1.1-0.4-1.7c2.5-3,0.8-3.7-2.1-4.1c-0.2,0-0.3-1.5-0.5-2.3
	C16.3,223.1,16.7,223.1,17,223.1z"/>
<path class="st58" d="M95,236.1c-0.3,1-0.7,2-1,3c-1.1,5,0.8,10,0,15l0,0c-0.8,1.3,0.4,3-1,4.1c-1.8,1.5-3.8,2.1-5.9,0.9
	c-1.8-1-1.2-3.1,1.8-6c-3.5,1.4-3.9-2.1-5.6-3.5c-1.3-4.3-0.6-8.8-0.8-13.2c-0.5-10,0.3-20-0.6-30c0.1-1,0.3-1.9,1.2-2.5
	c1.7,0.4,3,2.3,5,1.2c0.3-1.2-0.6-0.9-1.2-0.8c-1,0.3-2,0.7-3-0.2c-1-2.2-0.7-4.3,0.6-6.3c1.1-1,2.3-1.8,3.8-2
	c0.6,0.5,0.7,0.3,0.3-0.3c0.5-1.3,1.1-2.6,2.2-3.6c0.5-0.2,0.9-0.2,1.4,0c0.7,0.4,1.1,0.9,1.4,1.5c1.4,4.1-0.4,8.5,0.8,12.6
	c0.3,0.6,0.6,1.2,0.8,1.9c0.1,0.4,0.1,0.9,0.1,1.3c-0.5,2-0.4,4,0,5.9c0.1,0.5,0,1,0,1.4c-0.6,5.3,0,10.5,0.1,15.8
	C95.7,233.7,96,235,95,236.1z"/>
<path class="st69" d="M107,199.1c0,0.3,0,0.7,0,1c-1.7,1.4,0.1,3.5-1,5c-1.1,0.7-1.6,1.8-1.4,3c1.3,9.7,0,19.4,0.4,29
	c0.8,1,0.7,2,0,3c-5.4,2-7.9,0.8-9-4c-0.3-0.2-0.4-0.5-0.4-0.8c0-0.3,0.1-0.4,0.1-0.4c0.8-1.7,0-2.9-1.2-4.1
	c1.2-5.2-0.6-10.5,0.4-15.7l0,0c-0.8-1.4-0.3-2.9-0.4-4.4c0.6-1.5,2-1.9,3.6-2.8c-1.6-0.9-3.4-1.7-4-3.6c-0.3-4.1,0-8.2,0.1-12.3
	c0-1.7,0.4-3.3,1.7-4.4c3-1.2,5.7-0.6,8.1,1.4c2.3,1.3,1.4,3.2,1,5C107.5,195.1,105.5,197.8,107,199.1z"/>
<path class="st70" d="M105,148.1c0.4,8.8-0.9,17.6,1.3,26.4c0.9,3.5,0.8,7.7,0.7,11.6c-0.4,1-1,1.6-2,2c-2.5-6.2-1.8-12.7-1.8-19
	c0-1.7,0.3-3.2-1.3-4.4c0.5,0.7,1.5,1.1,1.5,2.1c-0.1,1.6,0.2,3.8-0.9,4.7c-2.9,2.4-2.1,7.6-6.7,8.6c-0.5,0.1-0.9-0.1-1.3-0.5
	c-0.6-1-0.8-2.1-0.8-3.2c0.1-9.7-0.4-19.3,0.3-29c0.9-2.9,3.3-1.1,5-1.3c-0.2-1.7-1.4-3.4,0.5-4.5c1.2-0.7,2.6-0.7,3.8-0.1
	c1.8,0.9,1.9,2.5,1.4,4.2C104.4,146.6,104.4,147.4,105,148.1z"/>
<path class="st71" d="M95,180.1c1.2-0.8,1.8-2.2,2.6-3.3c2.2-2.6,3.6-6,4.9-9.2c0.8-1.9-1.5-2.1-3.1-3.5c3.1-0.2,4.4,0.6,4.6,3.3
	c0.3,6.9,0.7,13.7,1,20.6c-0.3,0.3-0.7,0.7-1,1c-2.7-0.3-5.3-0.7-8-1C92.4,185.8,94.3,182.9,95,180.1z"/>
<path class="st39" d="M101.1,252.7c5.3,1.5,3.5,5.6,3.3,8.2c-0.2,2.3-3.6,1.2-5.6,1.1c-2-0.1-3.2-2.1-2.3-3.5
	c2.3-3.3,0.5-8.3,5.3-10.6c-1-0.4-1.4-0.6-1.8-0.7c-1.4-0.3-3.9,0.5-3.3-2.3c0.5-2.3,2.3-1.1,3.6-0.8c1.5,0.4,4.4-1,4.2,1.8
	C104.5,248.2,107.2,252.4,101.1,252.7z"/>
<path class="st7" d="M84,250.1c0.7,0.1,1.8,0,1.9,0.2c1.2,3.9,2.7,2,4.7-0.1c-2.3,1.5,3.1,6-2.6,5.4c-0.9-0.1-0.9,1.2-0.8,2
	c0.1,1.1,0.9,1,1.7,1.2c3.7,0.6,3.8-2.7,5.2-4.6c2,7.3,0.5,14.6,0.9,22c-0.5,0.2-0.9,0.1-1.3-0.2c-2.3-2.4-0.9-6.2-3.1-8.7
	c-0.3-0.6-0.3-1.3-0.1-2c0.2-0.6,1.2-1.4,0.1-1.9c-0.4-0.2-0.5,1.3-1.4,1.5c-1.3,0.4-2.5,0.3-3.6-0.4
	C81.4,260.1,82.5,255.1,84,250.1z"/>
<path class="st72" d="M102.5,285.9c-1.2-1.1-2.4-0.8-3.5-0.8c-2,0.1-2.9-0.5-1.8-2.6c0.3-0.6,0.7-1.5,0.4-1.9
	c-4.1-7,3.8-3.5,5.3-5.7c0.4-0.7,2.7,1.2,2.4,2.4c-1.2,4.1,0.3,8.2-0.4,12.3c-0.4,2-0.9,4-3.9,3.1c-1.3-0.4-2.7-0.2-2.9-2
	c-0.2-1.6,0.6-2.4,2.1-2.8C101.1,287.6,102.1,287.3,102.5,285.9z"/>
<path class="st10" d="M102,305.1c-0.7,2.6-1.4,5.3-2.1,7.9c-1.2,2.3-2.5,1.2-3.1-0.3c-1.4-3.5-4.2-5.2-7.4-6.6
	c-5.7-2.1-11.5-3.7-17.7-3.8c-1.2-0.2-2.5-0.4-3-1.8c0.6-2.2,2.5-1.9,4-1.8c3.2,0.2,5.8-0.9,8.1-3c0.7-0.3,1.4-0.3,2.2,0.1
	c0.8,0.7,1.1,1.6,1.4,2.5c2.1,4.4,6.8,3.6,10.4,5.1c2,1,3.5,3.4,6.3,1.7C101.3,305.1,101.7,305.1,102,305.1z"/>
<path class="st73" d="M101,305.1c-3,5.9-4.2,0.4-6-1c-3.5-1.2-1.5-2.6-0.2-4c0.5-1.2,0-2.2-0.2-3.3c-0.2-1.2-0.7-2.7,1.4-2.7
	c2.4,0.5,4.8,1,7.3,1.4c2.4,0.3,0.8,2,0.6,2.4C102.4,300.1,102.1,302.7,101,305.1z"/>
<path class="st71" d="M104.5,268.4c2.5,5.4-1.6,4.6-3.8,5.1c-2.2,0.5-3.5-0.1-3.8-3c-0.6-4.6,0.2-7,5.6-6.8
	C107.7,263.8,103.5,267.6,104.5,268.4z"/>
<path class="st4" d="M94,289.1c0,0.7,0,1.3,0,2c-1.4,0.7-1.3,2.3-2.1,3.4c-0.9,0.7-2,1.1-3.2,1.3c-1.3,0.1-2.3-0.4-3.1-1.4
	c-2.6-6.1-2.4-9.1,1.2-12.1c0.9-0.3,1.9-0.2,2.8,0.1c2.9,1,1.5,4.9,4.1,6.2C93.8,288.7,93.9,288.9,94,289.1z"/>
<path class="st74" d="M89,295.1c0.7-1.2,1.9-1,3-1c0.7-1.2,1.9-1.5,3-2.1c2.8-0.5,1,1.2,1,2.1c-1.1,0.9-1.3,2-0.2,2.8
	c1.8,1.4,0.9,2.8,0.2,4.2c-3.5,1.1-6.8,2-6-3.8C90.1,296.5,89.3,295.8,89,295.1z"/>
<path class="st75" d="M95,215.1c0.5,5.3,1.5,10.6,0.1,16c1.5,1,1.9,2.4,1,4c0,0.3,0,0.7,0,1c-0.3,0-0.7,0-1,0
	C94.2,229.1,93,222.1,95,215.1z"/>
<path class="st7" d="M94,254.1c-0.7-5-1.8-10,0-15C93.9,244.1,96,249.1,94,254.1z"/>
<path class="st4" d="M94,276.1c0.3,0,0.6,0,1,0c-0.7,4.3,2,8.9-1,13c0,0,0,0,0,0c-0.3-0.4-0.6-0.8-0.9-1.2
	c-1.6-3.8-0.8-7.5,0.4-11.2C93.6,276.4,93.8,276.3,94,276.1z"/>
<path class="st11" d="M95,292c-0.5,1.4-1.5,2.1-3,2.1c-0.9-2-2-4.2,2-3C94.4,291.4,94.7,291.7,95,292z"/>
<path class="st70" d="M106,205.1c-0.1-1.7-2-3.9,1-5C106.8,201.8,107.7,203.7,106,205.1z"/>
<path class="st70" d="M107,199.1c-2.6-0.9-0.4-3.7-2-5C108.2,194.8,106.6,197.3,107,199.1z"/>
<path class="st70" d="M105,240.1c0-1,0-2,0-3C108.1,238.1,106.6,239.1,105,240.1z"/>
<path class="st55" d="M90,305.1c3.5,1.4,6.9,2.9,7.7,7.2c0.2,1.3,1.2,1.4,2.2,0.7c0,2.8-2.6,4.1-3.8,6.2c0.1-2.2-0.8-3.3-3-3
	c-0.3-0.4-0.3-0.8,0.1-1.1c0.1-0.2,0.3-0.4,0.4-0.7c-0.2,0.4-0.5,0.8-0.8,1c-4.6-1.5-9.5-2-14.2-3.1c-2.2-0.8-4.7-0.5-6.6-2.1
	c0.2-2.4,2.2-2,3.7-2.3c1.1,0,2.1,0.1,3.1,0.3c2.1,0.6,4.2,1.2,6.4,1.5c1.3,0.1,2.7,0.2,4,0.1c2.5-0.4,1.4-1.7,0.8-2.9
	c-0.1-0.2-0.2-0.4-0.3-0.6C89.6,305.8,89.7,305.4,90,305.1z"/>
<path class="st76" d="M105,148.1c-0.9-0.7-1-1.6-1-2.6c0-1.8-0.1-3.4-2.5-3.3c-1,0-2.1,0.1-2.3,1.4c-0.2,2.1,2.3,1.1,3.2,2.3
	c-2.6,3-4.9,2.5-7.4,0.4c-2.6-4-1.2-8.3-1.2-12.5c0.9-3.6,4.2-0.1,5.7-1.8c-1.6-3.6-1.7-7.2-0.2-11.2c-1.1-1.2-3.6,0-4.9-1.8
	c-0.2-0.8-0.1-1.4,0.4-2c1.7-1.4,4.1-0.9,5.8-2c-2,0.8-4.1,0.9-6-0.4c-0.7-0.9-0.7-1.8-0.4-2.8c0.8-1.4,2.3-1,3.5-1.3
	c1.3-0.4,2.9-1.3,2.6-2.5c-1-3.1,1-6,0.4-9c0-0.8,0-1.7-0.1-2.5c-0.1-1-0.9-1.7-1.1-2.7c0-0.4,0.1-0.8,0.3-1.2
	c0.7-1.3-0.9-2.8,0.5-4c0.2-0.1,0.4-0.2,0.6-0.3c1.8-0.3,1.2-2.4,2.5-4.1c1.5,6.9-0.8,13.2,1.5,19.1c0.1,0.7,1.2,1.3,0,2
	c-0.9,1.5-0.7,3.1,0.1,4.6c1.4,2.8,1.1,5.6-0.1,8.4v0c-1.9,3.3,1.3,6.7,0,10v0c-0.8,4.7,1.8,9.1,0.9,13.8c-0.3,1.4,0.1,2.9-0.9,4.2
	C105,146.8,105,147.4,105,148.1z"/>
<path class="st52" d="M105,146.1c-0.2-4.9,0.6-10-0.9-14.8c-0.3-1.1-0.2-2.3,0.9-3.2c1,4.7,2.5,9.4,2,14.4c-0.1,1.3,0.3,2.7-1,3.6
	C105.7,146.1,105.3,146.1,105,146.1z"/>
<path class="st52" d="M105,118.1c0.6-4.3-2-8.7,0-13c-0.1,1.8,0.6,3.4,1.2,5.1C107.1,112.8,108.8,116,105,118.1z"/>
<path class="st52" d="M105,128.1c-0.4-3.3-2.1-6.7,0-10c-0.3,2.5,0.3,4.9,1.2,7.2C106.7,126.7,107.1,127.9,105,128.1z"/>
<path class="st77" d="M102,95.1c0,1,0,2,0,3c-2.2,1.3,1,4.2-1.6,5.5c-1.9,0.9-3.7,2.2-5.8,0.6c-0.6-0.8-0.8-1.8-0.9-2.8
	c-0.1-0.5-0.1-1-0.1-1.4c0.1-7.1-0.3-14.3,1.5-21.3c0.2-0.8-1.3-1.8-0.7-3c0.2-0.2,0.3-0.4,0.5-0.5c1.3,0,2.7,0,4,0
	c1.1,2.3-0.5,5.6,2.5,7.4c0.1,0.1-0.1,1.2-0.3,1.2c-4.8,1.3-1.8,2.9-0.2,4.4c-2.9,1.2,0.8,3.6-1,5C99.2,95.3,101.5,94.2,102,95.1z"
	/>
<path class="st9" d="M52,337.1c1-0.7,1-1.3,0-2c-0.9-0.9-3-1.2-1.9-3.3c4.9-0.4,7.3,2.7,9.1,6.6c-0.1,0.2-0.1,0.5-0.2,0.7
	c-2,0-4,0-6,0C51.3,339.1,51.7,338,52,337.1z"/>
<path class="st9" d="M69,342.1c-3.5,2.1-7.3,0.4-10.8,1c-1.7-1.9,3.9-1.9,0.7-4c0,0,0,0,0,0c0.7-0.8,1.6-0.4,2.4-0.5
	c0.4,0.1,0.8,0.2,1.3,0.3C65.1,339.3,67.3,340.1,69,342.1L69,342.1z"/>
<path class="st54" d="M41,338.1c1.2-0.1,1.8-2.4,3.2-1c1.6,1.6-0.9,1.9-1.2,3C42.1,339.7,41.4,339,41,338.1z"/>
<path class="st78" d="M50,9.1c0-0.3,0-0.6,0-1c3.7,0,7.3,0,11,0c5,1.1,10,2.3,13,7c0.3,0.3,0.6,0.7,1,1c1.8,2.5,1.5,4.7-1.2,6.3
	c-1.2,0.3-2-0.3-2.6-1.3c-0.5-0.8-0.9-1.7-1.4-2.5c-0.6-2.3-6.1-1.2-4-5.6c0.3-0.6-0.9-0.4-1.4-0.2c-1.1,0.2-2.2,0.9-3.1-0.2
	c-1.2-1.9-3-2.2-5.1-2.3C54,10.4,51.7,10.9,50,9.1z"/>
<path class="st51" d="M73,22.1c2.7-1.3,1.9-3.8,2-6c0.3,0,0.7,0,1,0c2.5,0.4,4.7,1.6,5,4.3c0.2,1.6,1.1,1.5,2,2.1
	c3,2.1-0.5,1.8-1,2.6c-0.7,0.2-1.8,0.1-1.4,1.2c0.4,1.1,1.6,0.7,2.4,0.8c1.6,1,1.6,2,0,3c-0.3,0-0.7,0-1,0c-1.6,1.1-4-0.2-5.4,1.6
	c0.7,0.5,1.5,0.8,2.3,0.9c2,0.2,4.8,0.5,4.9,2.2c0.1,2.2-2.8,2.9-4.6,4c-1.4,0.9-3.2,0.5-4.9,0.7c-1.3,0.2-1.9,0.3-1.6,2.2
	c0.5,2.7-1.4,5.1-3.8,5.4c-4.5,0.5-9.1,2.3-13.7,0.5c-1-1,1.5-4.1-2.3-3.5c-1.1,0.2-2.3-0.6-2.3-2.1c0-1.3,0.9-2.3,2-2.5
	c5.6-1.1,10.9-3.2,16.6-3.9c-0.8-1.7-2.9-1.9-4.7-2.6c-1.1-0.5-3-0.1-2.8-2c0.2-1.6,1.8-1.8,3-2.1c2-0.6,4.4-0.8,4.3-3.8
	C69.9,23.3,71.5,22.7,73,22.1z"/>
<path class="st79" d="M55,47.1c4.3,0.8,8.4-1.5,12.8-0.7c2.1,0.4,3.5-2,4.3-3.7c0.9-1.9-2.6-1-2.5-2.9c3.9-3.3,10.6,0.5,13.5-5.3
	c-2.8-2.1-7.6-0.3-9.9-5.3c3.3,1.7,6.1,0.8,8.9,0.9c-0.7,1.2-2,0.9-3.9,1.4c1.7,0.4,2.5,0.7,3.4,0.9c2.3,0.4,5.5,0,5.1,3.5
	c-0.2,2-3,2.2-4.8,2.7c0.1,0.3,0.1,0.6,0.3,0.8c1.1,1.1,4.5,0.1,3.3,3c-1,2.2-3.6,3.1-6,2.8c-0.8-0.1-1.5-1.2-2.6-1.1
	c-1.2,0.1-3-0.6-3.4,1.2c-0.4,2,1.7,2.2,2.7,2.2c4.8-0.3,7.6,4.2,12,4.6c-2.4,2-5.1,1.5-7.5,0.5c-6.3-2.5-12.4-3.1-18.6,0.2
	c-0.5,0.1-1,0-1.4,0c-1.7-0.5-3.1-1.6-5-1.4c-1.3,0-2.4,0.9-3.7,1c-2.1-1-1.5-2.8-0.9-4.2C51.7,46.5,53.3,46.2,55,47.1z"/>
<path class="st80" d="M60.9,52.2c6.2-3.9,12.7-4,19.2-0.9c2.5,1.2,5.2,0.7,7.9,0.8c0.7,2.3,1.3,4.7,2,7c0.8,1.1,0.5,1.8-0.8,2.2
	c-0.4-0.2-0.8-0.5-1.1-0.9c-1.1-3.5-2.1-7.1-7.1-6c-0.9,0-1.8-0.1-2.8-0.3c-3.3-0.4-5.2,1.4-6.9,3.9c-1.2,1.8-1.9,5.7-5.1,3.7
	c-3.2-2-1.2-5,0.3-7.4c0.3-0.4,0.7-0.7,1.1-1.4c-2.3-0.4-4.4,1.7-6.6,0.6c-0.3-0.2-0.4-0.5-0.3-0.8C60.8,52.3,60.9,52.2,60.9,52.2z"
	/>
<path class="st79" d="M82,25.1c0.7-1.9,0.7-1.9-3.4-2.3c3.7-4.1-0.4-5-2.6-6.7c4.7-0.9,6.8,4.7,11.2,4.4c0,1,0.5,2.1,0.1,2.9
	C86.1,25.5,83.9,25.1,82,25.1z"/>
<path class="st81" d="M89.1,61.1c0.8-0.5,0.9-1.2,0.9-2c1,0,2,0,3,0v0c-0.4,2.7-0.1,5.3,0,8c0,0.7,0,1.3,0,2
	c-0.2,0.1-0.4,0.1-0.6,0.2c-1.7-0.8-1.8-2.8-3.2-3.9c-0.4-0.5-0.8-1.1-1-1.8C88.1,62.7,88.2,61.8,89.1,61.1z"/>
<path class="st79" d="M83,30.1c0.6-1,0.6-2,0-3c1,0.2,2.6-0.4,2.6,1.3C85.5,29.7,84.2,30.1,83,30.1z"/>
<path class="st17" d="M95,100.1c0,0.3,0,0.7,0,1c-0.1,4.4,0.1,8.8-0.2,13.3c-0.1,1.3-0.1,2.5-0.6,3.8c-0.7,0.3-1.2,0.1-1.7-0.4
	c-1.1-1.6-1-3.5-1-5.3c0-12.6-0.2-25.2-0.1-37.8c0.3-1.9-0.1-3.9,1.5-5.5c0,0,0.1,0,0.1,0c1.7,1.7,0.4,4.3,2,6
	C94.5,83.5,94,91.8,95,100.1z"/>
<path class="st17" d="M93,67.1c-1-2.7-1.9-5.3,0-8c0.8,0.4,1,1.2,1,2C91.8,62.8,95.4,65.5,93,67.1z"/>
<path class="st21" d="M62,339.1c-1,0-2,0-3,0c-2.3-3.2-4.8-6.2-9-7c-2.1,0-2.9-0.9-2.1-3c1.5,0.1,3.6,1.1,2.9-2
	c-0.2-0.8-0.8-1.9-0.5-2.3c3.4-4.8,0.3-5.4-3.5-6c-1.7-0.3-3.3-1.8-2.1-4.1c0.5-1,1-2.1,2.3-2.4c2.2-0.4,1.6,2.3,2.9,2.8
	c1.9-0.8,3.2,0.6,4.6,1.4c1,1.8,4.5,0.6,4.3,3.7c-1.5,1.2-3.6,1.6-4.5,3.6c-1.2,2.6-1.1,4.4,2.2,5.2c0.4,0.3,0.3-1,0.2-0.3
	c0,0.2-0.2,0.1-0.5,0c-1.8-0.9-3.7-1.7-1-3.7c1.9-1.4,2.3-4,4.3-5.4c5.9-1.7,11.4-1.4,16.3,2.8c2.5,2.2,2.3,4.4-0.9,5.6
	c-3.5,1.3-7.2,1.4-10.8,0.8c-1.7-0.7-1.5-3.1-3.3-3.9c-0.4,2,2.3,1.7,2.3,3.2c0.3,2.4,2.5,2.8,4.1,3.9c1.5,1,3.4,2.1,0.9,4.1
	c-2.1-0.1-4.2-0.1-6.3-0.2c-1-0.1-2.1-0.6-2,0.9c0.1,1.1,1.3,1.2,2.3,1.3c0.3,0.2,0.3,0.4,0.3,0.7C62.2,338.9,62.1,339.1,62,339.1z"
	/>
<path class="st82" d="M59,320.1c-1.2-1.7-4.3-0.4-5-3c1.2-1.3,2.7-1.3,4.1-0.8c3.8,1.5,7.7,1.2,11.6,1.5c2,0.1,4.1-0.1,5.7,1.4
	c2.3,2.4,4.4,4.9,8.3,4.3c1.2-0.2,2,1,1.9,2.4c-2.1,4.2-6.7,3.8-10,5.9c2.6,0.6,4.8-0.4,6.9-2.2c1.1-1,2.2-2.1,3.8-2.2
	c1.6,0.2,3,0.7,2.8,2.8c-5.9,5.9-12.9,8-21,6c1.5-4.1-2.6-3.7-4.2-4.4c-2.8-1.1-1.9-2.1-0.8-3.6l0,0c3.7-0.3,7.5-0.7,11.2-1
	c1.2-0.1,2.4-0.5,2.4-2c0-1.2-1.2-1.3-1.9-1.9C70,318.9,64.4,320.2,59,320.1z"/>
<path class="st77" d="M93,317.1c1.5,1.7,0.2,3.3,0,5c-3.4,0.9-5.2-2.5-8.2-2.9c-1.5-0.2-2.9-1.4-4.6-1.4c-0.5,0-0.9-0.1-1.4-0.1
	c-1.6-0.4-3.2-0.4-4.8-0.8c-0.5-0.1-1-0.3-1.4-0.5c-2.1-1.4-6.2-2-5.5-4.7c0.9-3.4,4.5-0.6,6.9-1c1.7-0.3,3,1.2,4.7,1
	C83.8,312.9,89.2,312.9,93,317.1z"/>
<path class="st29" d="M85,326.1c-0.1-1.1-0.6-2.2-1.7-1.8c-4.5,1.8-6.1-1.7-8.3-4.2c1.2-1.2,2.6-0.5,3.6,0.2
	c2.5,1.7,4.6,0.8,6.8-0.7c5.3,0.4,5.9,1.3,4.6,6.6c-1.2,1.1,0.7,3-1,4c-0.6-1.3-1.6-2-3-2C85.7,327.4,85.6,326.6,85,326.1z"/>
<path class="st83" d="M90,326.1c-0.6-2.9,0.4-7.1-5-6c-2.7,0.7-4.3-0.4-5-3c5.2-0.5,8.9,2.8,13,5C92.9,324.1,91.6,325.2,90,326.1z"
	/>
<path class="st83" d="M93,317.1c-4.6-1.9-9-4.2-14-5c-0.3-0.2-0.4-0.5-0.3-0.7c0.1-0.2,0.2-0.3,0.3-0.3c4,0,7.6,2.8,11.9,1.7
	c1.4-0.3,0.9,1.9,2.1,2.3l0,0c0,0.3,0,0.6,0,0.9C93,316.4,93,316.7,93,317.1z"/>
<path class="st82" d="M62,339.1c0-0.3,0-0.7,0-1c2.5,0,5.1-0.3,7,2c0.3,0.2,0.5,0.5,0.3,0.7c-0.1,0.2-0.2,0.3-0.4,0.3
	C66.5,340.9,64.4,339.4,62,339.1z"/>
<path class="st21" d="M69,341.1c0-0.3,0-0.7,0-1c2.3,0,4.7,0,7,0C73.9,342,71.3,340.7,69,341.1z"/>
<path class="st21" d="M62,339.1c2.6-0.4,4.8,0.9,7,2c0,0.3,0,0.7,0,1C66.5,341.5,64.2,340.4,62,339.1z"/>
<path class="st6" d="M55,47.1c-3,0.4-5,1.5-3,5c0.3,0.4,0.5,0.8,0.6,1.3c-1.1,3.7-0.7,7.7-1.8,11.4c-1,3.2,0.4,6.8-1.2,10
	c-2.5,1.5-2.1-1.2-2.9-2.1c-0.7-1.2-1.5-2-3.1-1.8c-1.3,0.2-2.7,0-3.4-1.4c0.9,3.1,4.4,1.6,6.1,3.3c1.6,7,1.2,7.9-5.7,7.7
	c-1.9,0-1.8,2.3-3.5,1.6c0-3,0-6,0-9c0.7-0.7,0.6-1.5,0.5-2.3c-0.5-5.3,0.3-9.5,6.8-10.3c1.8-0.2,2.5-2,0.8-3.3
	c-4.3-3.3-0.7-4.2,1.6-5.5c-1.3-1.3-5.5-1.5-1.7-4.6c4.8-2.1,1.9-3-1.4-3.7c1.9-1.1,3.1-1.8,4.4-2.4c1.2-0.6,2.2-1.3,0.6-2.5
	c-1-0.8-1.5-1.5-0.3-2.2c2.7-1.6,2.1-2.8-0.1-4.1c-0.8-0.5-1.3-1.3-0.6-2c0.8-0.9,1-2.6,2.8-2.3c1.6,0.2,3.3,0.8,4.6-0.7
	c4.8-1.9,9.8-2.7,15-2c0.5,5.8-5,3.7-7.9,6c3.6,1.2,8.2,0.8,9.1,5.7c-6.3-0.1-11.8,3.1-18,3.5c-0.9,0.1-1.6,0.7-1.6,1.6
	c0,1.1,1,1.1,1.8,1.2c1.6,0.2,3.4-0.5,5.1,1.1C57.6,45.6,55.3,45.4,55,47.1z"/>
<path class="st53" d="M70,25.1c-4.9,1.5-9.8,2.4-15,2c-1.8,0-3.6,0.1-5.1-1.3c0.2-0.3,0.4-0.5,0.6-0.6c1.5-0.6,4.3,1.1,4.1-1.9
	c-0.1-2.1-2.4-1.6-4-1.3c-0.5,0.1-1.1-0.6-1.6-0.9c0.3-0.6,0.8-1.1,1.3-1.5c-1.1-0.8-2.2-0.1-3.3,0.1c-2,0.2-3.7,0.1-4.4-2.1
	c-0.7-2,0.4-3.6,2-4.6c2.8-2,5.9-2.8,9.3-2.6c3,0.5,4.3,2.4,4,5.4c0.1,0.5,0.4,0.9,0.9,1c5.6,0.7,5.6,0.7,2.5,4.9
	c2.3,2.3,4.6,0.6,6.8,0c1.4-0.4,2.3-2,4-1.5c0,0.8,0.2,1.6,1,2C72,23.1,71,24.1,70,25.1z"/>
<path class="st84" d="M54,11.2c-3.2,0.5-6.6,0.8-9.3,2.9c-1.1,0.8-2,1.9-1.4,3.4c0.7,1.6,1.9,1.5,3.3,1c0.6-0.2,1.4-0.4,1.9-0.3
	c1.7,0.5,4.1-2.4,4.7,0c0.6,2.1-2.4,2.5-4.3,3c-1.7,0-3.3,0-5,0c-1,0.7-0.7,1.3,0,2c0.1,0.5,0.2,0.9,0.3,1.4
	c-2.5,0.1-4.3-1.2-5.9-2.8c-1.6-1.7-0.9-3.9,0.2-5.5c2.7-4,6.4-6.7,11.4-7.1c2.8,0,5.5,0.2,8.3,0c3.1-0.2,4.1,1.2,3.7,4
	c-0.4,1.1-1.2,1.6-2.3,1.7C57.2,14.5,57.1,10.5,54,11.2z"/>
<path class="st6" d="M45,47.1c-0.1,1-2,2.6,0.8,2.6c1.8,0,3.8,0.4,3.7,2.3c-0.1,2-2.5,0.7-3.7,1.4c-0.6,0.3-1.2,0.6-1.8,0.9
	c0.3,1.7,2.2,1.4,2.8,2.3c1.4,2.1,1.9,4.9-1.4,5.1c-6.3,0.4-7.8,3.8-7.4,9.2c0.1,0.7-0.6,1.4-0.9,2.2c0-4,0-8,0-12
	c1.8-0.7,2.5-3.1,5.3-2.9c-3.8-2.4-4.4-5.5-3-9C40.4,46.8,42.9,47.2,45,47.1z"/>
<path class="st53" d="M44,23.2c-1.3-0.2-3-0.5-2.5-2.2c0.4-1.3,1.6,0,2.5,0.2C44,21.8,44,22.5,44,23.2z"/>
<path class="st85" d="M37,82.1c1.2-0.5,0.6-2.9,3-2.3c5.6,1.3,6.1-2.5,5.9-6.7c-0.2-0.9,0.1-1.2,1-1c0.7,1,1.3,2,2,3
	c0.8,5.5,0.2,11.1,0.8,16.7c0.1,0.7,0.1,1.4-0.1,2c-0.5,1.9-0.8,3.7-0.2,5.6c0.1,0.4,0.2,0.8,0.3,1.3c0.3,1.6,0.3,3.1,0,4.7
	c-0.1,0.5-0.2,0.9-0.3,1.3c-0.5,1.5-0.3,3.3-1.4,4.7c-3.4,2.9-7.2,2.5-11.1,1.6c0-8.7,0-17.3,0-26c1.1-2,2.7-1.3,4.3-0.8
	c1,0.3,2,1.4,3.1,0.3c0.7-0.7,0.5-1.5,0-2.3c-0.8-1.2-1.9-1.7-3.3-1.7c-1.4,0.1-2.6,1.7-4.1,0.4C37,82.8,37,82.5,37,82.1z"/>
<path class="st86" d="M37,182.1c-0.3-2.6-0.6-5.2-1-7.9c2.1-5.1,0.5-10.4,0.9-15.7c0.2-2.8,0.1-5.6,0.1-8.5c3.3-2.1,7-1.7,10.7-1.4
	c0.5,0.3,0.9,0.7,1.1,1.3c0.7,1.9,0.4,3.9,0.5,5.8c0.2,2.7,1,5.3,0.1,8c-0.3,2.6-0.1,5.3-0.2,7.9c0,1.1-0.2,2.1-0.8,3
	c-0.3,0.4-0.7,0.7-1.2,0.8c-7.1-0.1-7.1-0.1-9,6.4C37.9,182.2,37.5,182.3,37,182.1z"/>
<path class="st87" d="M48,149.1c-3.5,1.4-7.3,0.9-10.9,1c0-6.3,0-12.7,0-19c0.6-1.3,0.9-2.9,2.6-3.1c2.8-0.4,4.9-2.3,7.3-3.4
	c0.5,0,1,0.2,1.4,0.6c1.7,4.2,1.2,8.6,0.6,12.9c-2.3,3.1-2.5,6.3-0.7,9.7C48.4,148.3,48.3,148.7,48,149.1z"/>
<path class="st85" d="M47,125.1c-1,2-2.5,3.1-4.8,3.5c-1.9,0.3-4,0.5-5.1,2.5c0-5,0-10,0-15c1-0.3,1.8,0.6,3.1-0.2
	c4.8-2.7,8.1-0.6,7.7,4.9C47.8,122.3,48.2,123.9,47,125.1z"/>
<path class="st38" d="M47,125.1c-0.1-1.6-1.1-3-0.3-4.8c0.8-1.6,0.1-3.1-1.6-4.2c-1.7-1.1-3.2-0.8-4.4,0.6c-1.7,1.9-2.7,1.2-3.7-0.6
	c0-1,0-2,0-3c3.5-1.8,7.6,0.2,11-2c2.5,4.7,1.8,9.3,0,14C47.7,125.1,47.3,125.1,47,125.1z"/>
<path class="st6" d="M37,83.1c3.1-2,6-3.3,8.9,0.4c1.4,1.7,0.5,3.2-0.3,4.5c-1,1.7-2.4,1.1-3.7,0c-1.4-1.2-3.1-1.9-4.9-1
	C37,85.8,37,84.5,37,83.1z"/>
<path class="st77" d="M47,175.1c0.3,0,0.7,0,1,0c0.2,0.2,0.4,0.4,0.6,0.7c1.5,7.3,0.7,14.6,0.5,21.8c-0.6,2.1-1.9,1.8-3.5,1.1
	c-2.9-1.3-5-1.1-5.6,2.7c-0.2,1.2-1.1,2.4-2.5,2.9c-0.5-0.1-0.9-0.4-1.2-0.9c-2-4,2.1-7.5,1.1-11.5c-0.2-0.6,0.1-1.3-0.4-1.8
	c0-2.7,0-5.3,0-8c0.3,0,0.6,0,1,0c0.2,0.1,0.4,0.2,0.7,0.2c1.2,3.2,3.3,6,5,9.4c2.2-0.7,1.8-3,2.1-5c0.6-3.7-1.7-7.6,0.7-11.2
	C46.6,175.3,46.8,175.2,47,175.1z"/>
<path class="st88" d="M33,258.1c-2.1-5.2-0.5-10.7-1-16c0.8-1.9-4.1-2.7-1-5l0,0c1.4-2.1-1.1-3.5-0.9-5.4c-0.7-5.7,0.6-11.4,0.2-17
	c0.7-3.1,0.7-6.1,0.2-9.2c0-0.5,0-0.9,0-1.4c0.2-1.2,0.3-2.3,0.2-3.5c-0.3-2.9-0.9-5.9,1.3-8.4c0-2,0-4,0-6.1c2,3.1,0.2,6.9,2,10
	c0.6,8.5,0.3,17,0.4,25.5c0,0.9,0,1.8,0,2.8c-0.1,4,0,8,0,12c-0.1,5.4,0.1,10.8,0.1,16.2C34.5,254.6,34.6,256.6,33,258.1z"/>
<path class="st29" d="M33,222.1c0-7.1,0-14.2,0-21.3c0-1.6-0.5-3.4,1-4.7c1.5,3.7,2.5,0.6,2.5-0.4c0-1.9,0-3.7,0.5-5.6
	c2.7,4.7-1.2,9.3,0,14c-0.2,0.1-0.4,0.2-0.6,0.2c-0.6-0.2-1.8-2.1-1.2,0.5c0.1,0.6,0.1,1.3,0.2,2c0.1,3.7,0.1,7.5-0.1,11.2
	C35.2,219.6,35.6,221.7,33,222.1z"/>
<path class="st64" d="M32,192.1c-0.6,3-0.7,6,0,9c-1.9,0.5,0.2,2.3-1,3l0,0c-1,2.2-0.3,6.1-4.5,5.5c0.8,1.7,5.8,0.1,4.5,4.5
	c1.5,6-0.2,12,0,18c-1,0.9-2,0.8-3,0c-0.3,0-0.7,0-1,0c-5.2-1-4.4-5.4-5-9c1.7-0.3,3.3-0.7,5-1c1.6-2.4-0.5-3.1-1.9-4.1
	c-3-2.1-1.1-3,0.9-3.9c0.2-3.9-2.6-1.4-4-1.8c-0.8-0.2-2,0.6-2.5-0.7c-0.5-1.3,0.9-1.5,1.5-2.2c0.6-0.6,1.4-1,1.8-1.7
	c0.6-0.9,2.9-0.1,2.2-1.9c-0.5-1.1-1-3.1-3.2-2.3c-1.1,0.4-2.2,0.1-2.2-1.1c0-1.1,1.2-1.4,2.2-1.4c1.3-0.1,2.6,1.1,3.8,0
	c1.8-1.5-1.4-2.1-0.8-2.5c1.3-1,3.1-1.5,5-2.4c-3-2.2-5.9-2.5-9.3-2.2c0.1-2.8,1.9-3.6,3.8-3.9c2.2-0.3,4.2-1.2,4.2-3.4
	c0-1.9-1.9-3.4-3.6-4.4c-1-0.6-3.2,0.1-2.8-1.9c0.4-2.1,2.3-1.2,3.7-0.9c1.4,0.2,2.5-0.6,3.6-1.6c-1.4-1-2.5-1.9-3.7-2.8
	c3.5-0.2,6.2-0.7,4.6,4.9c-0.9,3.2,1.3,7.1-0.7,10.7C29.4,191.6,31,192,32,192.1z"/>
<path class="st81" d="M33,258.1c0-7.3,0-14.7,0-22c0.5-0.3,1-0.2,1.4,0.2c1.8,2.9,0.1,6.5,1.7,9.4c2.3,5.5,0.5,11.3,1.4,16.9
	c0.1,0.5,0.1,1.1,0,1.6c-0.6,2.6-0.3,5.1,0.3,7.7c0.1,2.3-0.6,4.5-0.8,6.8c-0.1,1.3-0.6,2.8-2.2,2.7c-1.5-0.1-1.4-1.4-1.5-2.6
	c-0.2-1.6-0.5-3.2-0.7-4.8c0.3-5-0.3-9.9,0.3-14.9C33,258.8,33,258.4,33,258.1z"/>
<path class="st88" d="M33,259.1c0.3,4.7,1.4,9.3,0,14c0.7,1.7,0.8,3.3,0,5c-2.4-1.5-0.6-5.6-4.1-6.4c0.7-0.5,1.4-1.1,2.1-1.6
	c2.3-0.9,0.9-2.7,1-4.1C32.3,263.7,31.1,261.2,33,259.1z"/>
<path class="st89" d="M31,237.1c-1.2,2,1.9,3.1,1,5c-1.1-0.9-1.9-2.2-3.7-2.1c-1.2,0.1-3.1,0.4-2.9-1.6c0.1-1.9,2-1.3,3.2-1.4
	C29.4,237,30.2,237.1,31,237.1z"/>
<path class="st89" d="M28,232.1c1,0,2,0,3,0c0.7,1.7,1.9,3.3,0,5C31.4,234.6,28,234.4,28,232.1z"/>
<path class="st90" d="M24,299.1c0.9-1.6,3.1-0.4,4-2c6.8-1.9,4.8-7.4,5-12c2.4-0.1,1.6,2.4,2.9,3.7c0.5-5.5,0.2-10.6,1.6-15.6
	c0.4-1.4-0.5-2.6-1-3.8c0.2-1.8-0.5-3.6,0.5-5.3l0,0c0.4-0.3,0.8-0.3,1.3,0c0.8,0.9,0.9,2.1,1.3,3.2c4.7,2.4,5.8,1.7,6-3.9
	c-1-4.5-2.7-9,0.6-13.3c0.5-0.7,1-1.3,2-0.8c2.2,7.3,1.3,14.6,0.5,22c-2.8,1.4-3.9,4.9-7.1,5.9c-1.9,0.6-1.6,2.1-0.3,3
	c3.7,2.4,1.5,4.2-0.4,6.1c-0.1,0.6-0.1,1.3-0.3,1.9c-1.6,2.2,0,5.2-1.8,7.4c-2.7,0.4-5.1,2-7.8,2.5C28.8,299.4,26.6,300.3,24,299.1z
	"/>
<path class="st85" d="M69,319.1c-5.2,0.5-9.9-1.8-15-2c-1.3-0.7-2.7-1.3-4-2c-0.2-2.1,0.5-4.6-2-6c-1,1.5-2.3,2-4,1
	c-0.3-0.3-0.7-0.7-1-1c-0.3-0.3-0.4-0.5-0.3-0.8c0.1-0.3,0.1-0.4,0.2-0.4c3.8-2,7.3-3,10.3,1.5c1.4,2.1,3.6,1.1,5.3,0
	c1.5-0.9,2.3-3,4.6-2.5c0.3,0.4,0.5,0.8,0.6,1.2c-0.4,2.8,1.4,4,3.6,5.1c2.2,1.1,4.4,1.9,6.7,2.8l0,0c0.2,0.2,0.3,0.5,0.3,0.7
	c0,0.3-0.1,0.4-0.2,0.4C72.8,318.7,70.3,317.2,69,319.1z"/>
<path class="st91" d="M34,310.1c-3.2-0.7-6.2,1.8-9.6-0.2c-4.1-2.5-4.4-4.4-0.4-7.1c1.3-0.9,3-1.3,4.5-2c1.6-0.8,3.7-0.6,4.6-2.6
	c2.8-2.4,6.1-2.4,9.4-2.1c2,0.2,3.6-0.1,5.2-1.1c0.5-0.1,0.9-0.1,1.4,0c1.2,4.8-0.9,7.3-6.4,6.4c-4.8-0.8-8.7,0.9-12.9,2.4
	c-1.3,0.5-3.5,0.8-3.2,2.5c0.4,2.1,2.7,1.3,4.2,1.3c2.8-0.1,5.4-0.8,7.8-2.7c2.6-2.1,4.6-1.8,4.7,2.2
	C40.4,308.5,37.5,310.1,34,310.1z"/>
<path class="st54" d="M48,329.1c0.1,1.4,0.7,2.4,2.1,3c0.7,1,1.3,2,2,3c-6.1,1.6-12.1-1.6-18.2,0c4.3-2.3,9-2.2,13.9-2.7
	c-3.5-4.1-8.5-1.2-12.2-3.1c1.4-4.5,5.5,0.3,7.5-2.2c1.1,1.1,2.1,2.4,4,2C47.3,329.1,47.6,329.1,48,329.1z"/>
<path class="st30" d="M48.1,295.1c-0.9,1.2-1.2,3.4-3.5,2.6c-3.9-1.4-7.7-0.3-11.5,0.4c-0.7,0-1.4,0-2.1-0.1c2.4-1.7,4.3-4.7,8-3
	c1.8-1.9,4.1,0.4,6-0.8c0.6-0.3,1.2-0.5,1.9-0.5c0.4,0.2,0.8,0.4,1.1,0.8C48,294.7,48,294.9,48.1,295.1z"/>
<path class="st92" d="M34,310.1c3.3-0.1,5.3-4.1,9-3c0.3,0.2,0.3,0.4,0.3,0.6c-0.1,0.2-0.2,0.3-0.2,0.3c0,0.3,0,0.7,0,1
	c-1.8,0.7-1.8,0.7-1.4,4.6C38.4,313.9,37.2,309.5,34,310.1z"/>
<path class="st93" d="M47.8,323c-1.7,1.5-3,1.2-4.1,0c-0.5-0.6-0.4-1.4,0.3-1.6C45.7,320.9,46.7,321.9,47.8,323z"/>
<path class="st92" d="M44,310.1c1.5,0.2,2.8-0.3,4-1C47.3,311.9,45.8,311.5,44,310.1z"/>
<path class="st30" d="M37,270.1c2.7,4.2-0.8,8.5,0.3,12.9c0.4,1.8,1.2,4.4-0.2,6.7c-0.5,0.8-0.1,2.2-1.6,1.9c-0.8-0.1-1.2-1-1.4-1.8
	c-0.3-1.6,0.5-3.4-1.1-4.7c0-0.3,0-0.7,0-1c-0.7-1.7-0.7-3.3,0-5c0-0.3,0-0.7,0-1c0-1.7,0-3.3,0-5c2.2,2.1,0,5.2,2.3,8.2
	c0.6-3.9,1.2-7,1.7-10.2c-0.3-0.2-0.4-0.5-0.3-0.7C36.8,270.2,36.9,270.1,37,270.1z"/>
<path class="st88" d="M33,279.1c0,1.7,0,3.3,0,5c-0.3-0.3-0.7-0.7-1-1C32.1,281.7,31.5,280.1,33,279.1z"/>
<path class="st94" d="M25,324.1c-0.8,0-1.6-0.2-2-1c0-0.3,0-0.7,0-1c1.5-0.9,3-0.1,4.6-0.2C27.6,323.8,26.3,323.9,25,324.1z"/>
<path class="st45" d="M27,332.1c-0.3-0.3-0.7-0.7-1-1c1-0.8,2.2-2.8,3.3-0.7C29.9,331.7,28,331.9,27,332.1z"/>
<path class="st94" d="M31,321.1c1.3,0,2.7,0,4,0C33.7,324.4,32.3,323,31,321.1z"/>
<path class="st68" d="M26,214.1c-0.7,1.1-3.3,2.1,0.3,3.2c1.8,0.6,4.2,2.7,0.7,4.8c-0.1-1.1-0.7-2.1-1.8-1.9
	c-4.6,0.9-5.2-3.4-7.4-6.1C20.5,214.1,23.3,214.1,26,214.1z"/>
<path class="st95" d="M84,250.1c1,4.6-1.2,9.7,2,14c0.7,1.3-0.5,1.9-1,2.8c1.5,4.8-1.8,9.5,0.2,14.3c-0.4,3.7-1,7.4-0.5,11.1
	c0.5,3.1-1.2,3.7-3.8,3.1c-3.6-2.8-1.8-6.8-2.3-10.3c0.8-5.3-2.4-10.4-0.4-15.7c0-0.5,0.1-0.9,0.2-1.4c0.9-2.5,0.1-4.9-0.3-7.3
	c-0.9-3.1,1.9-6.1,0.2-9.2c-0.8-2.2,0.9-4.7-0.7-6.9c-0.2-0.4-0.3-0.9-0.4-1.3c0.2-2.1,0.6-4.1,2.5-5.5c1.7,0.3,2.4-2.1,4.2-1.8
	C84,240.8,84,245.4,84,250.1z"/>
<path class="st91" d="M84,236.1c-1.6,0.2-0.2,6.3-4,2c-2.9-2.7-3.6-6-2.3-9.7c0.3-5,1.3-9.9,1.1-14.9c0-1.5-0.3-2.8-1.5-3.8
	c0-7.1,0.2-7.6,3.5-9.2c3.5,0.8,0.9,4,2.2,5.7c0.8,4.3,0.1,8.8,0.6,12.9C84.2,224.8,82.8,230.5,84,236.1z"/>
<path class="st75" d="M95,180.1c0.9,2.6-1,5.5,0.9,8c-0.9,5.6-1,11.3-1,17c0.7,1,0.9,2,0,3c-0.3-0.3-0.7-0.7-1-1
	c-1.5-4.6,0.5-9.4-1-14c-0.3-0.3-0.7-0.7-1-1c-0.4-0.7-0.1-1.4,0.1-2.1c0.7-4.3-0.3-8.7,1.6-12.8c0.4-0.4,0.9-0.4,1.3-0.1
	C95,178.1,95,179.1,95,180.1z"/>
<path class="st58" d="M91,192.1c0.4,1.9-0.9,2.9-2,4c-1.4,0.6-2.3,2.1-4,2c-2.5-0.2-1.9-2.2-2.3-3.7c0-1.3,0.1-2.6,0.6-3.8
	C85.5,189.7,88.7,190.3,91,192.1z"/>
<path class="st95" d="M84,194.1c0.1,1.4-0.5,2.9,1,4c-0.8,1.9,0.3,4.2-1,6l0,0c-0.8,0.4-1,1.2-1,2c-2-1.1,0.3-4.8-3-5
	c-0.6-0.5-0.6-1.2-0.3-1.8C81.7,198,80.6,194.2,84,194.1z"/>
<path class="st6" d="M91,192.1c-2.4-2.3-2.5,1.8-4.4,1.5c-0.2-1.5,0.6-4.1-2.6-3.4c-0.6-0.8-0.6-1.5,0-2.3c2.2-0.9,4.4-0.5,6.6-0.5
	c2.6-0.1,3.4,1.4,2.3,3.8c-0.3,0.3-0.7,0.7-1,1C91.7,192.1,91.3,192.1,91,192.1z"/>
<path class="st7" d="M86,238.1c3.7,3,1.9,5.7,1.3,8.3c-0.1,0.6-1.4,0.7-1.7,0.1C84.3,243.9,86.1,241.4,86,238.1z"/>
<path class="st48" d="M95,208.1c0-1,0-2,0-3c2.2,0.9,4.4,1.9,7.4,3.2c-3.1,0.8-5.2,1.3-7.4,1.8c-0.3-0.2-0.4-0.4-0.3-0.7
	c0.1-0.2,0.2-0.4,0.3-0.4C95,208.8,95,208.4,95,208.1z"/>
<path class="st58" d="M93,193.1c2.1,4.5,0.5,9.3,1,14C91.4,202.6,93.8,197.7,93,193.1z"/>
<path class="st58" d="M84,204.1c1-0.3,2-0.7,3-1c1.1,0.9,1.9,2.1,3,3C87.1,208,85.2,207.1,84,204.1C84,204.1,84,204.1,84,204.1z"/>
<path class="st96" d="M90,206.1c-2.2,0.2-3.2-0.8-3-3C90.9,201.2,89.8,204.3,90,206.1z"/>
<path class="st2" d="M92.6,224.7c-1.7-1.1-2.3-2.4-2.2-4.4C93.1,221,93.2,222.5,92.6,224.7z"/>
<path class="st97" d="M89.9,248.2c-1-2.1-1.4-3.4,0.3-4.9C91.2,244.9,91.3,246.2,89.9,248.2z"/>
<path class="st58" d="M88.9,196c1.7,0.4,3.2,1,2.5,2.2c-0.7,1.2-1.6,0.1-2.1-0.7C89.1,197.1,89.1,196.6,88.9,196z"/>
<path class="st75" d="M95,209.1c0,0.3,0,0.7,0.1,1c0,1.7,0,3.3-0.1,5C93.4,213.1,93.5,211.1,95,209.1z"/>
<path class="st48" d="M96,235.1c-0.3-1.3-0.6-2.7-1-4C99.7,231.4,96.6,233.5,96,235.1z"/>
<path class="st56" d="M95,177.1c-0.3,0-0.7,0-1,0c-0.8-0.6-1.1-1.5-1.2-2.5c-0.1-0.6-0.1-1.3-0.1-1.9c-0.1-16,0-31.9,0-47.9
	c0-2.3-0.4-4.7,1.3-6.7c0.7-5.7-1.1-11.5,1.1-17.1c0,1,0,2,0,3c0.7,0.7,1,1.7,1.5,2.5c0.7,1.2,3.3,0.8,2.7,2.9
	c-0.6,2.3-3.1,0.3-4.2,1.5c0,1,0,2,0,3c0.8,1,0.8,2,0,3c0,0.7,0,1.3,0,2c2.9,4.3,3.8,8.7,0,13c0,4.7,0,9.3,0,14
	C95,156.5,95,166.8,95,177.1z"/>
<path class="st98" d="M84,280.1c-0.9-0.5-1.9-1-1.3-2.3c1.7-3.7,2.5-7.4,0-11.2c0.4-0.2,0.9-0.4,1.3-0.6c2.4-0.3,4.9-1.4,7,1
	c1.2,0.1,2.8,0.5,2.4,1.8c-0.9,2.6,0.9,4.8,0.7,7.2c0,0,0,0,0,0c-3.7,2-3.7-1-4.4-3.3c0.3,1.9-0.7,3-2,3.8
	C86,277.3,85.3,279,84,280.1z"/>
<path class="st99" d="M91,267c-2.3-0.3-4.7-0.6-7-1c0.7-0.7,1.3-1.3,2-2c1.3,0,2.7,0,4,0c0.9-0.3,1.2,0.1,1,1
	C91,265.7,91,266.4,91,267z"/>
<path class="st95" d="M91,265c-0.3-0.3-0.7-0.6-1-1c-0.1-0.9-2.2-1.2-0.9-2.2c1.1-0.8,2.8-0.1,3.5,0.9C93.5,264.2,92.4,264.9,91,265
	z"/>
<path class="st100" d="M69,300.1c0.7,1.2,2,0.9,3.1,1c0.1,1-0.5,1.4-1.2,1.7c-3.2,0.3-6.1-0.5-8.8-2.2c-0.5-0.6-0.7-1.2-0.5-2
	c0.6-0.7,1.2-1.3,0-2.1c-0.1-2.2,1-3.2,3.1-2.5c3.8,1.2,4-1,3.5-3.6c-0.3-1.6-0.6-3.1,1.8-3c2.7,2.8,6.4,1.3,9.5,2
	c0.1,1.7,0,3.3,0.1,5c-1.4,2.1-4,0.9-5.8,2C72.1,297.5,69.5,297.4,69,300.1z"/>
<path class="st101" d="M89,295.1c5.1,0.3,2.4,3.5,2.1,6c1.6,0,3.2,0,4.9,0c-0.2,1-3.7,1-1,3c-4.4-0.6-9.2-0.5-12-5
	c1.7-0.7,1.8-1.9,1.3-3.4c0.3-0.8,0.3-2,1.7-1.6C87,294.4,88,294.7,89,295.1z"/>
<path class="st96" d="M86,294.1c-0.8,0.4-1,1.2-1,2c-0.6,0.6-1.3,0.6-2,0.1c-0.7,0-1.4,0-2,0c-0.4,0.3-0.8,0.3-1.2-0.1
	c0-0.9,0.3-1.3,1.2-0.9c1.6,0,3-0.2,3-2.3c0-4.2,0-8.5,0-12.7c-0.1-2.2,0.4-3.8,3-4c1.3-0.6,2.6-0.9,3.4,0.5
	c0.6,1.1,0.2,2.2-0.3,3.3c-0.7,1.4-2,2.1-3.1,3.2c-3.7,2.5-1.3,5.8-1.1,8.8C86,292.6,86.3,293.3,86,294.1z"/>
<path class="st102" d="M80,296c0.3,0,0.6,0,1,0.1c-0.9,4.1-4.4,3.5-7.3,4c-1.6,0.3-3.1-1-4.7,0c-0.8-0.2-2.1-0.8-1.4-1.3
	c3.4-2.4,6.6-5.5,11.4-3.7C79.4,295.3,79.8,295.6,80,296z"/>
<path class="st95" d="M71,302.1c0.4-0.3,0.7-0.6,1.1-1c6.3-0.1,12.2,1.7,17.9,3.9c0,0.3,0,0.7,0,1c-5.3,1.3-10.4-0.7-15.5-1.2
	c-0.8,2.3,2.2,2.4,1.6,4.1c-1.4,0.2-2.9-0.4-4,1c-0.9,0.4-1.4-0.2-1.8-0.9C70,306.7,68.3,304.1,71,302.1z"/>
<path class="st102" d="M83,296.1c0.7,0,1.3-0.1,2-0.1c2.5,3.1,0.5,3.2-2,3C83,298.1,83,297.1,83,296.1z"/>
<path class="st17" d="M87,283.1c-0.1-1.6,1.2-2.5,2.1-3.6c1.9-2.6,0.4-3.3-2.1-3.4c0.8-1.1,2.5-1.7,1.2-3.6
	c-0.5-0.7-1.7-2.2,0.3-2.7c1.2-0.3,2,1.1,2.3,2.2c0.5,1.9-0.1,4.6,3.3,4.2c0.2,4-1.4,8,0,12c-1.8,1-2.4,0-2.5-1.6
	c0-1.4-0.1-2.7-1.5-3.4C89,283.1,88,283.1,87,283.1z"/>
<path class="st96" d="M90,283.1c1.8,0.1,2,1.3,2,2.7c0,1.3,0.6,2.2,2,2.2c0,0.3,0,0.7,0,1C88.6,289.8,92,284.6,90,283.1z"/>
<path class="st84" d="M76,309c-0.7-0.3-1.4-0.9-2.2-1c-1.8-0.3-2-1.5-1.7-2.9c0.4-1.5,1.8-2.5,3-1.9c4.7,2.5,10,1,14.8,2.9
	c0,0,0,0,0,0c1.1,1.7,2.7,3.3,0,5c-1.6,0-3.3,0-4.9,0c-1.6-1.8-4.1-1.1-6-2C78,309.1,77,309.1,76,309z"/>
<path class="st56" d="M71,309.1c0.3,0.3,0.7,0.6,1,0.9c2.3,0.4,4.7,0.7,7,1.1c0,0.3,0,0.7,0,1c-3.7-0.5-7.3-1.6-11.5-0.7
	c1.7,2.7,4.9,2.5,6.5,4.7c-3.8,0.1-6.8-2.2-10.3-3.1c-3.5-0.9-0.3-3.2-0.7-4.8C66.8,304.8,68.6,305,71,309.1z"/>
<path class="st103" d="M93,315.1c0.2-1.7-0.5-3.7,1.7-4.6c0.3-0.1,1,0.3,1.1,0.6C96.1,313.3,94.4,314.1,93,315.1
	C93,315.1,93,315.1,93,315.1z"/>
<path class="st95" d="M90,311c1.5-1.6,0.2-3.3,0-5C92.6,307.7,94.3,309.4,90,311z"/>
<path class="st95" d="M79,309.1c2.2,0.2,4.7-0.7,6,2C83,310.4,80.8,310.5,79,309.1z"/>
<path class="st52" d="M95,132.1c0.9-1.8-2.1-5.1,2.1-5.8c0.6-0.1,0.3-0.9-0.2-1.1c-3.4-1.2-1.5-4.1-2-6.2c0.9-0.4,1.8-0.6,2.9-0.2
	c1.6,0.6,4.2-0.5,4.6,1.9c0.3,2.2-3.1,0.5-3.7,2.7c6.3,1.5,1.4,3.2-0.8,5.2c3.5,0,4.6,2,3.4,4C99.3,135.9,97.1,133.3,95,132.1z"/>
<path class="st52" d="M95,111.1c0.7-1.5,2.8-0.5,4-2.5c-3.8,0.3-4.6-1.6-4-4.5c4.2-0.7,4.1-0.7,4.4-4.4c0.1-1.3,1.4-1.6,2.6-1.7
	c1,3.1-1.4,6.2,0.5,9.5C103.5,109.4,98.4,111.8,95,111.1z"/>
<path class="st52" d="M95,117.1c0-1,0-2,0-3c2.1,0.4,4.5-0.9,6.4,1.3C99.4,116.9,97.3,117.2,95,117.1z"/>
<path class="st52" d="M100,93.1c0.5-1.6-3-4.1,1-5C99.1,89.5,104.7,92.3,100,93.1z"/>
<path class="st52" d="M102,95.1c-1.2-0.2-2.7,0.6-3.4-0.8c-0.5-1,0.7-1,1.4-1.2C100.7,93.8,101.3,94.5,102,95.1z"/>
<path class="st56" d="M95,100.1c-1.6-8.3-1.6-16.7,0-25c1.7,2.5-0.5,6.2,2.4,8.3C92.4,88.4,96.1,94.6,95,100.1z"/>
<path class="st2" d="M60,14.2c0.7-0.3,1.3-0.7,2-1c1.1-0.8,1.8-2.4,3.7-1.9c1.2,0.3,2.3,0.9,2.5,2c0.3,1.6-2.1,0.2-2.3,1.6
	c1.3,1.7,4.3,0.9,5.1,3.3c-2.1,0.7-4,1.9-6.1,2.8c-1.6,0.7-3.2,1.7-4.9,0.2c-1-2.7,2.6-1,2.6-2.9c-1.5-1.3-3.1-0.2-4.7,0.1
	c-3.5,0.5-0.6-1.4-0.9-2.1C57.6,14.9,59.2,15.1,60,14.2z"/>
<path class="st6" d="M60,21.1c4,0.1,6.8-4,11-3c0.3,0.7,0.7,1.3,1,2c-2.3,2.6-5.2,3.8-8.6,4C61.2,24.3,59.8,23.6,60,21.1z"/>
<path class="st104" d="M55,50.2c1.9-0.1,4-0.3,4.9,2c1.4,2,1.4,4.3,1.4,6.7c0,8.8,0,17.5,0,26.3c0,27.2,0,54.4,0,81.6
	c0,2.7,0.5,5.8-2.2,7.8c-0.6,0.3-1.2,0.5-1.9,0.6c-1,0-1.9-0.3-2.6-1.2c-0.9-4.8-0.3-9.6-0.3-14.4c0-32.9,0-65.8,0-98.8
	c0-2.5-0.1-5-0.6-7.4C53.4,51.9,53.8,50.9,55,50.2z"/>
<path class="st105" d="M60,85.1c0-11,0-22,0-32.9c0.3,0,0.6,0,1,0c0,0.3,0.1,0.6,0.1,0.9c2.2,2.8,1.5,6,1.5,9.1
	c-0.1,3.5,0,7-0.1,10.5c-0.3,4,0.7,8-0.8,11.9C61.2,85.3,60.7,85.4,60,85.1z"/>
<path class="st6" d="M55,50.2c-0.4,0.6-0.7,1.3-1.1,1.9c-0.3,0.9-0.8,1.6-1.9,1c0-0.3,0-0.7,0-1C52.6,50.8,53.6,50.1,55,50.2z"/>
<path class="st106" d="M89.1,61.1c0,1,0,2-0.1,3c0.3,0.2,0.4,0.5,0.3,0.8c-0.1,0.3-0.2,0.4-0.3,0.4c-2.8-0.2-2.6-2.8-3.7-4.4
	c-0.3-0.2-0.6-1.2-0.9-0.3c-0.5,1.4-0.1,2.8,0.1,4.3c0,0.2,0,0.5,0,0.7c-0.1,0.5-0.3,0.9-0.6,1.2c-2.3,2.1-4.2,4.8-7.6,5.3
	c-1.5,0.2-1.6,1.5-1.7,2.7c-0.4,3-0.6,5.9,0,8.9c0,0.5,0,1-0.1,1.6c-0.5,7.8-0.1,15.6-0.2,23.4c-0.2,14.5-1.4,29-1.5,43.5
	c0,2.7-1.1,5.1-4.1,5.3c-2.9,0.2-4-1.9-4.2-4.5c1.4-9.8,0.8-19.7,1-29.6c0.3-12.9,0.1-25.8,0.1-38.8c0-6.6-0.2-13.1,2.4-19.4
	c1.7-4,4.9-6.9,6.8-10.8c0.5-1,2-1,3.2-1.1c1,0,2,0,2.9,0c5.1-0.4,6.7,3.1,8,7C89,60.5,89,60.8,89.1,61.1z"/>
<path class="st91" d="M78,53.2c-5.8,6.1-10.3,12.9-11,21.5c-0.2,3.1,0,6.3,0,9.5c-0.5,0.2-0.9,0.1-1.3-0.2
	c-3.5-6.2,0.4-12.5-0.1-19.5c-2.6,2.1-2.1,4.5-2.5,6.6c-0.1,0.7-0.3,1.4-0.8,2.1c-0.4,0.4-0.9,0.4-1.3,0.1c0-6.7,0-13.3,0-20
	c3.1-0.3,5.8-2.7,9.4-1.7c-1.1,2.4-3.4,3.6-4.3,5.9c-0.7,1.8-0.4,3.2,0.8,3.9c1.9,1.1,2-1.1,2.6-2.1C71.3,55.7,72.9,51.9,78,53.2z"
	/>
<path class="st91" d="M89,60.2c-1.9-3.2-3.9-6.3-8-7C86.8,51.9,88.5,55.3,89,60.2z"/>
<path class="st36" d="M89,65.1c0-0.3,0-0.7,0-1c0.3,0.3,0.7,0.7,1,1c1.4,2.9,2.3,5.9,3,9c0,14.6,0,29.2,0.1,43.9
	c1,5.8,0.3,11.6,0.4,17.3c0.1,12.6,0.1,25.2,0,37.8c-0.1,1.3-0.9,1.5-2,1.4c-0.6-0.2-1-0.6-1.3-1.2c-0.9-2.6-0.4-5.2-0.6-7.8
	c0-0.6,0-1.1,0-1.7c-0.1-5.6,0.3-11.3-0.3-16.9c-0.3-0.9-0.7-1.8-0.4-2.8c0.9-1.4,0.4-2.9,0-4.3c-0.5-1.7-0.1-3.4,0.2-5.1
	c-0.9-8.1-0.3-16.3-0.5-24.4c-0.2-7.9-0.8-15.9-1.9-23.7c-1-3.7-0.6-7.5-0.6-11.3c-0.2-1.6-1-3.1,0-4.7c0.3-0.3,0.6-0.5,1-0.7
	C88.9,68.7,87.2,66.2,89,65.1z"/>
<path class="st103" d="M93,74.1c-1.1-3-3.3-5.6-3-9c2,0.6,1.5,3,2.9,4C93,70.8,93,72.5,93,74.1z"/>
<path class="st107" d="M93,174c0-18.7,0-37.3,0.1-56c0.3,0.1,0.6,0.1,0.9,0.2c0,18.6,0,37.2,0,55.8C93.6,174.4,93.3,174.4,93,174z"
	/>
<path class="st108" d="M59.2,320.5c-1.5,2.1-0.1,5.9-4.4,5.8c1.3,2.2,3.6,1.5,5.8,2.2c-2.3,2.4-4.9,2.1-6.8,1
	c-1.3-0.8-1.9-3.3-1.2-4.9C53.7,321.9,54.7,318.4,59.2,320.5z"/>
<path class="st82" d="M63,328.1c-0.4-0.2-0.9-0.6-1.3-0.6c-2.1-0.2-2-1.6-2-3.1c0-1.1,0.6-1.6,1.4-1.6c1.6,0.1,0.8,1.9,1.8,2.6
	C63.9,326.1,63.4,327.1,63,328.1C63,328.1,63,328.1,63,328.1z"/>
<path class="st33" d="M69,319.1c0.3-4.1,3.5-1,5-2c1.7-0.7,3.3-0.7,5,0c0.3,0,0.7,0,1,0c1.7,1,3.3,2,5,3c-1.1,2.8-2.9,3.8-5.6,1.9
	c-1.3-0.9-2.7-1.8-4.4-1.9C73.3,318.3,71,319.4,69,319.1z"/>
<path class="st92" d="M85,326.1c1.8,0,1.5,0.9,1,2c-3.2,2.4-5.7,6.3-10.7,5c-1.3-0.3-2.6-0.4-3-2.3C77,330.3,81.1,328.3,85,326.1z"
	/>
<path class="st83" d="M79,317.1c-1.7,0-3.3,0-5,0c0-0.3,0-0.7,0-1C75.7,316.3,77.6,315.4,79,317.1z"/>
<path class="st109" d="M52,53.1c0.6-0.3,1.3-0.7,1.9-1c2.4,0.3,2.1,2.2,2.1,3.8c-0.1,36.7-0.2,73.3-0.3,110c0,2.8,1.1,5.6-0.7,8.2
	c-4.2,1.2-5.5,0.5-6-3.4c-0.1-1.3,0-2.6-0.2-3.9c-0.5-1.2,0-2.7-0.7-3.9c2.1-2.2-0.3-4.4,0-6.6c0.2-0.4,0.4-0.7,0.7-1.1
	c0.4-1.5,0.3-3,0.1-4.5c-0.1-0.4-0.2-0.8-0.3-1.3c0.4-2,0-3.9-0.9-5.6c0.3-1.4,0-2.9,0.7-4.2c1-10,0.7-20.1,0.3-30.1
	c0-1.1-0.4-2.3,0.5-3.3l0,0c0.8-2,0.8-4,0-6.1l0,0c-0.4-2-0.9-4,0-6c0-0.7,0-1.3,0-2c-0.5-7.8,0.4-15.5,0.5-23.2
	c0-1.6-0.5-3.3,0.5-4.8C50.8,60.5,49.4,56.4,52,53.1z"/>
<path class="st6" d="M50,64.1c0.3,8.1-1,16.1-0.2,24.2c0.1,1.2-0.5,2.5-0.8,3.8c-1.2-5.7-1.6-11.3-0.1-17
	C49.6,71.5,47.8,67.6,50,64.1z"/>
<path class="st6" d="M47,72.1c-0.3,0.3-0.7,0.7-1,1c-7.1-0.4-7.1-0.4-6.6-5.2c1.6,1.3,2.9,3.1,5.5,1.5C46.1,68.7,46.3,69,47,72.1z"
	/>
<path class="st78" d="M60,14.2c-0.6,1.3-1.6,2-3,2c-0.5-2-0.6-4.2-3-5C57.2,9.7,57.7,13.9,60,14.2z"/>
<path class="st6" d="M49.1,106.1c0.9,11.3,0.9,22.7-0.1,34c-0.9,0.2-1.3-0.1-1-1c0-4.7,0-9.3,0-14c0-4.7,0-9.3,0-14
	C48.3,109.4,47.3,107.5,49.1,106.1z"/>
<path class="st6" d="M49,94.1c0.1,2,0.7,4,0,6C47.5,98.1,47.5,96.1,49,94.1z"/>
<path class="st6" d="M49,100.1c1.4,2,1.4,4,0,6.1C49,104.1,49,102.1,49,100.1z"/>
<path class="st6" d="M48,175.1c0-1,0-2,0-2.9c0.6-0.4,1-0.3,1.4,0.3c0.5,1.4,1.7,2.4,1.8,4c0.2,20.9,0.3,41.8,0,62.7
	c-0.1,0.6-0.3,1.1-0.6,1.6c-0.4,0.5-0.9,0.7-1.4,0.6c-2.1-1.7-0.8-4.5-2.2-6.4c-0.6-1.1-1-2.3-0.6-3.6c0.2-0.5,0.4-0.9,0.7-1.3
	c1.3-3.7,0.6-7.5,0.4-11.3c-0.1-0.5-0.1-1-0.1-1.5c0.3-4.1,1-8.3-0.4-12.4c-0.4-0.7-0.6-1.5-0.5-2.3c0.1-0.6,0.3-1.1,0.6-1.5
	c0.6-0.8,1.4-1.5,1.4-2.5C48.3,190.7,49.1,182.9,48,175.1L48,175.1z"/>
<path class="st77" d="M38,182.1c0-0.5,0-1,0-1.5c-0.1-7,1.7-8.1,9-5.5c0,0,0,0,0,0C42.6,175.7,40.6,179.2,38,182.1L38,182.1z"/>
<path class="st6" d="M48.1,144c3.7,1.5,0.8,4,0.9,6.1c-0.3,0.4-0.7,0.4-1,0c0-0.3,0-0.6,0-1c0-0.3,0-0.7,0-1
	C47.6,146.7,46.7,145.3,48.1,144z"/>
<path class="st87" d="M49,172.1c-0.3,0-0.6,0-1,0c0-3.1,0-6.2,0.1-9.2c1.2,0.8,0.8,2.1,1.1,3.2C49.6,168.1,49.8,170.1,49,172.1z"/>
<path class="st87" d="M48,150.1c0.3,0,0.7,0,1,0c0,0,0,0,0,0c0.7,2,0.8,4-0.1,6c-0.3,0.1-0.6,0.2-0.9,0.3
	C48.1,154.2,48.1,152.2,48,150.1z"/>
<path class="st86" d="M48.1,144c-0.3,1.4,0.9,2.8-0.1,4.1c-2.8-2.5-2.8-6.9,0-9c0.3,0.3,0.7,0.7,1,1C49.2,141.5,48.9,142.8,48.1,144
	z"/>
<path class="st110" d="M38,182.1c0.2-0.2,0.6-0.5,0.6-0.7c-0.6-6.7,3.6-6.8,8.3-6.2c-1.2,3.9,0.3,7.8,0.1,11.7
	c-0.3,6.4-0.7,6.9-7.4,5.8c-0.5-2.3,2.7-0.8,2.7-3C36.3,190,40.3,184.3,38,182.1z"/>
<path class="st111" d="M47.1,202.1c-0.1,0.3-0.1,0.7-0.2,1c1.3,5.1,1.3,5.1-4.1,5.6c-1.1,0.1-2.3,0.4-3.4,0.2
	c-1-0.2-1.7-0.8-1.9-1.8c-0.2-1.1,0.4-2.1,0.6-3.1c-0.2-2.4,0.9-4.7,1.6-6.7c0.8-2.3,4.3-0.3,6.5,0.2c0.7,0.1,1.2,1,1.8,1.6
	C49.1,200.5,48,201.3,47.1,202.1z"/>
<path class="st87" d="M47.1,202.1c0.3-1,0.6-2,0.9-3c0-8,0-16,0.1-24c2.2,7.1,0.5,14.4,0.9,21.6C49,198.5,50.3,201.2,47.1,202.1z"/>
<path class="st29" d="M38,204.1c1,0.7,1,1.4,0,2.1c-0.8,0.5-0.2,1.9-1.3,2.2c-1.5-0.4-1.6-1.6-1.3-2.8c0.3-0.7,0.9-1.1,1.6-1.4
	c0,0,0.1-0.1,0.1-0.1C37.4,204.1,37.7,204.1,38,204.1z"/>
<path class="st55" d="M36,205.1c0,1.1-0.2,2.3,1,3c0.6,0.6,0.8,1.3,0.7,2.1c-0.8,5.7-0.7,11.3,0.2,17c-0.2,1.3-0.6,2.7-0.2,4
	c-0.2,3.3-0.5,6.5,0,9.8c0.1,0.7,0.1,1.4-0.1,2c-0.5,1.3-1.1,2.6-2.6,3c-2-3.2-0.5-6.7-1-10c-1.3-3.9,0.4-8.1-0.9-12
	c0-0.7,0-1.3,0-2c2.2-5.6,0.4-11.4,1-17C34.7,204.5,35.4,204.5,36,205.1z"/>
<path class="st76" d="M31,214.1c-0.4-3.1-4.1-1.8-5.3-4.4c4,0.3,2.6-4.4,5.3-5.6C32.3,207.4,32.8,210.8,31,214.1z"/>
<path class="st29" d="M33,224.1c2,3.9,0.5,8,0.9,12c-0.3,0-0.7,0-1,0C33,232.1,33,228.1,33,224.1z"/>
<path class="st76" d="M31,204.1c0.8-0.9-3.4-3.3,1-3C32,202.2,32.2,203.4,31,204.1z"/>
<path class="st112" d="M36,205.1c-0.7,0-1.3,0-2,0c0-1.7,0-3.4,0-5.3c2.9,0.6,1.2,3.5,2.9,4.3C36.7,204.4,36.3,204.8,36,205.1z"/>
<path class="st29" d="M35,246.1c0.7-1,1.3-2,2-3c2.8,4.1,0.5,8.9,1.8,13.2c0.2,2.6,0.6,5.3-0.8,7.8c-0.3,0-0.6,0-1,0.1
	c-1.8-3.1-0.8-6.5-1-9.8C35.8,251.6,36.6,248.7,35,246.1z"/>
<path class="st29" d="M37,270.1c0,0.3,0,0.7,0,1c-1.6-2.3-1.6-4.7,0-7C37,266.1,37,268.1,37,270.1z"/>
<path class="st70" d="M38,264c-1.2-2.3-0.1-4.6,0-6.9c-0.9-3.7-0.2-7.4-0.2-11.1c0-2.8,2.9-3.8,5.6-3.9c2.9-0.1,3.7,1.7,3.5,4.2
	c0,0.7,0.1,1.3,0.2,2c0,0.2,0,0.5,0,0.7c-0.1,1.6,0.3,3.3-1.2,4.5c-0.4,0.3-0.7,0.6-1.1,1c3.8,2-0.4,6.2,2.3,8.5
	c-3.8,0.3-6.4,2.6-9,5C38,266.7,38,265.4,38,264z"/>
<path class="st111" d="M40,286.1c-3.3-4.4,2.6-1.3,2.5-3.2c-0.5-1.3-2.1-1.4-3.1-2.2c-2.3-1.8-1-4.3,0.3-5c1.5-0.8,4.7,1.2,3.2-3.1
	c-0.2-0.7,3.2-0.3,5-0.6c3.1,3.9,0.4,8,0.3,12C45.9,288.9,44.5,289.2,40,286.1z"/>
<path class="st87" d="M47,284c0.2-4,1.5-7.9,0.9-11.9c0-6.1,0.1-12.2,0.1-18.3c0-1.6,0.6-3.4-0.9-4.7c0,0,0,0,0,0
	c-0.8-4.2-0.4-8.4-0.7-12.6c-0.1-1.1,0.5-1.9,1.5-2.3c2.1,2.1,0.6,4.7,1.1,7c2.7,4.6,1.4,9.8,1.5,14.6c0.2,11.1,0,22.2-0.1,33.3
	c0,2.1,0.4,4.4-1.4,6.1c-0.3,0-0.6,0-0.9,0.1c0,0-0.2-0.1-0.2-0.1C45.8,291.5,46.6,287.7,47,284z"/>
<path class="st113" d="M38,268.1c1.3-4.8,4.1-6.7,9-5c-0.3,2.3,1.2,5.2-2,6.4C42.5,270.4,39.8,271.1,38,268.1z"/>
<path class="st114" d="M47,284c0.6,3.6,1.1,7.3,0.9,11c-0.3-0.3-0.6-0.6-0.9-0.9c-0.8-3.6-5.1-2.8-6.7-5.4c-0.1-0.2-0.2-0.4-0.3-0.6
	c0-0.7,0-1.3,0-2C42.6,286.3,46,289.2,47,284z"/>
<path class="st114" d="M46,295.1c-2.3,2.5-4.7-0.6-7,0c-0.2-2.4-1.4-4.9,1-7c0,0,0,0,0,0C41.1,291.2,43.1,293.5,46,295.1z"/>
<path class="st60" d="M49,295.1c0-18,0-36,0-53.9c0.3,0,0.6,0,1,0c2,0.8,1.9,2.5,2,4.2c0.7,13.3,0.7,26.6-0.4,39.8
	c-0.4,5.3,0.3,10.6-0.8,15.9c-0.4,2.1,3.4,5.7,5.5,5.4c2.5-0.3,2.7-2,2.1-4c-1.7-9.7-0.8-19.5-1.3-29.3c-0.6-13.6,0.6-27.1,0.2-40.7
	c-0.5-18.4-0.2-36.7-0.3-55.1c0-1.2,0.1-2.3,1-3.2c2.8-1.4,2-4,2-6.2c0-27.6,0-55.2,0-82.8c0.3,0,0.7,0,1,0c1.9,1.9,1.4,4.3,1.4,6.6
	c0.1,14.4-0.1,28.8,0.1,43.2c0,12.6,0.1,25.3-0.1,37.9c-0.5,2.9-1.5,5.7-0.7,8.7c0.1,1.9-0.1,3.7,0,5.6c-0.8,2.4,0.5,4.6,0.3,7
	c0,0.5-0.1,1-0.2,1.5c0.2,6,0.2,12,0.2,18c-0.1,0.5-0.2,1-0.3,1.6c-1.1,4,0.5,7.9,0.7,11.9c0.2,6.3-0.2,12.6-0.3,18.9
	c-0.2,1.5-0.4,3-0.4,4.5c-0.7,9.9,0.9,19.8,0.3,29.8c0.1,0.5,0.1,1,0.2,1.5c0.2,5,0.2,10.1-0.8,15c-0.3,1.4-0.8,2.9,0.8,4
	c1.3,1,4,0.3,4.1,2.7c0.1,2-1.7,3-3.4,3.8c-1,1-1.9,2.3-3.2,3.1c-2.8,1.7-5.7,3.8-8.3-0.7c-1.1-1.9-2.6-4.2-5.3-1.3
	c-1,1.1-2.2-0.2-3.3-0.1c0-0.3,0-0.6,0-0.9c-0.4-2-1.4-4.2-3.3-1.8c-3.6,4.6-8.6,3-13,3.6c-1.4,0.2-1.9-1.2-2.2-2.3
	c-0.4-1.4,0.6-2.5,1.6-2.8c5.3-1.2,9.7-5.7,16-3.6C46.3,301.7,48.6,299.6,49,295.1z"/>
<path class="st85" d="M63,307c1.3-2.2,4.5-4.8-1-5.9c-0.3-0.2-0.4-0.4-0.3-0.7c0.1-0.2,0.2-0.3,0.3-0.3c3,0.7,6,1.3,9,2
	c-1,2.3,0.5,4.7,0,7c-2.3-2.9-5.1-2.4-8-1C63,307.7,63,307.4,63,307z"/>
<path class="st63" d="M46,295.1c-4.8,0.1-6.8-2.3-6-7c2.6,1.7,7.8,0.4,7,6.1C46.7,294.4,46.3,294.8,46,295.1z"/>
<path class="st51" d="M79,229.1c-1.5,3.2,0.3,6,1,9c-0.7,2-1.3,4-2,6c-0.6,0.7-1.5,1.1-2.1,1.8c0.9-0.4,1.5-1.1,2.1-1.8
	c3.9,1.8,0.4,4.7,1,7c-0.2,0.1-0.4,0.2-0.6,0.3c-1.5-0.2-2.9-0.5-4.4-0.7c-0.4-0.2-0.8-0.4-1.2-0.6c-5.3-2.4-2.7-6.9-2-10.2
	c0.8-3.7-0.4-7.1-0.2-10.7c0.2-2.5-3.1-1.5-3.8-3.8c1.8-2.2,4.5-2.6,7.3-2.9C78.1,223,78.3,226.2,79,229.1z"/>
<path class="st51" d="M79,261.1c0,2.3,3.3,4.7,0,7c-3.6-2.4-4.4-0.1-5.3,3.2c2.8-0.2,2.5-4.2,5.3-3.2c0.3,5.3,0.6,10.7,1,16
	c-2.8-0.1-1.7-2.7-2.6-4.1c-0.7-1-1.4-2-2.7-1.8c-1.7,0.2-0.3,1.7-0.7,2.3c-1.3,1.9-1.2,4.8-3.9,5.8c-2.8-3-3.6-5.9-0.9-9.6
	c2.5-3.2,0.8-6.7-0.7-9.7c-0.8-1.6-1.3-2.9-0.4-4.5c1.3-1.7-2.4-1-1.3-2.7c1.8-2.8,4.2-5.3,4.7-8.8c0.2-1.2,1.2-2,2.5-0.9l0,0
	c2.5,2.4,0.5,5.2,0.6,7.8c-0.5,3.1-0.3,5.4,3.8,3.4C78.6,261.2,78.8,261.1,79,261.1z"/>
<path class="st1" d="M70,286.1c0.4-2.5,4-4.2,1.7-7.5c-0.5-0.8,1.1-2.3,2.2-2.1c2,0.3,4.4,0.3,5,3c0.3,1.5-0.5,3.3,1.1,4.6
	c0.4,3.6-0.9,7.5,1,11c-0.3,0.3-0.7,0.6-1,1c-0.3-0.3-0.7-0.6-1-0.9c0-2,0-4,0-6c-1.8-0.9-3.1-2.3-3.6-4.6c-1.6,1.6-2.3,4.5-5.3,2.8
	C69.8,286.9,69.7,286.5,70,286.1z"/>
<path class="st51" d="M79,251.1c3.1,3.3-1,6.7,0,10c0,0,0,0,0,0c-2.5,0.7-0.9-4.4-4-2.8C74.9,255.1,77.9,253.6,79,251.1L79,251.1z"
	/>
<path class="st93" d="M79,229.1c-1.7-1.9-1.9-5.2-5-6c-2.9-0.5-4-1.8-3.3-5.1c1.2-5.5,0.5-11.1,0.5-16.7c0-1,0.5-2.5-1.3-2.7
	c-2-0.9-2.1-2.2-0.8-3.7c1.3-0.5,2.9-0.8,3.4-2.4c4.2-2.1,4.6,2.6,7,3.9c0.5,0.9,0.6,1.8,0.5,2.8c0,0.7,0,1.3,0,2
	c-0.7,2.7-1.3,5.3-2,8c1.9,0.7,1.1,2.8,2,4C79.7,218.4,79.3,223.8,79,229.1z"/>
<path class="st95" d="M80,213.1c-0.7-1.3-1.3-2.7-2-4C80.7,209.4,79.8,211.5,80,213.1z"/>
<path class="st81" d="M94,175.1c0,0.7,0,1.3,0,2c0,4.7,0.1,9.4-1,14c0-1.9-0.3-3.6-2.8-2.5c-2.3,1.1-4.2-0.2-6.2-0.5
	c-0.3-0.3-0.6-0.7-0.7-1.2c1.5-2.5,1.9-5.3,2.5-8c0.4-1.8,0.6-4.1,3.8-2.6C90.9,176.9,91.8,173.2,94,175.1z"/>
<path class="st91" d="M84,187.1c0,0.3,0,0.7,0,1c0,0.7,0,1.3,0,2c0,1.3,0,2.7,0,4c-1.3,1.1-1.9,2.5-2,4.2c-0.1,1.7-1.1,1.1-2,0.8
	c-0.8-0.4-1-1.2-1-2c-2-3.5-3.9-6.4-1.3-11.1c1.4-2.5-0.1-6.9,0.5-10.5c0.2-1.5,0.3-2.9,1.8-3.8c0.7-0.3,1.4-0.3,2.1,0
	c4.5,3.4,2.5,8,2.2,12.3C84.1,185,83,186,84,187.1z"/>
<path class="st33" d="M84,187.1c-2.1-2.2-0.4-4.6-0.5-6.9c-0.1-2.8,0.1-5.6-1.5-8.1c-0.9-1.2-1-2.2,0.4-3.1c2,1.5,3.3,4.2,6.4,3.8
	c0.3,1.2,1,1.6,2.2,1.3c0.7,0,1.3-0.1,2-0.1c0.3,0,0.6,0,0.9,0c0,0.4,0.1,0.7,0.1,1.1c-0.7,0.1-2.2-0.1-2,0.5c0.5,1.5,0.4,2.7-1,3.2
	c-2,0.8-1.7-2.1-3.1-2.4C86,179.9,87.8,184.5,84,187.1z"/>
<path class="st95" d="M70,286.1c0,0.3,0,0.7,0,1c0.2,0.2,0.3,0.4,0.2,0.6c-0.1,0.2-0.2,0.3-0.3,0.3c-2.8,0.7-0.4,1.9-0.1,2.8
	c0.8,2.3-0.7,3.8-1.9,5.3c-1.4,1.7-2.2-0.2-3.2-0.8c-2.4-1.6-2.4,0.3-2.6,1.8c0.3,0.2,0.4,0.5,0.3,0.7c-0.1,0.2-0.2,0.3-0.3,0.3
	c0,0.7,0,1.3,0,2c0,0.3,0,0.7,0,1c-4.2-2.3-0.8-5.9-1.1-8.8c-0.4-3.5-0.1-7.4,0.2-11.2c3.1,0.2,1.2,2.8,2.2,3.8
	c0.2-1.3,0.8-3,1.3-4.6c-1.2-1.3-2.5,0.7-3.6-0.2c0.3-10-2-20,0-30c4.4,3.8,1,9,2.1,13.4c0.2,0.7-0.4,1.6,0.3,2.3
	c2.2-0.6,1.5-5.9,5.6-3.6c-0.8,3.6,2.2,6.2,2.4,9.6c0.1,1.6,1.1,3.4-0.3,4.6C67.4,279.3,68.9,282.7,70,286.1z"/>
<path class="st75" d="M69.9,288c0-0.3,0-0.6,0.1-0.9c1.8-0.1,3.8,0.2,3.3-2.8c-0.2-1.1,0.6-1.9,1.8-1.6c0.9,0.3,2.8,0.6,2.3,1.1
	c-2.1,2.7,1.9,3.3,1.5,5.2C75.5,292.6,72.6,291.7,69.9,288z"/>
<path class="st4" d="M62,298.1c0-0.3,0-0.7,0-1c1.1-0.6,2.1-0.7,2.9,0.5c0.2,0.3,0.3,1.1,0.2,1.2C63.9,299.5,63,298.4,62,298.1z"/>
<path class="st84" d="M87.5,307.2c0.5,0.4,1.1,0.8,1,0.9c-0.2,0.5-0.5,1.2-1,1.4c-0.6,0.3-1.4,0.1-1.2-0.8
	C86.5,308.2,87.1,307.8,87.5,307.2z"/>
<path class="st115" d="M59,302.1c3.7,1,1.5,3.2,0.6,4.5c-1.1,1.6-2.9,3.4-4.9,1.5c-2.8-2.6-5.6-4-5.2-9.9c1.3-16.9,2.7-33.9,1-50.9
	c-0.2-2.1,1.3-4.3-0.5-6.2c0,0,0,0,0,0c0.7-0.9,0.5-1.9,0.5-2.9c0-20.1,0-40.2,0-60.2c0-1,0.2-2-0.5-2.9c-0.3-1-0.7-2-1-3
	c0.1-2,0.1-4,0.2-6c1,0.9,0.9,2.1,0.8,3.2c-0.4,3.8,1.5,5.1,5,4.7c0.7,0,1.3,0,2,0c0.2,17.8,0.1,35.5,0.1,53.3
	c0,8.6,0.7,17.2,0.2,25.7c-0.6,10.2,0.6,20.3,0.2,30.4C57.3,289.7,57.7,296,59,302.1z"/>
<path class="st105" d="M59,302.1c-2.6-1-1-3-1.2-4.6c-1.8-12.5-1.6-25.2-1.5-37.7c0-8.9,0.5-17.8,0.3-26.6
	c-0.3-10.7-0.2-21.5-0.3-32.3c-0.1-8.9-0.7-17.9,0.7-26.8c0.3,0,0.7,0,1,0c0,11.6-0.4,23.3,0.1,34.9c0.5,10.5-0.2,21.1,0.3,31.6
	c0.3,6.5-0.1,13.3-0.2,19.9C57.9,274.3,58.7,288.2,59,302.1z"/>
<path class="st34" d="M61,135.1c0-16.7,0-33.3,0-50c0-4,0-8,0-12c0.3,0,0.7,0,1,0c1.8,1.7,0.6,4,1.3,6.6c-0.8-3.3,1.1-6.2-1.3-8.6
	c0-3-0.4-7.2,2.5-7.8c4.6-1,2.4,3.1,2.4,5.4c0,0.8-0.5,1.6-0.7,2.4c-0.9,4.4-0.7,8.7-0.2,13.1c0,0.3,0,0.5,0,0.8
	c-0.3,2.7,0.7,5.6-0.8,8.2c-3.2-0.1-1.7-2.9-2.7-4.5c1.8,6.9-0.7,14,2,20.5c0.1,0.8,0,1.6-0.3,2.3c-2,5.9-0.4,12-1,18
	C63.1,131.5,64.3,134.3,61,135.1z"/>
<path class="st13" d="M87,74.1c1.9,3.5-1.3,7.5,1,11c-0.4,0.2-0.9,0.3-1.4,0.3c-5.5-1.5-0.8-6.2-3.5-9.7c0.3,13.1-1.4,25.2-0.8,37.3
	c-0.4,0.7-1.6,1.6-1.8,1.1c-1.7-3.3-5.8,2.7-7-1.9c0.3-9.4-0.6-18.7,0.5-28.1c0-0.3,0-0.7,0-1c-1.3-3.7-0.5-6.6,2.9-8.9
	c2.3-1.5,3.2-4.6,6-5.7c0.5,0,0.9,0.1,1.4,0.3C86.2,70,85.3,72.8,87,74.1z"/>
<path class="st62" d="M68,114.7c0-4.2,0-8.3,0-12.5c0.1-8.3,0.8-16.5,0.2-24.8C68,73.2,70,69.5,72.8,66c-1,16.2-2,32.5-3,48.7
	C69.2,114.7,68.6,114.7,68,114.7z"/>
<path class="st84" d="M74,84.1c0,10,0,20,0,30c2.9,6.6,1.2,13.4,1,20.1c-0.1,3.3-1,6.6-0.2,9.9c0.9,4-0.3,7.9,0,11.9
	c0,1-0.2,1.9-1.2,2.5c-2.9,0.5-5.5,2.8-8.8,1.8c-1.9-2.2-2.2-4.4-0.3-6.8c0.2-0.1,0.4-0.3,0.6-0.4c1.3,1.2,1.3,4.3,4.1,3.3
	c2.6-1,2.8-3.1,2.4-5.7c-1-7.3,0.5-14.6,0.7-21.9c0.4-13.2,0.7-26.3,0.7-39.5C73,87.5,72.4,85.6,74,84.1z"/>
<path class="st84" d="M66,84.1c0.3,0,0.7,0,1,0c0,16.6,0.1,33.1-0.1,49.7c0,5.5-0.6,11-0.1,16.5c0.1,1.5-1.3,1.8-1.8,2.8
	c0,0-0.1,0.1-0.1,0.1c-2.6-0.5-1.9-2.6-2-4.2c-0.1-6.4-0.2-12.8,0.9-19.1c-0.3-6.6,1.5-13.1,0.6-19.8c0-0.6,0-1.1,0-1.7
	C64.1,100.2,65.2,92.2,66,84.1L66,84.1z"/>
<path class="st116" d="M81,56.1c-0.1,2.2,0.5,4.4,0.2,6.7c-0.4,3.2-2.4,4.1-4.6,3.9c-2.7-0.2-1.5-2.8-1.6-4.4
	c-0.1-1.1,0.6-2.2,0.9-3.3C77.5,57.8,78.6,55.9,81,56.1z"/>
<path class="st84" d="M84,69.1c-3.5,4.5-10.9,6.3-10,14c-2-3.6-0.6-7.3-0.1-10.9c0.1-0.5,0.5-1.3,0.6-1.2c4.6,1.1,5.9-4.2,9.5-4.9
	C84.9,67.1,84.9,68.1,84,69.1z"/>
<path class="st117" d="M68,132.5c0-4.6,0-9.1,0-13.7c0-0.9-0.1-2.3,1.2-2.2c1.4,0.1,1.7,1.3,1.5,2.6c-0.5,4.4-1,8.8-1.4,13.2
	C68.9,132.5,68.5,132.5,68,132.5z"/>
<path class="st117" d="M89,65.1c0,1.6,0.2,3.3,0,4.9c-0.4,2.7-1.3,0-2,0.1c-1.5-1.3-1.6-3.5-3-5l0,0c0-1.9-2.5-4.9,2-5
	C87.6,61.4,87.1,64,89,65.1z"/>
<path class="st118" d="M81,56.1c-1.7,1-3.3,2-5,3c1.3-1.9,1.5-5.2,5.2-3.8c0.1,0,0.1,0.3,0.1,0.5C81.3,55.9,81.1,56,81,56.1z"/>
<path class="st118" d="M84,65.1c2.5,0.8,3.4,2.5,3,5c0,0,0,0,0,0c-1.3,0.5-2-0.5-3-1c0,0,0,0,0,0c0-1,0-2,0-3
	C84,65.8,84,65.5,84,65.1z"/>
<path class="st118" d="M86,60.1c-3.2,0.7-1.6,3.2-2,5c-1.7-1.7-1.1-3.6-0.6-5.5c0.1-0.6,0.3-1.9,1.4-1.5
	C85.3,58.3,85.6,59.4,86,60.1z"/>
<path class="st51" d="M62,71.1c2.3,0.4,2.9,1.9,2.5,4c-0.2,1.1-0.3,2.3-0.5,3.4c-0.2,1.4,2.2,3.8-0.3,4.1c-2.8,0.4-1.6-2.6-1.7-4.1
	c-0.2-1.8-0.1-3.6-0.1-5.4C62,72.5,62,71.8,62,71.1z"/>
<path class="st95" d="M82,113.1c-2.8-5.2-0.4-10.6-0.7-16c-0.3-6.3,1.3-12.6,0.4-18.9c-0.2-1.6-0.3-4.3,2-4.3c2.3,0,1.6,2.6,2.1,4.3
	c0.6,2.3-2.9,5.4,1.3,6.9c0,0.2,0,0.5,0,0.7c1.2,8.7,0.4,17.5,1.7,26.1c0.6,8,0.1,16.1,1.4,24.2c-1,1.3-0.1,2.7,0,4
	c-1,1.3,1.5,2.7,0,4c-0.7,0.3-0.7,0.7,0,1c1.2,4.5,0.2,9.1,0.5,13.7c0.1,1.8-0.5,3.6,0.5,5.3c0,0.3,0,0.6,0,0.9
	c-0.8,2.7-0.8,5.4,0,8.1c0,0.3,0,0.6,0,1c-1.1,0.5-2.1,0.8-2-1c-1-0.9-1.2-2.2-1.3-3.5c-0.6-3,0.6-6.2-0.4-9.2
	c-0.4-1.6-1.5-2.8-1.9-4.4c2.8-7.3,0.4-14.5-0.5-21.7c-0.2-1.5-2-1.6-2.7-2.8C80.3,125.5,79.6,119.3,82,113.1z"/>
<path class="st107" d="M90,136.1c-2.7-7.8-2-15.9-2-24c-1.1-6.3-0.6-12.6-0.5-18.9c0-2.7-2.3-5.3-0.5-8c0,0,0,0,0,0c0.3,0,0.7,0,1,0
	c2.1,14.1,2.3,28.3,1.9,42.5C89.8,130.5,92,133.3,90,136.1z"/>
<path class="st107" d="M91,164.2c-2.1-6.2-0.4-12.7-1-19C92.2,151.4,90.4,157.8,91,164.2z"/>
<path class="st84" d="M84,69.1c1,0.3,2,0.7,3,1c-1,1.3,0,2.7,0,4C84.7,73.3,85.1,70.7,84,69.1z"/>
<path class="st107" d="M91,173.1c-1.4-2.7-1.5-5.4,0-8.1C91,167.8,91,170.5,91,173.1z"/>
<path class="st107" d="M90,144.1c0.4-1.3-1.7-2.7,0-4C90.5,141.4,91.9,142.8,90,144.1z"/>
<path class="st6" d="M49,156.1c0-2,0-4,0.1-6C50.4,152.1,50.5,154.1,49,156.1z"/>
<path class="st119" d="M47.9,234.1c-0.8,4.9,0.6,10-0.9,14.9c-1.1-0.5-2.1-1.3-1.6-2.6c0.6-1.8,0.9-3.4-1.7-3.3c-2.6,0-5.2,1-5,3.9
	c0.2,3.4-0.2,6.7-0.6,10.1c-2.1-4.6-0.4-9.4-1-14c0-0.7,0-1.3,0-2c-0.2-3.1,0.1-6.1,0.5-9.2c0.1-0.6,0.3-1,0.7-1.4
	c2.7-1.9,5.6-2.2,8.6-0.8c0.5,0.4,0.5,0.9,0.2,1.4C47,232.2,46.8,233.4,47.9,234.1z"/>
<path class="st60" d="M50,175.1c1.4,1.1,1,2.7,1,4.2c0,19.2,0,38.4,0,57.7c0,1.4,0.4,3-1,4.2C50,219.1,50,197.1,50,175.1z"/>
<path class="st9" d="M47,231.1c0-0.3,0-0.7,0-1c-3.2-1.9-6.3-2.1-9,1l-0.1,0.1c-0.3,0.5-0.6,0.5-1,0.1c-1.2-1.1-1.3-2.1,0-3.2
	c1.2-1.1-0.1-2.8,1-3.9c0.8-0.6,1.8-0.8,2.8-0.8c3.5,0.1,5.3-1.8,6-5c0.4-0.3,0.8-0.4,1.3-0.2l0,0c0.8,4.3,0.8,8.6-0.1,13
	C47.6,231.1,47.3,231.1,47,231.1z"/>
<path class="st9" d="M39,208.1c1.1-0.2,2.3-0.8,3.3-0.5c4,0.9,4.8-1.2,4.6-4.4c0.3,0.3,0.7,0.7,1,1c1.2,3.8,0.4,7.6,0.5,11.4
	c-0.3,0.4-1.1,0.7-1.2,0.4c-1-4.6-4.8-5.1-8.4-6C38.5,209.3,38.4,208.7,39,208.1z"/>
<path class="st87" d="M47,216.1c2-3.9,0.6-8,0.9-12c1.9,4.6,1.4,9.3,0.1,14c-0.3,0-0.7,0-1,0c-0.1-0.1-0.3-0.3-0.4-0.4
	c-0.1-0.4-0.1-0.8,0-1.1C46.8,216.4,46.9,216.3,47,216.1z"/>
<path class="st87" d="M47.9,231.1c0-4.3,0-8.6,0.1-13C49.6,222.4,49.7,226.7,47.9,231.1z"/>
<path class="st77" d="M39,208.1c0,0.7,0,1.3,0,2c0,0.3,0.1,0.5,0.1,0.8c-0.2,2.5,1.3,5.5-1.8,7.3c-1.6-2.7-0.9-5.4-0.3-8.1
	c0-0.7,0-1.3,0-2c0.1-0.8,0.2-1.6,1-2C38,206.9,38.2,207.7,39,208.1z"/>
<path class="st29" d="M37,210.1c0.4,2.7-1,5.5,1,8c0.3,0.3,0.4,0.7,0.4,1.1c-0.3,1.4-0.3,2.8-0.3,4.2c0,0.2-0.1,0.4-0.1,0.6
	c-0.2,1.4,0.5,2.9-1,3.9C35.8,222.1,34.9,216.1,37,210.1z"/>
<path class="st29" d="M36.9,231.2c0.3,0,0.7-0.1,1-0.1c0.1,3.4,0.2,6.7-0.9,10C35.6,237.8,36.1,234.5,36.9,231.2z"/>
<path class="st95" d="M71,198.1c3.3,3.6,0.9,8,1.5,12c0.4,3.1,0.1,6.6-0.9,9.6c-1,3,3.5,1.1,2.4,3.5c-2,0.8-4,1.5-5.9,2.3
	c7.8-0.9,3.7,5.4,4.1,7.8c0.6,4,1.1,8.4-1.6,12.5c-0.9,1.5,2.9,2.3,3.4,4.3c-2.4,1.8-1.8,5.1-3.8,7.3c-1,1.1-1.9,2-3.2,2.7
	c-3.1,1.2-4,0.7-3.2-2.7c0.9-4,1.2-7.8-0.7-11.5c0.6-0.6-0.8-0.7-0.2-0.4c0.1,0.1,0.1,0.2-0.1,0.5c-0.4,0.8-0.8,1.4-1.8,1.1
	c-0.7-9.3,1-18.6-0.9-27.9c-0.3-1.6-0.7-3.7,0.9-5.1c1.1,0.8,2.8,1.5,2.4,2.9c-1.5,4.4,1,8.8-0.6,13.1c2.8-6.3,1.5-12.7,0.5-18.9
	c0.2-0.3-2.3,2.9-2.3,2.9c-1.4-5.4,1.1-11-0.9-16.4c-0.3-0.9,0-2,0.9-2.6c2.1,1.9,1.8,4.5,2.2,6.9c0.2,1.6-0.5,4,2.7,3.9
	c-1.8-1.8-3.7-3.4-1.5-6C67.1,201.2,69.1,200,71,198.1z"/>
<path class="st51" d="M65,131.1c-0.8,7.3-1.5,14.7-0.1,22c-0.8,2.3-0.9,4.6,0,7c0.9,3.6-0.3,7.3,0.1,10.9c0.1,1,0,2-0.6,3
	c-0.6,0.6-1.3,0.9-2.1,0.8c-0.5-0.1-1-0.3-1.3-0.7c0-13,0-26,0-39c2.2-6.9,0.3-14,1-21c0.1-1.1-1.6-3.9,1.9-3
	c1.9,3.8,0.9,7.8,0.7,11.7C64.6,125.6,64.1,128.4,65,131.1z"/>
<path class="st98" d="M62,174.1c0.7,0,1.3,0,2,0c3.3,0.6,1.1,3.6,2.2,5.1c2.1,3,1.9,5.7-0.2,8.9c-1.6,2.4-1.2,5.4,1.1,7.7
	c0.9,2.2,1.1,4.1-2.1,4.3c-1,3-0.7,5.2,3.4,4.6c-0.7,2-2.3,1.6-3.3,2.2c-2.4,1.5-3.4,0.4-3.1-2.1c0.3-3.4-0.6-6.6-1-9.8
	c0-0.3,0-0.6,0-1c2.2-2.3-1.8-4.7,0-7c-0.5-1.7-0.4-3.3,0-5C61.3,179.4,60.4,176.6,62,174.1z"/>
<path class="st34" d="M61,247.1c1.8-0.9,0.2-4.4,3.3-4.2c0.6,5.4,2.9,10.8,0.2,16.5c-0.6,1.2,1.5,1.2,2.6,0.7c0.1,1.3,2.5,0.2,2,2
	c-3.8,0.5-3,5.2-6.3,6.7c-2.8-6.1,1-12.8-1.8-18.7C60.7,249.1,59.4,248.1,61,247.1z"/>
<path class="st51" d="M61,280.1c1.6,0,1.6-3.6,4.3-1.5c2.2,1.7,0.2,2.6-0.3,3.6c-1.2,2.1,0.7,6.3-1.8,6.2c-2.6-0.2-0.2-4.3-1.5-6.5
	c-0.2-0.3-0.4-0.5-0.6-0.7C61,280.7,61,280.4,61,280.1z"/>
<path class="st95" d="M62,174.1c-0.4,2.7,1.4,5.6-1,8c-1.8-2.7-1.2-5.3,0-8C61.3,174.1,61.7,174.1,62,174.1z"/>
<path class="st95" d="M61,187.1c-0.5,2.3,3.7,4.7,0,7C61.6,191.8,58.6,189.4,61,187.1z"/>
<path class="st17" d="M79,251.1c1.2,3.7-2.5,4.7-4,7c-0.3,0.2-0.7,0.2-1,0c0-2.7,0-5.3,0-8C75.9,249.3,77.5,249.8,79,251.1z"/>
<path class="st82" d="M78,244.1c-0.1,0.7,0.1,1.4-0.2,1.9c-0.7,1.2-1.8,2-3.2,1.6c-0.5-0.1-1.1-1-1-1.4c0.1-1.4,1.5-1.6,2.6-1.9
	C76.6,244,77.3,244.1,78,244.1C78,244.1,78,244.1,78,244.1z"/>
<path class="st120" d="M79,268.1c-1.7,0.7-2.3,2.3-2.8,3.8c-0.6,2.1-1.6,1.6-2.8,0.6c-1.3-1.2-0.9-2.7-0.4-4.1
	c0.5-1.7,1.5-3,3.3-3.2C78.2,265.1,78.9,266.4,79,268.1L79,268.1z"/>
<path class="st120" d="M74,258.1c0.3,0,0.7,0,1,0c3.3-1.6,2.6,2.1,4,3c-0.2,2.9-2.1,3.4-4,2C73.5,262,71.3,260.3,74,258.1z"/>
<path class="st80" d="M80,172.1c-0.4,3.5-0.8,7-1,10.6c-0.2,2.3,2.9,5.3-1.6,6.5c1.7,1.7-0.3,4.4,1.7,6c0.8,0.7,0.9,1.3,0,2
	c-2.4-0.8-2.7-4.6-6-4c-0.8,0.3-1.2-0.1-1.5-0.8c-0.3-1.1,0.1-2.2-0.3-3.2c0.2-5.9-1-11.9,1.8-17.5c1.2-2.5,3.2-3.4,5.6-3.1
	C80.7,168.8,81.3,170.2,80,172.1z"/>
<path class="st8" d="M73,189.1c-0.3,1-0.7,2-1,3c-0.5,1.1-0.5,2.6-2,3c-1.6,1.7-1.1,2.6,1,3c-2.4,4.9-3.6,5.3-6,2c1.6-1,3-2.1,1-4
	C66.5,188.8,67.6,187.8,73,189.1z"/>
<path class="st95" d="M70,195.1c0.7-1,1.3-2,2-3c0.3,0.3,0.7,0.7,1,1C73.2,195.5,72.4,196.5,70,195.1z"/>
<path class="st95" d="M73,189.1c-6-1.4-4.6,4.7-7,7c-3.9-3.6-2.2-7.4,0-10.8c0.9-1.4,2-1.9,0.1-3.3c-2.9-2-0.1-5.6-2.1-8
	c0-1,0-2,0-3c6.8,2.3,8.6,0.5,7.9-7.9c-0.2-1.8-1.6-3.9,1.1-5.1c0.8-0.5,0.9-1.2,0.9-2c1.9-0.7,4.2-0.3,5.5-2.5c0.8-1.2,2-0.6,3,0.1
	c1.1,1,1.8,2.2,2.2,3.6c0.4,2.6-0.5,5.1-0.8,7.6c-0.8,1.1-0.1,2.5-0.5,3.7c-0.1,0.2-0.3,0.3-0.4,0.5c-1.2,0.7-1,1.9-1,3
	c-0.7,0-1.3,0-2,0c0.1-2.4-0.7-3.5-3.3-2.4c-1.9,0.8-5.8,9.1-5,10.9c1.2,2.6,1.3,3.6,0,5.8C70.7,188.1,72.9,188.1,73,189.1z"/>
<path class="st29" d="M89,169.1c0,1.3,0,2.7,0,4c-4.1,1.9-6.1,0.5-6-4v0C85,166.3,87,166.5,89,169.1z"/>
<path class="st51" d="M64,109.1c-0.9-0.5-1.8-1.1-1.8-2.2c-0.1-7,0-14,0-21.8c2.6,2.8,0.9,6,2.9,8c-0.1,5.3,0.7,10.7,0,16v0
	C64.7,109.6,64.3,109.6,64,109.1z"/>
<path class="st91" d="M64,109.1c0.3,0,0.7,0,1,0c2.6,7.3-0.4,14.7,0,22c-2.1-4.7-0.5-9.7-1-14.5c-0.2-1.8,0-3.6-0.1-5.4
	C64,110.5,64,109.8,64,109.1z"/>
<path class="st91" d="M65,109.1c0-5.3-1.8-10.7,0-16c0.5-3-1-6.2,1-9c0,6.9,0,13.9,0,20.8C66,106.4,66.5,108,65,109.1z"/>
<path class="st8" d="M82,113.1c0.2,6.3-0.5,12.7,1,19c0.3,0.3,0.5,0.8,0.5,1.2c-0.4,1.7,0,3.7-1.8,4.9c-0.8-0.3-1.4-0.3-1.8,0.6
	c-3.6,0.6-4.7,3.5-5.9,6.3c-1.9-2-1.2-4.6-0.9-6.7c1.4-8.1,0.7-16.2,0.9-24.3c1.1-0.1,0.7-3.6,2.9-1.3c0.2,0.2,0.6,0.1,0.9,0.1
	c-0.1-0.8-0.6-2-0.3-2.5c1.2-1.7,1.8-0.4,2.3,0.7c0.3,0.8-0.5,2.2,1.2,2.2C81.4,113.4,81.7,113.2,82,113.1z"/>
<path class="st121" d="M74,145.1c-1.2-5.1,1.7-6.7,6-7c0.5,0.3,0.4,0.9,0.6,1.3c0.2-0.4,0.1-0.9,0.3-1.3c1.9-1.2,0.1-3.8,2-5
	c1.2,7.1,3.6,14.2-1,21c-0.7-0.1-1.6-0.9-2,0.3c-1.2,3.8-3.6,2.8-6.1,1.7C72.3,152.4,74.6,148.8,74,145.1z"/>
<path class="st122" d="M73,158.2c-0.7,3.9,0.8,8-0.6,12c-0.4,1.2,0.9,3.1-1.2,3.7c-2.1,0.5-4.3,0.9-5.9-1.2c-0.4-0.5-0.8-1-1.3-1.5
	c-0.8-3.8-0.2-7.4,0.9-11C67.7,159.7,69.9,157.1,73,158.2z"/>
<path class="st93" d="M82,154.1c2.4-6.9,0.2-14,1-21c0-0.3,0-0.7,0-1c2.4-0.1,3.3-0.2,3.4,3.4c0,5,0.7,10.2,1.4,15.2
	c0.4,2.9-2.6,3.3-1.8,5.4c-0.5,0.6-1.1,1.1-2,1C83.3,156.1,82.7,155.1,82,154.1z"/>
<path class="st50" d="M84,157.1c0.4-0.8,1.2-1,2-1c1.1,1.1,2.4,2.1,2,4c0.8,2,0.2,4-0.7,5.6c-1,1.7-2.7,2.4-4.4,0.4
	C82.5,163,83.8,160.1,84,157.1z"/>
<path class="st13" d="M87,85.1c1.5,9,1.1,18,1,27c-0.5-0.8-1.7-1.8-1.5-2.4c1.5-5.8-0.8-11.5,0.1-17.3C87,90.1,84.1,87.5,87,85.1z"
	/>
<path class="st33" d="M83,166.1c5.7,1.4,3.4-3.9,5-6c2.4,2.8-0.3,6.1,1,9c-2-1.3-4-1.3-6,0C83.3,168.1,81.8,167.1,83,166.1z"/>
<path class="st63" d="M38,231.1c0.4-2.3,1.4-4.4,4.2-3.3c1.6,0.7,5.2-2.5,4.8,2.3C44,230,41,230.1,38,231.1z"/>
<path class="st48" d="M47,218.1c-0.1,6.3-1.7,7.4-9,6c0,0,0,0,0,0c-0.8-1.3-0.5-2.7-0.2-4.1C40.4,217.2,43.5,216.7,47,218.1
	L47,218.1z"/>
<path class="st102" d="M39,210.1c0.3,0,0.6-0.1,1-0.1c7-0.7,7-0.7,7,6.1c0,0,0,0,0,0c-2,2.5-4.9,2.2-7,1
	C37.3,215.5,38.5,212.6,39,210.1L39,210.1z"/>
<path class="st9" d="M39,210.1c0,7.1,1.1,8,8,6c0,0.7,0,1.3,0,2c-3,0.7-6,1.3-9,2c-0.3-0.2-0.4-0.5-0.3-0.7c0.1-0.2,0.2-0.4,0.3-0.4
	c0-0.3,0-0.6,0-1C38.5,215.5,37,212.6,39,210.1z"/>
<path class="st77" d="M38,219.1c0,0.3,0,0.7,0,1c0,1.3,0,2.7,0,4C36.5,222.4,36.5,220.7,38,219.1z"/>
<path class="st33" d="M61,214.1c0.7-0.5,1-1.3,1-2.1c0-1.4,0.2-3,2-2.7c2.9,0.5-0.6,1.6,0.1,2.8c2.5,4.5,1,9.5,1.4,14.2
	c0.3,3.4-2.8,3.6-3.3,5.9c1.3-5-2.4-10,0.2-15C62.7,216.5,61.5,215.1,61,214.1C61,214.1,61,214.1,61,214.1z"/>
<path class="st123" d="M79.7,166.1c-1.8-0.9-3.4,2.1-5.2,0.1c-0.1-0.1-0.1-0.8,0.1-0.9C76.4,164.1,78,165.2,79.7,166.1z"/>
<path class="st124" d="M75.9,132.9c1.1-1.1,2.2-1.7,3.6-1.1c0.1,0.1,0.2,0.7,0,0.9C78.5,134.4,77.2,133,75.9,132.9z"/>
<path class="st124" d="M81,138.1c0.7,1.2,0.6,2.4,0.1,3.7c-1.9-0.8-0.8-2.5-1.1-3.7C80.3,137.5,80.7,137.5,81,138.1z"/>
</svg>
