<svg fill="none" viewBox="0 0 426 284"><path d="M417 .5H9A8.5 8.5 0 0 0 .5 9v266a8.5 8.5 0 0 0 8.5 8.5h408a8.5 8.5 0 0 0 8.5-8.5V9A8.5 8.5 0 0 0 417 .5Z" fill="#D3E5FF" stroke="#EAEAEA"></path><path d="M25 29a4 4 0 0 1 4-4h368a4 4 0 0 1 4 4v254H25V29Z" fill="#fff"></path><circle cx="57" cy="57" fill="#000" r="8"></circle><rect fill="#999" height="8" rx="4" width="40" x="73" y="53"></rect><rect fill="#000" height="8" rx="4" width="40" x="337" y="53"></rect><rect fill="#999" height="8" rx="4" width="40" x="289" y="53"></rect><rect fill="#EAEAEA" height="64" rx="8" width="328" x="49" y="87"></rect><circle cx="213" cy="138" fill="#999" r="4"></circle><circle cx="197" cy="138" fill="#000" r="4"></circle><circle cx="229" cy="138" fill="#999" r="4"></circle><path d="M200 209a8 8 0 0 1 8-8h161a8 8 0 0 1 8 8v41a8 8 0 0 1-8 8H208a8 8 0 0 1-8-8v-41Z" fill="#3291FF"></path><path d="M200 179a4 4 0 0 1 4-4h110a4 4 0 0 1 0 8H204a4 4 0 0 1-4-4Z" fill="#EAEAEA"></path><path d="M49 179a4 4 0 0 1 4-4h49a4 4 0 0 1 0 8H53a4 4 0 0 1-4-4ZM49 200a4 4 0 0 1 4-4h30a4 4 0 0 1 0 8H53a4 4 0 0 1-4-4ZM49 221a4 4 0 0 1 4-4h20a4 4 0 0 1 0 8H53a4 4 0 0 1-4-4ZM87 221a4 4 0 0 1 4-4h48a4 4 0 0 1 0 8H91a4 4 0 0 1-4-4ZM96 200a4 4 0 0 1 4-4h21a4 4 0 0 1 0 8h-21a4 4 0 0 1-4-4Z" fill="#444"></path></svg>