<?xml version="1.0" encoding="utf-8"?>
<!-- Generator: Adobe Illustrator 26.3.1, SVG Export Plug-In . SVG Version: 6.00 Build 0)  -->
<svg version="1.1" id="Layer_1" xmlns="http://www.w3.org/2000/svg" xmlns:xlink="http://www.w3.org/1999/xlink" x="0px" y="0px"
	 viewBox="0 0 852 938" style="enable-background:new 0 0 852 938;" xml:space="preserve">
<style type="text/css">
	.st0{opacity:0.25;}
	.st1{fill:url(#SVGID_1_);}
	.st2{fill:url(#SVGID_00000174588691846403314880000015041141510079604655_);}
	.st3{fill:none;stroke:#FFFFFF;stroke-dasharray:4,8;}
	.st4{opacity:0.5;}
	.st5{opacity:0.8;}
	.st6{opacity:0.6;}
</style>
<g class="st0">
	
		<linearGradient id="SVGID_1_" gradientUnits="userSpaceOnUse" x1="335.5" y1="788" x2="335.5" y2="431" gradientTransform="matrix(1 0 0 -1 0 938)">
		<stop  offset="0" style="stop-color:#4EBFFF"/>
		<stop  offset="1" style="stop-color:#BD69FF"/>
	</linearGradient>
	<ellipse class="st1" cx="335.5" cy="328.5" rx="185.5" ry="178.5"/>
</g>
<g class="st0">
	
		<linearGradient id="SVGID_00000111162819088268990520000007915830119747660953_" gradientUnits="userSpaceOnUse" x1="516.5" y1="507" x2="516.5" y2="150" gradientTransform="matrix(1 0 0 -1 0 938)">
		<stop  offset="0" style="stop-color:#4EBFFF"/>
		<stop  offset="1" style="stop-color:#BD69FF"/>
	</linearGradient>
	
		<ellipse style="fill:url(#SVGID_00000111162819088268990520000007915830119747660953_);" cx="516.5" cy="609.5" rx="185.5" ry="178.5"/>
</g>
<g>
	<path class="st3" d="M633.9,430.6L633.9,430.6c0,0.6,0,1.3,0,2l0.5,0c0,2.4,0,5.1-0.1,8.2l-0.5,0c0,1.3-0.1,2.7-0.2,4.1l0.5,0
		c-0.1,2.6-0.3,5.3-0.6,8.2l-0.5,0c-0.1,1.3-0.3,2.7-0.4,4.1l0.5,0.1c-0.3,2.6-0.7,5.3-1.1,8.1l-0.5-0.1c-0.2,1.3-0.4,2.7-0.7,4
		l0.5,0.1c-0.5,2.6-1,5.3-1.6,8.1l-0.5-0.1c-0.3,1.3-0.6,2.6-0.9,4l0.5,0.1c-0.7,2.6-1.4,5.3-2.2,7.9l-0.5-0.1
		c-0.4,1.3-0.8,2.6-1.3,3.9l0.5,0.2c-0.9,2.6-1.8,5.1-2.8,7.7l-0.5-0.2c-0.5,1.3-1,2.5-1.6,3.8l0.5,0.2c-1.1,2.5-2.3,5-3.6,7.4
		l-0.4-0.2c-0.6,1.2-1.3,2.4-2,3.6l0.4,0.2c-1.3,2.4-2.8,4.7-4.3,7l-0.4-0.3c-0.8,1.1-1.5,2.2-2.4,3.3l0.4,0.3
		c-1.6,2.2-3.3,4.3-5.2,6.4l-0.4-0.3c-0.9,1-1.8,2-2.8,3l0.4,0.3c-1.9,1.9-3.9,3.8-6,5.6l-0.3-0.4c-1,0.9-2.1,1.7-3.2,2.6l0.3,0.4
		c-2.1,1.7-4.4,3.2-6.7,4.7l-0.3-0.4c-1.1,0.7-2.3,1.4-3.5,2.1l0.2,0.4c-2.3,1.3-4.8,2.5-7.3,3.7l-0.2-0.5c-1.2,0.5-2.5,1.1-3.8,1.6
		l0.2,0.5c-2.5,1-5.1,1.8-7.8,2.6l-0.1-0.5c-0.7,0.2-1.3,0.4-2,0.6c-0.2,0.1-0.4,0.1-0.6,0.1l0.1,0.5c-0.8,0.1-1.7,0.1-2.6,0
		l0.1-0.5c-0.2,0-0.4-0.1-0.6-0.1c-0.7-0.2-1.3-0.4-2-0.6l-0.1,0.5c-2.7-0.8-5.3-1.7-7.8-2.6l0.2-0.5c-1.3-0.5-2.5-1-3.8-1.6
		l-0.2,0.5c-2.6-1.1-5-2.4-7.3-3.7l0.2-0.4c-1.2-0.7-2.4-1.4-3.5-2.1l-0.3,0.4c-2.4-1.5-4.6-3-6.7-4.7l0.3-0.4
		c-1.1-0.8-2.1-1.7-3.2-2.6l-0.3,0.4c-2.1-1.8-4.1-3.7-6-5.6l0.4-0.3c-1-1-1.9-2-2.8-3l-0.4,0.3c-1.8-2.1-3.5-4.2-5.2-6.4l0.4-0.3
		c-0.8-1.1-1.6-2.2-2.4-3.3l-0.4,0.3c-1.5-2.3-3-4.6-4.3-7l0.4-0.2c-0.7-1.2-1.3-2.4-2-3.6l-0.4,0.2c-1.3-2.4-2.5-4.9-3.6-7.4
		l0.5-0.2c-0.5-1.3-1.1-2.5-1.6-3.8l-0.5,0.2c-1-2.6-2-5.1-2.8-7.7l0.5-0.2c-0.4-1.3-0.9-2.6-1.3-3.9l-0.5,0.1
		c-0.8-2.6-1.5-5.3-2.2-7.9l0.5-0.1c-0.3-1.3-0.6-2.7-0.9-4l-0.5,0.1c-0.6-2.7-1.2-5.4-1.6-8.1l0.5-0.1c-0.2-1.4-0.5-2.7-0.7-4
		l-0.5,0.1c-0.4-2.8-0.8-5.5-1.1-8.1l0.5-0.1c-0.2-1.4-0.3-2.7-0.4-4.1l-0.5,0c-0.3-2.9-0.5-5.6-0.6-8.2l0.5,0
		c-0.1-1.4-0.1-2.8-0.2-4.1l-0.5,0c-0.1-3.1-0.1-5.8-0.1-8.2l0.5,0c0-0.7,0-1.4,0-2c0-0.6,0.1-1.1,0.2-1.7l-0.5-0.1
		c0.6-2.4,2.4-4.3,4.8-5.1l0.2,0.5c0.5-0.2,1.1-0.3,1.7-0.4l0,0c0.7-0.1,1.3-0.1,2-0.2l-0.1-0.5c2.7-0.3,5.3-0.7,7.9-1.2l0.1,0.5
		c1.3-0.2,2.6-0.5,3.9-0.8l-0.1-0.5c2.6-0.6,5.2-1.2,7.7-2l0.1,0.5c1.3-0.4,2.6-0.8,3.8-1.2l-0.2-0.5c2.6-0.8,5.1-1.7,7.5-2.7
		l0.2,0.5c1.3-0.5,2.5-1,3.7-1.5l-0.2-0.5c2.5-1.1,5-2.2,7.3-3.3l0.2,0.5c1.2-0.6,2.4-1.2,3.6-1.8l-0.2-0.4c2.5-1.3,4.9-2.6,7-3.8
		l0.3,0.4c1.2-0.7,2.4-1.4,3.4-2.1l-0.3-0.4c2.7-1.6,4.9-3.1,6.7-4.4l0.3,0.4c0.6-0.4,1.1-0.8,1.6-1.2h0c0.3-0.2,0.5-0.4,0.8-0.5
		l-0.2-0.5c1.3-0.6,2.8-0.6,4.1,0l-0.2,0.5c0.3,0.1,0.6,0.3,0.8,0.5h0c0.5,0.4,1,0.7,1.6,1.2l0.3-0.4c1.8,1.2,4,2.7,6.7,4.4
		l-0.3,0.4c1.1,0.7,2.2,1.4,3.4,2.1l0.3-0.4c2.1,1.2,4.5,2.5,7,3.8l-0.2,0.4c1.2,0.6,2.4,1.2,3.6,1.8l0.2-0.5
		c2.3,1.1,4.7,2.2,7.3,3.3l-0.2,0.5c1.2,0.5,2.5,1,3.7,1.5l0.2-0.5c2.4,0.9,4.9,1.8,7.5,2.7l-0.2,0.5c1.3,0.4,2.5,0.8,3.8,1.2
		l0.1-0.5c2.5,0.7,5.1,1.4,7.7,2l-0.1,0.5c1.3,0.3,2.6,0.6,3.9,0.8l0.1-0.5c2.6,0.5,5.2,0.9,7.9,1.2l-0.1,0.5c0.7,0.1,1.3,0.1,2,0.2
		h0c0.6,0.1,1.1,0.2,1.7,0.4l0.2-0.5c2.4,0.8,4.2,2.7,4.8,5.1l-0.5,0.1C633.8,429.4,633.9,430,633.9,430.6z"/>
</g>
<g class="st4">
	<path class="st3" d="M633.9,430.6L633.9,430.6c0,0.6,0,1.3,0,2l0.5,0c0,2.4,0,5.1-0.1,8.2l-0.5,0c0,1.3-0.1,2.7-0.2,4.1l0.5,0
		c-0.1,2.6-0.3,5.3-0.6,8.2l-0.5,0c-0.1,1.3-0.3,2.7-0.4,4.1l0.5,0.1c-0.3,2.6-0.7,5.3-1.1,8.1l-0.5-0.1c-0.2,1.3-0.4,2.7-0.7,4
		l0.5,0.1c-0.5,2.6-1,5.3-1.6,8.1l-0.5-0.1c-0.3,1.3-0.6,2.6-0.9,4l0.5,0.1c-0.7,2.6-1.4,5.3-2.2,7.9l-0.5-0.1
		c-0.4,1.3-0.8,2.6-1.3,3.9l0.5,0.2c-0.9,2.6-1.8,5.1-2.8,7.7l-0.5-0.2c-0.5,1.3-1,2.5-1.6,3.8l0.5,0.2c-1.1,2.5-2.3,5-3.6,7.4
		l-0.4-0.2c-0.6,1.2-1.3,2.4-2,3.6l0.4,0.2c-1.3,2.4-2.8,4.7-4.3,7l-0.4-0.3c-0.8,1.1-1.5,2.2-2.4,3.3l0.4,0.3
		c-1.6,2.2-3.3,4.3-5.2,6.4l-0.4-0.3c-0.9,1-1.8,2-2.8,3l0.4,0.3c-1.9,1.9-3.9,3.8-6,5.6l-0.3-0.4c-1,0.9-2.1,1.7-3.2,2.6l0.3,0.4
		c-2.1,1.7-4.4,3.2-6.7,4.7l-0.3-0.4c-1.1,0.7-2.3,1.4-3.5,2.1l0.2,0.4c-2.3,1.3-4.8,2.5-7.3,3.7l-0.2-0.5c-1.2,0.5-2.5,1.1-3.8,1.6
		l0.2,0.5c-2.5,1-5.1,1.8-7.8,2.6l-0.1-0.5c-0.7,0.2-1.3,0.4-2,0.6c-0.2,0.1-0.4,0.1-0.6,0.1l0.1,0.5c-0.8,0.1-1.7,0.1-2.6,0
		l0.1-0.5c-0.2,0-0.4-0.1-0.6-0.1c-0.7-0.2-1.3-0.4-2-0.6l-0.1,0.5c-2.7-0.8-5.3-1.7-7.8-2.6l0.2-0.5c-1.3-0.5-2.5-1-3.8-1.6
		l-0.2,0.5c-2.6-1.1-5-2.4-7.3-3.7l0.2-0.4c-1.2-0.7-2.4-1.4-3.5-2.1l-0.3,0.4c-2.4-1.5-4.6-3-6.7-4.7l0.3-0.4
		c-1.1-0.8-2.1-1.7-3.2-2.6l-0.3,0.4c-2.1-1.8-4.1-3.7-6-5.6l0.4-0.3c-1-1-1.9-2-2.8-3l-0.4,0.3c-1.8-2.1-3.5-4.2-5.2-6.4l0.4-0.3
		c-0.8-1.1-1.6-2.2-2.4-3.3l-0.4,0.3c-1.5-2.3-3-4.6-4.3-7l0.4-0.2c-0.7-1.2-1.3-2.4-2-3.6l-0.4,0.2c-1.3-2.4-2.5-4.9-3.6-7.4
		l0.5-0.2c-0.5-1.3-1.1-2.5-1.6-3.8l-0.5,0.2c-1-2.6-2-5.1-2.8-7.7l0.5-0.2c-0.4-1.3-0.9-2.6-1.3-3.9l-0.5,0.1
		c-0.8-2.6-1.5-5.3-2.2-7.9l0.5-0.1c-0.3-1.3-0.6-2.7-0.9-4l-0.5,0.1c-0.6-2.7-1.2-5.4-1.6-8.1l0.5-0.1c-0.2-1.4-0.5-2.7-0.7-4
		l-0.5,0.1c-0.4-2.8-0.8-5.5-1.1-8.1l0.5-0.1c-0.2-1.4-0.3-2.7-0.4-4.1l-0.5,0c-0.3-2.9-0.5-5.6-0.6-8.2l0.5,0
		c-0.1-1.4-0.1-2.8-0.2-4.1l-0.5,0c-0.1-3.1-0.1-5.8-0.1-8.2l0.5,0c0-0.7,0-1.4,0-2c0-0.6,0.1-1.1,0.2-1.7l-0.5-0.1
		c0.6-2.4,2.4-4.3,4.8-5.1l0.2,0.5c0.5-0.2,1.1-0.3,1.7-0.4l0,0c0.7-0.1,1.3-0.1,2-0.2l-0.1-0.5c2.7-0.3,5.3-0.7,7.9-1.2l0.1,0.5
		c1.3-0.2,2.6-0.5,3.9-0.8l-0.1-0.5c2.6-0.6,5.2-1.2,7.7-2l0.1,0.5c1.3-0.4,2.6-0.8,3.8-1.2l-0.2-0.5c2.6-0.8,5.1-1.7,7.5-2.7
		l0.2,0.5c1.3-0.5,2.5-1,3.7-1.5l-0.2-0.5c2.5-1.1,5-2.2,7.3-3.3l0.2,0.5c1.2-0.6,2.4-1.2,3.6-1.8l-0.2-0.4c2.5-1.3,4.9-2.6,7-3.8
		l0.3,0.4c1.2-0.7,2.4-1.4,3.4-2.1l-0.3-0.4c2.7-1.6,4.9-3.1,6.7-4.4l0.3,0.4c0.6-0.4,1.1-0.8,1.6-1.2h0c0.3-0.2,0.5-0.4,0.8-0.5
		l-0.2-0.5c1.3-0.6,2.8-0.6,4.1,0l-0.2,0.5c0.3,0.1,0.6,0.3,0.8,0.5h0c0.5,0.4,1,0.7,1.6,1.2l0.3-0.4c1.8,1.2,4,2.7,6.7,4.4
		l-0.3,0.4c1.1,0.7,2.2,1.4,3.4,2.1l0.3-0.4c2.1,1.2,4.5,2.5,7,3.8l-0.2,0.4c1.2,0.6,2.4,1.2,3.6,1.8l0.2-0.5
		c2.3,1.1,4.7,2.2,7.3,3.3l-0.2,0.5c1.2,0.5,2.5,1,3.7,1.5l0.2-0.5c2.4,0.9,4.9,1.8,7.5,2.7l-0.2,0.5c1.3,0.4,2.5,0.8,3.8,1.2
		l0.1-0.5c2.5,0.7,5.1,1.4,7.7,2l-0.1,0.5c1.3,0.3,2.6,0.6,3.9,0.8l0.1-0.5c2.6,0.5,5.2,0.9,7.9,1.2l-0.1,0.5c0.7,0.1,1.3,0.1,2,0.2
		h0c0.6,0.1,1.1,0.2,1.7,0.4l0.2-0.5c2.4,0.8,4.2,2.7,4.8,5.1l-0.5,0.1C633.8,429.4,633.9,430,633.9,430.6z"/>
</g>
<g class="st4">
	<path class="st3" d="M633.9,430.6L633.9,430.6c0,0.6,0,1.3,0,2l0.5,0c0,2.4,0,5.1-0.1,8.2l-0.5,0c0,1.3-0.1,2.7-0.2,4.1l0.5,0
		c-0.1,2.6-0.3,5.3-0.6,8.2l-0.5,0c-0.1,1.3-0.3,2.7-0.4,4.1l0.5,0.1c-0.3,2.6-0.7,5.3-1.1,8.1l-0.5-0.1c-0.2,1.3-0.4,2.7-0.7,4
		l0.5,0.1c-0.5,2.6-1,5.3-1.6,8.1l-0.5-0.1c-0.3,1.3-0.6,2.6-0.9,4l0.5,0.1c-0.7,2.6-1.4,5.3-2.2,7.9l-0.5-0.1
		c-0.4,1.3-0.8,2.6-1.3,3.9l0.5,0.2c-0.9,2.6-1.8,5.1-2.8,7.7l-0.5-0.2c-0.5,1.3-1,2.5-1.6,3.8l0.5,0.2c-1.1,2.5-2.3,5-3.6,7.4
		l-0.4-0.2c-0.6,1.2-1.3,2.4-2,3.6l0.4,0.2c-1.3,2.4-2.8,4.7-4.3,7l-0.4-0.3c-0.8,1.1-1.5,2.2-2.4,3.3l0.4,0.3
		c-1.6,2.2-3.3,4.3-5.2,6.4l-0.4-0.3c-0.9,1-1.8,2-2.8,3l0.4,0.3c-1.9,1.9-3.9,3.8-6,5.6l-0.3-0.4c-1,0.9-2.1,1.7-3.2,2.6l0.3,0.4
		c-2.1,1.7-4.4,3.2-6.7,4.7l-0.3-0.4c-1.1,0.7-2.3,1.4-3.5,2.1l0.2,0.4c-2.3,1.3-4.8,2.5-7.3,3.7l-0.2-0.5c-1.2,0.5-2.5,1.1-3.8,1.6
		l0.2,0.5c-2.5,1-5.1,1.8-7.8,2.6l-0.1-0.5c-0.7,0.2-1.3,0.4-2,0.6c-0.2,0.1-0.4,0.1-0.6,0.1l0.1,0.5c-0.8,0.1-1.7,0.1-2.6,0
		l0.1-0.5c-0.2,0-0.4-0.1-0.6-0.1c-0.7-0.2-1.3-0.4-2-0.6l-0.1,0.5c-2.7-0.8-5.3-1.7-7.8-2.6l0.2-0.5c-1.3-0.5-2.5-1-3.8-1.6
		l-0.2,0.5c-2.6-1.1-5-2.4-7.3-3.7l0.2-0.4c-1.2-0.7-2.4-1.4-3.5-2.1l-0.3,0.4c-2.4-1.5-4.6-3-6.7-4.7l0.3-0.4
		c-1.1-0.8-2.1-1.7-3.2-2.6l-0.3,0.4c-2.1-1.8-4.1-3.7-6-5.6l0.4-0.3c-1-1-1.9-2-2.8-3l-0.4,0.3c-1.8-2.1-3.5-4.2-5.2-6.4l0.4-0.3
		c-0.8-1.1-1.6-2.2-2.4-3.3l-0.4,0.3c-1.5-2.3-3-4.6-4.3-7l0.4-0.2c-0.7-1.2-1.3-2.4-2-3.6l-0.4,0.2c-1.3-2.4-2.5-4.9-3.6-7.4
		l0.5-0.2c-0.5-1.3-1.1-2.5-1.6-3.8l-0.5,0.2c-1-2.6-2-5.1-2.8-7.7l0.5-0.2c-0.4-1.3-0.9-2.6-1.3-3.9l-0.5,0.1
		c-0.8-2.6-1.5-5.3-2.2-7.9l0.5-0.1c-0.3-1.3-0.6-2.7-0.9-4l-0.5,0.1c-0.6-2.7-1.2-5.4-1.6-8.1l0.5-0.1c-0.2-1.4-0.5-2.7-0.7-4
		l-0.5,0.1c-0.4-2.8-0.8-5.5-1.1-8.1l0.5-0.1c-0.2-1.4-0.3-2.7-0.4-4.1l-0.5,0c-0.3-2.9-0.5-5.6-0.6-8.2l0.5,0
		c-0.1-1.4-0.1-2.8-0.2-4.1l-0.5,0c-0.1-3.1-0.1-5.8-0.1-8.2l0.5,0c0-0.7,0-1.4,0-2c0-0.6,0.1-1.1,0.2-1.7l-0.5-0.1
		c0.6-2.4,2.4-4.3,4.8-5.1l0.2,0.5c0.5-0.2,1.1-0.3,1.7-0.4l0,0c0.7-0.1,1.3-0.1,2-0.2l-0.1-0.5c2.7-0.3,5.3-0.7,7.9-1.2l0.1,0.5
		c1.3-0.2,2.6-0.5,3.9-0.8l-0.1-0.5c2.6-0.6,5.2-1.2,7.7-2l0.1,0.5c1.3-0.4,2.6-0.8,3.8-1.2l-0.2-0.5c2.6-0.8,5.1-1.7,7.5-2.7
		l0.2,0.5c1.3-0.5,2.5-1,3.7-1.5l-0.2-0.5c2.5-1.1,5-2.2,7.3-3.3l0.2,0.5c1.2-0.6,2.4-1.2,3.6-1.8l-0.2-0.4c2.5-1.3,4.9-2.6,7-3.8
		l0.3,0.4c1.2-0.7,2.4-1.4,3.4-2.1l-0.3-0.4c2.7-1.6,4.9-3.1,6.7-4.4l0.3,0.4c0.6-0.4,1.1-0.8,1.6-1.2h0c0.3-0.2,0.5-0.4,0.8-0.5
		l-0.2-0.5c1.3-0.6,2.8-0.6,4.1,0l-0.2,0.5c0.3,0.1,0.6,0.3,0.8,0.5h0c0.5,0.4,1,0.7,1.6,1.2l0.3-0.4c1.8,1.2,4,2.7,6.7,4.4
		l-0.3,0.4c1.1,0.7,2.2,1.4,3.4,2.1l0.3-0.4c2.1,1.2,4.5,2.5,7,3.8l-0.2,0.4c1.2,0.6,2.4,1.2,3.6,1.8l0.2-0.5
		c2.3,1.1,4.7,2.2,7.3,3.3l-0.2,0.5c1.2,0.5,2.5,1,3.7,1.5l0.2-0.5c2.4,0.9,4.9,1.8,7.5,2.7l-0.2,0.5c1.3,0.4,2.5,0.8,3.8,1.2
		l0.1-0.5c2.5,0.7,5.1,1.4,7.7,2l-0.1,0.5c1.3,0.3,2.6,0.6,3.9,0.8l0.1-0.5c2.6,0.5,5.2,0.9,7.9,1.2l-0.1,0.5c0.7,0.1,1.3,0.1,2,0.2
		h0c0.6,0.1,1.1,0.2,1.7,0.4l0.2-0.5c2.4,0.8,4.2,2.7,4.8,5.1l-0.5,0.1C633.8,429.4,633.9,430,633.9,430.6z"/>
</g>
<g class="st5">
	<path class="st3" d="M681,403.1l0.5,0c0,2.3,0,5,0,7.8l-0.5,0c0,1.3-0.1,2.6-0.1,3.9l0.5,0c-0.1,2.4-0.2,5-0.3,7.8l-0.5,0
		c-0.1,1.3-0.1,2.6-0.2,3.9l0.5,0c-0.2,2.5-0.3,5.1-0.6,7.8l-0.5,0c-0.1,1.3-0.2,2.6-0.4,3.9l0.5,0c-0.2,2.5-0.5,5.1-0.9,7.8
		l-0.5-0.1c-0.2,1.3-0.3,2.5-0.5,3.8l0.5,0.1c-0.3,2.5-0.7,5.1-1.1,7.7l-0.5-0.1c-0.2,1.3-0.4,2.6-0.6,3.9l0.5,0.1
		c-0.4,2.5-0.9,5.1-1.4,7.7l-0.5-0.1c-0.3,1.3-0.5,2.5-0.8,3.8l0.5,0.1c-0.5,2.5-1.1,5.1-1.7,7.6l-0.5-0.1c-0.3,1.3-0.6,2.5-0.9,3.8
		l0.5,0.1c-0.6,2.5-1.3,5-2.1,7.5l-0.5-0.1c-0.4,1.2-0.7,2.5-1.1,3.7l0.5,0.1c-0.8,2.5-1.6,5-2.4,7.4l-0.5-0.2
		c-0.4,1.2-0.9,2.5-1.3,3.7l0.5,0.2c-0.9,2.4-1.8,4.9-2.8,7.3l-0.5-0.2c-0.5,1.2-1,2.4-1.5,3.6l0.5,0.2c-1,2.4-2.1,4.8-3.2,7.1
		l-0.5-0.2c-0.5,1.2-1.1,2.3-1.7,3.5l0.4,0.2c-1.2,2.3-2.4,4.6-3.6,6.9l-0.4-0.2c-0.6,1.1-1.3,2.3-1.9,3.4l0.4,0.2
		c-1.3,2.3-2.6,4.5-4.1,6.7l-0.4-0.3c-0.7,1.1-1.4,2.2-2.1,3.3l0.4,0.3c-1.4,2.2-3,4.3-4.5,6.4l-0.4-0.3c-0.8,1-1.6,2.1-2.4,3.1
		l0.4,0.3c-1.6,2-3.3,4.1-5,6l-0.4-0.3c-0.9,1-1.7,1.9-2.6,2.9l0.4,0.3c-1.8,1.9-3.6,3.8-5.4,5.6l-0.3-0.4c-0.9,0.9-1.9,1.8-2.8,2.7
		l0.3,0.4c-1.9,1.8-3.9,3.5-5.9,5.1l-0.3-0.4c-1,0.8-2,1.6-3,2.4l0.3,0.4c-2,1.6-4.2,3.1-6.3,4.6l-0.3-0.4c-1.1,0.7-2.1,1.4-3.2,2.2
		l0.3,0.4c-2.2,1.4-4.4,2.7-6.7,4l-0.2-0.4c-1.1,0.6-2.3,1.3-3.4,1.9l0.2,0.4c-2.3,1.2-4.6,2.4-7,3.5l-0.2-0.5
		c-1.2,0.5-2.4,1.1-3.6,1.6l0.2,0.5c-2.4,1-4.8,2-7.2,2.9l-0.2-0.5c-1.2,0.4-2.5,0.9-3.7,1.3l0.2,0.5c-2.4,0.8-4.9,1.6-7.5,2.3
		l-0.1-0.5c-0.6,0.2-1.3,0.3-1.9,0.5c-0.3,0.1-0.6,0.2-1,0.2l0.1,0.5c-1.4,0.2-2.8,0.2-4.1,0l0.1-0.5c-0.3-0.1-0.7-0.1-1-0.2
		c-0.6-0.2-1.3-0.3-1.9-0.5l-0.1,0.5c-2.5-0.7-5-1.5-7.5-2.3l0.2-0.5c-1.2-0.4-2.5-0.8-3.7-1.3l-0.2,0.5c-2.5-0.9-4.9-1.9-7.2-2.9
		l0.2-0.5c-1.2-0.5-2.4-1-3.6-1.6l-0.2,0.5c-2.4-1.1-4.7-2.3-7-3.5l0.2-0.4c-1.2-0.6-2.3-1.2-3.4-1.9l-0.2,0.4
		c-2.3-1.3-4.5-2.6-6.7-4l0.3-0.4c-1.1-0.7-2.2-1.4-3.2-2.2l-0.3,0.4c-2.2-1.5-4.3-3-6.3-4.6l0.3-0.4c-1-0.8-2-1.6-3-2.4l-0.3,0.4
		c-2-1.7-4-3.4-5.9-5.1l0.3-0.4c-1-0.9-1.9-1.8-2.8-2.7l-0.3,0.4c-1.9-1.8-3.7-3.7-5.4-5.6l0.4-0.3c-0.9-1-1.8-1.9-2.6-2.9l-0.4,0.3
		c-1.7-2-3.4-4-5-6l0.4-0.3c-0.8-1-1.6-2.1-2.4-3.1l-0.4,0.3c-1.6-2.1-3.1-4.2-4.5-6.4l0.4-0.3c-0.7-1.1-1.4-2.2-2.1-3.3l-0.4,0.3
		c-1.4-2.2-2.8-4.4-4.1-6.7l0.4-0.2c-0.6-1.1-1.3-2.3-1.9-3.4l-0.4,0.2c-1.3-2.3-2.5-4.6-3.6-6.9l0.4-0.2c-0.6-1.2-1.1-2.3-1.7-3.5
		l-0.5,0.2c-1.1-2.4-2.2-4.8-3.2-7.1l0.5-0.2c-0.5-1.2-1-2.4-1.5-3.6l-0.5,0.2c-1-2.4-1.9-4.9-2.8-7.3l0.5-0.2
		c-0.4-1.2-0.9-2.5-1.3-3.7l-0.5,0.2c-0.9-2.5-1.7-5-2.4-7.4l0.5-0.1c-0.4-1.2-0.8-2.5-1.1-3.7l-0.5,0.1c-0.7-2.5-1.4-5-2.1-7.5
		l0.5-0.1c-0.3-1.3-0.6-2.5-0.9-3.8l-0.5,0.1c-0.6-2.6-1.2-5.1-1.7-7.6l0.5-0.1c-0.3-1.3-0.5-2.5-0.8-3.8l-0.5,0.1
		c-0.5-2.6-1-5.2-1.4-7.7l0.5-0.1c-0.2-1.3-0.4-2.6-0.6-3.9l-0.5,0.1c-0.4-2.6-0.8-5.2-1.1-7.7l0.5-0.1c-0.2-1.3-0.3-2.6-0.5-3.8
		l-0.5,0.1c-0.3-2.7-0.6-5.3-0.9-7.8l0.5,0c-0.1-1.3-0.2-2.6-0.4-3.9l-0.5,0c-0.2-2.7-0.4-5.3-0.6-7.8l0.5,0
		c-0.1-1.3-0.2-2.7-0.2-3.9l-0.5,0c-0.1-2.7-0.2-5.3-0.3-7.8l0.5,0c0-1.4-0.1-2.7-0.1-3.9l-0.5,0c0-2.9-0.1-5.5,0-7.8l0.5,0
		c0-0.6,0-1.3,0-1.9c0-1,0.2-1.9,0.4-2.8l-0.5-0.1c1-3.9,3.9-7,7.7-8.3l0.2,0.5c0.9-0.3,1.8-0.5,2.8-0.6h0c0.6-0.1,1.3-0.1,1.9-0.2
		l-0.1-0.5c2.6-0.3,5.1-0.6,7.7-1l0.1,0.5c1.3-0.2,2.6-0.4,3.8-0.6l-0.1-0.5c2.6-0.4,5.1-0.9,7.6-1.5l0.1,0.5
		c1.3-0.3,2.5-0.6,3.8-0.8l-0.1-0.5c2.5-0.6,5-1.2,7.5-1.9l0.1,0.5c1.3-0.3,2.5-0.7,3.7-1.1l-0.1-0.5c2.5-0.7,5-1.5,7.4-2.3l0.2,0.5
		c1.2-0.4,2.5-0.8,3.7-1.3l-0.2-0.5c2.5-0.9,4.9-1.8,7.2-2.7l0.2,0.5c1.2-0.5,2.4-1,3.6-1.4l-0.2-0.5c2.4-1,4.8-2,7.1-3.1l0.2,0.5
		c1.2-0.5,2.4-1.1,3.5-1.6l-0.2-0.5c2.4-1.1,4.7-2.3,7-3.4l0.2,0.4c1.2-0.6,2.3-1.2,3.4-1.8l-0.2-0.4c2.4-1.3,4.6-2.5,6.8-3.7
		l0.2,0.4c1.2-0.7,2.3-1.3,3.3-1.9l-0.3-0.4c2.4-1.4,4.6-2.7,6.6-4l0.3,0.4c1.1-0.7,2.2-1.4,3.3-2.1l-0.3-0.4
		c2.5-1.6,4.6-3.1,6.4-4.3l0.3,0.4c0.6-0.4,1.1-0.8,1.6-1.1l0,0c0.4-0.3,0.9-0.6,1.4-0.8l-0.2-0.5c2.1-0.9,4.6-0.9,6.7,0l-0.2,0.5
		c0.5,0.2,1,0.5,1.4,0.8l0,0c0.5,0.4,1,0.7,1.6,1.1l0.3-0.4c1.8,1.3,3.9,2.7,6.4,4.3l-0.3,0.4c1,0.7,2.1,1.4,3.3,2.1l0.3-0.4
		c2,1.3,4.2,2.6,6.6,4l-0.3,0.4c1.1,0.6,2.2,1.3,3.4,1.9l0.2-0.4c2.1,1.2,4.4,2.5,6.8,3.7l-0.2,0.4c1.1,0.6,2.3,1.2,3.4,1.8l0.2-0.4
		c2.2,1.1,4.6,2.3,7,3.4l-0.2,0.5c1.2,0.5,2.3,1.1,3.5,1.6l0.2-0.5c2.3,1,4.7,2.1,7.1,3.1l-0.2,0.5c1.2,0.5,2.4,1,3.6,1.4l0.2-0.5
		c2.4,0.9,4.8,1.8,7.3,2.7l-0.2,0.5c1.2,0.4,2.4,0.9,3.7,1.3l0.2-0.5c2.4,0.8,4.9,1.6,7.4,2.3l-0.1,0.5c1.2,0.4,2.5,0.7,3.7,1.1
		l0.1-0.5c2.5,0.7,5,1.3,7.5,1.9l-0.1,0.5c1.3,0.3,2.5,0.6,3.8,0.8l0.1-0.5c2.5,0.5,5,1,7.6,1.5l-0.1,0.5c1.3,0.2,2.5,0.4,3.8,0.6
		l0.1-0.5c2.5,0.4,5.1,0.7,7.7,1l-0.1,0.5c0.6,0.1,1.3,0.1,1.9,0.2h0c1,0.1,1.9,0.3,2.8,0.6l0.2-0.5c3.8,1.3,6.7,4.4,7.7,8.3
		l-0.5,0.1c0.2,0.9,0.4,1.8,0.4,2.8v0C681,401.8,681,402.4,681,403.1z"/>
</g>
<g class="st6">
	<path class="st3" d="M728.8,373.7l0.5,0c0,2.4,0,5.1,0,7.9l-0.5,0c0,1.3,0,2.6-0.1,4l0.5,0c0,2.5-0.1,5.2-0.2,7.9l-0.5,0
		c0,1.3-0.1,2.6-0.2,4l0.5,0c-0.1,2.6-0.2,5.2-0.4,7.9l-0.5,0c-0.1,1.3-0.2,2.6-0.3,3.9l0.5,0c-0.2,2.6-0.4,5.2-0.6,7.9l-0.5,0
		c-0.1,1.3-0.2,2.6-0.4,3.9l0.5,0c-0.2,2.6-0.5,5.2-0.8,7.9l-0.5-0.1c-0.1,1.3-0.3,2.6-0.5,4l0.5,0.1c-0.3,2.6-0.7,5.2-1,7.8
		l-0.5-0.1c-0.2,1.3-0.4,2.6-0.6,3.9l0.5,0.1c-0.4,2.6-0.8,5.2-1.2,7.8l-0.5-0.1c-0.2,1.3-0.4,2.6-0.7,3.9l0.5,0.1
		c-0.5,2.6-0.9,5.2-1.5,7.8l-0.5-0.1c-0.3,1.3-0.5,2.6-0.8,3.9l0.5,0.1c-0.5,2.6-1.1,5.2-1.7,7.8L718,476c-0.3,1.3-0.6,2.6-0.9,3.8
		l0.5,0.1c-0.6,2.6-1.3,5.1-1.9,7.7l-0.5-0.1c-0.3,1.3-0.7,2.5-1,3.8l0.5,0.1c-0.7,2.5-1.4,5.1-2.2,7.6L712,499
		c-0.4,1.3-0.8,2.5-1.1,3.8l0.5,0.1c-0.8,2.5-1.6,5-2.4,7.6l-0.5-0.2c-0.4,1.2-0.8,2.5-1.3,3.7l0.5,0.2c-0.9,2.5-1.8,5-2.7,7.5
		l-0.5-0.2c-0.5,1.2-0.9,2.5-1.4,3.7l0.5,0.2c-1,2.5-2,4.9-3,7.4l-0.5-0.2c-0.5,1.2-1,2.4-1.6,3.6l0.5,0.2c-1.1,2.4-2.2,4.8-3.3,7.2
		l-0.5-0.2c-0.6,1.2-1.1,2.4-1.7,3.6l0.4,0.2c-1.2,2.4-2.4,4.7-3.6,7.1l-0.4-0.2c-0.6,1.2-1.2,2.3-1.9,3.5l0.4,0.2
		c-1.3,2.3-2.6,4.6-3.9,6.9l-0.4-0.3c-0.7,1.1-1.4,2.3-2,3.4l0.4,0.3c-1.4,2.2-2.8,4.5-4.3,6.7l-0.4-0.3c-0.7,1.1-1.5,2.2-2.2,3.3
		l0.4,0.3c-1.5,2.2-3,4.3-4.6,6.4l-0.4-0.3c-0.8,1.1-1.6,2.1-2.4,3.1l0.4,0.3c-1.6,2.1-3.3,4.1-5,6.2l-0.4-0.3c-0.8,1-1.7,2-2.6,3
		l0.4,0.3c-1.7,2-3.5,4-5.3,5.9l-0.4-0.3c-0.9,1-1.8,1.9-2.7,2.8l0.4,0.4c-1.8,1.9-3.7,3.7-5.7,5.6l-0.3-0.4c-1,0.9-1.9,1.8-2.9,2.7
		l0.3,0.4c-2,1.8-4,3.5-6,5.2l-0.3-0.4c-1,0.8-2,1.7-3.1,2.5l0.3,0.4c-2.1,1.6-4.2,3.2-6.3,4.8l-0.3-0.4c-1.1,0.8-2.1,1.5-3.2,2.3
		l0.3,0.4c-2.2,1.5-4.3,3-6.6,4.4l-0.3-0.4c-1.1,0.7-2.2,1.4-3.4,2.1l0.3,0.4c-2.2,1.4-4.5,2.7-6.8,3.9l-0.2-0.4
		c-1.2,0.6-2.3,1.3-3.5,1.9l0.2,0.4c-2.3,1.2-4.7,2.4-7.1,3.5l-0.2-0.5c-1.2,0.6-2.4,1.1-3.6,1.7l0.2,0.5c-2.4,1.1-4.8,2.1-7.3,3.1
		l-0.2-0.5c-1.2,0.5-2.4,1-3.7,1.4l0.2,0.5c-2.5,0.9-5,1.8-7.5,2.7l-0.2-0.5c-1.2,0.4-2.5,0.8-3.7,1.2l0.1,0.5
		c-2.5,0.8-5.1,1.5-7.6,2.2l-0.1-0.5c-0.6,0.2-1.3,0.4-1.9,0.5c-0.5,0.1-0.9,0.2-1.4,0.3l0.1,0.5c-1.9,0.3-3.8,0.3-5.7,0l0.1-0.5
		c-0.5-0.1-0.9-0.2-1.4-0.3c-0.7-0.2-1.3-0.3-1.9-0.5l-0.1,0.5c-2.6-0.7-5.1-1.5-7.6-2.2l0.2-0.5c-1.3-0.4-2.5-0.8-3.7-1.2l-0.2,0.5
		c-2.5-0.9-5.1-1.7-7.5-2.7l0.2-0.5c-1.2-0.5-2.5-0.9-3.7-1.4l-0.2,0.5c-2.5-1-4.9-2-7.3-3.1l0.2-0.5c-1.2-0.5-2.4-1.1-3.6-1.7
		l-0.2,0.5c-2.4-1.1-4.8-2.3-7.1-3.5l0.2-0.4c-1.2-0.6-2.3-1.2-3.5-1.9l-0.2,0.4c-2.3-1.3-4.6-2.6-6.8-3.9l0.3-0.4
		c-1.1-0.7-2.3-1.4-3.4-2.1l-0.3,0.4c-2.2-1.4-4.4-2.9-6.6-4.4l0.3-0.4c-1.1-0.8-2.2-1.5-3.2-2.3l-0.3,0.4c-2.1-1.6-4.3-3.2-6.3-4.8
		l0.3-0.4c-1-0.8-2.1-1.7-3.1-2.5l-0.3,0.4c-2-1.7-4-3.4-6-5.2l0.3-0.4c-1-0.9-1.9-1.8-2.9-2.7l-0.3,0.4c-1.9-1.8-3.8-3.7-5.7-5.6
		l0.4-0.3c-0.9-0.9-1.8-1.9-2.7-2.8l-0.4,0.3c-1.8-1.9-3.6-3.9-5.3-5.9l0.4-0.3c-0.9-1-1.7-2-2.6-3l-0.4,0.3c-1.7-2-3.4-4.1-5-6.2
		l0.4-0.3c-0.8-1-1.6-2.1-2.4-3.1l-0.4,0.3c-1.6-2.1-3.1-4.3-4.6-6.4l0.4-0.3c-0.8-1.1-1.5-2.2-2.2-3.3l-0.4,0.3
		c-1.5-2.2-2.9-4.4-4.3-6.7l0.4-0.3c-0.7-1.1-1.4-2.2-2.1-3.4l-0.4,0.3c-1.4-2.3-2.7-4.6-3.9-6.9l0.4-0.2c-0.6-1.2-1.3-2.3-1.9-3.5
		l-0.4,0.2c-1.2-2.3-2.5-4.7-3.6-7.1l0.4-0.2c-0.6-1.2-1.2-2.4-1.7-3.6l-0.5,0.2c-1.1-2.4-2.2-4.8-3.3-7.2l0.5-0.2
		c-0.5-1.2-1.1-2.4-1.6-3.6l-0.5,0.2c-1-2.4-2-4.9-3-7.3l0.5-0.2c-0.5-1.2-1-2.5-1.4-3.7l-0.5,0.2c-0.9-2.5-1.8-5-2.7-7.5l0.5-0.2
		c-0.4-1.2-0.9-2.5-1.3-3.7l-0.5,0.2c-0.8-2.5-1.7-5-2.4-7.6l0.5-0.1c-0.4-1.3-0.8-2.5-1.1-3.8l-0.5,0.1c-0.8-2.6-1.5-5.1-2.2-7.6
		l0.5-0.1c-0.3-1.3-0.7-2.5-1-3.8l-0.5,0.1c-0.7-2.6-1.3-5.2-1.9-7.7l0.5-0.1c-0.3-1.3-0.6-2.6-0.9-3.8l-0.5,0.1
		c-0.6-2.6-1.2-5.2-1.7-7.8l0.5-0.1c-0.3-1.3-0.5-2.6-0.8-3.9l-0.5,0.1c-0.5-2.6-1-5.2-1.5-7.8l0.5-0.1c-0.2-1.3-0.5-2.6-0.7-3.9
		l-0.5,0.1c-0.4-2.6-0.8-5.3-1.2-7.8l0.5-0.1c-0.2-1.3-0.4-2.6-0.6-3.9l-0.5,0.1c-0.4-2.7-0.7-5.3-1-7.8l0.5-0.1
		c-0.2-1.3-0.3-2.7-0.5-4l-0.5,0.1c-0.3-2.7-0.6-5.3-0.8-7.9l0.5,0c-0.1-1.3-0.2-2.6-0.4-3.9l-0.5,0c-0.2-2.7-0.4-5.3-0.6-7.9l0.5,0
		c-0.1-1.3-0.2-2.6-0.3-3.9l-0.5,0c-0.2-2.7-0.3-5.4-0.4-7.9l0.5,0c-0.1-1.4-0.1-2.7-0.2-4l-0.5,0c-0.1-2.8-0.2-5.4-0.2-7.9l0.5,0
		c0-1.4,0-2.7-0.1-4l-0.5,0c0-2.9,0-5.5,0-7.9l0.5,0c0-0.6,0-1.3,0-1.9c0-0.7,0.1-1.3,0.2-2l-0.5-0.1c0.4-2.8,1.5-5.3,3.1-7.5
		l0.4,0.3c0.8-1.1,1.7-2,2.7-2.9l-0.3-0.4c2.1-1.7,4.5-2.9,7.3-3.5l0.1,0.5c0.6-0.1,1.3-0.2,2-0.3h0c0.7-0.1,1.4-0.1,2.1-0.2l0-0.5
		c2.8-0.3,5.5-0.6,8.2-1l0.1,0.5c1.4-0.2,2.7-0.4,4.1-0.6l-0.1-0.5c2.7-0.4,5.5-0.9,8.1-1.4l0.1,0.5c1.4-0.3,2.7-0.5,4.1-0.8
		l-0.1-0.5c2.7-0.5,5.4-1.1,8.1-1.8l0.1,0.5c1.3-0.3,2.7-0.6,4-1l-0.1-0.5c2.7-0.7,5.4-1.4,8-2.1l0.1,0.5c1.3-0.4,2.7-0.8,4-1.1
		l-0.1-0.5c2.7-0.8,5.3-1.6,7.9-2.5l0.2,0.5c1.3-0.4,2.6-0.9,3.9-1.3l-0.2-0.5c2.6-0.9,5.2-1.8,7.8-2.8l0.2,0.5
		c1.3-0.5,2.6-1,3.9-1.5l-0.2-0.5c2.6-1,5.2-2,7.7-3.1l0.2,0.5c1.3-0.5,2.6-1.1,3.8-1.6l-0.2-0.5c2.6-1.1,5.1-2.2,7.5-3.4l0.2,0.5
		c1.3-0.6,2.5-1.2,3.8-1.8l-0.2-0.5c2.5-1.2,5-2.4,7.4-3.6l0.2,0.4c1.2-0.6,2.5-1.3,3.7-1.9l-0.2-0.4c2.5-1.3,4.9-2.6,7.3-3.9
		l0.2,0.4c1.2-0.7,2.4-1.3,3.6-2l-0.2-0.4c2.5-1.4,4.9-2.8,7.1-4.1l0.3,0.4c1.2-0.7,2.4-1.4,3.5-2.1l-0.3-0.4c2.5-1.5,4.8-3,7-4.4
		l0.3,0.4c1.2-0.8,2.4-1.5,3.5-2.3l-0.3-0.4c2.6-1.7,4.9-3.3,6.8-4.7l0.3,0.4c0.6-0.4,1.1-0.8,1.7-1.2l0,0c0.6-0.5,1.3-0.8,2-1.1
		l-0.2-0.5c3-1.3,6.3-1.3,9.3,0l-0.2,0.5c0.7,0.3,1.4,0.7,2,1.1h0c0.5,0.4,1.1,0.8,1.7,1.2l0.3-0.4c2,1.4,4.2,2.9,6.8,4.7l-0.3,0.4
		c1.1,0.7,2.3,1.5,3.5,2.3l0.3-0.4c2.2,1.4,4.5,2.9,7,4.4l-0.3,0.4c1.1,0.7,2.3,1.4,3.5,2.1l0.3-0.4c2.3,1.3,4.7,2.7,7.1,4.1
		l-0.2,0.4c1.2,0.7,2.4,1.3,3.6,2l0.2-0.4c2.3,1.3,4.8,2.6,7.3,3.9l-0.2,0.4c1.2,0.6,2.4,1.3,3.7,1.9l0.2-0.4
		c2.4,1.2,4.9,2.4,7.4,3.6l-0.2,0.5c1.2,0.6,2.5,1.2,3.8,1.8l0.2-0.5c2.5,1.1,5,2.2,7.5,3.4l-0.2,0.5c1.3,0.5,2.5,1.1,3.8,1.6
		l0.2-0.5c2.5,1,5.1,2.1,7.7,3.1l-0.2,0.5c1.3,0.5,2.6,1,3.9,1.5l0.2-0.5c2.6,0.9,5.1,1.9,7.8,2.8l-0.2,0.5c1.3,0.4,2.6,0.9,3.9,1.3
		l0.2-0.5c2.6,0.8,5.2,1.7,7.9,2.5l-0.1,0.5c1.3,0.4,2.6,0.8,4,1.1l0.1-0.5c2.6,0.7,5.3,1.4,8,2.1l-0.1,0.5c1.3,0.3,2.7,0.7,4,1
		l0.1-0.5c2.7,0.6,5.4,1.2,8.1,1.8l-0.1,0.5c1.3,0.3,2.7,0.5,4.1,0.8l0.1-0.5c2.7,0.5,5.4,1,8.1,1.4l-0.1,0.5
		c1.4,0.2,2.7,0.4,4.1,0.6l0.1-0.5c2.7,0.4,5.4,0.7,8.2,1l-0.1,0.5c0.7,0.1,1.4,0.1,2.1,0.2h0c0.7,0.1,1.3,0.2,2,0.3l0.1-0.5
		c2.7,0.6,5.2,1.8,7.3,3.5l-0.3,0.4c1,0.8,1.9,1.8,2.7,2.9l0.4-0.3c1.6,2.2,2.7,4.7,3.1,7.5l-0.5,0.1c0.1,0.6,0.1,1.3,0.1,2l0,0
		C728.8,372.5,728.8,373.1,728.8,373.7z"/>
</g>
<g class="st5">
	<path class="st3" d="M681,403.1l0.5,0c0,2.3,0,5,0,7.8l-0.5,0c0,1.3-0.1,2.6-0.1,3.9l0.5,0c-0.1,2.4-0.2,5-0.3,7.8l-0.5,0
		c-0.1,1.3-0.1,2.6-0.2,3.9l0.5,0c-0.2,2.5-0.3,5.1-0.6,7.8l-0.5,0c-0.1,1.3-0.2,2.6-0.4,3.9l0.5,0c-0.2,2.5-0.5,5.1-0.9,7.8
		l-0.5-0.1c-0.2,1.3-0.3,2.5-0.5,3.8l0.5,0.1c-0.3,2.5-0.7,5.1-1.1,7.7l-0.5-0.1c-0.2,1.3-0.4,2.6-0.6,3.9l0.5,0.1
		c-0.4,2.5-0.9,5.1-1.4,7.7l-0.5-0.1c-0.3,1.3-0.5,2.5-0.8,3.8l0.5,0.1c-0.5,2.5-1.1,5.1-1.7,7.6l-0.5-0.1c-0.3,1.3-0.6,2.5-0.9,3.8
		l0.5,0.1c-0.6,2.5-1.3,5-2.1,7.5l-0.5-0.1c-0.4,1.2-0.7,2.5-1.1,3.7l0.5,0.1c-0.8,2.5-1.6,5-2.4,7.4l-0.5-0.2
		c-0.4,1.2-0.9,2.5-1.3,3.7l0.5,0.2c-0.9,2.4-1.8,4.9-2.8,7.3l-0.5-0.2c-0.5,1.2-1,2.4-1.5,3.6l0.5,0.2c-1,2.4-2.1,4.8-3.2,7.1
		l-0.5-0.2c-0.5,1.2-1.1,2.3-1.7,3.5l0.4,0.2c-1.2,2.3-2.4,4.6-3.6,6.9l-0.4-0.2c-0.6,1.1-1.3,2.3-1.9,3.4l0.4,0.2
		c-1.3,2.3-2.6,4.5-4.1,6.7l-0.4-0.3c-0.7,1.1-1.4,2.2-2.1,3.3l0.4,0.3c-1.4,2.2-3,4.3-4.5,6.4l-0.4-0.3c-0.8,1-1.6,2.1-2.4,3.1
		l0.4,0.3c-1.6,2-3.3,4.1-5,6l-0.4-0.3c-0.9,1-1.7,1.9-2.6,2.9l0.4,0.3c-1.8,1.9-3.6,3.8-5.4,5.6l-0.3-0.4c-0.9,0.9-1.9,1.8-2.8,2.7
		l0.3,0.4c-1.9,1.8-3.9,3.5-5.9,5.1l-0.3-0.4c-1,0.8-2,1.6-3,2.4l0.3,0.4c-2,1.6-4.2,3.1-6.3,4.6l-0.3-0.4c-1.1,0.7-2.1,1.4-3.2,2.2
		l0.3,0.4c-2.2,1.4-4.4,2.7-6.7,4l-0.2-0.4c-1.1,0.6-2.3,1.3-3.4,1.9l0.2,0.4c-2.3,1.2-4.6,2.4-7,3.5l-0.2-0.5
		c-1.2,0.5-2.4,1.1-3.6,1.6l0.2,0.5c-2.4,1-4.8,2-7.2,2.9l-0.2-0.5c-1.2,0.4-2.5,0.9-3.7,1.3l0.2,0.5c-2.4,0.8-4.9,1.6-7.5,2.3
		l-0.1-0.5c-0.6,0.2-1.3,0.3-1.9,0.5c-0.3,0.1-0.6,0.2-1,0.2l0.1,0.5c-1.4,0.2-2.8,0.2-4.1,0l0.1-0.5c-0.3-0.1-0.7-0.1-1-0.2
		c-0.6-0.2-1.3-0.3-1.9-0.5l-0.1,0.5c-2.5-0.7-5-1.5-7.5-2.3l0.2-0.5c-1.2-0.4-2.5-0.8-3.7-1.3l-0.2,0.5c-2.5-0.9-4.9-1.9-7.2-2.9
		l0.2-0.5c-1.2-0.5-2.4-1-3.6-1.6l-0.2,0.5c-2.4-1.1-4.7-2.3-7-3.5l0.2-0.4c-1.2-0.6-2.3-1.2-3.4-1.9l-0.2,0.4
		c-2.3-1.3-4.5-2.6-6.7-4l0.3-0.4c-1.1-0.7-2.2-1.4-3.2-2.2l-0.3,0.4c-2.2-1.5-4.3-3-6.3-4.6l0.3-0.4c-1-0.8-2-1.6-3-2.4l-0.3,0.4
		c-2-1.7-4-3.4-5.9-5.1l0.3-0.4c-1-0.9-1.9-1.8-2.8-2.7l-0.3,0.4c-1.9-1.8-3.7-3.7-5.4-5.6l0.4-0.3c-0.9-1-1.8-1.9-2.6-2.9l-0.4,0.3
		c-1.7-2-3.4-4-5-6l0.4-0.3c-0.8-1-1.6-2.1-2.4-3.1l-0.4,0.3c-1.6-2.1-3.1-4.2-4.5-6.4l0.4-0.3c-0.7-1.1-1.4-2.2-2.1-3.3l-0.4,0.3
		c-1.4-2.2-2.8-4.4-4.1-6.7l0.4-0.2c-0.6-1.1-1.3-2.3-1.9-3.4l-0.4,0.2c-1.3-2.3-2.5-4.6-3.6-6.9l0.4-0.2c-0.6-1.2-1.1-2.3-1.7-3.5
		l-0.5,0.2c-1.1-2.4-2.2-4.8-3.2-7.1l0.5-0.2c-0.5-1.2-1-2.4-1.5-3.6l-0.5,0.2c-1-2.4-1.9-4.9-2.8-7.3l0.5-0.2
		c-0.4-1.2-0.9-2.5-1.3-3.7l-0.5,0.2c-0.9-2.5-1.7-5-2.4-7.4l0.5-0.1c-0.4-1.2-0.8-2.5-1.1-3.7l-0.5,0.1c-0.7-2.5-1.4-5-2.1-7.5
		l0.5-0.1c-0.3-1.3-0.6-2.5-0.9-3.8l-0.5,0.1c-0.6-2.6-1.2-5.1-1.7-7.6l0.5-0.1c-0.3-1.3-0.5-2.5-0.8-3.8l-0.5,0.1
		c-0.5-2.6-1-5.2-1.4-7.7l0.5-0.1c-0.2-1.3-0.4-2.6-0.6-3.9l-0.5,0.1c-0.4-2.6-0.8-5.2-1.1-7.7l0.5-0.1c-0.2-1.3-0.3-2.6-0.5-3.8
		l-0.5,0.1c-0.3-2.7-0.6-5.3-0.9-7.8l0.5,0c-0.1-1.3-0.2-2.6-0.4-3.9l-0.5,0c-0.2-2.7-0.4-5.3-0.6-7.8l0.5,0
		c-0.1-1.3-0.2-2.7-0.2-3.9l-0.5,0c-0.1-2.7-0.2-5.3-0.3-7.8l0.5,0c0-1.4-0.1-2.7-0.1-3.9l-0.5,0c0-2.9-0.1-5.5,0-7.8l0.5,0
		c0-0.6,0-1.3,0-1.9c0-1,0.2-1.9,0.4-2.8l-0.5-0.1c1-3.9,3.9-7,7.7-8.3l0.2,0.5c0.9-0.3,1.8-0.5,2.8-0.6h0c0.6-0.1,1.3-0.1,1.9-0.2
		l-0.1-0.5c2.6-0.3,5.1-0.6,7.7-1l0.1,0.5c1.3-0.2,2.6-0.4,3.8-0.6l-0.1-0.5c2.6-0.4,5.1-0.9,7.6-1.5l0.1,0.5
		c1.3-0.3,2.5-0.6,3.8-0.8l-0.1-0.5c2.5-0.6,5-1.2,7.5-1.9l0.1,0.5c1.3-0.3,2.5-0.7,3.7-1.1l-0.1-0.5c2.5-0.7,5-1.5,7.4-2.3l0.2,0.5
		c1.2-0.4,2.5-0.8,3.7-1.3l-0.2-0.5c2.5-0.9,4.9-1.8,7.2-2.7l0.2,0.5c1.2-0.5,2.4-1,3.6-1.4l-0.2-0.5c2.4-1,4.8-2,7.1-3.1l0.2,0.5
		c1.2-0.5,2.4-1.1,3.5-1.6l-0.2-0.5c2.4-1.1,4.7-2.3,7-3.4l0.2,0.4c1.2-0.6,2.3-1.2,3.4-1.8l-0.2-0.4c2.4-1.3,4.6-2.5,6.8-3.7
		l0.2,0.4c1.2-0.7,2.3-1.3,3.3-1.9l-0.3-0.4c2.4-1.4,4.6-2.7,6.6-4l0.3,0.4c1.1-0.7,2.2-1.4,3.3-2.1l-0.3-0.4
		c2.5-1.6,4.6-3.1,6.4-4.3l0.3,0.4c0.6-0.4,1.1-0.8,1.6-1.1l0,0c0.4-0.3,0.9-0.6,1.4-0.8l-0.2-0.5c2.1-0.9,4.6-0.9,6.7,0l-0.2,0.5
		c0.5,0.2,1,0.5,1.4,0.8l0,0c0.5,0.4,1,0.7,1.6,1.1l0.3-0.4c1.8,1.3,3.9,2.7,6.4,4.3l-0.3,0.4c1,0.7,2.1,1.4,3.3,2.1l0.3-0.4
		c2,1.3,4.2,2.6,6.6,4l-0.3,0.4c1.1,0.6,2.2,1.3,3.4,1.9l0.2-0.4c2.1,1.2,4.4,2.5,6.8,3.7l-0.2,0.4c1.1,0.6,2.3,1.2,3.4,1.8l0.2-0.4
		c2.2,1.1,4.6,2.3,7,3.4l-0.2,0.5c1.2,0.5,2.3,1.1,3.5,1.6l0.2-0.5c2.3,1,4.7,2.1,7.1,3.1l-0.2,0.5c1.2,0.5,2.4,1,3.6,1.4l0.2-0.5
		c2.4,0.9,4.8,1.8,7.3,2.7l-0.2,0.5c1.2,0.4,2.4,0.9,3.7,1.3l0.2-0.5c2.4,0.8,4.9,1.6,7.4,2.3l-0.1,0.5c1.2,0.4,2.5,0.7,3.7,1.1
		l0.1-0.5c2.5,0.7,5,1.3,7.5,1.9l-0.1,0.5c1.3,0.3,2.5,0.6,3.8,0.8l0.1-0.5c2.5,0.5,5,1,7.6,1.5l-0.1,0.5c1.3,0.2,2.5,0.4,3.8,0.6
		l0.1-0.5c2.5,0.4,5.1,0.7,7.7,1l-0.1,0.5c0.6,0.1,1.3,0.1,1.9,0.2h0c1,0.1,1.9,0.3,2.8,0.6l0.2-0.5c3.8,1.3,6.7,4.4,7.7,8.3
		l-0.5,0.1c0.2,0.9,0.4,1.8,0.4,2.8v0C681,401.8,681,402.4,681,403.1z"/>
</g>
<g class="st6">
	<path class="st3" d="M728.8,373.7l0.5,0c0,2.4,0,5.1,0,7.9l-0.5,0c0,1.3,0,2.6-0.1,4l0.5,0c0,2.5-0.1,5.2-0.2,7.9l-0.5,0
		c0,1.3-0.1,2.6-0.2,4l0.5,0c-0.1,2.6-0.2,5.2-0.4,7.9l-0.5,0c-0.1,1.3-0.2,2.6-0.3,3.9l0.5,0c-0.2,2.6-0.4,5.2-0.6,7.9l-0.5,0
		c-0.1,1.3-0.2,2.6-0.4,3.9l0.5,0c-0.2,2.6-0.5,5.2-0.8,7.9l-0.5-0.1c-0.1,1.3-0.3,2.6-0.5,4l0.5,0.1c-0.3,2.6-0.7,5.2-1,7.8
		l-0.5-0.1c-0.2,1.3-0.4,2.6-0.6,3.9l0.5,0.1c-0.4,2.6-0.8,5.2-1.2,7.8l-0.5-0.1c-0.2,1.3-0.4,2.6-0.7,3.9l0.5,0.1
		c-0.5,2.6-0.9,5.2-1.5,7.8l-0.5-0.1c-0.3,1.3-0.5,2.6-0.8,3.9l0.5,0.1c-0.5,2.6-1.1,5.2-1.7,7.8L718,476c-0.3,1.3-0.6,2.6-0.9,3.8
		l0.5,0.1c-0.6,2.6-1.3,5.1-1.9,7.7l-0.5-0.1c-0.3,1.3-0.7,2.5-1,3.8l0.5,0.1c-0.7,2.5-1.4,5.1-2.2,7.6L712,499
		c-0.4,1.3-0.8,2.5-1.1,3.8l0.5,0.1c-0.8,2.5-1.6,5-2.4,7.6l-0.5-0.2c-0.4,1.2-0.8,2.5-1.3,3.7l0.5,0.2c-0.9,2.5-1.8,5-2.7,7.5
		l-0.5-0.2c-0.5,1.2-0.9,2.5-1.4,3.7l0.5,0.2c-1,2.5-2,4.9-3,7.4l-0.5-0.2c-0.5,1.2-1,2.4-1.6,3.6l0.5,0.2c-1.1,2.4-2.2,4.8-3.3,7.2
		l-0.5-0.2c-0.6,1.2-1.1,2.4-1.7,3.6l0.4,0.2c-1.2,2.4-2.4,4.7-3.6,7.1l-0.4-0.2c-0.6,1.2-1.2,2.3-1.9,3.5l0.4,0.2
		c-1.3,2.3-2.6,4.6-3.9,6.9l-0.4-0.3c-0.7,1.1-1.4,2.3-2,3.4l0.4,0.3c-1.4,2.2-2.8,4.5-4.3,6.7l-0.4-0.3c-0.7,1.1-1.5,2.2-2.2,3.3
		l0.4,0.3c-1.5,2.2-3,4.3-4.6,6.4l-0.4-0.3c-0.8,1.1-1.6,2.1-2.4,3.1l0.4,0.3c-1.6,2.1-3.3,4.1-5,6.2l-0.4-0.3c-0.8,1-1.7,2-2.6,3
		l0.4,0.3c-1.7,2-3.5,4-5.3,5.9l-0.4-0.3c-0.9,1-1.8,1.9-2.7,2.8l0.4,0.4c-1.8,1.9-3.7,3.7-5.7,5.6l-0.3-0.4c-1,0.9-1.9,1.8-2.9,2.7
		l0.3,0.4c-2,1.8-4,3.5-6,5.2l-0.3-0.4c-1,0.8-2,1.7-3.1,2.5l0.3,0.4c-2.1,1.6-4.2,3.2-6.3,4.8l-0.3-0.4c-1.1,0.8-2.1,1.5-3.2,2.3
		l0.3,0.4c-2.2,1.5-4.3,3-6.6,4.4l-0.3-0.4c-1.1,0.7-2.2,1.4-3.4,2.1l0.3,0.4c-2.2,1.4-4.5,2.7-6.8,3.9l-0.2-0.4
		c-1.2,0.6-2.3,1.3-3.5,1.9l0.2,0.4c-2.3,1.2-4.7,2.4-7.1,3.5l-0.2-0.5c-1.2,0.6-2.4,1.1-3.6,1.7l0.2,0.5c-2.4,1.1-4.8,2.1-7.3,3.1
		l-0.2-0.5c-1.2,0.5-2.4,1-3.7,1.4l0.2,0.5c-2.5,0.9-5,1.8-7.5,2.7l-0.2-0.5c-1.2,0.4-2.5,0.8-3.7,1.2l0.1,0.5
		c-2.5,0.8-5.1,1.5-7.6,2.2l-0.1-0.5c-0.6,0.2-1.3,0.4-1.9,0.5c-0.5,0.1-0.9,0.2-1.4,0.3l0.1,0.5c-1.9,0.3-3.8,0.3-5.7,0l0.1-0.5
		c-0.5-0.1-0.9-0.2-1.4-0.3c-0.7-0.2-1.3-0.3-1.9-0.5l-0.1,0.5c-2.6-0.7-5.1-1.5-7.6-2.2l0.2-0.5c-1.3-0.4-2.5-0.8-3.7-1.2l-0.2,0.5
		c-2.5-0.9-5.1-1.7-7.5-2.7l0.2-0.5c-1.2-0.5-2.5-0.9-3.7-1.4l-0.2,0.5c-2.5-1-4.9-2-7.3-3.1l0.2-0.5c-1.2-0.5-2.4-1.1-3.6-1.7
		l-0.2,0.5c-2.4-1.1-4.8-2.3-7.1-3.5l0.2-0.4c-1.2-0.6-2.3-1.2-3.5-1.9l-0.2,0.4c-2.3-1.3-4.6-2.6-6.8-3.9l0.3-0.4
		c-1.1-0.7-2.3-1.4-3.4-2.1l-0.3,0.4c-2.2-1.4-4.4-2.9-6.6-4.4l0.3-0.4c-1.1-0.8-2.2-1.5-3.2-2.3l-0.3,0.4c-2.1-1.6-4.3-3.2-6.3-4.8
		l0.3-0.4c-1-0.8-2.1-1.7-3.1-2.5l-0.3,0.4c-2-1.7-4-3.4-6-5.2l0.3-0.4c-1-0.9-1.9-1.8-2.9-2.7l-0.3,0.4c-1.9-1.8-3.8-3.7-5.7-5.6
		l0.4-0.3c-0.9-0.9-1.8-1.9-2.7-2.8l-0.4,0.3c-1.8-1.9-3.6-3.9-5.3-5.9l0.4-0.3c-0.9-1-1.7-2-2.6-3l-0.4,0.3c-1.7-2-3.4-4.1-5-6.2
		l0.4-0.3c-0.8-1-1.6-2.1-2.4-3.1l-0.4,0.3c-1.6-2.1-3.1-4.3-4.6-6.4l0.4-0.3c-0.8-1.1-1.5-2.2-2.2-3.3l-0.4,0.3
		c-1.5-2.2-2.9-4.4-4.3-6.7l0.4-0.3c-0.7-1.1-1.4-2.2-2.1-3.4l-0.4,0.3c-1.4-2.3-2.7-4.6-3.9-6.9l0.4-0.2c-0.6-1.2-1.3-2.3-1.9-3.5
		l-0.4,0.2c-1.2-2.3-2.5-4.7-3.6-7.1l0.4-0.2c-0.6-1.2-1.2-2.4-1.7-3.6l-0.5,0.2c-1.1-2.4-2.2-4.8-3.3-7.2l0.5-0.2
		c-0.5-1.2-1.1-2.4-1.6-3.6l-0.5,0.2c-1-2.4-2-4.9-3-7.3l0.5-0.2c-0.5-1.2-1-2.5-1.4-3.7l-0.5,0.2c-0.9-2.5-1.8-5-2.7-7.5l0.5-0.2
		c-0.4-1.2-0.9-2.5-1.3-3.7l-0.5,0.2c-0.8-2.5-1.7-5-2.4-7.6l0.5-0.1c-0.4-1.3-0.8-2.5-1.1-3.8l-0.5,0.1c-0.8-2.6-1.5-5.1-2.2-7.6
		l0.5-0.1c-0.3-1.3-0.7-2.5-1-3.8l-0.5,0.1c-0.7-2.6-1.3-5.2-1.9-7.7l0.5-0.1c-0.3-1.3-0.6-2.6-0.9-3.8l-0.5,0.1
		c-0.6-2.6-1.2-5.2-1.7-7.8l0.5-0.1c-0.3-1.3-0.5-2.6-0.8-3.9l-0.5,0.1c-0.5-2.6-1-5.2-1.5-7.8l0.5-0.1c-0.2-1.3-0.5-2.6-0.7-3.9
		l-0.5,0.1c-0.4-2.6-0.8-5.3-1.2-7.8l0.5-0.1c-0.2-1.3-0.4-2.6-0.6-3.9l-0.5,0.1c-0.4-2.7-0.7-5.3-1-7.8l0.5-0.1
		c-0.2-1.3-0.3-2.7-0.5-4l-0.5,0.1c-0.3-2.7-0.6-5.3-0.8-7.9l0.5,0c-0.1-1.3-0.2-2.6-0.4-3.9l-0.5,0c-0.2-2.7-0.4-5.3-0.6-7.9l0.5,0
		c-0.1-1.3-0.2-2.6-0.3-3.9l-0.5,0c-0.2-2.7-0.3-5.4-0.4-7.9l0.5,0c-0.1-1.4-0.1-2.7-0.2-4l-0.5,0c-0.1-2.8-0.2-5.4-0.2-7.9l0.5,0
		c0-1.4,0-2.7-0.1-4l-0.5,0c0-2.9,0-5.5,0-7.9l0.5,0c0-0.6,0-1.3,0-1.9c0-0.7,0.1-1.3,0.2-2l-0.5-0.1c0.4-2.8,1.5-5.3,3.1-7.5
		l0.4,0.3c0.8-1.1,1.7-2,2.7-2.9l-0.3-0.4c2.1-1.7,4.5-2.9,7.3-3.5l0.1,0.5c0.6-0.1,1.3-0.2,2-0.3h0c0.7-0.1,1.4-0.1,2.1-0.2l0-0.5
		c2.8-0.3,5.5-0.6,8.2-1l0.1,0.5c1.4-0.2,2.7-0.4,4.1-0.6l-0.1-0.5c2.7-0.4,5.5-0.9,8.1-1.4l0.1,0.5c1.4-0.3,2.7-0.5,4.1-0.8
		l-0.1-0.5c2.7-0.5,5.4-1.1,8.1-1.8l0.1,0.5c1.3-0.3,2.7-0.6,4-1l-0.1-0.5c2.7-0.7,5.4-1.4,8-2.1l0.1,0.5c1.3-0.4,2.7-0.8,4-1.1
		l-0.1-0.5c2.7-0.8,5.3-1.6,7.9-2.5l0.2,0.5c1.3-0.4,2.6-0.9,3.9-1.3l-0.2-0.5c2.6-0.9,5.2-1.8,7.8-2.8l0.2,0.5
		c1.3-0.5,2.6-1,3.9-1.5l-0.2-0.5c2.6-1,5.2-2,7.7-3.1l0.2,0.5c1.3-0.5,2.6-1.1,3.8-1.6l-0.2-0.5c2.6-1.1,5.1-2.2,7.5-3.4l0.2,0.5
		c1.3-0.6,2.5-1.2,3.8-1.8l-0.2-0.5c2.5-1.2,5-2.4,7.4-3.6l0.2,0.4c1.2-0.6,2.5-1.3,3.7-1.9l-0.2-0.4c2.5-1.3,4.9-2.6,7.3-3.9
		l0.2,0.4c1.2-0.7,2.4-1.3,3.6-2l-0.2-0.4c2.5-1.4,4.9-2.8,7.1-4.1l0.3,0.4c1.2-0.7,2.4-1.4,3.5-2.1l-0.3-0.4c2.5-1.5,4.8-3,7-4.4
		l0.3,0.4c1.2-0.8,2.4-1.5,3.5-2.3l-0.3-0.4c2.6-1.7,4.9-3.3,6.8-4.7l0.3,0.4c0.6-0.4,1.1-0.8,1.7-1.2l0,0c0.6-0.5,1.3-0.8,2-1.1
		l-0.2-0.5c3-1.3,6.3-1.3,9.3,0l-0.2,0.5c0.7,0.3,1.4,0.7,2,1.1h0c0.5,0.4,1.1,0.8,1.7,1.2l0.3-0.4c2,1.4,4.2,2.9,6.8,4.7l-0.3,0.4
		c1.1,0.7,2.3,1.5,3.5,2.3l0.3-0.4c2.2,1.4,4.5,2.9,7,4.4l-0.3,0.4c1.1,0.7,2.3,1.4,3.5,2.1l0.3-0.4c2.3,1.3,4.7,2.7,7.1,4.1
		l-0.2,0.4c1.2,0.7,2.4,1.3,3.6,2l0.2-0.4c2.3,1.3,4.8,2.6,7.3,3.9l-0.2,0.4c1.2,0.6,2.4,1.3,3.7,1.9l0.2-0.4
		c2.4,1.2,4.9,2.4,7.4,3.6l-0.2,0.5c1.2,0.6,2.5,1.2,3.8,1.8l0.2-0.5c2.5,1.1,5,2.2,7.5,3.4l-0.2,0.5c1.3,0.5,2.5,1.1,3.8,1.6
		l0.2-0.5c2.5,1,5.1,2.1,7.7,3.1l-0.2,0.5c1.3,0.5,2.6,1,3.9,1.5l0.2-0.5c2.6,0.9,5.1,1.9,7.8,2.8l-0.2,0.5c1.3,0.4,2.6,0.9,3.9,1.3
		l0.2-0.5c2.6,0.8,5.2,1.7,7.9,2.5l-0.1,0.5c1.3,0.4,2.6,0.8,4,1.1l0.1-0.5c2.6,0.7,5.3,1.4,8,2.1l-0.1,0.5c1.3,0.3,2.7,0.7,4,1
		l0.1-0.5c2.7,0.6,5.4,1.2,8.1,1.8l-0.1,0.5c1.3,0.3,2.7,0.5,4.1,0.8l0.1-0.5c2.7,0.5,5.4,1,8.1,1.4l-0.1,0.5
		c1.4,0.2,2.7,0.4,4.1,0.6l0.1-0.5c2.7,0.4,5.4,0.7,8.2,1l-0.1,0.5c0.7,0.1,1.4,0.1,2.1,0.2h0c0.7,0.1,1.3,0.2,2,0.3l0.1-0.5
		c2.7,0.6,5.2,1.8,7.3,3.5l-0.3,0.4c1,0.8,1.9,1.8,2.7,2.9l0.4-0.3c1.6,2.2,2.7,4.7,3.1,7.5l-0.5,0.1c0.1,0.6,0.1,1.3,0.1,2l0,0
		C728.8,372.5,728.8,373.1,728.8,373.7z"/>
</g>
</svg>
